;TYPE=PLATED
;Layer: PTH_Through
;EasyEDA Pro Client v2.1.49.573a4102.674264, 2024-03-06 21:11:34
;Gerber Generator version 0.3
M48
METRIC,LZ,000.00000
;Hole size 1 = 0.30000 METRIC
T01C0.30000
;Hole size 2 = 0.30500 METRIC
T02C0.30500
;Hole size 3 = 0.32000 METRIC
T03C0.32000
;Hole size 4 = 0.35000 METRIC
T04C0.35000
;Hole size 5 = 0.40500 METRIC
T05C0.40500
;Hole size 6 = 0.41000 METRIC
T06C0.41000
;Hole size 7 = 0.46000 METRIC
T07C0.46000
;Hole size 8 = 0.50000 METRIC
T08C0.50000
;Hole size 9 = 0.60000 METRIC
T09C0.60000
;Hole size 10 = 0.60500 METRIC
T10C0.60500
;Hole size 11 = 0.70002 METRIC
T11C0.70002
;Hole size 12 = 1.00000 METRIC
T12C1.00000
%
G05
G90
T01
X05842000Y00355600
X05981894Y00335568
X05295900Y00762000
T02
X04864100Y03492500
X04826000Y02895600
X04749800Y03238500
X04737100Y03543300
X02832100Y01333500
X03949700Y01663700
X03073400Y04267200
X04699000Y00685800
X02552700Y00152400
X03035306Y00139700
X05778500Y01092200
X05715000Y00800100
X03911967Y00116910
X05295900Y02768600
X02781300Y00711200
X07086600Y00596900
X06057900Y03149600
X06921500Y00596900
X05969000Y03149600
X05702300Y03149600
X05753100Y02997200
X06832600Y00596900
X06794500Y03009900
X06794500Y03136900
X06032500Y02971800
X08102600Y04533900
X06883400Y03136900
X06413500Y00241300
X05956300Y02933700
X05295900Y02209800
X04749800Y01397000
X05295900Y02101016
X04775200Y01320800
X05308600Y01993900
X04660900Y01270000
X07442200Y02146300
X07861300Y00736600
X08407400Y01079500
X07442200Y01804760
X06781800Y00660400
X05702300Y01612900
X07569200Y00850900
X05689600Y01485900
X05930900Y01549400
X04800600Y01841500
X07239000Y00914400
X06121400Y01676400
X06515100Y01117600
X06591300Y01117600
X05664200Y02501900
X06654800Y01206500
X07226300Y01384300
X06794500Y02590800
X06807200Y02870200
X06680200Y02806700
X06680200Y03187700
X05511800Y00850900
X06299200Y00736600
X06807200Y01193800
X05943600Y00165100
X06578600Y00546100
X06807200Y03505200
X07124700Y03454400
X07340153Y01332855
X06731000Y01574800
X06756400Y01130300
X07150100Y01130300
X06972300Y01206500
X05105400Y01676400
X05689600Y01803400
X06972300Y02044700
X06794500Y02070100
X06299200Y01143000
X06070600Y01917700
X06540500Y02882900
X06388100Y02794000
X06553200Y03187700
X06565900Y03657600
X06565900Y01739900
X05130800Y02870200
X07454900Y02616200
X07327900Y03619500
X06197600Y03644900
X06197600Y03187700
X05842000Y02870200
X05842000Y02707846
X05842000Y02159000
X05295900Y01854200
X05638800Y01968500
X05638800Y02311400
X04838700Y01955800
X07518400Y02984500
X06819900Y04775200
X07175500Y04495800
X07480300Y01524000
X07505700Y02514600
X07658100Y01765300
X07937500Y01346200
X07823200Y01993900
X07721600Y01651000
X07721600Y01511300
X06972300Y00850900
X06350000Y01968500
X03644900Y01384300
X05486400Y00584200
X05346700Y00825500
X04292600Y00215900
X08318500Y00469900
X05014098Y04464050
X03848100Y00685800
X03657600Y00457200
X03111500Y04851400
X04572000Y00152400
X05279326Y00546100
X05308600Y00292100
X08331200Y01041400
X04711700Y03035300
X04686300Y02400300
X04826000Y02362200
X04406900Y01955800
X05676900Y02730500
X05778500Y02654300
X05270500Y01562449
X05080000Y01587500
X06388100Y01676400
X06197600Y01778000
X05105400Y01371600
X05080000Y01181100
X05600700Y03505200
X06083300Y03556000
X05600700Y03390900
X06108700Y03479800
X05702300Y03619500
X05803900Y00609600
X06972300Y00127000
X06299200Y00571500
X06286500Y00914400
X05257800Y02387600
X06667500Y01130300
X06972300Y01127775
X05689600Y02870200
X05778500Y02755900
X05626100Y02984500
X06121400Y00609600
X04686300Y03352800
X04406900Y03683000
X05448300Y00901700
X04749800Y00584200
X05130800Y00939800
X05384800Y00452097
X04660900Y00558800
X04089400Y04140200
X07467600Y00215900
X03683000Y00965200
X05156200Y01181100
X05384800Y01219200
X02247900Y03962400
X03238500Y01955800
X03086100Y01409700
X03695700Y01765300
X03340100Y01689100
X03365500Y03873500
X04343400Y03454400
X03848100Y03708400
X03771900Y03225800
X05397500Y03657600
X04508500Y03111500
X04533900Y02984500
X04330700Y03238500
X04330700Y03086100
X03848100Y03556000
X03556000Y03556000
X03606800Y03454400
X03848100Y03441700
X06578600Y00635000
X07366000Y01172841
X04660720Y01732226
X04356100Y02844800
X04561403Y02808946
T03
X06350000Y00088900
X07073900Y00139700
X08153400Y02717800
T04
X07696200Y00520700
T05
X05626100Y04165600
X04178300Y00685800
X05435600Y01003300
X05676900Y01397000
X05829300Y01663700
X05664200Y00927100
X05283200Y01689100
T06
X06680200Y00838200
T07
X06540500Y00203200
T08
X02527300Y04495800
X03594100Y00812800
T09
X06819900Y00190500
T10
X06680200Y03835400
X02082800Y00368300
X02082800Y00368300
T11
X06204494Y00165171G85X06204494Y00125174
X05479496Y00165171G85X05479496Y00125174
X05599496Y00412179
X06084494Y00412206
T12
X07861300Y02324100
X07861300Y02578100
M30