G04 Layer: BottomSilkscreenLayer*
G04 EasyEDA Pro v2.1.49.573a4102.674264, 2024-03-06 21:11:32*
G04 Gerber Generator version 0.3*
G04 Scale: 100 percent, Rotated: No, Reflected: No*
G04 Dimensions in millimeters*
G04 Leading zeros omitted, absolute positions, 3 integers and 5 decimals*
G04 Panelize: V-CUT, Column: 2, Row: 2, Board Size: 105.286mm x 50.038mm, Panelized Board Size: 174.323mm x 101.42mm, Panelized Method: Only Board Outline*
%FSLAX35Y35*%
%MOMM*%
%ADD10C,0.15*%
%ADD11C,0.1524*%
%ADD12C,0.254*%
G75*


G04 Image Start*
G36*
G01X8054289Y4457598D02*
G01X8011363Y4457243D01*
G01X7990332Y4456278D01*
G01X7957414Y4452671D01*
G01X7911389Y4444543D01*
G01X7946847D01*
G01X7946949Y4445660D01*
G01X7947711Y4445813D01*
G01X7950606Y4446270D01*
G01X7990332Y4450791D01*
G01X7991399Y4450893D01*
G01X8019237Y4451909D01*
G01X8056270Y4452112D01*
G01X8067650Y4451502D01*
G01X8104327Y4448048D01*
G01X8123682Y4445305D01*
G01X8166760Y4436567D01*
G01X8175447Y4434332D01*
G01X8185201Y4431538D01*
G01X8205826Y4425340D01*
G01X8216951Y4421480D01*
G01X8227212Y4417720D01*
G01X8228635Y4417212D01*
G01X8254086Y4406951D01*
G01X8255711Y4406240D01*
G01X8278774Y4395724D01*
G01X8301330Y4383938D01*
G01X8324850Y4370070D01*
G01X8347761Y4354932D01*
G01X8369910Y4338625D01*
G01X8392668Y4319930D01*
G01X8414410Y4300118D01*
G01X8435137Y4279138D01*
G01X8454695Y4257192D01*
G01X8473034Y4234282D01*
G01X8490102Y4210507D01*
G01X8504885Y4187495D01*
G01X8518347Y4163924D01*
G01X8530539Y4139743D01*
G01X8540648Y4116832D01*
G01X8549538Y4093515D01*
G01X8556600Y4071569D01*
G01X8558428Y4065626D01*
G01X8558682Y4064914D01*
G01X8562289Y4051402D01*
G01X8566963Y4032707D01*
G01X8570062Y4018178D01*
G01X8572398Y4004767D01*
G01X8577123Y3970426D01*
G01X8578901Y3949344D01*
G01X8579206Y3938524D01*
G01X8579002Y3931412D01*
G01X8577936Y3930396D01*
G01X8576970Y3932580D01*
G01X8576920Y3933292D01*
G01X8576818Y3934104D01*
G01X8576361Y3936136D01*
G01X8575700Y3938524D01*
G01X8573618Y3944417D01*
G01X8570062Y3953154D01*
G01X8563813Y3966464D01*
G01X8558022Y3977234D01*
G01X8554314Y3983330D01*
G01X8551215Y3988003D01*
G01X8544408Y3997198D01*
G01X8535924Y4007510D01*
G01X8526628Y4017620D01*
G01X8515350Y4028694D01*
G01X8501837Y4040581D01*
G01X8487207Y4052164D01*
G01X8470138Y4064305D01*
G01X8450377Y4076903D01*
G01X8429396Y4088841D01*
G01X8405571Y4100779D01*
G01X8380628Y4111701D01*
G01X8372805Y4114952D01*
G01X8366557Y4117442D01*
G01X8345424Y4125265D01*
G01X8334705Y4128872D01*
G01X8309305Y4137000D01*
G01X8280248Y4145026D01*
G01X8234375Y4155389D01*
G01X8218932Y4158691D01*
G01X8216494Y4159555D01*
G01X8214868Y4160469D01*
G01X8213801Y4161638D01*
G01X8212988Y4163162D01*
G01X8212023Y4165143D01*
G01X8192719Y4203548D01*
G01X8170520Y4242613D01*
G01X8148218Y4277512D01*
G01X8126324Y4308246D01*
G01X8105242Y4334764D01*
G01X8086750Y4355795D01*
G01X8069580Y4373372D01*
G01X8053883Y4387799D01*
G01X8041081Y4398366D01*
G01X8039710Y4399483D01*
G01X8026044Y4409542D01*
G01X8014157Y4417416D01*
G01X8003692Y4423512D01*
G01X7994599Y4428236D01*
G01X7985455Y4432402D01*
G01X7976210Y4436008D01*
G01X7966812Y4439158D01*
G01X7955686Y4442155D01*
G01X7946847Y4444543D01*
G01X7911389D01*
G01X7910220Y4444340D01*
G01X7908595Y4443984D01*
G01X7897622Y4441546D01*
G01X7884312Y4437736D01*
G01X7869174Y4433113D01*
G01X7855407Y4428744D01*
G01X7830210Y4419651D01*
G01X7803693Y4408475D01*
G01X7777886Y4395978D01*
G01X7752791Y4382110D01*
G01X7728509Y4367022D01*
G01X7705039Y4350715D01*
G01X7682484Y4333189D01*
G01X7660843Y4314596D01*
G01X7640218Y4294886D01*
G01X7620660Y4274210D01*
G01X7602169Y4252519D01*
G01X7584846Y4229913D01*
G01X7568692Y4206443D01*
G01X7553757Y4182110D01*
G01X7540142Y4157066D01*
G01X7527900Y4131208D01*
G01X7517740Y4106672D01*
G01X7508850Y4081526D01*
G01X7508443Y4080205D01*
G01X7500010Y4051910D01*
G01X7493914Y4026713D01*
G01X7489444Y4002735D01*
G01X7485990Y3977030D01*
G01X7483704Y3948836D01*
G01X7483653Y3947922D01*
G01X7489800D01*
G01Y3949040D01*
G01X7490054Y3956456D01*
G01X7491374Y3973728D01*
G01X7494321Y3997096D01*
G01X7498639Y4020769D01*
G01X7504735Y4046626D01*
G01X7512253Y4072534D01*
G01X7521956Y4100322D01*
G01X7533183Y4127856D01*
G01X7545883Y4154881D01*
G01X7560056Y4181297D01*
G01X7574432Y4205021D01*
G01X7575906Y4207307D01*
G01X7589926Y4227728D01*
G01X7605878Y4248607D01*
G01X7622997Y4268724D01*
G01X7642200Y4289095D01*
G01X7662469Y4308500D01*
G01X7683856Y4326941D01*
G01X7706157Y4344314D01*
G01X7729322Y4360570D01*
G01X7753350Y4375658D01*
G01X7778039Y4389476D01*
G01X7803388Y4402023D01*
G01X7828026Y4412691D01*
G01X7853070Y4422038D01*
G01X7854848Y4422648D01*
G01X7858760Y4423918D01*
G01X7859573Y4424121D01*
G01X7859878Y4424172D01*
G01X7860335D01*
G01X7860487Y4424121D01*
G01X7860538Y4424020D01*
G01Y4423867D01*
G01X7860487Y4423715D01*
G01X7860386Y4423512D01*
G01X7860182Y4423207D01*
G01X7859624Y4422597D01*
G01X7858811Y4421734D01*
G01X7852004Y4415384D01*
G01X7849819Y4413402D01*
G01X7843622Y4407205D01*
G01X7837729Y4400702D01*
G01X7832141Y4393895D01*
G01X7826908Y4386682D01*
G01X7821930Y4379062D01*
G01X7816698Y4370019D01*
G01X7811719Y4360367D01*
G01X7806588Y4348988D01*
G01X7800899Y4334358D01*
G01X7794295Y4314393D01*
G01X7786573Y4286199D01*
G01X7786370Y4285336D01*
G01X7783424Y4270654D01*
G01X7778902Y4241698D01*
G01X7776261Y4217772D01*
G01X7773162Y4161028D01*
G01X7772857Y4152900D01*
G01X7779918D01*
G01X7780071Y4180230D01*
G01X7781239Y4205935D01*
G01X7781900Y4214063D01*
G01X7785608Y4247337D01*
G01X7789469Y4270553D01*
G01X7793939Y4291178D01*
G01X7800492Y4315054D01*
G01X7804709Y4328363D01*
G01X7809738Y4341419D01*
G01X7815732Y4355033D01*
G01X7821422Y4366260D01*
G01X7826604Y4375353D01*
G01X7832090Y4383837D01*
G01X7837830Y4391762D01*
G01X7843012Y4398112D01*
G01X7848397Y4404004D01*
G01X7853985Y4409542D01*
G01X7857033Y4412336D01*
G01X7863129Y4417365D01*
G01X7867650Y4420768D01*
G01X7872273Y4423816D01*
G01X7876997Y4426610D01*
G01X7881874Y4429100D01*
G01X7886954Y4431335D01*
G01X7892288Y4433367D01*
G01X7899959Y4435754D01*
G01X7908239Y4437888D01*
G01X7912252Y4438548D01*
G01X7917180Y4439056D01*
G01X7925816Y4439412D01*
G01X7937805Y4439260D01*
G01X7945679Y4438599D01*
G01X7949794Y4437888D01*
G01X7951572Y4437532D01*
G01X7963154Y4434586D01*
G01X7972298Y4431690D01*
G01X7979664Y4428896D01*
G01X7988503Y4424985D01*
G01X7999374Y4419448D01*
G01X8009179Y4413809D01*
G01X8023454Y4404614D01*
G01X8030108Y4399686D01*
G01X8031886Y4398010D01*
G01X8032039Y4397197D01*
G01X8032445Y4388002D01*
G01X8032191Y4185971D01*
G01X8031886Y4178960D01*
G01X8039049D01*
G01X8039354Y4324452D01*
G01X8040522Y4389831D01*
G01X8040675Y4391203D01*
G01X8040776Y4391152D01*
G01X8041030Y4391050D01*
G01X8041284Y4390847D01*
G01X8042656Y4389831D01*
G01X8049666Y4383888D01*
G01X8067091Y4367835D01*
G01X8078572Y4356151D01*
G01X8096961Y4335780D01*
G01X8117383Y4310431D01*
G01X8138566Y4281373D01*
G01X8161122Y4246778D01*
G01X8183474Y4208272D01*
G01X8204149Y4168089D01*
G01X8205978Y4164330D01*
G01X8206334Y4163416D01*
G01X8206486Y4163009D01*
G01X8206588Y4162400D01*
G01Y4162095D01*
G01X8206537Y4161892D01*
G01X8206435Y4161688D01*
G01X8206283Y4161536D01*
G01X8206029Y4161384D01*
G01X8205775Y4161282D01*
G01X8205419Y4161231D01*
G01X8205013Y4161180D01*
G01X8203997D01*
G01X8202676Y4161333D01*
G01X8192567Y4162857D01*
G01X8146390Y4168699D01*
G01X8082026Y4173779D01*
G01X8050276Y4174744D01*
G01X8044993Y4174795D01*
G01X8041742Y4175049D01*
G01X8040014Y4175455D01*
G01X8039252Y4176217D01*
G01Y4176319D01*
G01X8039202Y4176420D01*
G01X8039151Y4176878D01*
G01X8039049Y4178960D01*
G01X8031886D01*
G01X8031785Y4176725D01*
G01X8031632Y4175912D01*
G01X8031429Y4175760D01*
G01X8031175Y4175608D01*
G01X8030820Y4175506D01*
G01X8030413Y4175354D01*
G01X8029245Y4175201D01*
G01X8026705Y4174947D01*
G01X8016850Y4174744D01*
G01X7992720Y4174338D01*
G01X7946441Y4171544D01*
G01X7891069Y4165448D01*
G01X7838237Y4156964D01*
G01X7797089Y4148176D01*
G01X7780680Y4144467D01*
G01X7780579Y4144620D01*
G01X7780477Y4144975D01*
G01X7780376Y4145534D01*
G01X7780172Y4147261D01*
G01X7779918Y4152900D01*
G01X7772857D01*
G01X7772451Y4142283D01*
G01X7769047Y4141165D01*
G01X7759040Y4138066D01*
G01X7783017D01*
G01X7783373Y4138778D01*
G01X7784084Y4139387D01*
G01X7785252Y4139844D01*
G01X7786776Y4140200D01*
G01X7787589Y4140352D01*
G01X7797394Y4142638D01*
G01X7827061Y4149446D01*
G01X7870292Y4157116D01*
G01X7926476Y4164127D01*
G01X7982509Y4168343D01*
G01X8016240Y4169258D01*
G01X8027010Y4168953D01*
G01X8030159Y4168597D01*
G01X8031632Y4168140D01*
G01X8031836Y4167276D01*
G01X8032242Y4157167D01*
G01Y4150512D01*
G01X8039049D01*
G01X8039608Y4166667D01*
G01X8039811Y4167632D01*
G01X8039862Y4167734D01*
G01X8040065Y4167937D01*
G01X8040218Y4167988D01*
G01X8040370Y4168089D01*
G01X8040573Y4168191D01*
G01X8040776Y4168242D01*
G01X8041284Y4168394D01*
G01X8042250Y4168597D01*
G01X8043367Y4168750D01*
G01X8045755Y4168953D01*
G01X8051292Y4169207D01*
G01X8066684Y4169105D01*
G01X8113624Y4166362D01*
G01X8170570Y4160469D01*
G01X8198002Y4156608D01*
G01X8204048Y4155389D01*
G01X8206283Y4154780D01*
G01X8208061Y4154068D01*
G01X8209534Y4153357D01*
G01X8210652Y4152494D01*
G01X8211617Y4151528D01*
G01X8212023Y4150919D01*
G01X8219389D01*
G01X8219440Y4151630D01*
G01X8219491Y4151935D01*
G01X8219592Y4152138D01*
G01X8219745Y4152290D01*
G01X8219999Y4152443D01*
G01X8220405Y4152494D01*
G01X8220913D01*
G01X8221624Y4152443D01*
G01X8222488Y4152290D01*
G01X8232597Y4150360D01*
G01X8261299Y4143959D01*
G01X8305343Y4132377D01*
G01X8333689Y4123385D01*
G01X8344459Y4119728D01*
G01X8348320Y4118458D01*
G01X8380628Y4105758D01*
G01X8385556Y4103675D01*
G01X8414817Y4089857D01*
G01X8441182Y4075938D01*
G01X8460791Y4063949D01*
G01X8476488Y4053078D01*
G01X8479231Y4050792D01*
G01X8480247Y4049573D01*
G01Y4049319D01*
G01X8480196Y4049268D01*
G01Y4049217D01*
G01X8480146Y4049166D01*
G01Y4049116D01*
G01X8480095D01*
G01Y4049065D01*
G01X8479993Y4049014D01*
G01X8479942Y4048963D01*
G01X8479841Y4048912D01*
G01X8479638Y4048760D01*
G01X8479282Y4048608D01*
G01X8478723Y4048404D01*
G01X8476996Y4047744D01*
G01X8403539Y4027068D01*
G01X8314538Y4002278D01*
G01X8293964Y3996436D01*
G01X8286750Y3994607D01*
G01X8284108Y3994150D01*
G01X8282991Y3994048D01*
G01X8281975D01*
G01X8281111Y3994099D01*
G01X8280298Y3994201D01*
G01X8279638Y3994404D01*
G01X8279028Y3994709D01*
G01X8278520Y3995115D01*
G01X8278063Y3995572D01*
G01X8277606Y3996131D01*
G01X8277250Y3996792D01*
G01X8276946Y3997503D01*
G01X8276285Y3999230D01*
G01X8274152Y4006698D01*
G01X8261096Y4045661D01*
G01X8234528Y4115105D01*
G01X8221929Y4143807D01*
G01X8220151Y4148125D01*
G01X8219592Y4149801D01*
G01X8219389Y4150919D01*
G01X8212023D01*
G01X8212379Y4150411D01*
G01X8213090Y4149192D01*
G01X8214462Y4146093D01*
G01X8219999Y4133952D01*
G01X8235544Y4097122D01*
G01X8264093Y4018991D01*
G01X8270697Y3997198D01*
G01X8271510Y3993286D01*
G01X8271459Y3991458D01*
G01X8271408Y3991305D01*
G01X8271205Y3991051D01*
G01X8270850Y3990696D01*
G01X8270545Y3990492D01*
G01X8270342Y3990391D01*
G01X8269884Y3990137D01*
G01X8269275Y3989883D01*
G01X8267598Y3989273D01*
G01X8255356Y3985666D01*
G01X8281162D01*
G01X8281568Y3986784D01*
G01X8281619D01*
G01X8281670Y3986835D01*
G01X8281721D01*
G01X8281975Y3986936D01*
G01X8283092Y3987343D01*
G01X8464144Y4038244D01*
G01X8483549Y4043680D01*
G01X8484311Y4043883D01*
G01X8485632Y4044239D01*
G01X8486191Y4044340D01*
G01X8487207D01*
G01X8488223Y4044137D01*
G01X8488782Y4043883D01*
G01X8489340Y4043578D01*
G01X8490661Y4042715D01*
G01X8494420Y4039768D01*
G01X8505241Y4030624D01*
G01X8515452Y4021074D01*
G01X8524951Y4011219D01*
G01X8533740Y4001110D01*
G01X8541817Y3990797D01*
G01X8549030Y3980332D01*
G01X8554466Y3971493D01*
G01X8559292Y3962654D01*
G01X8563508Y3953764D01*
G01X8567064Y3944874D01*
G01X8569452Y3937813D01*
G01X8571433Y3930802D01*
G01X8573110Y3923589D01*
G01X8574278Y3917696D01*
G01X8574888Y3913124D01*
G01X8575243Y3908247D01*
G01X8575446Y3895496D01*
G01X8575345Y3885997D01*
G01X8575040Y3879748D01*
G01X8574532Y3875075D01*
G01X8573770Y3870401D01*
G01X8571433Y3860190D01*
G01X8571179Y3859327D01*
G01X8569198Y3852266D01*
G01X8566810Y3845306D01*
G01X8563712Y3837483D01*
G01X8560105Y3829710D01*
G01X8555584Y3821176D01*
G01X8550504Y3812692D01*
G01X8544865Y3804260D01*
G01X8538007Y3795116D01*
G01X8529828Y3785311D01*
G01X8520074Y3774846D01*
G01X8509508Y3764636D01*
G01X8497164Y3753866D01*
G01X8482940Y3742588D01*
G01X8466582Y3731006D01*
G01X8447938Y3719170D01*
G01X8426806Y3707232D01*
G01X8403082Y3695344D01*
G01X8375193Y3683102D01*
G01X8344205Y3671367D01*
G01X8335112Y3668319D01*
G01X8329879Y3666947D01*
G01X8327390Y3667150D01*
G01X8326476Y3668725D01*
G01X8326425Y3668878D01*
G01X8326374Y3669436D01*
G01X8325510Y3705657D01*
G01X8324952Y3730396D01*
G01X8323936Y3751936D01*
G01X8317992Y3808832D01*
G01X8316062Y3822598D01*
G01X8308289Y3869792D01*
G01X8305343Y3884930D01*
G01X8302447Y3899154D01*
G01X8300517Y3907892D01*
G01X8298485Y3916832D01*
G01X8296656Y3924605D01*
G01X8294624Y3933088D01*
G01X8288122Y3957879D01*
G01X8281772Y3982060D01*
G01X8281162Y3985666D01*
G01X8255356D01*
G01X8252612Y3984854D01*
G01X8236509Y3980282D01*
G01X8220405Y3975760D01*
G01X8207705Y3972052D01*
G01X8181797Y3964686D01*
G01X8173009Y3962095D01*
G01X8156905Y3957422D01*
G01X8144205Y3953764D01*
G01X8131505Y3950005D01*
G01X8115859Y3945433D01*
G01X8100212Y3940912D01*
G01X8084617Y3936289D01*
G01X8066024Y3930802D01*
G01X8047228Y3925164D01*
G01X8044891Y3924452D01*
G01X8042758Y3923944D01*
G01X8040980Y3923640D01*
G01X8039913D01*
G01X8039710Y3924351D01*
G01X8039405Y3929685D01*
G01X8039049Y4150512D01*
G01X8032242D01*
G01X8031582Y3935679D01*
G01X8031124Y3925976D01*
G01X8030921Y3925316D01*
G01X8030820Y3925367D01*
G01X8030566Y3925519D01*
G01X8029651Y3926180D01*
G01X8017154Y3936441D01*
G01X7980070Y3967988D01*
G01X7909712Y4028034D01*
G01X7849159Y4079748D01*
G01X7838389Y4088943D01*
G01X7821828Y4103218D01*
G01X7805217Y4117492D01*
G01X7794447Y4126687D01*
G01X7785760Y4134104D01*
G01X7784440Y4135272D01*
G01X7783576Y4136339D01*
G01X7783119Y4137254D01*
G01X7783017Y4138066D01*
G01X7759040D01*
G01X7749032Y4134968D01*
G01X7723530Y4126789D01*
G01X7687005Y4113174D01*
G01X7669479Y4105808D01*
G01X7644333Y4093870D01*
G01X7622489Y4082034D01*
G01X7601966Y4069486D01*
G01X7584389Y4057548D01*
G01X7568082Y4045052D01*
G01X7554417Y4033418D01*
G01X7541819Y4021480D01*
G01X7531557Y4010609D01*
G01X7522210Y3999586D01*
G01X7514793Y3989781D01*
G01X7508088Y3979824D01*
G01X7502957Y3971290D01*
G01X7498436Y3962654D01*
G01X7494473Y3953967D01*
G01X7493660Y3952037D01*
G01X7491730Y3947922D01*
G01X7491273Y3947058D01*
G01X7490866Y3946500D01*
G01X7490511Y3946246D01*
G01X7490257D01*
G01X7490054Y3946500D01*
G01X7489901Y3947058D01*
G01X7489800Y3947922D01*
G01X7483653D01*
G01X7482586Y3912921D01*
G01X7482688Y3893210D01*
G01X7489038D01*
G01X7489139Y3901440D01*
G01X7489749Y3909670D01*
G01X7490816Y3917848D01*
G01X7492390Y3926027D01*
G01X7494422Y3934155D01*
G01X7496912Y3942283D01*
G01X7499858Y3950310D01*
G01X7503312Y3958285D01*
G01X7507935Y3967582D01*
G01X7513168Y3976726D01*
G01X7519010Y3985768D01*
G01X7525461Y3994760D01*
G01X7533640Y4004818D01*
G01X7542581Y4014775D01*
G01X7553604Y4025697D01*
G01X7565593Y4036416D01*
G01X7580071Y4047998D01*
G01X7595718Y4059174D01*
G01X7614310Y4071061D01*
G01X7634376Y4082440D01*
G01X7657795Y4094226D01*
G01X7685024Y4106215D01*
G01X7692847Y4109466D01*
G01X7697927Y4111498D01*
G01X7731303Y4123639D01*
G01X7762697Y4133494D01*
G01X7770063Y4135679D01*
G01X7770571Y4135882D01*
G01X7771079Y4135933D01*
G01X7771486D01*
G01X7771892Y4135831D01*
G01X7772248Y4135577D01*
G01X7772552Y4135272D01*
G01X7772857Y4134866D01*
G01X7773111Y4134307D01*
G01X7773314Y4133647D01*
G01X7773467Y4132834D01*
G01X7773619Y4131920D01*
G01X7773822Y4129684D01*
G01X7773924Y4125265D01*
G01Y4124096D01*
G01X7779817D01*
G01Y4126484D01*
G01X7779868Y4127043D01*
G01X7779969Y4127551D01*
G01X7780122Y4128160D01*
G01X7780223Y4128313D01*
G01X7780325Y4128414D01*
G01X7780426Y4128567D01*
G01X7780579Y4128668D01*
G01X7780680Y4128719D01*
G01X7780884Y4128770D01*
G01X7781442D01*
G01X7781696Y4128719D01*
G01X7781950Y4128618D01*
G01X7782255Y4128516D01*
G01X7782560Y4128364D01*
G01X7783220Y4128008D01*
G01X7784033Y4127551D01*
G01X7785405Y4126636D01*
G01X7788351Y4124401D01*
G01X7818882Y4098341D01*
G01X7915605Y4015638D01*
G01X7953705Y3983126D01*
G01X7964424Y3973881D01*
G01X7979562Y3960978D01*
G01X8005724Y3938676D01*
G01X8024978Y3921557D01*
G01X8026502Y3919830D01*
G01X8026146Y3919626D01*
G01X8025384Y3919271D01*
G01X8024266Y3918814D01*
G01X8018932Y3917086D01*
G01X8041183D01*
G01X8041437Y3917290D01*
G01X8042148Y3917594D01*
G01X8044434Y3918458D01*
G01X8051648Y3920744D01*
G01X8069936Y3926180D01*
G01X8088528Y3931717D01*
G01X8104124Y3936340D01*
G01X8119770Y3940861D01*
G01X8135417Y3945433D01*
G01X8160817Y3952850D01*
G01X8189620Y3961130D01*
G01X8198917Y3963822D01*
G01X8208162Y3966515D01*
G01X8234070Y3973881D01*
G01X8246770Y3977589D01*
G01X8262874Y3982110D01*
G01X8271713Y3984346D01*
G01X8273644Y3984549D01*
G01X8274456Y3984244D01*
G01X8274609Y3983939D01*
G01X8275015Y3982822D01*
G01X8276793Y3977132D01*
G01X8290712Y3923944D01*
G01X8292592Y3916121D01*
G01X8297266Y3895039D01*
G01X8299602Y3883558D01*
G01X8303565Y3863086D01*
G01X8312150Y3807917D01*
G01X8318094Y3750564D01*
G01X8319770Y3705047D01*
G01X8319567Y3677310D01*
G01X8319110Y3674923D01*
G01X8318906Y3674974D01*
G01X8318500Y3675228D01*
G01X8317992Y3675583D01*
G01X8315554Y3677463D01*
G01X8301126Y3689756D01*
G01X8229143Y3753307D01*
G01X8213547Y3767023D01*
G01X8137347Y3833622D01*
G01X8120736Y3847897D01*
G01X8059928Y3899967D01*
G01X8042504Y3915512D01*
G01X8041183Y3917086D01*
G01X8018932D01*
G01X8014513Y3915664D01*
G01X7997647Y3910635D01*
G01X7976159Y3904234D01*
G01X7957617Y3898697D01*
G01X7939024Y3893160D01*
G01X7919009Y3887267D01*
G01X7867142Y3871874D01*
G01X7827213Y3861054D01*
G01X7824927Y3860800D01*
G01X7824673Y3861003D01*
G01X7824419Y3861257D01*
G01X7824114Y3861664D01*
G01X7823860Y3862172D01*
G01X7823251Y3863492D01*
G01X7822235Y3866439D01*
G01X7818882Y3878529D01*
G01X7814005Y3896868D01*
G01X7810144Y3912667D01*
G01X7806131Y3929431D01*
G01X7799324Y3961536D01*
G01X7789926Y4015943D01*
G01X7783678Y4067454D01*
G01X7781188Y4098646D01*
G01X7779817Y4124096D01*
G01X7773924D01*
G01Y4123842D01*
G01X7774838Y4102710D01*
G01X7779360Y4051859D01*
G01X7782763Y4024274D01*
G01X7793431Y3960622D01*
G01X7800340Y3928262D01*
G01X7802270Y3920236D01*
G01X7804150Y3912210D01*
G01X7810602Y3886759D01*
G01X7813040Y3877615D01*
G01X7815834Y3867048D01*
G01X7817714Y3859632D01*
G01X7817866Y3858666D01*
G01Y3858463D01*
G01X7817714Y3858311D01*
G01X7817663Y3858209D01*
G01X7817561Y3858158D01*
G01X7817409Y3858006D01*
G01X7816596Y3857600D01*
G01X7815885Y3857295D01*
G01X7813446Y3856380D01*
G01X7766609Y3842258D01*
G01X7724089Y3829761D01*
G01X7709967Y3825646D01*
G01X7699705Y3822598D01*
G01X7687970Y3819093D01*
G01X7649870Y3807917D01*
G01X7634224Y3803294D01*
G01X7618628Y3798722D01*
G01X7600036Y3793236D01*
G01X7581494Y3787750D01*
G01X7565847Y3783127D01*
G01X7550150Y3778453D01*
G01X7547458Y3777539D01*
G01X7545426Y3776980D01*
G01X7544562Y3776828D01*
G01X7543800D01*
G01X7543089Y3776929D01*
G01X7542428Y3777183D01*
G01X7541717Y3777590D01*
G01X7540955Y3778148D01*
G01X7540142Y3778910D01*
G01X7539228Y3779825D01*
G01X7533996Y3785870D01*
G01X7529576Y3791153D01*
G01X7522464Y3800450D01*
G01X7516012Y3809797D01*
G01X7510272Y3819246D01*
G01X7505903Y3827374D01*
G01X7502042Y3835552D01*
G01X7498690Y3843731D01*
G01X7495794Y3851961D01*
G01X7493457Y3860190D01*
G01X7491628Y3868420D01*
G01X7490257Y3876700D01*
G01X7489393Y3884930D01*
G01X7489038Y3893210D01*
G01X7482688D01*
G01X7482738Y3886759D01*
G01X7483500Y3874059D01*
G01X7487310Y3842766D01*
G01X7487768Y3839413D01*
G01X7489495Y3829304D01*
G01X7495591D01*
G01Y3830015D01*
G01X7495692Y3830472D01*
G01X7495845Y3830726D01*
G01X7496099Y3830777D01*
G01X7496454Y3830574D01*
G01X7496861Y3830117D01*
G01X7497369Y3829456D01*
G01X7498690Y3827374D01*
G01X7502601Y3820262D01*
G01X7504430Y3816960D01*
G01X7509307Y3808781D01*
G01X7515250Y3799891D01*
G01X7521854Y3791102D01*
G01X7529678Y3781654D01*
G01X7538974Y3771646D01*
G01X7539126Y3771494D01*
G01X7548524D01*
G01X7548626Y3771697D01*
G01X7548677Y3771748D01*
G01X7548728Y3771849D01*
G01X7548880Y3772002D01*
G01X7549032Y3772103D01*
G01X7549185Y3772154D01*
G01X7549337Y3772256D01*
G01X7549845Y3772459D01*
G01X7551268Y3773018D01*
G01X7569759Y3778555D01*
G01X7588301Y3784041D01*
G01X7603947Y3788613D01*
G01X7619594Y3793236D01*
G01X7638136Y3798722D01*
G01X7656728Y3804260D01*
G01X7672324Y3808832D01*
G01X7687970Y3813404D01*
G01X7706512Y3818890D01*
G01X7722159Y3823513D01*
G01X7740244Y3828898D01*
G01X7787234Y3842664D01*
G01X7819136Y3851910D01*
G01X7819492Y3851859D01*
G01X7819847Y3851656D01*
G01X7820152Y3851199D01*
G01X7820457Y3850640D01*
G01X7826045D01*
G01Y3851402D01*
G01X7826096Y3851504D01*
G01Y3851605D01*
G01X7826400Y3852215D01*
G01X7826807Y3852621D01*
G01X7827010Y3852875D01*
G01X7827772Y3853383D01*
G01X7828331Y3853739D01*
G01X7829296Y3854196D01*
G01X7831023Y3854958D01*
G01X7834986Y3856482D01*
G01X7886751Y3872027D01*
G01X7945882Y3889502D01*
G01X7964424Y3895039D01*
G01X7983017Y3900526D01*
G01X8001559Y3906063D01*
G01X8023454Y3912565D01*
G01X8025790Y3913226D01*
G01X8029600Y3914140D01*
G01X8030515Y3914292D01*
G01X8030718Y3913480D01*
G01X8031226Y3901745D01*
G01X8030972Y3634791D01*
G01X8030464Y3622904D01*
G01X8030312Y3622192D01*
G01X8038186D01*
G01Y3765245D01*
G01X8038592Y3890823D01*
G01X8039202Y3902761D01*
G01X8039659Y3906063D01*
G01X8040268Y3907892D01*
G01X8040980Y3908603D01*
G01X8041843Y3908400D01*
G01X8042910Y3907536D01*
G01X8045501Y3904945D01*
G01X8081670Y3873957D01*
G01X8104124Y3854704D01*
G01X8115351Y3845001D01*
G01X8185201Y3784549D01*
G01X8200339Y3771189D01*
G01X8215986Y3757371D01*
G01X8232089Y3743198D01*
G01X8247736Y3729431D01*
G01X8280959Y3700069D01*
G01X8314182Y3670554D01*
G01X8318449Y3666338D01*
G01X8319059Y3664763D01*
G01Y3664458D01*
G01X8318957Y3664153D01*
G01X8318856Y3663899D01*
G01X8318602Y3663594D01*
G01X8318297Y3663340D01*
G01X8317890Y3663036D01*
G01X8317332Y3662731D01*
G01X8316671Y3662426D01*
G01X8314842Y3661715D01*
G01X8304428Y3658514D01*
G01X8297723Y3656584D01*
G01X8257997Y3646526D01*
G01X8208162Y3636416D01*
G01X8173009Y3631032D01*
G01X8151012Y3628288D01*
G01X8101178Y3623920D01*
G01X8061147Y3622396D01*
G01X8038186Y3622192D01*
G01X8030312D01*
G01X8030261Y3621989D01*
G01X8029905Y3621938D01*
G01X8020050D01*
G01X7954162Y3624478D01*
G01X7930693Y3626358D01*
G01X7921498Y3627425D01*
G01X7920380Y3627679D01*
G01X7920177Y3627831D01*
G01X7919872Y3628187D01*
G01X7919466Y3628746D01*
G01X7917739Y3631489D01*
G01X7909103Y3646983D01*
G01X7889189Y3686404D01*
G01X7875778Y3715969D01*
G01X7854290Y3768750D01*
G01X7835494Y3822598D01*
G01X7831633Y3834486D01*
G01X7829652Y3840937D01*
G01X7828534Y3844442D01*
G01X7827569Y3847135D01*
G01X7827416Y3847490D01*
G01X7826604Y3849218D01*
G01X7826299Y3849878D01*
G01X7826197Y3850183D01*
G01X7826096Y3850437D01*
G01X7826045Y3850640D01*
G01X7820457D01*
G01X7820508Y3850538D01*
G01X7820863Y3849624D01*
G01X7822336Y3844950D01*
G01X7827670Y3827628D01*
G01X7830566Y3818433D01*
G01X7833716Y3808781D01*
G01X7852105Y3757930D01*
G01X7876642Y3699510D01*
G01X7901076Y3649320D01*
G01X7909966Y3631590D01*
G01X7910728Y3629762D01*
G01X7910576Y3629609D01*
G01X7910271Y3629457D01*
G01X7909763Y3629406D01*
G01X7909001Y3629355D01*
G01X7908138Y3629304D01*
G01X7905902Y3629355D01*
G01X7900010Y3629812D01*
G01X7891170Y3630930D01*
G01X7878978Y3632708D01*
G01X7861554Y3635451D01*
G01X7814462Y3644646D01*
G01X7793939Y3649370D01*
G01X7776870Y3653892D01*
G01X7745730Y3662832D01*
G01X7711796Y3674415D01*
G01X7680858Y3686759D01*
G01X7651445Y3700272D01*
G01X7626960Y3713124D01*
G01X7605573Y3725774D01*
G01X7588504Y3737153D01*
G01X7574077Y3747872D01*
G01X7570216Y3751021D01*
G01X7553960Y3765601D01*
G01X7549134Y3770528D01*
G01X7548524Y3771494D01*
G01X7539126D01*
G01X7549896Y3761029D01*
G01X7562596Y3749954D01*
G01X7577226Y3738524D01*
G01X7594092Y3726688D01*
G01X7613244Y3714699D01*
G01X7636104Y3701948D01*
G01X7661859Y3689299D01*
G01X7691984Y3676294D01*
G01X7726934Y3663340D01*
G01X7765644Y3651199D01*
G01X7781290Y3646932D01*
G01X7835951Y3634588D01*
G01X7846974Y3632505D01*
G01X7892136Y3625393D01*
G01X7908087Y3623208D01*
G01X7915707Y3622142D01*
G01X7917282Y3619398D01*
G01X7924394D01*
G01Y3619754D01*
G01X7924444Y3620059D01*
G01X7924495Y3620313D01*
G01X7924800Y3620719D01*
G01X7925105Y3620821D01*
G01X7925410Y3620973D01*
G01X7925867Y3621024D01*
G01X7926426Y3621075D01*
G01X7927848D01*
G01X7934147Y3620618D01*
G01X7939278Y3620211D01*
G01X7996682Y3617112D01*
G01X8023149Y3616096D01*
G01X8029651Y3615690D01*
G01X8031836Y3615284D01*
G01Y3547212D01*
G01X8031124Y3479495D01*
G01X8030972Y3477870D01*
G01X8030769Y3477666D01*
G01X8030464Y3477565D01*
G01X8030108D01*
G01X8029702Y3477666D01*
G01X8029194Y3477870D01*
G01X8028635Y3478174D01*
G01X8028026Y3478581D01*
G01X8027314Y3479038D01*
G01X8025790Y3480308D01*
G01X8023047Y3482797D01*
G01X8018678Y3487166D01*
G01X8007960Y3499104D01*
G01X7985201Y3527196D01*
G01X7960055Y3561334D01*
G01X7945882Y3582772D01*
G01X7931658Y3605987D01*
G01X7930236Y3608476D01*
G01X7930032Y3608984D01*
G01X7927289Y3613455D01*
G01X7925257Y3617163D01*
G01X7924394Y3619398D01*
G01X7917282D01*
G01X7920533Y3613658D01*
G01X7925562Y3604920D01*
G01X7944815Y3573882D01*
G01X7965034Y3544570D01*
G01X7986065Y3517290D01*
G01X8007553Y3492246D01*
G01X8027314Y3471570D01*
G01X8030261Y3468827D01*
G01X8037678D01*
G01X8038186Y3615741D01*
G01X8058709Y3616452D01*
G01X8083042Y3617417D01*
G01X8141564Y3621735D01*
G01X8185201Y3627272D01*
G01X8197444Y3629101D01*
G01X8209178Y3630981D01*
G01X8219389Y3632810D01*
G01X8246262Y3638245D01*
G01X8278012Y3645662D01*
G01X8288274Y3648304D01*
G01X8312963Y3655263D01*
G01X8315655Y3656076D01*
G01X8316468Y3656279D01*
G01X8316824Y3656330D01*
G01X8317128Y3656381D01*
G01X8317433D01*
G01X8317687Y3656330D01*
G01X8317941Y3656228D01*
G01X8318144Y3656127D01*
G01X8318500Y3655771D01*
G01X8318602Y3655517D01*
G01X8318754Y3655212D01*
G01X8318856Y3654908D01*
G01X8318906Y3654501D01*
G01X8319008Y3653485D01*
G01X8319059Y3652266D01*
G01X8318703Y3643071D01*
G01X8317433Y3623818D01*
G01X8314792Y3599282D01*
G01X8310728Y3574542D01*
G01X8303412Y3541014D01*
G01X8302854Y3538728D01*
G01X8298485Y3523183D01*
G01X8293506Y3508400D01*
G01X8288680Y3496412D01*
G01X8283448Y3485032D01*
G01X8277758Y3474314D01*
G01X8271662Y3464255D01*
G01X8266328Y3456432D01*
G01X8260690Y3449066D01*
G01X8254797Y3442157D01*
G01X8248701Y3435756D01*
G01X8242402Y3429914D01*
G01X8237169Y3425596D01*
G01X8231835Y3421583D01*
G01X8228736Y3419551D01*
G01X8241538D01*
G01X8241640Y3420008D01*
G01X8242097Y3420669D01*
G01X8242910Y3421583D01*
G01X8244078Y3422701D01*
G01X8247278Y3425596D01*
G01X8249564Y3427679D01*
G01X8254136Y3432150D01*
G01X8259724Y3438246D01*
G01X8265109Y3444850D01*
G01X8271408Y3453435D01*
G01X8277454Y3462680D01*
G01X8283143Y3472586D01*
G01X8289442Y3484829D01*
G01X8295234Y3497783D01*
G01X8301177Y3513379D01*
G01X8306410Y3529635D01*
G01X8312150Y3552038D01*
G01X8314792Y3563823D01*
G01X8319008Y3587547D01*
G01X8322564Y3615639D01*
G01X8324748Y3644341D01*
G01X8325053Y3651809D01*
G01X8325256Y3654400D01*
G01X8325510Y3655771D01*
G01X8325663Y3656381D01*
G01X8325815Y3656940D01*
G01X8326069Y3657397D01*
G01X8326323Y3657905D01*
G01X8326628Y3658311D01*
G01X8326984Y3658718D01*
G01X8327390Y3659073D01*
G01X8327847Y3659429D01*
G01X8328355Y3659734D01*
G01X8328965Y3660089D01*
G01X8329625Y3660394D01*
G01X8331098Y3661004D01*
G01X8340700Y3664306D01*
G01X8370672Y3675431D01*
G01X8399170Y3687674D01*
G01X8425993Y3700831D01*
G01X8448904Y3713582D01*
G01X8470240Y3726993D01*
G01X8488070Y3739540D01*
G01X8502752Y3751072D01*
G01X8516214Y3762858D01*
G01X8527034Y3773373D01*
G01X8536940Y3784092D01*
G01X8544611Y3793338D01*
G01X8551520Y3802736D01*
G01X8556701Y3810559D01*
G01X8561324Y3818484D01*
G01X8565388Y3826408D01*
G01X8568893Y3834333D01*
G01X8571281Y3840683D01*
G01X8572449Y3843833D01*
G01X8573008Y3845001D01*
G01X8573465Y3845814D01*
G01X8573922Y3846373D01*
G01X8574278Y3846678D01*
G01X8574583D01*
G01X8574837Y3846424D01*
G01X8574989Y3845865D01*
G01X8575091Y3845103D01*
G01X8575142Y3844087D01*
G01X8575091Y3842766D01*
G01X8574786Y3839515D01*
G01X8574126Y3835349D01*
G01X8572094Y3823970D01*
G01X8570925Y3817569D01*
G01X8563813Y3784956D01*
G01X8560257Y3771697D01*
G01X8556396Y3758844D01*
G01X8552739Y3747211D01*
G01X8544611Y3724250D01*
G01X8534603Y3700069D01*
G01X8523326Y3676396D01*
G01X8510778Y3653231D01*
G01X8497011Y3630676D01*
G01X8481111Y3607257D01*
G01X8463890Y3584702D01*
G01X8445500Y3562960D01*
G01X8425942Y3542132D01*
G01X8405266Y3522269D01*
G01X8383575Y3503473D01*
G01X8360867Y3485744D01*
G01X8337296Y3469234D01*
G01X8312810Y3453892D01*
G01X8287512Y3439871D01*
G01X8263077Y3427933D01*
G01X8246821Y3420720D01*
G01X8243468Y3419551D01*
G01X8242452Y3419297D01*
G01X8241792D01*
G01X8241538Y3419551D01*
G01X8228736D01*
G01X8226349Y3417976D01*
G01X8220761Y3414674D01*
G01X8215071Y3411728D01*
G01X8209280Y3409188D01*
G01X8203387Y3406953D01*
G01X8197342Y3405124D01*
G01X8191297Y3403651D01*
G01X8185099Y3402584D01*
G01X8178851Y3401873D01*
G01X8172552Y3401568D01*
G01X8166151Y3401619D01*
G01X8159699Y3402127D01*
G01X8153197Y3402990D01*
G01X8146644Y3404260D01*
G01X8142173Y3405378D01*
G01X8132978Y3408070D01*
G01X8123530Y3411423D01*
G01X8111642Y3416402D01*
G01X8100060Y3421990D01*
G01X8089189Y3428035D01*
G01X8081264Y3433115D01*
G01X8075930Y3436976D01*
G01X8066075Y3444392D01*
G01X8060944Y3448456D01*
G01X8047736Y3459734D01*
G01X8037678Y3468827D01*
G01X8030261D01*
G01X8045196Y3454806D01*
G01X8060995Y3441497D01*
G01X8074660Y3431134D01*
G01X8088173Y3422040D01*
G01X8099552Y3415284D01*
G01X8108848Y3410458D01*
G01X8117942Y3406292D01*
G01X8125104Y3403498D01*
G01X8132115Y3401212D01*
G01X8138973Y3399384D01*
G01X8144002Y3398368D01*
G01X8148980Y3397606D01*
G01X8153806Y3397199D01*
G01X8158531Y3397047D01*
G01X8161274Y3396793D01*
G01X8164017Y3396132D01*
G01X8165998Y3395370D01*
G01X8166456Y3394710D01*
G01X8166252Y3394558D01*
G01X8165948Y3394456D01*
G01X8165541Y3394304D01*
G01X8163560Y3393694D01*
G01X8154213Y3391510D01*
G01X8122717Y3385617D01*
G01X8093964Y3381807D01*
G01X8064906Y3379470D01*
G01X8035747Y3378708D01*
G01X8006537Y3379368D01*
G01X7977429Y3381553D01*
G01X7948524Y3385210D01*
G01X7920076Y3390290D01*
G01X7892085Y3396793D01*
G01X7866888Y3404057D01*
G01X7842301Y3412592D01*
G01X7829144Y3417722D01*
G01X7802778Y3429254D01*
G01X7774229Y3443478D01*
G01X7746695Y3459074D01*
G01X7723073Y3474212D01*
G01X7703210Y3488334D01*
G01X7687005Y3501187D01*
G01X7679334Y3507638D01*
G01X7653782Y3530803D01*
G01X7631938Y3552749D01*
G01X7613548Y3573120D01*
G01X7598461Y3591763D01*
G01X7586269Y3608426D01*
G01X7570876Y3631641D01*
G01X7567422Y3637128D01*
G01X7554976Y3658667D01*
G01X7541717Y3684473D01*
G01X7528966Y3712820D01*
G01X7517790Y3741572D01*
G01X7508900Y3768496D01*
G01X7502601Y3791509D01*
G01X7498436Y3810660D01*
G01X7495896Y3826002D01*
G01X7495743Y3827323D01*
G01X7495591Y3829304D01*
G01X7489495D01*
G01X7492035Y3814216D01*
G01X7497978Y3787394D01*
G01X7505344Y3760775D01*
G01X7514031Y3734562D01*
G01X7524039Y3708857D01*
G01X7535266Y3683813D01*
G01X7547661Y3659581D01*
G01X7560310Y3637788D01*
G01X7568997Y3623564D01*
G01X7571435Y3619652D01*
G01X7581900Y3603904D01*
G01X7595006Y3586226D01*
G01X7611161Y3566719D01*
G01X7630617Y3545688D01*
G01X7651648Y3525215D01*
G01X7676032Y3503778D01*
G01X7701636Y3483508D01*
G01X7728204Y3464662D01*
G01X7753096Y3448863D01*
G01X7778293Y3434690D01*
G01X7801254Y3423361D01*
G01X7821828Y3414573D01*
G01X7825384Y3413150D01*
G01X7854137Y3402838D01*
G01X7883093Y3394151D01*
G01X7912151Y3387039D01*
G01X7941259Y3381502D01*
G01X7970368Y3377489D01*
G01X7999425Y3375000D01*
G01X8028381Y3373984D01*
G01X8057185Y3374492D01*
G01X8085785Y3376371D01*
G01X8114132Y3379724D01*
G01X8143900Y3384804D01*
G01X8173263Y3391408D01*
G01X8202117Y3399536D01*
G01X8230464Y3409137D01*
G01X8258150Y3420212D01*
G01X8285175Y3432708D01*
G01X8309966Y3445713D01*
G01X8333994Y3459937D01*
G01X8357311Y3475380D01*
G01X8379765Y3491941D01*
G01X8401355Y3509670D01*
G01X8422081Y3528466D01*
G01X8441741Y3548380D01*
G01X8460435Y3569360D01*
G01X8476945Y3589934D01*
G01X8492490Y3611423D01*
G01X8506968Y3633775D01*
G01X8520379Y3656990D01*
G01X8532622Y3681019D01*
G01X8543747Y3705911D01*
G01X8553602Y3731514D01*
G01X8562238Y3757930D01*
G01X8566099Y3770782D01*
G01X8566455Y3771900D01*
G01X8570925Y3789578D01*
G01X8572906Y3797808D01*
G01X8577885Y3823259D01*
G01X8579307Y3831539D01*
G01X8583981Y3867963D01*
G01X8584286Y3871316D01*
G01X8585098Y3896716D01*
G01X8584641Y3951884D01*
G01X8583981Y3962451D01*
G01X8581187Y3985920D01*
G01X8576412Y4016350D01*
G01X8572094Y4036720D01*
G01X8571179Y4040378D01*
G01X8564321Y4066540D01*
G01X8562442Y4072484D01*
G01X8558784Y4084168D01*
G01X8549742Y4109161D01*
G01X8536788Y4139895D01*
G01X8531606Y4150766D01*
G01X8520024Y4172610D01*
G01X8503260Y4200652D01*
G01X8485327Y4227525D01*
G01X8472068Y4245356D01*
G01X8456778Y4263949D01*
G01X8445144Y4277462D01*
G01X8437321Y4285742D01*
G01X8429142Y4294276D01*
G01X8411464Y4311294D01*
G01X8390179Y4329735D01*
G01X8366354Y4348328D01*
G01X8341309Y4365803D01*
G01X8316773Y4381195D01*
G01X8293151Y4394403D01*
G01X8288274Y4396892D01*
G01X8251088Y4414368D01*
G01X8249310Y4415028D01*
G01X8248701Y4415231D01*
G01X8243621Y4417263D01*
G01X8227670Y4423512D01*
G01X8212582Y4428795D01*
G01X8203286Y4431843D01*
G01X8199730Y4433011D01*
G01X8173974Y4440326D01*
G01X8156397Y4444492D01*
G01X8148117Y4446219D01*
G01X8138008Y4448200D01*
G01X8108188Y4452976D01*
G01X8078318Y4456227D01*
G37*
G36*
G01X7908950Y3353714D02*
G01X7894117Y3353054D01*
G01X7885887Y3352140D01*
G01X7883500Y3351632D01*
G01X7882026Y3351124D01*
G01X7879080Y3349904D01*
G01X7876286Y3348533D01*
G01X7873644Y3347009D01*
G01X7871054Y3345332D01*
G01X7868615Y3343504D01*
G01X7866329Y3341472D01*
G01X7864145Y3339389D01*
G01X7862062Y3337103D01*
G01X7860132Y3334715D01*
G01X7858303Y3332175D01*
G01X7856626Y3329584D01*
G01X7855102Y3326841D01*
G01X7853680Y3323996D01*
G01X7852410Y3321050D01*
G01X7851292Y3318053D01*
G01X7849870Y3313328D01*
G01X7848752Y3308452D01*
G01X7847990Y3303422D01*
G01X7847584Y3298292D01*
G01X7847482Y3293059D01*
G01X7847533Y3291840D01*
G01X7865364D01*
G01X7865415Y3295650D01*
G01X7865669Y3299409D01*
G01X7866177Y3303118D01*
G01X7866837Y3306826D01*
G01X7867752Y3310382D01*
G01X7868818Y3313887D01*
G01X7870139Y3317240D01*
G01X7871663Y3320440D01*
G01X7873390Y3323488D01*
G01X7875321Y3326333D01*
G01X7877505Y3329026D01*
G01X7879842Y3331413D01*
G01X7882433Y3333598D01*
G01X7883804Y3334614D01*
G01X7885227Y3335528D01*
G01X7886700Y3336341D01*
G01X7888224Y3337103D01*
G01X7889799Y3337814D01*
G01X7891424Y3338424D01*
G01X7892796Y3338881D01*
G01X7895590Y3339694D01*
G01X7898333Y3340303D01*
G01X7900975Y3340710D01*
G01X7903616Y3341014D01*
G01X7906156Y3341116D01*
G01X7908696Y3341065D01*
G01X7911135Y3340811D01*
G01X7913522Y3340456D01*
G01X7915808Y3339897D01*
G01X7918044Y3339186D01*
G01X7920228Y3338373D01*
G01X7922362Y3337357D01*
G01X7924343Y3336239D01*
G01X7926273Y3334918D01*
G01X7928153Y3333496D01*
G01X7929931Y3331921D01*
G01X7931607Y3330245D01*
G01X7933182Y3328365D01*
G01X7934655Y3326435D01*
G01X7936078Y3324301D01*
G01X7937348Y3322066D01*
G01X7938516Y3319729D01*
G01X7939634Y3317240D01*
G01X7940599Y3314649D01*
G01X7941818Y3310534D01*
G01X7942834Y3306166D01*
G01X7943545Y3301543D01*
G01X7943952Y3296666D01*
G01X7944104Y3291586D01*
G01X7944053Y3288233D01*
G01X7943698Y3283407D01*
G01X7943088Y3278784D01*
G01X7942224Y3274466D01*
G01X7941107Y3270352D01*
G01X7940243Y3267761D01*
G01X7939227Y3265272D01*
G01X7938160Y3262935D01*
G01X7936941Y3260700D01*
G01X7935671Y3258617D01*
G01X7934300Y3256636D01*
G01X7932776Y3254756D01*
G01X7931201Y3253029D01*
G01X7929524Y3251454D01*
G01X7927797Y3249981D01*
G01X7925968Y3248660D01*
G01X7924038Y3247492D01*
G01X7922006Y3246476D01*
G01X7919923Y3245561D01*
G01X7917790Y3244799D01*
G01X7915554Y3244240D01*
G01X7913268Y3243783D01*
G01X7910881Y3243478D01*
G01X7908442Y3243326D01*
G01X7905953D01*
G01X7903362Y3243478D01*
G01X7900772Y3243834D01*
G01X7898079Y3244291D01*
G01X7895387Y3244952D01*
G01X7892593Y3245764D01*
G01X7890916Y3246374D01*
G01X7889342Y3247034D01*
G01X7887818Y3247746D01*
G01X7886294Y3248558D01*
G01X7884871Y3249473D01*
G01X7883449Y3250438D01*
G01X7880858Y3252572D01*
G01X7878420Y3254959D01*
G01X7876184Y3257550D01*
G01X7874203Y3260395D01*
G01X7872374Y3263392D01*
G01X7870800Y3266592D01*
G01X7869377Y3269894D01*
G01X7868209Y3273400D01*
G01X7867193Y3276956D01*
G01X7866431Y3280613D01*
G01X7865872Y3284322D01*
G01X7865516Y3288081D01*
G01X7865364Y3291840D01*
G01X7847533D01*
G01X7847736Y3287674D01*
G01X7848397Y3282290D01*
G01X7849362Y3276803D01*
G01X7850734Y3271317D01*
G01X7852461Y3265830D01*
G01X7854594Y3260395D01*
G01X7856118Y3257144D01*
G01X7857896Y3254096D01*
G01X7859878Y3251200D01*
G01X7862113Y3248508D01*
G01X7864551Y3245968D01*
G01X7867142Y3243580D01*
G01X7869936Y3241396D01*
G01X7872832Y3239414D01*
G01X7875930Y3237586D01*
G01X7879131Y3235960D01*
G01X7882433Y3234538D01*
G01X7885836Y3233268D01*
G01X7889291Y3232201D01*
G01X7892847Y3231337D01*
G01X7896454Y3230626D01*
G01X7900111Y3230169D01*
G01X7903769Y3229864D01*
G01X7907477Y3229762D01*
G01X7911135Y3229864D01*
G01X7914792Y3230169D01*
G01X7918399Y3230677D01*
G01X7922006Y3231388D01*
G01X7925511Y3232252D01*
G01X7928915Y3233369D01*
G01X7932268Y3234690D01*
G01X7935468Y3236265D01*
G01X7938567Y3237992D01*
G01X7941564Y3239922D01*
G01X7944358Y3242107D01*
G01X7947000Y3244494D01*
G01X7949489Y3247085D01*
G01X7951775Y3249930D01*
G01X7952842Y3251505D01*
G01X7953858Y3253181D01*
G01X7955737Y3256890D01*
G01X7957414Y3261055D01*
G01X7958836Y3265576D01*
G01X7960055Y3270352D01*
G01X7961020Y3275330D01*
G01X7961732Y3280512D01*
G01X7962341Y3288386D01*
G01Y3296260D01*
G01X7962036Y3301340D01*
G01X7961478Y3306318D01*
G01X7960665Y3310992D01*
G01X7959547Y3315360D01*
G01X7958176Y3319374D01*
G01X7957363Y3321253D01*
G01X7956499Y3322980D01*
G01X7955890Y3324352D01*
G01X7955636Y3325520D01*
G01X7955585Y3326435D01*
G01X7955382Y3327349D01*
G01X7955077Y3328264D01*
G01X7954620Y3329229D01*
G01X7954112Y3330245D01*
G01X7953451Y3331261D01*
G01X7952689Y3332277D01*
G01X7950911Y3334410D01*
G01X7948778Y3336544D01*
G01X7946339Y3338627D01*
G01X7943647Y3340760D01*
G01X7939176Y3343758D01*
G01X7934350Y3346552D01*
G01X7929270Y3349041D01*
G01X7925816Y3350463D01*
G01X7922362Y3351682D01*
G01X7918907Y3352698D01*
G01X7915605Y3353410D01*
G01X7912862Y3353613D01*
G37*
G36*
G01X8034426Y3353511D02*
G01X8020609Y3353308D01*
G01X8013040Y3352698D01*
G01X8010855Y3352241D01*
G01X8003489Y3350158D01*
G01X8001152Y3349447D01*
G01X7998917Y3348634D01*
G01X7996885Y3347771D01*
G01X7995006Y3346806D01*
G01X7993329Y3345790D01*
G01X7991856Y3344723D01*
G01X7990535Y3343554D01*
G01X7989468Y3342386D01*
G01X7988554Y3341116D01*
G01X7987843Y3339846D01*
G01X7987335Y3338525D01*
G01X7987030Y3337154D01*
G01X7986928Y3335782D01*
G01X7987081Y3334360D01*
G01X7987436Y3332937D01*
G01X7988046Y3331515D01*
G01X7988554Y3330600D01*
G01X7989113Y3329889D01*
G01X7989773Y3329483D01*
G01X7990484Y3329280D01*
G01X7991297Y3329330D01*
G01X7992262Y3329584D01*
G01X7993329Y3330092D01*
G01X7994548Y3330854D01*
G01X7996733Y3332175D01*
G01X8000035Y3334004D01*
G01X8003286Y3335579D01*
G01X8006588Y3336950D01*
G01X8009890Y3338068D01*
G01X8013141Y3338982D01*
G01X8016392Y3339643D01*
G01X8019593Y3340151D01*
G01X8022793Y3340456D01*
G01X8025943Y3340506D01*
G01X8029042Y3340405D01*
G01X8032090Y3340100D01*
G01X8035087Y3339643D01*
G01X8037982Y3338982D01*
G01X8040878Y3338170D01*
G01X8043672Y3337154D01*
G01X8046364Y3336036D01*
G01X8049006Y3334715D01*
G01X8051495Y3333242D01*
G01X8053934Y3331667D01*
G01X8056270Y3329940D01*
G01X8058455Y3328060D01*
G01X8060538Y3326028D01*
G01X8062519Y3323946D01*
G01X8064348Y3321660D01*
G01X8066075Y3319323D01*
G01X8067599Y3316884D01*
G01X8069021Y3314294D01*
G01X8070291Y3311652D01*
G01X8071358Y3308909D01*
G01X8072272Y3306064D01*
G01X8073034Y3303118D01*
G01X8073593Y3300120D01*
G01X8074000Y3297072D01*
G01X8074152Y3293923D01*
G01Y3290773D01*
G01X8073949Y3287522D01*
G01X8073542Y3284220D01*
G01X8072882Y3280918D01*
G01X8072018Y3277514D01*
G01X8070901Y3274111D01*
G01X8069580Y3270707D01*
G01X8068005Y3267253D01*
G01X8067040Y3265424D01*
G01X8065973Y3263646D01*
G01X8064754Y3261970D01*
G01X8063484Y3260344D01*
G01X8062112Y3258769D01*
G01X8060588Y3257296D01*
G01X8059064Y3255874D01*
G01X8055661Y3253232D01*
G01X8052003Y3250895D01*
G01X8048142Y3248914D01*
G01X8044078Y3247238D01*
G01X8039811Y3245917D01*
G01X8035493Y3244952D01*
G01X8031124Y3244393D01*
G01X8026705Y3244190D01*
G01X8022336Y3244393D01*
G01X8018069Y3245002D01*
G01X8015935Y3245510D01*
G01X8013852Y3246069D01*
G01X8011820Y3246780D01*
G01X8009839Y3247593D01*
G01X8007909Y3248508D01*
G01X8004962Y3249981D01*
G01X8004708Y3266288D01*
G01X8004556Y3275635D01*
G01X8004658Y3278835D01*
G01X8004810Y3280512D01*
G01X8004962Y3281223D01*
G01X8005166Y3281883D01*
G01X8005369Y3282442D01*
G01X8005674Y3282950D01*
G01X8005978Y3283356D01*
G01X8006385Y3283763D01*
G01X8006791Y3284068D01*
G01X8007299Y3284322D01*
G01X8007858Y3284576D01*
G01X8008468Y3284728D01*
G01X8009179Y3284880D01*
G01X8009992Y3284982D01*
G01X8011770Y3285134D01*
G01X8021015D01*
G01X8030362Y3285287D01*
G01X8033360Y3285490D01*
G01X8035341Y3285947D01*
G01X8036662Y3286658D01*
G01X8037373Y3287674D01*
G01X8037627Y3289046D01*
G01X8037728Y3290875D01*
G01X8037678Y3293313D01*
G01X8037627Y3294278D01*
G01X8037424Y3295091D01*
G01X8037271Y3295447D01*
G01X8037119Y3295752D01*
G01X8036916Y3296056D01*
G01X8036611Y3296361D01*
G01X8036306Y3296615D01*
G01X8035900Y3296818D01*
G01X8035442Y3297022D01*
G01X8034934Y3297174D01*
G01X8034376Y3297326D01*
G01X8032953Y3297580D01*
G01X8030108Y3297834D01*
G01X8013294Y3297987D01*
G01X8000390Y3298088D01*
G01X7996682Y3297987D01*
G01X7994802Y3297784D01*
G01X7993736Y3297580D01*
G01X7992770Y3297326D01*
G01X7992313Y3297174D01*
G01X7991907Y3297022D01*
G01X7991551Y3296869D01*
G01X7991145Y3296666D01*
G01X7989926Y3295650D01*
G01X7989672Y3295294D01*
G01X7989468Y3294990D01*
G01X7989265Y3294634D01*
G01X7988859Y3293821D01*
G01X7988706Y3293364D01*
G01X7988452Y3292399D01*
G01X7988198Y3291281D01*
G01X7987995Y3289402D01*
G01X7987843Y3286354D01*
G01X7987894Y3268929D01*
G01X7988249Y3247593D01*
G01X7988656Y3243885D01*
G01X7989367Y3241396D01*
G01X7990332Y3239719D01*
G01X7991704Y3238551D01*
G01X7993482Y3237636D01*
G01X7996580Y3236265D01*
G01X8001508Y3234487D01*
G01X8006690Y3233014D01*
G01X8012024Y3231896D01*
G01X8017459Y3231083D01*
G01X8022946Y3230575D01*
G01X8028483Y3230372D01*
G01X8034020Y3230524D01*
G01X8039456Y3231032D01*
G01X8044790Y3231896D01*
G01X8049920Y3233064D01*
G01X8052714Y3233877D01*
G01X8056677Y3235300D01*
G01X8060436Y3236976D01*
G01X8063992Y3238856D01*
G01X8067294Y3240989D01*
G01X8070444Y3243275D01*
G01X8073288Y3245764D01*
G01X8075981Y3248406D01*
G01X8078470Y3251251D01*
G01X8080705Y3254197D01*
G01X8082737Y3257296D01*
G01X8084566Y3260547D01*
G01X8086192Y3263849D01*
G01X8087563Y3267304D01*
G01X8088782Y3270809D01*
G01X8089748Y3274416D01*
G01X8090560Y3278022D01*
G01X8091119Y3281731D01*
G01X8091475Y3285490D01*
G01X8091678Y3289249D01*
G01X8091627Y3293008D01*
G01X8091373Y3296768D01*
G01X8090916Y3300476D01*
G01X8090306Y3304235D01*
G01X8089443Y3307893D01*
G01X8088376Y3311550D01*
G01X8087157Y3315106D01*
G01X8085734Y3318561D01*
G01X8084109Y3321964D01*
G01X8082229Y3325266D01*
G01X8080248Y3328416D01*
G01X8078013Y3331515D01*
G01X8075625Y3334410D01*
G01X8072984Y3337154D01*
G01X8070190Y3339744D01*
G01X8067243Y3342183D01*
G01X8064043Y3344418D01*
G01X8060690Y3346399D01*
G01X8057134Y3348228D01*
G01X8053426Y3349803D01*
G01X8049514Y3351124D01*
G01X8045399Y3352241D01*
G01X8041132Y3353054D01*
G01X8038287Y3353359D01*
G37*
G36*
G01X8143799Y3352952D02*
G01X8117891Y3352648D01*
G01X8113928Y3352140D01*
G01X8111541Y3351327D01*
G01X8110423Y3350006D01*
G01X8110017Y3348177D01*
G01Y3345129D01*
G01X8110068Y3343605D01*
G01X8110118Y3342792D01*
G01X8110220Y3342386D01*
G01X8110322Y3342030D01*
G01X8110423Y3341726D01*
G01X8110576Y3341421D01*
G01X8110982Y3340913D01*
G01X8111236Y3340659D01*
G01X8111490Y3340456D01*
G01X8111846Y3340303D01*
G01X8112201Y3340100D01*
G01X8112658Y3339948D01*
G01X8113116Y3339846D01*
G01X8113624Y3339744D01*
G01X8114843Y3339541D01*
G01X8117129Y3339389D01*
G01X8126578Y3339236D01*
G01X8151774Y3338627D01*
G01X8162747Y3338068D01*
G01Y3301644D01*
G01X8141360D01*
G01X8124495Y3301390D01*
G01X8120583Y3301035D01*
G01X8119059Y3300527D01*
G01X8118043Y3298800D01*
G01X8117434Y3296615D01*
G01X8117332Y3294278D01*
G01X8117688Y3291992D01*
G01X8118450Y3289249D01*
G01X8162239Y3288335D01*
G01X8162544Y3267050D01*
G01X8162646Y3251911D01*
G01X8162544Y3245561D01*
G01X8162493Y3245510D01*
G01X8162341D01*
G01X8136382Y3244850D01*
G01X8110525Y3244342D01*
G01X8109610Y3241853D01*
G01X8109255Y3240532D01*
G01X8109153Y3239059D01*
G01X8109255Y3237484D01*
G01X8109560Y3235858D01*
G01X8110474Y3232404D01*
G01X8143138Y3232150D01*
G01X8170367Y3232201D01*
G01X8175701Y3232607D01*
G01X8178038Y3233318D01*
G01X8180324Y3234741D01*
G01Y3291891D01*
G01X8179816Y3344672D01*
G01X8179257Y3348736D01*
G01X8178394Y3350870D01*
G01X8177124Y3351784D01*
G01X8175447Y3352343D01*
G01X8175346Y3352394D01*
G01X8175142D01*
G01X8174126Y3352495D01*
G37*
G36*
G01X7493203Y3121304D02*
G01X7489596Y3121203D01*
G01X7486040Y3120898D01*
G01X7482688Y3120390D01*
G01X7479436Y3119679D01*
G01X7476388Y3118764D01*
G01X7473594Y3117698D01*
G01X7471054Y3116478D01*
G01X7468819Y3115107D01*
G01X7466889Y3113583D01*
G01X7465365Y3111906D01*
G01X7464247Y3110128D01*
G01X7463536Y3108300D01*
G01X7463282Y3106318D01*
G01X7463333Y3103931D01*
G01X7463434Y3102966D01*
G01X7463587Y3102153D01*
G01X7463790Y3101492D01*
G01X7464095Y3100934D01*
G01X7464450Y3100527D01*
G01X7464908Y3100273D01*
G01X7465416Y3100121D01*
G01X7466076D01*
G01X7466787Y3100222D01*
G01X7467651Y3100426D01*
G01X7468667Y3100730D01*
G01X7469784Y3101188D01*
G01X7472426Y3102407D01*
G01X7475677Y3103880D01*
G01X7479640Y3105556D01*
G01X7481875Y3106268D01*
G01X7484059Y3106826D01*
G01X7486244Y3107131D01*
G01X7488631Y3107334D01*
G01X7493000Y3107385D01*
G01X7494422D01*
G01X7497064Y3107233D01*
G01X7499502Y3106979D01*
G01X7501788Y3106572D01*
G01X7503871Y3106064D01*
G01X7505802Y3105455D01*
G01X7507478Y3104693D01*
G01X7509053Y3103829D01*
G01X7509764Y3103423D01*
G01X7510374Y3102915D01*
G01X7511034Y3102407D01*
G01X7511593Y3101899D01*
G01X7512101Y3101340D01*
G01X7513015Y3100222D01*
G01X7513726Y3099003D01*
G01X7514031Y3098343D01*
G01X7514234Y3097733D01*
G01X7514438Y3097022D01*
G01X7514590Y3096362D01*
G01X7514742Y3095650D01*
G01X7514793Y3094939D01*
G01Y3093517D01*
G01X7514742Y3092755D01*
G01X7514590Y3092044D01*
G01X7514438Y3091282D01*
G01X7514234Y3090520D01*
G01X7514031Y3089707D01*
G01X7513371Y3088183D01*
G01X7512558Y3086557D01*
G01X7511593Y3084982D01*
G01X7510424Y3083357D01*
G01X7509104Y3081782D01*
G01X7507580Y3080156D01*
G01X7505903Y3078582D01*
G01X7504024Y3077007D01*
G01X7501992Y3075432D01*
G01X7498588Y3073146D01*
G01X7494829Y3070962D01*
G01X7490612Y3068879D01*
G01X7484669Y3066034D01*
G01X7476795Y3061716D01*
G01X7472223Y3058770D01*
G01X7468210Y3055823D01*
G01X7464704Y3052826D01*
G01X7461758Y3049829D01*
G01X7460488Y3048254D01*
G01X7459370Y3046730D01*
G01X7458354Y3045155D01*
G01X7457440Y3043580D01*
G01X7456729Y3041955D01*
G01X7456119Y3040329D01*
G01X7455611Y3038704D01*
G01X7455256Y3037027D01*
G01X7455002Y3035351D01*
G01X7454900Y3033624D01*
G01X7454951Y3031896D01*
G01X7455052Y3030118D01*
G01X7455357Y3028340D01*
G01X7455764Y3026512D01*
G01X7456272Y3024683D01*
G01X7456932Y3022803D01*
G01X7457694Y3020873D01*
G01X7459574Y3016961D01*
G01X7460082Y3016098D01*
G01X7461199Y3014320D01*
G01X7462469Y3012643D01*
G01X7463841Y3011068D01*
G01X7465314Y3009544D01*
G01X7466889Y3008122D01*
G01X7468616Y3006801D01*
G01X7470394Y3005531D01*
G01X7472324Y3004363D01*
G01X7474306Y3003245D01*
G01X7477404Y3001772D01*
G01X7480656Y3000502D01*
G01X7484110Y2999435D01*
G01X7487615Y2998521D01*
G01X7491273Y2997911D01*
G01X7494930Y2997454D01*
G01X7498690Y2997251D01*
G01X7502500D01*
G01X7506310Y2997454D01*
G01X7510120Y2997911D01*
G01X7513879Y2998622D01*
G01X7517587Y2999537D01*
G01X7521245Y3000756D01*
G01X7524801Y3002178D01*
G01X7528204Y3003855D01*
G01X7530033Y3004972D01*
G01X7531506Y3006293D01*
G01X7532776Y3007716D01*
G01X7533742Y3009240D01*
G01X7534504Y3010764D01*
G01X7534961Y3012338D01*
G01X7535164Y3013862D01*
G01Y3015336D01*
G01X7534910Y3016656D01*
G01X7534402Y3017825D01*
G01X7533640Y3018739D01*
G01X7532675Y3019450D01*
G01X7531506Y3019908D01*
G01X7530084Y3019958D01*
G01X7528458Y3019704D01*
G01X7526630Y3018993D01*
G01X7516012Y3014218D01*
G01X7513015Y3013100D01*
G01X7510323Y3012338D01*
G01X7507732Y3011881D01*
G01X7504938Y3011576D01*
G01X7499858Y3011475D01*
G01X7494524Y3011678D01*
G01X7492086Y3011932D01*
G01X7489800Y3012338D01*
G01X7487666Y3012846D01*
G01X7485685Y3013507D01*
G01X7483907Y3014269D01*
G01X7482230Y3015132D01*
G01X7480706Y3016148D01*
G01X7479335Y3017317D01*
G01X7478116Y3018587D01*
G01X7477049Y3019958D01*
G01X7476134Y3021482D01*
G01X7475372Y3023108D01*
G01X7474712Y3024886D01*
G01X7474255Y3026766D01*
G01X7473848Y3028950D01*
G01X7473645Y3030931D01*
G01Y3031896D01*
G01X7473696Y3032862D01*
G01X7473798Y3033776D01*
G01X7473899Y3034640D01*
G01X7474153Y3035554D01*
G01X7474407Y3036367D01*
G01X7474712Y3037230D01*
G01X7475118Y3038043D01*
G01X7475576Y3038856D01*
G01X7476134Y3039669D01*
G01X7476744Y3040431D01*
G01X7477404Y3041244D01*
G01X7479030Y3042768D01*
G01X7480910Y3044342D01*
G01X7483145Y3045917D01*
G01X7485736Y3047543D01*
G01X7490308Y3050083D01*
G01X7499909Y3054756D01*
G01X7509764Y3059633D01*
G01X7514996Y3062630D01*
G01X7519264Y3065628D01*
G01X7521092Y3067101D01*
G01X7522769Y3068625D01*
G01X7524191Y3070200D01*
G01X7525512Y3071825D01*
G01X7526680Y3073502D01*
G01X7527696Y3075280D01*
G01X7528611Y3077108D01*
G01X7529474Y3079090D01*
G01X7530186Y3081172D01*
G01X7530643Y3082747D01*
G01X7530998Y3084373D01*
G01X7531303Y3085998D01*
G01X7531456Y3087624D01*
G01X7531557Y3089199D01*
G01X7531506Y3090774D01*
G01X7531405Y3092348D01*
G01X7531252Y3093923D01*
G01X7530948Y3095498D01*
G01X7530592Y3097022D01*
G01X7530135Y3098495D01*
G01X7529576Y3099968D01*
G01X7528966Y3101442D01*
G01X7528306Y3102864D01*
G01X7527544Y3104236D01*
G01X7526680Y3105607D01*
G01X7525766Y3106928D01*
G01X7524750Y3108198D01*
G01X7523683Y3109417D01*
G01X7522566Y3110586D01*
G01X7520127Y3112821D01*
G01X7517384Y3114802D01*
G01X7514438Y3116529D01*
G01X7511288Y3118053D01*
G01X7507884Y3119272D01*
G01X7504278Y3120187D01*
G01X7500620Y3120796D01*
G01X7496861Y3121152D01*
G37*
G36*
G01X7898232Y3121203D02*
G01X7893863Y3121000D01*
G01X7889596Y3120593D01*
G01X7885430Y3119984D01*
G01X7881417Y3119069D01*
G01X7877505Y3117952D01*
G01X7873746Y3116631D01*
G01X7870190Y3115056D01*
G01X7866786Y3113278D01*
G01X7863637Y3111246D01*
G01X7860640Y3109062D01*
G01X7857896Y3106674D01*
G01X7855407Y3104032D01*
G01X7853121Y3101238D01*
G01X7852105Y3099765D01*
G01X7850175Y3096412D01*
G01X7848448Y3092704D01*
G01X7846924Y3088691D01*
G01X7845603Y3084373D01*
G01X7844536Y3079852D01*
G01X7843672Y3075127D01*
G01X7842758Y3067863D01*
G01X7842402Y3060497D01*
G01X7842453Y3059328D01*
G01X7859827D01*
G01X7859928Y3062986D01*
G01X7860233Y3066644D01*
G01X7860741Y3070250D01*
G01X7861402Y3073806D01*
G01X7862265Y3077261D01*
G01X7863281Y3080614D01*
G01X7864551Y3083916D01*
G01X7865974Y3087014D01*
G01X7867599Y3090012D01*
G01X7869377Y3092806D01*
G01X7871358Y3095396D01*
G01X7873543Y3097784D01*
G01X7875880Y3099968D01*
G01X7878420Y3101899D01*
G01X7879791Y3102762D01*
G01X7881163Y3103524D01*
G01X7882585Y3104286D01*
G01X7884058Y3104896D01*
G01X7885582Y3105506D01*
G01X7888173Y3106166D01*
G01X7891475Y3106623D01*
G01X7895234Y3106979D01*
G01X7903058Y3107182D01*
G01X7906614Y3107030D01*
G01X7909560Y3106674D01*
G01X7911694Y3106115D01*
G01X7917129Y3103931D01*
G01X7918196Y3103474D01*
G01X7919263Y3102915D01*
G01X7920279Y3102356D01*
G01X7921295Y3101696D01*
G01X7923225Y3100273D01*
G01X7925054Y3098597D01*
G01X7926781Y3096768D01*
G01X7928407Y3094787D01*
G01X7929931Y3092602D01*
G01X7931353Y3090266D01*
G01X7932623Y3087827D01*
G01X7933842Y3085236D01*
G01X7935366Y3081172D01*
G01X7936687Y3076854D01*
G01X7937703Y3072384D01*
G01X7938465Y3067812D01*
G01X7938973Y3063138D01*
G01X7939176Y3058363D01*
G01X7939075Y3053639D01*
G01X7938668Y3048965D01*
G01X7938008Y3044342D01*
G01X7936992Y3039872D01*
G01X7936179Y3036926D01*
G01X7935163Y3034132D01*
G01X7934046Y3031388D01*
G01X7932776Y3028798D01*
G01X7931404Y3026308D01*
G01X7929829Y3023972D01*
G01X7928102Y3021736D01*
G01X7927289Y3020822D01*
G01X7926375Y3019908D01*
G01X7925410Y3019095D01*
G01X7924343Y3018282D01*
G01X7922057Y3016758D01*
G01X7919517Y3015437D01*
G01X7916824Y3014269D01*
G01X7913929Y3013304D01*
G01X7910932Y3012491D01*
G01X7907782Y3011932D01*
G01X7904632Y3011526D01*
G01X7901381Y3011272D01*
G01X7898181D01*
G01X7894980Y3011475D01*
G01X7891831Y3011932D01*
G01X7888783Y3012542D01*
G01X7885836Y3013405D01*
G01X7883042Y3014523D01*
G01X7881569Y3015234D01*
G01X7880147Y3015996D01*
G01X7878724Y3016860D01*
G01X7877404Y3017774D01*
G01X7876134Y3018790D01*
G01X7873695Y3020924D01*
G01X7871460Y3023311D01*
G01X7869428Y3025902D01*
G01X7867599Y3028696D01*
G01X7865974Y3031693D01*
G01X7864500Y3034792D01*
G01X7863281Y3038043D01*
G01X7862214Y3041447D01*
G01X7861351Y3044901D01*
G01X7860690Y3048457D01*
G01X7860233Y3052013D01*
G01X7859928Y3055671D01*
G01X7859827Y3059328D01*
G01X7842453D01*
G01X7842606Y3053232D01*
G01X7843012Y3048457D01*
G01X7843672Y3043885D01*
G01X7844587Y3039516D01*
G01X7845755Y3035351D01*
G01X7847178Y3031541D01*
G01X7849260Y3026512D01*
G01X7849972Y3024734D01*
G01X7850784Y3023057D01*
G01X7852664Y3019806D01*
G01X7854848Y3016758D01*
G01X7857287Y3013964D01*
G01X7859928Y3011373D01*
G01X7862875Y3008986D01*
G01X7865974Y3006801D01*
G01X7869276Y3004871D01*
G01X7872781Y3003144D01*
G01X7876388Y3001620D01*
G01X7880147Y3000350D01*
G01X7883957Y2999283D01*
G01X7887919Y2998419D01*
G01X7891882Y2997810D01*
G01X7895946Y2997403D01*
G01X7900010Y2997200D01*
G01X7904023Y2997251D01*
G01X7908087Y2997505D01*
G01X7912049Y2997962D01*
G01X7916012Y2998673D01*
G01X7919822Y2999638D01*
G01X7923581Y3000756D01*
G01X7927188Y3002128D01*
G01X7930642Y3003753D01*
G01X7933995Y3005582D01*
G01X7937094Y3007614D01*
G01X7939989Y3009900D01*
G01X7942682Y3012389D01*
G01X7945120Y3015132D01*
G01X7947254Y3018079D01*
G01X7948219Y3019654D01*
G01X7949133Y3021279D01*
G01X7949946Y3022956D01*
G01X7950657Y3024683D01*
G01X7952740Y3029712D01*
G01X7953553Y3031896D01*
G01X7954315Y3034386D01*
G01X7954975Y3037180D01*
G01X7955737Y3041853D01*
G01X7956347Y3046882D01*
G01X7956753Y3054045D01*
G01Y3061360D01*
G01X7956347Y3068472D01*
G01X7955737Y3073552D01*
G01X7954924Y3078175D01*
G01X7954213Y3080969D01*
G01X7952943Y3085033D01*
G01X7951521Y3088843D01*
G01X7949844Y3092450D01*
G01X7948016Y3095904D01*
G01X7945933Y3099105D01*
G01X7943698Y3102102D01*
G01X7941310Y3104896D01*
G01X7938719Y3107487D01*
G01X7935925Y3109874D01*
G01X7932979Y3112008D01*
G01X7929829Y3113938D01*
G01X7926527Y3115666D01*
G01X7923073Y3117139D01*
G01X7919415Y3118358D01*
G01X7915656Y3119374D01*
G01X7911694Y3120136D01*
G01X7907122Y3120746D01*
G01X7902651Y3121101D01*
G37*
G36*
G01X8220100Y3120746D02*
G01X8216240Y3120695D01*
G01X8212430Y3120441D01*
G01X8208670Y3120034D01*
G01X8204962Y3119425D01*
G01X8201457Y3118612D01*
G01X8198104Y3117647D01*
G01X8194954Y3116529D01*
G01X8192059Y3115310D01*
G01X8189417Y3113888D01*
G01X8187131Y3112414D01*
G01X8185150Y3110840D01*
G01X8183626Y3109163D01*
G01X8182458Y3107385D01*
G01X8181797Y3105556D01*
G01X8181442Y3103778D01*
G01X8181238Y3102204D01*
G01X8181137Y3100832D01*
G01X8181188Y3099664D01*
G01X8181391Y3098749D01*
G01X8181746Y3097936D01*
G01X8182254Y3097378D01*
G01X8182915Y3097022D01*
G01X8183778Y3096819D01*
G01X8184794D01*
G01X8185963Y3097022D01*
G01X8187334Y3097378D01*
G01X8188909Y3097936D01*
G01X8190636Y3098698D01*
G01X8194751Y3100730D01*
G01X8198104Y3102407D01*
G01X8201406Y3103778D01*
G01X8204708Y3104947D01*
G01X8207908Y3105810D01*
G01X8211058Y3106471D01*
G01X8214157Y3106877D01*
G01X8217205Y3107080D01*
G01X8220151Y3107030D01*
G01X8223047Y3106776D01*
G01X8225841Y3106268D01*
G01X8228533Y3105556D01*
G01X8231124Y3104642D01*
G01X8233613Y3103524D01*
G01X8236052Y3102204D01*
G01X8238338Y3100680D01*
G01X8240522Y3098952D01*
G01X8242554Y3097073D01*
G01X8244484Y3094939D01*
G01X8246262Y3092704D01*
G01X8247939Y3090266D01*
G01X8249412Y3087624D01*
G01X8250784Y3084881D01*
G01X8252003Y3081934D01*
G01X8253019Y3078836D01*
G01X8253933Y3075584D01*
G01X8254644Y3072232D01*
G01X8255152Y3068676D01*
G01X8255508Y3065018D01*
G01X8255660Y3061208D01*
G01X8255559Y3055264D01*
G01X8255000Y3049067D01*
G01X8254797Y3047441D01*
G01X8254238Y3044342D01*
G01X8253527Y3041345D01*
G01X8252714Y3038500D01*
G01X8251749Y3035757D01*
G01X8250631Y3033166D01*
G01X8249412Y3030677D01*
G01X8248040Y3028340D01*
G01X8246567Y3026156D01*
G01X8244992Y3024124D01*
G01X8243316Y3022194D01*
G01X8241538Y3020466D01*
G01X8239658Y3018841D01*
G01X8237728Y3017368D01*
G01X8235645Y3016047D01*
G01X8233512Y3014878D01*
G01X8231276Y3013862D01*
G01X8228990Y3012999D01*
G01X8226654Y3012288D01*
G01X8224215Y3011780D01*
G01X8221726Y3011424D01*
G01X8219186Y3011221D01*
G01X8216595Y3011170D01*
G01X8213954Y3011322D01*
G01X8211261Y3011627D01*
G01X8208569Y3012084D01*
G01X8205826Y3012745D01*
G01X8203032Y3013608D01*
G01X8200288Y3014624D01*
G01X8197444Y3015793D01*
G01X8194650Y3017215D01*
G01X8188960Y3020466D01*
G01X8187639Y3021076D01*
G01X8186420Y3021482D01*
G01X8185252Y3021736D01*
G01X8184236Y3021838D01*
G01X8183270Y3021736D01*
G01X8182458Y3021482D01*
G01X8181797Y3021025D01*
G01X8181238Y3020466D01*
G01X8180781Y3019704D01*
G01X8180527Y3018790D01*
G01X8180375Y3017774D01*
G01Y3016606D01*
G01X8180527Y3015285D01*
G01X8180832Y3013812D01*
G01X8181340Y3012237D01*
G01X8181848Y3011018D01*
G01X8182610Y3009798D01*
G01X8183474Y3008681D01*
G01X8184540Y3007563D01*
G01X8185760Y3006547D01*
G01X8187080Y3005531D01*
G01X8188604Y3004617D01*
G01X8190230Y3003702D01*
G01X8191957Y3002890D01*
G01X8195767Y3001416D01*
G01X8199933Y3000197D01*
G01X8204403Y2999181D01*
G01X8209128Y2998470D01*
G01X8213954Y2998064D01*
G01X8218881Y2997911D01*
G01X8223860Y2998013D01*
G01X8228736Y2998470D01*
G01X8233512Y2999232D01*
G01X8238033Y3000350D01*
G01X8242351Y3001772D01*
G01X8244383Y3002636D01*
G01X8247786Y3004464D01*
G01X8251444Y3006903D01*
G01X8255102Y3009748D01*
G01X8258607Y3012846D01*
G01X8261655Y3015894D01*
G01X8264093Y3018790D01*
G01X8265719Y3021330D01*
G01X8266328Y3023260D01*
G01X8266430Y3023768D01*
G01X8266836Y3024784D01*
G01X8268157Y3027680D01*
G01X8269072Y3029763D01*
G01X8270342Y3033217D01*
G01X8271408Y3036976D01*
G01X8272323Y3040939D01*
G01X8273034Y3045104D01*
G01X8273694Y3050845D01*
G01X8273999Y3056585D01*
G01X8273948Y3062326D01*
G01X8273644Y3066542D01*
G01X8273136Y3070555D01*
G01X8272120Y3075635D01*
G01X8270850Y3080512D01*
G01X8269326Y3085135D01*
G01X8267497Y3089554D01*
G01X8265465Y3093669D01*
G01X8263128Y3097530D01*
G01X8260537Y3101137D01*
G01X8257743Y3104490D01*
G01X8254746Y3107538D01*
G01X8251495Y3110281D01*
G01X8247990Y3112719D01*
G01X8244332Y3114853D01*
G01X8240471Y3116682D01*
G01X8236407Y3118155D01*
G01X8232140Y3119323D01*
G01X8227720Y3120136D01*
G01X8223910Y3120542D01*
G37*
G36*
G01X7582357Y3120746D02*
G01X7578395Y3120492D01*
G01X7574483Y3120085D01*
G01X7570724Y3119425D01*
G01X7567168Y3118612D01*
G01X7563764Y3117647D01*
G01X7560615Y3116478D01*
G01X7557719Y3115158D01*
G01X7555128Y3113684D01*
G01X7552893Y3112110D01*
G01X7550963Y3110382D01*
G01X7549490Y3108554D01*
G01X7548423Y3106623D01*
G01X7547813Y3104642D01*
G01X7547610Y3103169D01*
G01X7547508Y3101899D01*
G01X7547559Y3100730D01*
G01X7547661Y3099714D01*
G01X7547966Y3098800D01*
G01X7548321Y3098089D01*
G01X7548778Y3097479D01*
G01X7549388Y3097022D01*
G01X7550048Y3096717D01*
G01X7550810Y3096565D01*
G01X7551674Y3096514D01*
G01X7552639Y3096666D01*
G01X7553706Y3096971D01*
G01X7554824Y3097428D01*
G01X7556043Y3098038D01*
G01X7561326Y3101086D01*
G01X7565288Y3103016D01*
G01X7569302Y3104540D01*
G01X7573315Y3105709D01*
G01X7577328Y3106522D01*
G01X7581240Y3106928D01*
G01X7585151Y3107030D01*
G01X7588910Y3106725D01*
G01X7592619Y3106064D01*
G01X7594397Y3105607D01*
G01X7596175Y3105048D01*
G01X7597902Y3104439D01*
G01X7599578Y3103728D01*
G01X7601204Y3102915D01*
G01X7602830Y3102000D01*
G01X7604354Y3101035D01*
G01X7605878Y3099918D01*
G01X7607300Y3098800D01*
G01X7608722Y3097530D01*
G01X7610043Y3096209D01*
G01X7611313Y3094787D01*
G01X7612532Y3093263D01*
G01X7613650Y3091688D01*
G01X7615276Y3089097D01*
G01X7616698Y3086252D01*
G01X7617917Y3083103D01*
G01X7619035Y3079801D01*
G01X7619949Y3076245D01*
G01X7620711Y3072587D01*
G01X7621524Y3066847D01*
G01X7621930Y3060954D01*
G01Y3055061D01*
G01X7621473Y3049168D01*
G01X7620965Y3045358D01*
G01X7620254Y3041701D01*
G01X7619340Y3038145D01*
G01X7618222Y3034741D01*
G01X7617816Y3033674D01*
G01X7616952Y3031642D01*
G01X7615936Y3029661D01*
G01X7614818Y3027782D01*
G01X7613599Y3026004D01*
G01X7612329Y3024327D01*
G01X7610958Y3022752D01*
G01X7609484Y3021279D01*
G01X7607910Y3019908D01*
G01X7606284Y3018638D01*
G01X7604608Y3017469D01*
G01X7602830Y3016402D01*
G01X7600950Y3015488D01*
G01X7599070Y3014624D01*
G01X7597089Y3013862D01*
G01X7595108Y3013253D01*
G01X7593025Y3012694D01*
G01X7590942Y3012288D01*
G01X7588758Y3011983D01*
G01X7586574Y3011780D01*
G01X7584338Y3011729D01*
G01X7582052Y3011780D01*
G01X7578598Y3012034D01*
G01X7575093Y3012542D01*
G01X7571588Y3013354D01*
G01X7567981Y3014421D01*
G01X7564425Y3015742D01*
G01X7560818Y3017368D01*
G01X7557262Y3019247D01*
G01X7554417Y3020822D01*
G01X7552233Y3021889D01*
G01X7550556Y3022448D01*
G01X7549337Y3022498D01*
G01X7548524Y3021940D01*
G01X7548016Y3020873D01*
G01X7547712Y3019146D01*
G01X7547559Y3016860D01*
G01X7547508Y3015742D01*
G01Y3013862D01*
G01X7547559Y3013050D01*
G01X7547661Y3012338D01*
G01X7547813Y3011678D01*
G01X7548067Y3011068D01*
G01X7548372Y3010459D01*
G01X7548728Y3009900D01*
G01X7549185Y3009392D01*
G01X7549744Y3008833D01*
G01X7550404Y3008274D01*
G01X7551166Y3007665D01*
G01X7554214Y3005684D01*
G01X7556449Y3004312D01*
G01X7558735Y3003093D01*
G01X7561123Y3001975D01*
G01X7563510Y3001010D01*
G01X7568540Y2999384D01*
G01X7573670Y2998216D01*
G01X7578903Y2997556D01*
G01X7584186Y2997302D01*
G01X7589520Y2997505D01*
G01X7594752Y2998165D01*
G01X7599883Y2999232D01*
G01X7604912Y3000705D01*
G01X7609738Y3002636D01*
G01X7614310Y3004922D01*
G01X7618578Y3007614D01*
G01X7620610Y3009087D01*
G01X7622489Y3010713D01*
G01X7624318Y3012389D01*
G01X7626045Y3014167D01*
G01X7627671Y3015996D01*
G01X7629144Y3017977D01*
G01X7630211Y3019501D01*
G01X7631176Y3021178D01*
G01X7633005Y3024734D01*
G01X7634630Y3028645D01*
G01X7636053Y3032811D01*
G01X7637272Y3037230D01*
G01X7638288Y3041802D01*
G01X7639406Y3048914D01*
G01X7640015Y3056077D01*
G01X7640066Y3063240D01*
G01X7639812Y3067863D01*
G01X7639355Y3072333D01*
G01X7638593Y3076550D01*
G01X7637577Y3080563D01*
G01X7636358Y3084220D01*
G01X7635596Y3085897D01*
G01X7634326Y3088640D01*
G01X7631328Y3094634D01*
G01X7629500Y3097682D01*
G01X7627264Y3100934D01*
G01X7625893Y3102661D01*
G01X7624420Y3104388D01*
G01X7622794Y3106064D01*
G01X7621067Y3107690D01*
G01X7617257Y3110687D01*
G01X7613091Y3113380D01*
G01X7608621Y3115716D01*
G01X7604049Y3117647D01*
G01X7599324Y3119120D01*
G01X7596988Y3119628D01*
G01X7594651Y3120034D01*
G01X7590536Y3120492D01*
G01X7586421Y3120746D01*
G37*
G36*
G01X7676998Y3120187D02*
G01X7674762Y3120136D01*
G01X7672527Y3119882D01*
G01X7670546Y3119425D01*
G01X7668971Y3118815D01*
G01X7668006Y3118002D01*
G01X7667650Y3116275D01*
G01X7667041Y3106369D01*
G01X7666584Y3019603D01*
G01X7667346Y3002229D01*
G01X7667701Y3000502D01*
G01X7668108Y3000045D01*
G01X7668616Y2999689D01*
G01X7669276Y2999435D01*
G01X7670089Y2999283D01*
G01X7671156Y2999130D01*
G01X7672527D01*
G01X7676286Y2999181D01*
G01X7683551Y2999435D01*
G01X7683805Y3058617D01*
G01Y3108909D01*
G01X7683297Y3116732D01*
G01X7682433Y3118917D01*
G01X7681011Y3119577D01*
G01X7679131Y3119984D01*
G37*
G36*
G01X8037881Y3120136D02*
G01X8021879Y3119526D01*
G01X8011109Y3118510D01*
G01X8005826Y3117647D01*
G01X8003997Y3117190D01*
G01X8001711Y3116326D01*
G01X7999527Y3115412D01*
G01X7997444Y3114396D01*
G01X7995514Y3113278D01*
G01X7993634Y3112110D01*
G01X7991907Y3110789D01*
G01X7990281Y3109417D01*
G01X7988757Y3107995D01*
G01X7987335Y3106522D01*
G01X7986065Y3104947D01*
G01X7984896Y3103321D01*
G01X7983830Y3101645D01*
G01X7982915Y3099918D01*
G01X7982102Y3098190D01*
G01X7981442Y3096412D01*
G01X7980883Y3094584D01*
G01X7980477Y3092755D01*
G01X7980172Y3090875D01*
G01X7979969Y3088996D01*
G01Y3087116D01*
G01X7980020Y3085541D01*
G01X7998409D01*
G01Y3087065D01*
G01X7998511Y3088589D01*
G01X7998714Y3090062D01*
G01X7999070Y3091536D01*
G01X7999527Y3092958D01*
G01X8000086Y3094380D01*
G01X8000797Y3095752D01*
G01X8001610Y3097073D01*
G01X8002575Y3098343D01*
G01X8003642Y3099562D01*
G01X8004810Y3100680D01*
G01X8006131Y3101746D01*
G01X8007553Y3102712D01*
G01X8009128Y3103626D01*
G01X8010855Y3104388D01*
G01X8013243Y3104998D01*
G01X8017002Y3105506D01*
G01X8026603Y3106115D01*
G01X8035696Y3106064D01*
G01X8038846Y3105760D01*
G01X8040370Y3105302D01*
G01X8040827Y3103423D01*
G01X8041183Y3099257D01*
G01X8041691Y3080360D01*
G01X8041386Y3069844D01*
G01X8041030Y3067406D01*
G01X8040726Y3067101D01*
G01X8040065Y3066847D01*
G01X8039100Y3066593D01*
G01X8036357Y3066237D01*
G01X8030921Y3065932D01*
G01X8024724Y3065983D01*
G01X8018729Y3066339D01*
G01X8015376Y3066796D01*
G01X8013548Y3067202D01*
G01X8011820Y3067761D01*
G01X8010144Y3068371D01*
G01X8008620Y3069133D01*
G01X8007198Y3069996D01*
G01X8005877Y3070962D01*
G01X8004658Y3072028D01*
G01X8003540Y3073146D01*
G01X8002524Y3074314D01*
G01X8001610Y3075584D01*
G01X8000848Y3076905D01*
G01X8000136Y3078277D01*
G01X7999578Y3079648D01*
G01X7999120Y3081122D01*
G01X7998765Y3082595D01*
G01X7998511Y3084068D01*
G01X7998409Y3085541D01*
G01X7980020D01*
G01Y3085236D01*
G01X7980274Y3083306D01*
G01X7980629Y3081426D01*
G01X7981137Y3079598D01*
G01X7981747Y3077718D01*
G01X7982560Y3075889D01*
G01X7983474Y3074111D01*
G01X7984541Y3072333D01*
G01X7985709Y3070606D01*
G01X7987081Y3068930D01*
G01X7988554Y3067304D01*
G01X7990180Y3065729D01*
G01X7993837Y3062630D01*
G01X7995768Y3061360D01*
G01X7996377Y3061208D01*
G01X7997342Y3060802D01*
G01X7999984Y3059481D01*
G01X8003438Y3057550D01*
G01X7998308Y3052826D01*
G01X7997393Y3051912D01*
G01X7995514Y3049880D01*
G01X7993685Y3047543D01*
G01X7991907Y3044952D01*
G01X7990129Y3042006D01*
G01X7987436Y3037027D01*
G01X7983982Y3029255D01*
G01X7980375Y3021025D01*
G01X7978089Y3015945D01*
G01X7975244Y3009697D01*
G01X7974432Y3007716D01*
G01X7973822Y3005684D01*
G01X7973466Y3003804D01*
G01X7973416Y3002331D01*
G01X7973720Y2999435D01*
G01X7989265D01*
G01X7990942Y3002686D01*
G01X7991348Y3003550D01*
G01X7998003Y3018739D01*
G01X8004302Y3033116D01*
G01X8007045Y3038500D01*
G01X8008772Y3041447D01*
G01X8010449Y3043936D01*
G01X8012125Y3046070D01*
G01X8012989Y3046933D01*
G01X8013852Y3047746D01*
G01X8014767Y3048508D01*
G01X8016596Y3049727D01*
G01X8017561Y3050184D01*
G01X8018577Y3050642D01*
G01X8019593Y3050997D01*
G01X8020710Y3051302D01*
G01X8021828Y3051505D01*
G01X8024266Y3051861D01*
G01X8026959Y3052013D01*
G01X8031480D01*
G01X8041132Y3051708D01*
G01X8041589Y3025597D01*
G01X8042097Y2999435D01*
G01X8049362Y2999181D01*
G01X8050022Y2999130D01*
G01X8052664Y2998978D01*
G01X8053273Y2998927D01*
G01X8053730Y2998978D01*
G01X8053984D01*
G01X8054289Y2999029D01*
G01X8054543Y2999080D01*
G01X8054797Y2999181D01*
G01X8055000Y2999283D01*
G01X8055254Y2999384D01*
G01X8055356Y2999486D01*
G01X8055458Y2999537D01*
G01X8055559Y2999638D01*
G01X8055762Y2999791D01*
G01X8055966Y3000045D01*
G01X8056118Y3000248D01*
G01X8056575Y3001162D01*
G01X8056728Y3001569D01*
G01X8056931Y3002178D01*
G01X8057134Y3002890D01*
G01X8057337Y3004058D01*
G01X8057591Y3006090D01*
G01X8057896Y3010510D01*
G01X8058201Y3058008D01*
G01X8057693Y3110078D01*
G01X8057185Y3114650D01*
G01X8056423Y3117190D01*
G01X8055407Y3118460D01*
G01X8053984Y3119120D01*
G01X8052613Y3119476D01*
G01X8050581Y3119780D01*
G01X8047990Y3119984D01*
G37*
G36*
G01X8440217Y3120136D02*
G01X8437982Y3120034D01*
G01X8435950Y3119730D01*
G01X8434273Y3119222D01*
G01X8433257Y3118561D01*
G01X8433206Y3118460D01*
G01X8433156Y3118409D01*
G01X8433003Y3118104D01*
G01X8432902Y3117799D01*
G01X8432800Y3117444D01*
G01X8432698Y3116783D01*
G01X8432546Y3115615D01*
G01X8432292Y3112262D01*
G01X8431581Y3065475D01*
G01X8431225Y3013913D01*
G01X8423250Y3013354D01*
G01X8421319Y3013253D01*
G01X8399932Y3012745D01*
G01X8389976Y3012643D01*
G01X8386877Y3012389D01*
G01X8384794Y3011881D01*
G01X8383524Y3011068D01*
G01X8382864Y3009849D01*
G01X8382610Y3008122D01*
G01X8382559Y3005887D01*
G01Y3002991D01*
G01X8382610Y3002534D01*
G01X8382762Y3001924D01*
G01X8382813Y3001772D01*
G01X8382914Y3001569D01*
G01X8382965Y3001416D01*
G01X8383067Y3001213D01*
G01X8383219Y3001061D01*
G01X8383321Y3000908D01*
G01X8383473Y3000807D01*
G01X8383626Y3000654D01*
G01X8383829Y3000502D01*
G01X8383981Y3000400D01*
G01X8384235Y3000299D01*
G01X8384438Y3000197D01*
G01X8384692Y3000096D01*
G01X8385302Y2999892D01*
G01X8385962Y2999740D01*
G01X8386724Y2999588D01*
G01X8388045Y2999384D01*
G01X8390890Y2999181D01*
G01X8414563Y2999029D01*
G01X8439404Y2999283D01*
G01X8444382Y2999740D01*
G01X8446567Y3000451D01*
G01X8447024Y3002077D01*
G01X8447481Y3005988D01*
G01X8448751Y3037992D01*
G01X8448650Y3106928D01*
G01X8447938Y3116885D01*
G01X8447481Y3118612D01*
G01X8446313Y3119272D01*
G01X8444586Y3119730D01*
G01X8442503Y3120034D01*
G37*
G36*
G01X7726375Y3120034D02*
G01X7724546Y3119831D01*
G01X7722819Y3119526D01*
G01X7721397Y3119069D01*
G01X7720279Y3118460D01*
G01X7718196Y3116834D01*
G01X7718450Y3059836D01*
G01X7718806Y3016301D01*
G01X7719263Y3007512D01*
G01X7719670Y3004515D01*
G01X7720178Y3002280D01*
G01X7720889Y3000756D01*
G01X7721702Y2999740D01*
G01X7722768Y2999181D01*
G01X7723988Y2998927D01*
G01X7725461Y2998876D01*
G01X7729169Y2998978D01*
G01X7730795Y2999029D01*
G01X7733690Y2999232D01*
G01X7735011Y2999435D01*
G01X7736230Y2999740D01*
G01X7737348Y3000096D01*
G01X7738415Y3000502D01*
G01X7739431Y3001061D01*
G01X7740345Y3001670D01*
G01X7741260Y3002382D01*
G01X7742123Y3003194D01*
G01X7742987Y3004109D01*
G01X7743800Y3005125D01*
G01X7744612Y3006293D01*
G01X7746289Y3008935D01*
G01X7759751Y3032455D01*
G01X7767066Y3045308D01*
G01X7773924Y3057246D01*
G01X7790688Y3086964D01*
G01X7796530Y3097174D01*
G01X7797343Y3098394D01*
G01X7797444D01*
G01X7797495Y3098343D01*
G01Y3098241D01*
G01X7797546Y3098140D01*
G01Y3098038D01*
G01X7797597Y3097733D01*
G01X7797698Y3097073D01*
G01X7797902Y3094279D01*
G01X7798359Y3050286D01*
G01X7798511Y3013659D01*
G01X7798867Y3006242D01*
G01X7799222Y3003702D01*
G01X7799629Y3001823D01*
G01X7800238Y3000502D01*
G01X7800950Y2999638D01*
G01X7801813Y2999181D01*
G01X7802880Y2998978D01*
G01X7804099D01*
G01X7807249Y2999181D01*
G01X7814462Y2999435D01*
G01Y3116834D01*
G01X7811059Y3118460D01*
G01X7809586Y3119069D01*
G01X7808062Y3119526D01*
G01X7806538Y3119831D01*
G01X7804861Y3119984D01*
G01X7803083D01*
G01X7801102Y3119831D01*
G01X7796428Y3119069D01*
G01X7794904Y3118764D01*
G01X7793838Y3118460D01*
G01X7793076Y3118206D01*
G01X7792161Y3117799D01*
G01X7791704Y3117545D01*
G01X7791247Y3117240D01*
G01X7790332Y3116529D01*
G01X7789875Y3116072D01*
G01X7789164Y3115310D01*
G01X7788402Y3114396D01*
G01X7787284Y3112922D01*
G01X7785405Y3110078D01*
G01X7774483Y3091180D01*
G01X7766101Y3076499D01*
G01X7737348Y3024937D01*
G01X7737246Y3024734D01*
G01X7736942Y3024175D01*
G01X7736789Y3023921D01*
G01X7736688Y3023768D01*
G01X7736586Y3023718D01*
G01X7736535Y3023616D01*
G01X7736332Y3023514D01*
G01X7736230D01*
G01X7736129Y3023565D01*
G01X7735926Y3023768D01*
G01X7735773Y3024226D01*
G01X7735672Y3024683D01*
G01X7735570Y3025242D01*
G01X7735418Y3026308D01*
G01X7735214Y3029407D01*
G01X7734859Y3070504D01*
G01X7734605Y3111754D01*
G01X7734046Y3117596D01*
G01X7732979Y3119120D01*
G01X7731658Y3119577D01*
G01X7730033Y3119882D01*
G01X7728255Y3120034D01*
G37*
G36*
G01X8124749Y3120034D02*
G01X8087411Y3119780D01*
G01X8081874Y3119272D01*
G01X8078673Y3118460D01*
G01X8077200Y3117190D01*
G01X8076794Y3115361D01*
G01Y3110992D01*
G01X8076895Y3109925D01*
G01X8076946Y3109468D01*
G01X8077048Y3109011D01*
G01X8077200Y3108604D01*
G01X8077352Y3108249D01*
G01X8077556Y3107893D01*
G01X8077759Y3107588D01*
G01X8078013Y3107284D01*
G01X8078724Y3106776D01*
G01X8079130Y3106572D01*
G01X8079638Y3106369D01*
G01X8080146Y3106217D01*
G01X8080756Y3106064D01*
G01X8081416Y3105963D01*
G01X8082991Y3105709D01*
G01X8085938Y3105506D01*
G01X8097926Y3105404D01*
G01X8115859D01*
G01Y3053283D01*
G01X8115910Y3019958D01*
G01X8116367Y3006750D01*
G01X8116672Y3004058D01*
G01X8117129Y3002026D01*
G01X8117688Y3000654D01*
G01X8118399Y2999740D01*
G01X8119262Y2999181D01*
G01X8120278Y2998978D01*
G01X8121548Y2998927D01*
G01X8124647Y2998978D01*
G01X8127441Y2998927D01*
G01X8128864D01*
G01X8129270Y2998978D01*
G01X8129575Y2999029D01*
G01X8129829Y2999130D01*
G01X8130032Y2999181D01*
G01X8130286Y2999283D01*
G01X8130489Y2999435D01*
G01X8130692Y2999537D01*
G01X8130896Y2999740D01*
G01X8131099Y2999892D01*
G01X8131302Y3000146D01*
G01X8131454Y3000350D01*
G01X8131912Y3001264D01*
G01X8132064Y3001620D01*
G01X8132267Y3002280D01*
G01X8132420Y3002940D01*
G01X8132623Y3004058D01*
G01X8132877Y3005988D01*
G01X8133182Y3010205D01*
G01X8133436Y3053283D01*
G01Y3105404D01*
G01X8151114D01*
G01X8158328Y3105455D01*
G01X8168538Y3105963D01*
G01X8170621Y3106318D01*
G01X8171485Y3107182D01*
G01X8172145Y3108706D01*
G01X8172552Y3110586D01*
G01X8172704Y3112668D01*
G01X8172602Y3114751D01*
G01X8172247Y3116682D01*
G01X8171637Y3118155D01*
G01X8170824Y3119069D01*
G01X8170723Y3119120D01*
G01X8170672D01*
G01X8170570Y3119171D01*
G01X8170266Y3119222D01*
G01X8169656Y3119272D01*
G01X8166710Y3119476D01*
G37*
G36*
G01X8337804Y3119984D02*
G01X8301634Y3119577D01*
G01X8296300Y3119171D01*
G01X8295284Y3118917D01*
G01X8294522Y3118206D01*
G01X8293913Y3117190D01*
G01X8293456Y3115920D01*
G01X8293100Y3114548D01*
G01X8292948Y3113075D01*
G01Y3111551D01*
G01X8293151Y3110128D01*
G01X8293557Y3108808D01*
G01X8294573Y3106318D01*
G01X8308035D01*
G01X8333943Y3105709D01*
G01X8346389Y3105099D01*
G01Y3068676D01*
G01X8324545D01*
G01X8306460Y3068422D01*
G01X8303565Y3068015D01*
G01X8301787Y3067355D01*
G01X8300771Y3066288D01*
G01X8300212Y3064866D01*
G01X8299856Y3062935D01*
G01X8299552Y3061157D01*
G01X8299501Y3060141D01*
G01X8299450Y3059684D01*
G01X8299501Y3059278D01*
G01X8299552Y3058922D01*
G01X8299653Y3058566D01*
G01X8299856Y3058211D01*
G01X8300060Y3057906D01*
G01X8300314Y3057652D01*
G01X8300618Y3057398D01*
G01X8301025Y3057144D01*
G01X8301482Y3056941D01*
G01X8301990Y3056788D01*
G01X8302600Y3056636D01*
G01X8303260Y3056484D01*
G01X8304886Y3056230D01*
G01X8308035Y3055976D01*
G01X8323732Y3055671D01*
G01X8345932Y3055417D01*
G01X8346186Y3034182D01*
G01X8346440Y3012999D01*
G01X8342782Y3012440D01*
G01X8342274Y3012389D01*
G01X8340649Y3012237D01*
G01X8316417Y3011830D01*
G01X8304124Y3011678D01*
G01X8298434Y3011322D01*
G01X8296250Y3011018D01*
G01X8294472Y3010662D01*
G01X8293100Y3010154D01*
G01X8292084Y3009595D01*
G01X8291373Y3008833D01*
G01X8291017Y3008020D01*
G01X8290916Y3007004D01*
G01X8291068Y3005836D01*
G01X8291474Y3004515D01*
G01X8292033Y3003042D01*
G01X8292846Y3001315D01*
G01X8293964Y2998978D01*
G01X8326882D01*
G01X8345881Y2998622D01*
G01X8350402Y2998673D01*
G01X8352739Y2998826D01*
G01X8354060Y2998978D01*
G01X8355228Y2999232D01*
G01X8355940Y2999384D01*
G01X8356651Y2999638D01*
G01X8357311Y2999892D01*
G01X8357921Y3000146D01*
G01X8358480Y3000451D01*
G01X8359038Y3000807D01*
G01X8359546Y3001213D01*
G01X8360004Y3001670D01*
G01X8360410Y3002128D01*
G01X8360816Y3002686D01*
G01X8361172Y3003245D01*
G01X8361528Y3003906D01*
G01X8361832Y3004566D01*
G01X8362137Y3005277D01*
G01X8362493Y3006496D01*
G01X8362798Y3007868D01*
G01X8363153Y3009849D01*
G01X8363458Y3012694D01*
G01X8363763Y3017469D01*
G01X8363814Y3057093D01*
G01X8363458Y3109366D01*
G01X8362899Y3114142D01*
G01X8362036Y3116885D01*
G01X8360867Y3118256D01*
G01X8359343Y3119018D01*
G01X8357972Y3119272D01*
G01X8355482Y3119476D01*
G37*
G36*
G01X8510829Y3119984D02*
G01X8485073Y3119730D01*
G01X8481162Y3119222D01*
G01X8478825Y3118307D01*
G01X8477707Y3116986D01*
G01X8477352Y3115107D01*
G01X8477301Y3112567D01*
G01X8477352Y3111551D01*
G01X8477402Y3110636D01*
G01X8477504Y3109824D01*
G01X8477606Y3109468D01*
G01X8477758Y3109163D01*
G01X8478164Y3108554D01*
G01X8478469Y3108300D01*
G01X8478774Y3108096D01*
G01X8479180Y3107842D01*
G01X8479638Y3107690D01*
G01X8480196Y3107487D01*
G01X8480806Y3107334D01*
G01X8481466Y3107182D01*
G01X8483092Y3106928D01*
G01X8486292Y3106623D01*
G01X8504733Y3106064D01*
G01X8514283Y3105861D01*
G01X8522614Y3105607D01*
G01X8525002Y3105302D01*
G01X8526018Y3105150D01*
G01X8526882Y3104896D01*
G01X8527644Y3104642D01*
G01X8528355Y3104337D01*
G01X8528914Y3103931D01*
G01X8529422Y3103524D01*
G01X8529828Y3103016D01*
G01X8530184Y3102458D01*
G01X8530488Y3101797D01*
G01X8530692Y3101086D01*
G01X8530844Y3100273D01*
G01X8530946Y3099359D01*
G01X8531047Y3097276D01*
G01X8530844Y3086506D01*
G01X8530539Y3069133D01*
G01X8509152Y3068930D01*
G01X8501024Y3068828D01*
G01X8490661Y3068371D01*
G01X8487816Y3067812D01*
G01X8486191Y3066948D01*
G01X8485429Y3065678D01*
G01X8485226Y3063850D01*
G01X8485327Y3061462D01*
G01X8485632Y3056331D01*
G01X8507120Y3056077D01*
G01X8519160Y3056026D01*
G01X8523326Y3055823D01*
G01X8525459Y3055518D01*
G01X8526374Y3055366D01*
G01X8527186Y3055112D01*
G01X8527898Y3054807D01*
G01X8528507Y3054401D01*
G01X8529015Y3053994D01*
G01X8529523Y3053486D01*
G01X8529879Y3052928D01*
G01X8530234Y3052267D01*
G01X8530488Y3051505D01*
G01X8530692Y3050692D01*
G01X8530844Y3049778D01*
G01X8530946Y3048711D01*
G01X8531098Y3046324D01*
G01X8531047Y3033878D01*
G01Y3029661D01*
G01X8531098Y3020974D01*
G01X8530946Y3019247D01*
G01X8530844Y3018231D01*
G01X8530641Y3017266D01*
G01X8530438Y3016453D01*
G01X8529980Y3015386D01*
G01X8529574Y3014777D01*
G01X8528812Y3014015D01*
G01X8528202Y3013608D01*
G01X8527847Y3013405D01*
G01X8527491Y3013253D01*
G01X8526678Y3012948D01*
G01X8525713Y3012694D01*
G01X8524697Y3012491D01*
G01X8523529Y3012338D01*
G01X8520786Y3012135D01*
G01X8503514Y3011830D01*
G01X8477910Y3011373D01*
G01X8477250Y3008376D01*
G01X8477047Y3007004D01*
G01X8476945Y3005430D01*
G01X8477047Y3003855D01*
G01X8477250Y3002432D01*
G01X8477910Y2999435D01*
G01X8510981Y2999232D01*
G01X8538972Y2999283D01*
G01X8543900Y2999689D01*
G01X8545881Y3000502D01*
G01X8546033Y3000654D01*
G01X8546135Y3000807D01*
G01X8546236Y3000908D01*
G01X8546338Y3001112D01*
G01X8546440Y3001213D01*
G01X8546541Y3001467D01*
G01X8546744Y3002178D01*
G01X8546897Y3002890D01*
G01X8547049Y3004160D01*
G01X8547303Y3007411D01*
G01X8547659Y3059074D01*
G01X8547151Y3111703D01*
G01X8546592Y3115818D01*
G01X8545728Y3117901D01*
G01X8544458Y3118815D01*
G01X8542782Y3119425D01*
G01X8542680D01*
G01X8542477Y3119476D01*
G01X8541461Y3119526D01*
G37*
G04 Image End*
G04 Image End*

G04 Text Start*
G54D10*
G01X7752214Y4716526D02*
G01X7752214Y4689094D01*
G01X7753992Y4683760D01*
G01X7755516Y4682236D01*
G01X7759072Y4680458D01*
G01X7762374D01*
G01X7765930Y4682236D01*
G01X7767708Y4683760D01*
G01X7769232Y4689094D01*
G01Y4692396D01*
G01X7728846Y4716526D02*
G01X7728846Y4680458D01*
G01X7728846Y4680458D02*
G01X7708272Y4680458D01*
G01X7659250Y4707890D02*
G01X7661028Y4711446D01*
G01X7664330Y4714748D01*
G01X7667886Y4716526D01*
G01X7674744D01*
G01X7678046Y4714748D01*
G01X7681602Y4711446D01*
G01X7683380Y4707890D01*
G01X7684904Y4702810D01*
G01Y4694174D01*
G01X7683380Y4689094D01*
G01X7681602Y4685538D01*
G01X7678046Y4682236D01*
G01X7674744Y4680458D01*
G01X7667886D01*
G01X7664330Y4682236D01*
G01X7661028Y4685538D01*
G01X7659250Y4689094D01*
G01X7618864Y4716526D02*
G01X7618864Y4689094D01*
G01X7620642Y4683760D01*
G01X7622166Y4682236D01*
G01X7625722Y4680458D01*
G01X7629024D01*
G01X7632580Y4682236D01*
G01X7634358Y4683760D01*
G01X7635882Y4689094D01*
G01Y4692396D01*
G01X7595496Y4716526D02*
G01X7595496Y4680458D01*
G01X7595496Y4680458D02*
G01X7574922Y4680458D01*
G01X7525900Y4707890D02*
G01X7527678Y4711446D01*
G01X7530980Y4714748D01*
G01X7534536Y4716526D01*
G01X7541394D01*
G01X7544696Y4714748D01*
G01X7548252Y4711446D01*
G01X7550030Y4707890D01*
G01X7551554Y4702810D01*
G01Y4694174D01*
G01X7550030Y4689094D01*
G01X7548252Y4685538D01*
G01X7544696Y4682236D01*
G01X7541394Y4680458D01*
G01X7534536D01*
G01X7530980Y4682236D01*
G01X7527678Y4685538D01*
G01X7525900Y4689094D01*
G01X7485514Y4716526D02*
G01X7485514Y4689094D01*
G01X7487292Y4683760D01*
G01X7488816Y4682236D01*
G01X7492372Y4680458D01*
G01X7495674D01*
G01X7499230Y4682236D01*
G01X7501008Y4683760D01*
G01X7502532Y4689094D01*
G01Y4692396D01*
G01X7462146Y4716526D02*
G01X7462146Y4680458D01*
G01X7462146Y4680458D02*
G01X7441572Y4680458D01*
G01X7392550Y4707890D02*
G01X7394328Y4711446D01*
G01X7397630Y4714748D01*
G01X7401186Y4716526D01*
G01X7408044D01*
G01X7411346Y4714748D01*
G01X7414902Y4711446D01*
G01X7416680Y4707890D01*
G01X7418204Y4702810D01*
G01Y4694174D01*
G01X7416680Y4689094D01*
G01X7414902Y4685538D01*
G01X7411346Y4682236D01*
G01X7408044Y4680458D01*
G01X7401186D01*
G01X7397630Y4682236D01*
G01X7394328Y4685538D01*
G01X7392550Y4689094D01*
G01X7352164Y4716526D02*
G01X7352164Y4689094D01*
G01X7353942Y4683760D01*
G01X7355466Y4682236D01*
G01X7359022Y4680458D01*
G01X7362324D01*
G01X7365880Y4682236D01*
G01X7367658Y4683760D01*
G01X7369182Y4689094D01*
G01Y4692396D01*
G01X7328796Y4716526D02*
G01X7328796Y4680458D01*
G01X7328796Y4680458D02*
G01X7308222Y4680458D01*
G01X7259200Y4707890D02*
G01X7260978Y4711446D01*
G01X7264280Y4714748D01*
G01X7267836Y4716526D01*
G01X7274694D01*
G01X7277996Y4714748D01*
G01X7281552Y4711446D01*
G01X7283330Y4707890D01*
G01X7284854Y4702810D01*
G01Y4694174D01*
G01X7283330Y4689094D01*
G01X7281552Y4685538D01*
G01X7277996Y4682236D01*
G01X7274694Y4680458D01*
G01X7267836D01*
G01X7264280Y4682236D01*
G01X7260978Y4685538D01*
G01X7259200Y4689094D01*
G54D11*
G01X4858766Y868934D02*
G01X4858766Y822452D01*
G01X4855718Y813308D01*
G01X4849368Y806958D01*
G01X4840224Y803910D01*
G01X4833874D01*
G01X4824730Y806958D01*
G01X4818634Y813308D01*
G01X4815332Y822452D01*
G01Y868934D01*
G01X4782058Y853440D02*
G01X4782058Y856488D01*
G01X4779010Y862838D01*
G01X4775962Y865886D01*
G01X4769866Y868934D01*
G01X4757420D01*
G01X4751070Y865886D01*
G01X4748022Y862838D01*
G01X4744974Y856488D01*
G01Y850392D01*
G01X4748022Y844296D01*
G01X4754372Y834898D01*
G01X4785106Y803910D01*
G01X4741926D01*
G01X4705604Y868934D02*
G01X4671568Y868934D01*
G01X4690110Y844296D01*
G01X4680966D01*
G01X4674616Y841248D01*
G01X4671568Y837946D01*
G01X4668520Y828802D01*
G01Y822452D01*
G01X4671568Y813308D01*
G01X4677664Y806958D01*
G01X4687062Y803910D01*
G01X4696460D01*
G01X4705604Y806958D01*
G01X4708652Y810260D01*
G01X4711700Y816356D01*
G01X4211574Y411734D02*
G01X4211574Y346710D01*
G01X4211574Y411734D02*
G01X4183634Y411734D01*
G01X4174490Y408686D01*
G01X4171442Y405638D01*
G01X4168140Y399288D01*
G01Y393192D01*
G01X4171442Y387096D01*
G01X4174490Y384048D01*
G01X4183634Y380746D01*
G01X4211574D01*
G01X4189984Y380746D02*
G01X4168140Y346710D01*
G01X4137914Y399288D02*
G01X4131818Y402590D01*
G01X4122674Y411734D01*
G01Y346710D01*
G01X4061714Y411734D02*
G01X4092448Y368554D01*
G01X4046220D01*
G01X4061714Y411734D02*
G01X4061714Y346710D01*
G01X3738626Y526034D02*
G01X3738626Y461010D01*
G01X3738626Y526034D02*
G01X3710686Y526034D01*
G01X3701542Y522986D01*
G01X3698494Y519938D01*
G01X3695192Y513588D01*
G01Y507492D01*
G01X3698494Y501396D01*
G01X3701542Y498348D01*
G01X3710686Y495046D01*
G01X3738626D01*
G01X3717036Y495046D02*
G01X3695192Y461010D01*
G01X3664966Y513588D02*
G01X3658870Y516890D01*
G01X3649726Y526034D01*
G01Y461010D01*
G01X3582416Y526034D02*
G01X3613404Y526034D01*
G01X3616452Y498348D01*
G01X3613404Y501396D01*
G01X3604260Y504444D01*
G01X3594862D01*
G01X3585464Y501396D01*
G01X3579368Y495046D01*
G01X3576320Y485902D01*
G01Y479552D01*
G01X3579368Y470408D01*
G01X3585464Y464058D01*
G01X3594862Y461010D01*
G01X3604260D01*
G01X3613404Y464058D01*
G01X3616452Y467360D01*
G01X3619500Y473456D01*
G01X5776214Y3434334D02*
G01X5776214Y3387852D01*
G01X5773166Y3378708D01*
G01X5766816Y3372358D01*
G01X5757672Y3369310D01*
G01X5751322D01*
G01X5742178Y3372358D01*
G01X5736082Y3378708D01*
G01X5732780Y3387852D01*
G01Y3434334D01*
G01X5696458Y3434334D02*
G01X5662422Y3434334D01*
G01X5680964Y3409696D01*
G01X5671820D01*
G01X5665470Y3406648D01*
G01X5662422Y3403346D01*
G01X5659374Y3394202D01*
G01Y3387852D01*
G01X5662422Y3378708D01*
G01X5668518Y3372358D01*
G01X5677916Y3369310D01*
G01X5687314D01*
G01X5696458Y3372358D01*
G01X5699506Y3375660D01*
G01X5702554Y3381756D01*
G01X5598414Y3434334D02*
G01X5629148Y3391154D01*
G01X5582920D01*
G01X5598414Y3434334D02*
G01X5598414Y3369310D01*
G01X5089398Y2593340D02*
G01X5092446Y2599690D01*
G01X5098796Y2605786D01*
G01X5104892Y2608834D01*
G01X5117338D01*
G01X5123434Y2605786D01*
G01X5129784Y2599690D01*
G01X5132832Y2593340D01*
G01X5135880Y2584196D01*
G01Y2568702D01*
G01X5132832Y2559304D01*
G01X5129784Y2553208D01*
G01X5123434Y2546858D01*
G01X5117338Y2543810D01*
G01X5104892D01*
G01X5098796Y2546858D01*
G01X5092446Y2553208D01*
G01X5089398Y2559304D01*
G01X5059172Y2596388D02*
G01X5053076Y2599690D01*
G01X5043932Y2608834D01*
G01Y2543810D01*
G01X5013706Y2596388D02*
G01X5007610Y2599690D01*
G01X4998466Y2608834D01*
G01Y2543810D01*
G01X5523992Y2542540D02*
G01X5527040Y2548890D01*
G01X5533390Y2554986D01*
G01X5539486Y2558034D01*
G01X5551932D01*
G01X5558028Y2554986D01*
G01X5564378Y2548890D01*
G01X5567426Y2542540D01*
G01X5570474Y2533396D01*
G01Y2517902D01*
G01X5567426Y2508504D01*
G01X5564378Y2502408D01*
G01X5558028Y2496058D01*
G01X5551932Y2493010D01*
G01X5539486D01*
G01X5533390Y2496058D01*
G01X5527040Y2502408D01*
G01X5523992Y2508504D01*
G01X5493766Y2545588D02*
G01X5487670Y2548890D01*
G01X5478526Y2558034D01*
G01Y2493010D01*
G01X5445252Y2542540D02*
G01X5445252Y2545588D01*
G01X5442204Y2551938D01*
G01X5439156Y2554986D01*
G01X5433060Y2558034D01*
G01X5420614D01*
G01X5414264Y2554986D01*
G01X5411216Y2551938D01*
G01X5408168Y2545588D01*
G01Y2539492D01*
G01X5411216Y2533396D01*
G01X5417566Y2523998D01*
G01X5448300Y2493010D01*
G01X5405120D01*
G01X5196078Y3739134D02*
G01X5196078Y3674110D01*
G01X5196078Y3739134D02*
G01X5168138Y3739134D01*
G01X5158994Y3736086D01*
G01X5155946Y3733038D01*
G01X5152644Y3726688D01*
G01Y3720592D01*
G01X5155946Y3714496D01*
G01X5158994Y3711448D01*
G01X5168138Y3708146D01*
G01X5196078D01*
G01X5174488Y3708146D02*
G01X5152644Y3674110D01*
G01X5122418Y3726688D02*
G01X5116322Y3729990D01*
G01X5107178Y3739134D01*
G01Y3674110D01*
G01X5039868Y3729990D02*
G01X5042916Y3736086D01*
G01X5052314Y3739134D01*
G01X5058410D01*
G01X5067808Y3736086D01*
G01X5073904Y3726688D01*
G01X5076952Y3711448D01*
G01Y3695954D01*
G01X5073904Y3683508D01*
G01X5067808Y3677158D01*
G01X5058410Y3674110D01*
G01X5055362D01*
G01X5046218Y3677158D01*
G01X5039868Y3683508D01*
G01X5036820Y3692652D01*
G01Y3695954D01*
G01X5039868Y3705098D01*
G01X5046218Y3711448D01*
G01X5055362Y3714496D01*
G01X5058410D01*
G01X5067808Y3711448D01*
G01X5073904Y3705098D01*
G01X5076952Y3695954D01*
G01X5440426Y3751834D02*
G01X5440426Y3686810D01*
G01X5440426Y3751834D02*
G01X5412486Y3751834D01*
G01X5403342Y3748786D01*
G01X5400294Y3745738D01*
G01X5396992Y3739388D01*
G01Y3733292D01*
G01X5400294Y3727196D01*
G01X5403342Y3724148D01*
G01X5412486Y3720846D01*
G01X5440426D01*
G01X5418836Y3720846D02*
G01X5396992Y3686810D01*
G01X5366766Y3739388D02*
G01X5360670Y3742690D01*
G01X5351526Y3751834D01*
G01Y3686810D01*
G01X5278120Y3751834D02*
G01X5309108Y3686810D01*
G01X5321300Y3751834D02*
G01X5278120Y3751834D01*
G01X5783326Y4539234D02*
G01X5783326Y4474210D01*
G01X5783326Y4539234D02*
G01X5755386Y4539234D01*
G01X5746242Y4536186D01*
G01X5743194Y4533138D01*
G01X5739892Y4526788D01*
G01Y4520692D01*
G01X5743194Y4514596D01*
G01X5746242Y4511548D01*
G01X5755386Y4508246D01*
G01X5783326D01*
G01X5761736Y4508246D02*
G01X5739892Y4474210D01*
G01X5709666Y4526788D02*
G01X5703570Y4530090D01*
G01X5694426Y4539234D01*
G01Y4474210D01*
G01X5648960Y4539234D02*
G01X5658104Y4536186D01*
G01X5661152Y4530090D01*
G01Y4523740D01*
G01X5658104Y4517644D01*
G01X5652008Y4514596D01*
G01X5639562Y4511548D01*
G01X5630164Y4508246D01*
G01X5624068Y4502150D01*
G01X5621020Y4496054D01*
G01Y4486656D01*
G01X5624068Y4480560D01*
G01X5627116Y4477258D01*
G01X5636514Y4474210D01*
G01X5648960D01*
G01X5658104Y4477258D01*
G01X5661152Y4480560D01*
G01X5664200Y4486656D01*
G01Y4496054D01*
G01X5661152Y4502150D01*
G01X5655056Y4508246D01*
G01X5645658Y4511548D01*
G01X5633466Y4514596D01*
G01X5627116Y4517644D01*
G01X5624068Y4523740D01*
G01Y4530090D01*
G01X5627116Y4536186D01*
G01X5636514Y4539234D01*
G01X5648960D01*
G01X5785866Y4920234D02*
G01X5791962Y4917186D01*
G01X5798312Y4911090D01*
G01X5801360Y4904740D01*
G01X5804408Y4895596D01*
G01Y4880102D01*
G01X5801360Y4870704D01*
G01X5798312Y4864608D01*
G01X5791962Y4858258D01*
G01X5785866Y4855210D01*
G01X5773420D01*
G01X5767324Y4858258D01*
G01X5760974Y4864608D01*
G01X5757926Y4870704D01*
G01X5754878Y4880102D01*
G01Y4895596D01*
G01X5757926Y4904740D01*
G01X5760974Y4911090D01*
G01X5767324Y4917186D01*
G01X5773420Y4920234D01*
G01X5785866D01*
G01X5776468Y4867656D02*
G01X5757926Y4849114D01*
G01X5684520Y4898644D02*
G01X5687568Y4889246D01*
G01X5693918Y4883150D01*
G01X5703062Y4880102D01*
G01X5706110D01*
G01X5715508Y4883150D01*
G01X5721604Y4889246D01*
G01X5724652Y4898644D01*
G01Y4901692D01*
G01X5721604Y4911090D01*
G01X5715508Y4917186D01*
G01X5706110Y4920234D01*
G01X5703062D01*
G01X5693918Y4917186D01*
G01X5687568Y4911090D01*
G01X5684520Y4898644D01*
G01Y4883150D01*
G01X5687568Y4867656D01*
G01X5693918Y4858258D01*
G01X5703062Y4855210D01*
G01X5709412D01*
G01X5718556Y4858258D01*
G01X5721604Y4864608D01*
G01X5843778Y3980434D02*
G01X5843778Y3915410D01*
G01X5843778Y3980434D02*
G01X5815838Y3980434D01*
G01X5806694Y3977386D01*
G01X5803646Y3974338D01*
G01X5800344Y3967988D01*
G01Y3961892D01*
G01X5803646Y3955796D01*
G01X5806694Y3952748D01*
G01X5815838Y3949446D01*
G01X5843778D01*
G01X5822188Y3949446D02*
G01X5800344Y3915410D01*
G01X5770118Y3967988D02*
G01X5764022Y3971290D01*
G01X5754878Y3980434D01*
G01Y3915410D01*
G01X5684520Y3958844D02*
G01X5687568Y3949446D01*
G01X5693918Y3943350D01*
G01X5703062Y3940302D01*
G01X5706110D01*
G01X5715508Y3943350D01*
G01X5721604Y3949446D01*
G01X5724652Y3958844D01*
G01Y3961892D01*
G01X5721604Y3971290D01*
G01X5715508Y3977386D01*
G01X5706110Y3980434D01*
G01X5703062D01*
G01X5693918Y3977386D01*
G01X5687568Y3971290D01*
G01X5684520Y3958844D01*
G01Y3943350D01*
G01X5687568Y3927856D01*
G01X5693918Y3918458D01*
G01X5703062Y3915410D01*
G01X5709412D01*
G01X5718556Y3918458D01*
G01X5721604Y3924808D01*
G01X3233166Y4640834D02*
G01X3233166Y4575810D01*
G01X3233166Y4640834D02*
G01X3205226Y4640834D01*
G01X3196082Y4637786D01*
G01X3193034Y4634738D01*
G01X3189732Y4628388D01*
G01Y4622292D01*
G01X3193034Y4616196D01*
G01X3196082Y4613148D01*
G01X3205226Y4609846D01*
G01X3233166D01*
G01X3211576Y4609846D02*
G01X3189732Y4575810D01*
G01X3156458Y4625340D02*
G01X3156458Y4628388D01*
G01X3153410Y4634738D01*
G01X3150362Y4637786D01*
G01X3144266Y4640834D01*
G01X3131820D01*
G01X3125470Y4637786D01*
G01X3122422Y4634738D01*
G01X3119374Y4628388D01*
G01Y4622292D01*
G01X3122422Y4616196D01*
G01X3128772Y4606798D01*
G01X3159506Y4575810D01*
G01X3116326D01*
G01X3067558Y4640834D02*
G01X3076956Y4637786D01*
G01X3083052Y4628388D01*
G01X3086100Y4613148D01*
G01Y4603750D01*
G01X3083052Y4588256D01*
G01X3076956Y4578858D01*
G01X3067558Y4575810D01*
G01X3061462D01*
G01X3052064Y4578858D01*
G01X3045968Y4588256D01*
G01X3042920Y4603750D01*
G01Y4613148D01*
G01X3045968Y4628388D01*
G01X3052064Y4637786D01*
G01X3061462Y4640834D01*
G01X3067558D01*
G01X4488180Y4412234D02*
G01X4494276Y4409186D01*
G01X4500626Y4403090D01*
G01X4503674Y4396740D01*
G01X4506722Y4387596D01*
G01Y4372102D01*
G01X4503674Y4362704D01*
G01X4500626Y4356608D01*
G01X4494276Y4350258D01*
G01X4488180Y4347210D01*
G01X4475734D01*
G01X4469638Y4350258D01*
G01X4463288Y4356608D01*
G01X4460240Y4362704D01*
G01X4457192Y4372102D01*
G01Y4387596D01*
G01X4460240Y4396740D01*
G01X4463288Y4403090D01*
G01X4469638Y4409186D01*
G01X4475734Y4412234D01*
G01X4488180D01*
G01X4478782Y4359656D02*
G01X4460240Y4341114D01*
G01X4426966Y4399788D02*
G01X4420870Y4403090D01*
G01X4411726Y4412234D01*
G01Y4347210D01*
G01X4362958Y4412234D02*
G01X4372356Y4409186D01*
G01X4378452Y4399788D01*
G01X4381500Y4384548D01*
G01Y4375150D01*
G01X4378452Y4359656D01*
G01X4372356Y4350258D01*
G01X4362958Y4347210D01*
G01X4356862D01*
G01X4347464Y4350258D01*
G01X4341368Y4359656D01*
G01X4338320Y4375150D01*
G01Y4384548D01*
G01X4341368Y4399788D01*
G01X4347464Y4409186D01*
G01X4356862Y4412234D01*
G01X4362958D01*
G01X3471926Y4475734D02*
G01X3471926Y4410710D01*
G01X3471926Y4475734D02*
G01X3443986Y4475734D01*
G01X3434842Y4472686D01*
G01X3431794Y4469638D01*
G01X3428492Y4463288D01*
G01Y4457192D01*
G01X3431794Y4451096D01*
G01X3434842Y4448048D01*
G01X3443986Y4444746D01*
G01X3471926D01*
G01X3450336Y4444746D02*
G01X3428492Y4410710D01*
G01X3395218Y4460240D02*
G01X3395218Y4463288D01*
G01X3392170Y4469638D01*
G01X3389122Y4472686D01*
G01X3383026Y4475734D01*
G01X3370580D01*
G01X3364230Y4472686D01*
G01X3361182Y4469638D01*
G01X3358134Y4463288D01*
G01Y4457192D01*
G01X3361182Y4451096D01*
G01X3367532Y4441698D01*
G01X3398266Y4410710D01*
G01X3355086D01*
G01X3324860Y4463288D02*
G01X3318764Y4466590D01*
G01X3309620Y4475734D01*
G01Y4410710D01*
G01X2415540Y4472940D02*
G01X2418588Y4479290D01*
G01X2424938Y4485386D01*
G01X2431034Y4488434D01*
G01X2443480D01*
G01X2449576Y4485386D01*
G01X2455926Y4479290D01*
G01X2458974Y4472940D01*
G01X2462022Y4463796D01*
G01Y4448302D01*
G01X2458974Y4438904D01*
G01X2455926Y4432808D01*
G01X2449576Y4426458D01*
G01X2443480Y4423410D01*
G01X2431034D01*
G01X2424938Y4426458D01*
G01X2418588Y4432808D01*
G01X2415540Y4438904D01*
G01X2385314Y4475988D02*
G01X2379218Y4479290D01*
G01X2370074Y4488434D01*
G01Y4423410D01*
G01X2309114Y4488434D02*
G01X2339848Y4445254D01*
G01X2293620D01*
G01X2309114Y4488434D02*
G01X2309114Y4423410D01*
G01X2663698Y4498340D02*
G01X2666746Y4504690D01*
G01X2673096Y4510786D01*
G01X2679192Y4513834D01*
G01X2691638D01*
G01X2697734Y4510786D01*
G01X2704084Y4504690D01*
G01X2707132Y4498340D01*
G01X2710180Y4489196D01*
G01Y4473702D01*
G01X2707132Y4464304D01*
G01X2704084Y4458208D01*
G01X2697734Y4451858D01*
G01X2691638Y4448810D01*
G01X2679192D01*
G01X2673096Y4451858D01*
G01X2666746Y4458208D01*
G01X2663698Y4464304D01*
G01X2633472Y4501388D02*
G01X2627376Y4504690D01*
G01X2618232Y4513834D01*
G01Y4448810D01*
G01X2550922Y4513834D02*
G01X2581910Y4513834D01*
G01X2584958Y4486148D01*
G01X2581910Y4489196D01*
G01X2572766Y4492244D01*
G01X2563368D01*
G01X2553970Y4489196D01*
G01X2547874Y4482846D01*
G01X2544826Y4473702D01*
G01Y4467352D01*
G01X2547874Y4458208D01*
G01X2553970Y4451858D01*
G01X2563368Y4448810D01*
G01X2572766D01*
G01X2581910Y4451858D01*
G01X2584958Y4455160D01*
G01X2588006Y4461256D01*
G01X2930144Y4536440D02*
G01X2933192Y4542790D01*
G01X2939542Y4548886D01*
G01X2945638Y4551934D01*
G01X2958084D01*
G01X2964180Y4548886D01*
G01X2970530Y4542790D01*
G01X2973578Y4536440D01*
G01X2976626Y4527296D01*
G01Y4511802D01*
G01X2973578Y4502404D01*
G01X2970530Y4496308D01*
G01X2964180Y4489958D01*
G01X2958084Y4486910D01*
G01X2945638D01*
G01X2939542Y4489958D01*
G01X2933192Y4496308D01*
G01X2930144Y4502404D01*
G01X2899918Y4539488D02*
G01X2893822Y4542790D01*
G01X2884678Y4551934D01*
G01Y4486910D01*
G01X2817368Y4542790D02*
G01X2820416Y4548886D01*
G01X2829814Y4551934D01*
G01X2835910D01*
G01X2845308Y4548886D01*
G01X2851404Y4539488D01*
G01X2854452Y4524248D01*
G01Y4508754D01*
G01X2851404Y4496308D01*
G01X2845308Y4489958D01*
G01X2835910Y4486910D01*
G01X2832862D01*
G01X2823718Y4489958D01*
G01X2817368Y4496308D01*
G01X2814320Y4505452D01*
G01Y4508754D01*
G01X2817368Y4517898D01*
G01X2823718Y4524248D01*
G01X2832862Y4527296D01*
G01X2835910D01*
G01X2845308Y4524248D01*
G01X2851404Y4517898D01*
G01X2854452Y4508754D01*
G01X6611874Y3942334D02*
G01X6611874Y3877310D01*
G01X6611874Y3877310D02*
G01X6574790Y3877310D01*
G01X6544564Y3942334D02*
G01X6544564Y3877310D01*
G01X6544564Y3942334D02*
G01X6504432Y3942334D01*
G01X6544564Y3911346D02*
G01X6519926Y3911346D01*
G01X6544564Y3877310D02*
G01X6504432Y3877310D01*
G01X6474206Y3942334D02*
G01X6474206Y3877310D01*
G01X6474206Y3942334D02*
G01X6452616Y3942334D01*
G01X6443472Y3939286D01*
G01X6437122Y3933190D01*
G01X6434074Y3926840D01*
G01X6431026Y3917696D01*
G01Y3902202D01*
G01X6434074Y3892804D01*
G01X6437122Y3886708D01*
G01X6443472Y3880358D01*
G01X6452616Y3877310D01*
G01X6474206D01*
G01X6357620Y3942334D02*
G01X6388608Y3877310D01*
G01X6400800Y3942334D02*
G01X6357620Y3942334D01*
G01X5112766Y4043934D02*
G01X5112766Y3978910D01*
G01X5112766Y4043934D02*
G01X5084826Y4043934D01*
G01X5075682Y4040886D01*
G01X5072634Y4037838D01*
G01X5069332Y4031488D01*
G01Y4025392D01*
G01X5072634Y4019296D01*
G01X5075682Y4016248D01*
G01X5084826Y4012946D01*
G01X5112766D01*
G01X5091176Y4012946D02*
G01X5069332Y3978910D01*
G01X5036058Y4028440D02*
G01X5036058Y4031488D01*
G01X5033010Y4037838D01*
G01X5029962Y4040886D01*
G01X5023866Y4043934D01*
G01X5011420D01*
G01X5005070Y4040886D01*
G01X5002022Y4037838D01*
G01X4998974Y4031488D01*
G01Y4025392D01*
G01X5002022Y4019296D01*
G01X5008372Y4009898D01*
G01X5039106Y3978910D01*
G01X4995926D01*
G01X4962652Y4028440D02*
G01X4962652Y4031488D01*
G01X4959604Y4037838D01*
G01X4956556Y4040886D01*
G01X4950460Y4043934D01*
G01X4938014D01*
G01X4931664Y4040886D01*
G01X4928616Y4037838D01*
G01X4925568Y4031488D01*
G01Y4025392D01*
G01X4928616Y4019296D01*
G01X4934966Y4009898D01*
G01X4965700Y3978910D01*
G01X4922520D01*
G01X6979666Y4907534D02*
G01X6979666Y4842510D01*
G01X6979666Y4907534D02*
G01X6951726Y4907534D01*
G01X6942582Y4904486D01*
G01X6939534Y4901438D01*
G01X6936232Y4895088D01*
G01Y4888992D01*
G01X6939534Y4882896D01*
G01X6942582Y4879848D01*
G01X6951726Y4876546D01*
G01X6979666D01*
G01X6958076Y4876546D02*
G01X6936232Y4842510D01*
G01X6902958Y4892040D02*
G01X6902958Y4895088D01*
G01X6899910Y4901438D01*
G01X6896862Y4904486D01*
G01X6890766Y4907534D01*
G01X6878320D01*
G01X6871970Y4904486D01*
G01X6868922Y4901438D01*
G01X6865874Y4895088D01*
G01Y4888992D01*
G01X6868922Y4882896D01*
G01X6875272Y4873498D01*
G01X6906006Y4842510D01*
G01X6862826D01*
G01X6826504Y4907534D02*
G01X6792468Y4907534D01*
G01X6811010Y4882896D01*
G01X6801866D01*
G01X6795516Y4879848D01*
G01X6792468Y4876546D01*
G01X6789420Y4867402D01*
G01Y4861052D01*
G01X6792468Y4851908D01*
G01X6798564Y4845558D01*
G01X6807962Y4842510D01*
G01X6817360D01*
G01X6826504Y4845558D01*
G01X6829552Y4848860D01*
G01X6832600Y4854956D01*
G01X2474468Y1672590D02*
G01X2480818Y1678686D01*
G01X2489962Y1681734D01*
G01X2502408D01*
G01X2511806Y1678686D01*
G01X2517902Y1672590D01*
G01Y1666240D01*
G01X2514854Y1660144D01*
G01X2511806Y1657096D01*
G01X2505456Y1654048D01*
G01X2486914Y1647698D01*
G01X2480818Y1644650D01*
G01X2477770Y1641602D01*
G01X2474468Y1635252D01*
G01Y1626108D01*
G01X2480818Y1619758D01*
G01X2489962Y1616710D01*
G01X2502408D01*
G01X2511806Y1619758D01*
G01X2517902Y1626108D01*
G01X2444242Y1681734D02*
G01X2444242Y1616710D01*
G01X2414016Y1681734D02*
G01X2414016Y1616710D01*
G01X2414016Y1681734D02*
G01X2389378Y1616710D01*
G01X2364486Y1681734D02*
G01X2389378Y1616710D01*
G01X2364486Y1681734D02*
G01X2364486Y1616710D01*
G01X2334260Y1669288D02*
G01X2328164Y1672590D01*
G01X2319020Y1681734D01*
G01Y1616710D01*
G01X4147566Y1618234D02*
G01X4147566Y1571752D01*
G01X4144518Y1562608D01*
G01X4138168Y1556258D01*
G01X4129024Y1553210D01*
G01X4122674D01*
G01X4113530Y1556258D01*
G01X4107434Y1562608D01*
G01X4104132Y1571752D01*
G01Y1618234D01*
G01X4067810Y1618234D02*
G01X4033774Y1618234D01*
G01X4052316Y1593596D01*
G01X4043172D01*
G01X4036822Y1590548D01*
G01X4033774Y1587246D01*
G01X4030726Y1578102D01*
G01Y1571752D01*
G01X4033774Y1562608D01*
G01X4039870Y1556258D01*
G01X4049268Y1553210D01*
G01X4058666D01*
G01X4067810Y1556258D01*
G01X4070858Y1559560D01*
G01X4073906Y1565656D01*
G01X3963416Y1618234D02*
G01X3994404Y1618234D01*
G01X3997452Y1590548D01*
G01X3994404Y1593596D01*
G01X3985260Y1596644D01*
G01X3975862D01*
G01X3966464Y1593596D01*
G01X3960368Y1587246D01*
G01X3957320Y1578102D01*
G01Y1571752D01*
G01X3960368Y1562608D01*
G01X3966464Y1556258D01*
G01X3975862Y1553210D01*
G01X3985260D01*
G01X3994404Y1556258D01*
G01X3997452Y1559560D01*
G01X4000500Y1565656D01*
G01X5389626Y4564634D02*
G01X5389626Y4499610D01*
G01X5389626Y4499610D02*
G01X5352542Y4499610D01*
G01X5322316Y4564634D02*
G01X5322316Y4499610D01*
G01X5322316Y4564634D02*
G01X5282184Y4564634D01*
G01X5322316Y4533646D02*
G01X5297678Y4533646D01*
G01X5322316Y4499610D02*
G01X5282184Y4499610D01*
G01X5251958Y4564634D02*
G01X5251958Y4499610D01*
G01X5251958Y4564634D02*
G01X5230368Y4564634D01*
G01X5221224Y4561586D01*
G01X5214874Y4555490D01*
G01X5211826Y4549140D01*
G01X5208778Y4539996D01*
G01Y4524502D01*
G01X5211826Y4515104D01*
G01X5214874Y4509008D01*
G01X5221224Y4502658D01*
G01X5230368Y4499610D01*
G01X5251958D01*
G01X5141468Y4555490D02*
G01X5144516Y4561586D01*
G01X5153914Y4564634D01*
G01X5160010D01*
G01X5169408Y4561586D01*
G01X5175504Y4552188D01*
G01X5178552Y4536948D01*
G01Y4521454D01*
G01X5175504Y4509008D01*
G01X5169408Y4502658D01*
G01X5160010Y4499610D01*
G01X5156962D01*
G01X5147818Y4502658D01*
G01X5141468Y4509008D01*
G01X5138420Y4518152D01*
G01Y4521454D01*
G01X5141468Y4530598D01*
G01X5147818Y4536948D01*
G01X5156962Y4539996D01*
G01X5160010D01*
G01X5169408Y4536948D01*
G01X5175504Y4530598D01*
G01X5178552Y4521454D01*
G01X3735832Y1488440D02*
G01X3738880Y1494790D01*
G01X3745230Y1500886D01*
G01X3751326Y1503934D01*
G01X3763772D01*
G01X3769868Y1500886D01*
G01X3776218Y1494790D01*
G01X3779266Y1488440D01*
G01X3782314Y1479296D01*
G01Y1463802D01*
G01X3779266Y1454404D01*
G01X3776218Y1448308D01*
G01X3769868Y1441958D01*
G01X3763772Y1438910D01*
G01X3751326D01*
G01X3745230Y1441958D01*
G01X3738880Y1448308D01*
G01X3735832Y1454404D01*
G01X3702558Y1488440D02*
G01X3702558Y1491488D01*
G01X3699510Y1497838D01*
G01X3696462Y1500886D01*
G01X3690366Y1503934D01*
G01X3677920D01*
G01X3671570Y1500886D01*
G01X3668522Y1497838D01*
G01X3665474Y1491488D01*
G01Y1485392D01*
G01X3668522Y1479296D01*
G01X3674872Y1469898D01*
G01X3705606Y1438910D01*
G01X3662426D01*
G01X3616960Y1503934D02*
G01X3626104Y1500886D01*
G01X3629152Y1494790D01*
G01Y1488440D01*
G01X3626104Y1482344D01*
G01X3620008Y1479296D01*
G01X3607562Y1476248D01*
G01X3598164Y1472946D01*
G01X3592068Y1466850D01*
G01X3589020Y1460754D01*
G01Y1451356D01*
G01X3592068Y1445260D01*
G01X3595116Y1441958D01*
G01X3604514Y1438910D01*
G01X3616960D01*
G01X3626104Y1441958D01*
G01X3629152Y1445260D01*
G01X3632200Y1451356D01*
G01Y1460754D01*
G01X3629152Y1466850D01*
G01X3623056Y1472946D01*
G01X3613658Y1476248D01*
G01X3601466Y1479296D01*
G01X3595116Y1482344D01*
G01X3592068Y1488440D01*
G01Y1494790D01*
G01X3595116Y1500886D01*
G01X3604514Y1503934D01*
G01X3616960D01*
G01X4939284Y421640D02*
G01X4942332Y427990D01*
G01X4948682Y434086D01*
G01X4954778Y437134D01*
G01X4967224D01*
G01X4973320Y434086D01*
G01X4979670Y427990D01*
G01X4982718Y421640D01*
G01X4985766Y412496D01*
G01Y397002D01*
G01X4982718Y387604D01*
G01X4979670Y381508D01*
G01X4973320Y375158D01*
G01X4967224Y372110D01*
G01X4954778D01*
G01X4948682Y375158D01*
G01X4942332Y381508D01*
G01X4939284Y387604D01*
G01X4906010Y421640D02*
G01X4906010Y424688D01*
G01X4902962Y431038D01*
G01X4899914Y434086D01*
G01X4893818Y437134D01*
G01X4881372D01*
G01X4875022Y434086D01*
G01X4871974Y431038D01*
G01X4868926Y424688D01*
G01Y418592D01*
G01X4871974Y412496D01*
G01X4878324Y403098D01*
G01X4909058Y372110D01*
G01X4865878D01*
G01X4795520Y415544D02*
G01X4798568Y406146D01*
G01X4804918Y400050D01*
G01X4814062Y397002D01*
G01X4817110D01*
G01X4826508Y400050D01*
G01X4832604Y406146D01*
G01X4835652Y415544D01*
G01Y418592D01*
G01X4832604Y427990D01*
G01X4826508Y434086D01*
G01X4817110Y437134D01*
G01X4814062D01*
G01X4804918Y434086D01*
G01X4798568Y427990D01*
G01X4795520Y415544D01*
G01Y400050D01*
G01X4798568Y384556D01*
G01X4804918Y375158D01*
G01X4814062Y372110D01*
G01X4820412D01*
G01X4829556Y375158D01*
G01X4832604Y381508D01*
G01X2082292Y4333240D02*
G01X2085340Y4339590D01*
G01X2091690Y4345686D01*
G01X2097786Y4348734D01*
G01X2110232D01*
G01X2116328Y4345686D01*
G01X2122678Y4339590D01*
G01X2125726Y4333240D01*
G01X2128774Y4324096D01*
G01Y4308602D01*
G01X2125726Y4299204D01*
G01X2122678Y4293108D01*
G01X2116328Y4286758D01*
G01X2110232Y4283710D01*
G01X2097786D01*
G01X2091690Y4286758D01*
G01X2085340Y4293108D01*
G01X2082292Y4299204D01*
G01X2045970Y4348734D02*
G01X2011934Y4348734D01*
G01X2030476Y4324096D01*
G01X2021332D01*
G01X2014982Y4321048D01*
G01X2011934Y4317746D01*
G01X2008886Y4308602D01*
G01Y4302252D01*
G01X2011934Y4293108D01*
G01X2018030Y4286758D01*
G01X2027428Y4283710D01*
G01X2036826D01*
G01X2045970Y4286758D01*
G01X2049018Y4290060D01*
G01X2052066Y4296156D01*
G01X1978660Y4336288D02*
G01X1972564Y4339590D01*
G01X1963420Y4348734D01*
G01Y4283710D01*
G01X5250434Y668020D02*
G01X5185410Y668020D01*
G01X5250434Y668020D02*
G01X5250434Y689610D01*
G01X5247386Y699008D01*
G01X5241290Y705104D01*
G01X5234940Y708152D01*
G01X5225796Y711454D01*
G01X5210302D01*
G01X5200904Y708152D01*
G01X5194808Y705104D01*
G01X5188458Y699008D01*
G01X5185410Y689610D01*
G01Y668020D01*
G01X5250434Y747776D02*
G01X5250434Y781812D01*
G01X5225796Y763270D01*
G01Y772414D01*
G01X5222748Y778764D01*
G01X5219446Y781812D01*
G01X5210302Y784860D01*
G01X5203952D01*
G01X5194808Y781812D01*
G01X5188458Y775716D01*
G01X5185410Y766318D01*
G01Y756920D01*
G01X5188458Y747776D01*
G01X5191760Y744728D01*
G01X5197856Y741680D01*
G01X4464496Y1777542D02*
G01X4467544Y1783892D01*
G01X4473894Y1789988D01*
G01X4479990Y1793036D01*
G01X4492436D01*
G01X4498532Y1789988D01*
G01X4504882Y1783892D01*
G01X4507930Y1777542D01*
G01X4510978Y1768398D01*
G01Y1752904D01*
G01X4507930Y1743506D01*
G01X4504882Y1737410D01*
G01X4498532Y1731060D01*
G01X4492436Y1728012D01*
G01X4479990D01*
G01X4473894Y1731060D01*
G01X4467544Y1737410D01*
G01X4464496Y1743506D01*
G01X4428174Y1793036D02*
G01X4394138Y1793036D01*
G01X4412680Y1768398D01*
G01X4403536D01*
G01X4397186Y1765350D01*
G01X4394138Y1762048D01*
G01X4391090Y1752904D01*
G01Y1746554D01*
G01X4394138Y1737410D01*
G01X4400234Y1731060D01*
G01X4409632Y1728012D01*
G01X4419030D01*
G01X4428174Y1731060D01*
G01X4431222Y1734362D01*
G01X4434270Y1740458D01*
G01X4357816Y1777542D02*
G01X4357816Y1780590D01*
G01X4354768Y1786940D01*
G01X4351720Y1789988D01*
G01X4345624Y1793036D01*
G01X4333178D01*
G01X4326828Y1789988D01*
G01X4323780Y1786940D01*
G01X4320732Y1780590D01*
G01Y1774494D01*
G01X4323780Y1768398D01*
G01X4330130Y1759000D01*
G01X4360864Y1728012D01*
G01X4317684D01*
G01X8142732Y840740D02*
G01X8145780Y847090D01*
G01X8152130Y853186D01*
G01X8158226Y856234D01*
G01X8170672D01*
G01X8176768Y853186D01*
G01X8183118Y847090D01*
G01X8186166Y840740D01*
G01X8189214Y831596D01*
G01Y816102D01*
G01X8186166Y806704D01*
G01X8183118Y800608D01*
G01X8176768Y794258D01*
G01X8170672Y791210D01*
G01X8158226D01*
G01X8152130Y794258D01*
G01X8145780Y800608D01*
G01X8142732Y806704D01*
G01X8106410Y856234D02*
G01X8072374Y856234D01*
G01X8090916Y831596D01*
G01X8081772D01*
G01X8075422Y828548D01*
G01X8072374Y825246D01*
G01X8069326Y816102D01*
G01Y809752D01*
G01X8072374Y800608D01*
G01X8078470Y794258D01*
G01X8087868Y791210D01*
G01X8097266D01*
G01X8106410Y794258D01*
G01X8109458Y797560D01*
G01X8112506Y803656D01*
G01X8002016Y847090D02*
G01X8005064Y853186D01*
G01X8014462Y856234D01*
G01X8020558D01*
G01X8029956Y853186D01*
G01X8036052Y843788D01*
G01X8039100Y828548D01*
G01Y813054D01*
G01X8036052Y800608D01*
G01X8029956Y794258D01*
G01X8020558Y791210D01*
G01X8017510D01*
G01X8008366Y794258D01*
G01X8002016Y800608D01*
G01X7998968Y809752D01*
G01Y813054D01*
G01X8002016Y822198D01*
G01X8008366Y828548D01*
G01X8017510Y831596D01*
G01X8020558D01*
G01X8029956Y828548D01*
G01X8036052Y822198D01*
G01X8039100Y813054D01*
G01X8399780Y447040D02*
G01X8402828Y453390D01*
G01X8409178Y459486D01*
G01X8415274Y462534D01*
G01X8427720D01*
G01X8433816Y459486D01*
G01X8440166Y453390D01*
G01X8443214Y447040D01*
G01X8446262Y437896D01*
G01Y422402D01*
G01X8443214Y413004D01*
G01X8440166Y406908D01*
G01X8433816Y400558D01*
G01X8427720Y397510D01*
G01X8415274D01*
G01X8409178Y400558D01*
G01X8402828Y406908D01*
G01X8399780Y413004D01*
G01X8363458Y462534D02*
G01X8329422Y462534D01*
G01X8347964Y437896D01*
G01X8338820D01*
G01X8332470Y434848D01*
G01X8329422Y431546D01*
G01X8326374Y422402D01*
G01Y416052D01*
G01X8329422Y406908D01*
G01X8335518Y400558D01*
G01X8344916Y397510D01*
G01X8354314D01*
G01X8363458Y400558D01*
G01X8366506Y403860D01*
G01X8369554Y409956D01*
G01X8252968Y462534D02*
G01X8283956Y397510D01*
G01X8296148Y462534D02*
G01X8252968Y462534D01*
G01X8480298Y1018540D02*
G01X8483346Y1024890D01*
G01X8489696Y1030986D01*
G01X8495792Y1034034D01*
G01X8508238D01*
G01X8514334Y1030986D01*
G01X8520684Y1024890D01*
G01X8523732Y1018540D01*
G01X8526780Y1009396D01*
G01Y993902D01*
G01X8523732Y984504D01*
G01X8520684Y978408D01*
G01X8514334Y972058D01*
G01X8508238Y969010D01*
G01X8495792D01*
G01X8489696Y972058D01*
G01X8483346Y978408D01*
G01X8480298Y984504D01*
G01X8419338Y1034034D02*
G01X8450072Y990854D01*
G01X8403844D01*
G01X8419338Y1034034D02*
G01X8419338Y969010D01*
G01X8373618Y1021588D02*
G01X8367522Y1024890D01*
G01X8358378Y1034034D01*
G01Y969010D01*
G01X5165598Y497840D02*
G01X5168646Y504190D01*
G01X5174996Y510286D01*
G01X5181092Y513334D01*
G01X5193538D01*
G01X5199634Y510286D01*
G01X5205984Y504190D01*
G01X5209032Y497840D01*
G01X5212080Y488696D01*
G01Y473202D01*
G01X5209032Y463804D01*
G01X5205984Y457708D01*
G01X5199634Y451358D01*
G01X5193538Y448310D01*
G01X5181092D01*
G01X5174996Y451358D01*
G01X5168646Y457708D01*
G01X5165598Y463804D01*
G01X5104638Y513334D02*
G01X5135372Y470154D01*
G01X5089144D01*
G01X5104638Y513334D02*
G01X5104638Y448310D01*
G01X5055870Y497840D02*
G01X5055870Y500888D01*
G01X5052822Y507238D01*
G01X5049774Y510286D01*
G01X5043678Y513334D01*
G01X5031232D01*
G01X5024882Y510286D01*
G01X5021834Y507238D01*
G01X5018786Y500888D01*
G01Y494792D01*
G01X5021834Y488696D01*
G01X5028184Y479298D01*
G01X5058918Y448310D01*
G01X5015738D01*
G01X2725166Y2951480D02*
G01X2771648Y2951480D01*
G01X2780792Y2948432D01*
G01X2787142Y2942082D01*
G01X2790190Y2932938D01*
G01Y2926588D01*
G01X2787142Y2917444D01*
G01X2780792Y2911348D01*
G01X2771648Y2908046D01*
G01X2725166D01*
G01X2725166Y2847086D02*
G01X2768346Y2877820D01*
G01Y2831592D01*
G01X2725166Y2847086D02*
G01X2790190Y2847086D01*
G01X2725166Y2795270D02*
G01X2725166Y2761234D01*
G01X2749804Y2779776D01*
G01Y2770632D01*
G01X2752852Y2764282D01*
G01X2756154Y2761234D01*
G01X2765298Y2758186D01*
G01X2771648D01*
G01X2780792Y2761234D01*
G01X2787142Y2767330D01*
G01X2790190Y2776728D01*
G01Y2786126D01*
G01X2787142Y2795270D01*
G01X2783840Y2798318D01*
G01X2777744Y2801366D01*
G04 Text End*

G04 PolygonModel Start*
G01X4376240Y467479D02*
G01X4376240Y1132721D01*
G01X4376240Y1132721D02*
G01X4081960Y1132721D01*
G01X4081960Y1132721D02*
G01X4081960Y467479D01*
G01X4081960Y467479D02*
G01X4376240Y467479D01*
G01X4157421Y281960D02*
G01X4253309Y281960D01*
G01X4253309Y281960D02*
G01X4253309Y149840D01*
G01X4253309Y149840D02*
G01X4157421Y149840D01*
G01X4072179Y281960D02*
G01X3976291Y281960D01*
G01X3976291Y281960D02*
G01X3976291Y149840D01*
G01X3976291Y149840D02*
G01X4072179Y149840D01*
G01X3697905Y285874D02*
G01X3697905Y381762D01*
G01X3697905Y381762D02*
G01X3830025Y381762D01*
G01X3830025Y381762D02*
G01X3830025Y285874D01*
G01X3697905Y200632D02*
G01X3697905Y104745D01*
G01X3697905Y104745D02*
G01X3830025Y104745D01*
G01X3830025Y104745D02*
G01X3830025Y200632D01*
G54D12*
G01X5499100Y2933700D02*
G01X5499100Y2962887D01*
G01X5499100Y3387268D02*
G01X5499100Y3403600D01*
G01X5499100Y3403600D02*
G01X5433212Y3403600D01*
G01X5358983Y3403600D02*
G01X5283213Y3403600D01*
G01X5208984Y3403600D02*
G01X5143500Y3403600D01*
G01X5143500Y3403600D02*
G01X5143500Y3387268D01*
G01X5499100Y2933700D02*
G01X5433411Y2933700D01*
G01X5359182Y2933700D02*
G01X5283213Y2933700D01*
G01X5208984Y2933700D02*
G01X5143500Y2933700D01*
G01X4923323Y2806070D02*
G01X4923323Y2726068D01*
G01X5034298Y2837056D02*
G01X4954300Y2837056D01*
G01X5034298Y2695090D02*
G01X4954300Y2695090D01*
G01X5091887Y2837637D02*
G01X5171887Y2837637D01*
G01X5202870Y2806654D02*
G01X5202870Y2726657D01*
G01X5091887Y2695677D02*
G01X5171887Y2695677D01*
G01X5202875Y2806654D02*
G03X5171892Y2837637I-30983J0D01*
G01X5171892Y2695672D02*
G03X5202875Y2726657I0J30983D01*
G01X4954306Y2837056D02*
G03X4923323Y2806070I-0J-30983D01*
G01X4923323Y2726073D02*
G03X4954306Y2695090I30983J0D01*
G01X5638102Y2677823D02*
G01X5638102Y2757825D01*
G01X5527126Y2646837D02*
G01X5607124Y2646837D01*
G01X5527126Y2788803D02*
G01X5607124Y2788803D01*
G01X5469537Y2646256D02*
G01X5389537Y2646256D01*
G01X5358554Y2677239D02*
G01X5358554Y2757236D01*
G01X5469537Y2788216D02*
G01X5389537Y2788216D01*
G01X5358549Y2677239D02*
G03X5389532Y2646256I30983J0D01*
G01X5389532Y2788222D02*
G03X5358549Y2757236I-0J-30983D01*
G01X5607119Y2646837D02*
G03X5638102Y2677823I0J30983D01*
G01X5638102Y2757820D02*
G03X5607119Y2788803I-30983J0D01*
G54D11*
G01X5128021Y3506140D02*
G01X5199825Y3506140D01*
G01X5199825Y3506140D02*
G01X5199825Y3605860D01*
G01X5199825Y3605860D02*
G01X5128021Y3605860D01*
G01X5082779Y3506140D02*
G01X5010976Y3506140D01*
G01X5010976Y3506140D02*
G01X5010976Y3605860D01*
G01X5010976Y3605860D02*
G01X5082779Y3605860D01*
G01X5336779Y3605860D02*
G01X5264976Y3605860D01*
G01X5264976Y3605860D02*
G01X5264976Y3506140D01*
G01X5264976Y3506140D02*
G01X5336779Y3506140D01*
G01X5382021Y3605860D02*
G01X5453825Y3605860D01*
G01X5453825Y3605860D02*
G01X5453825Y3506140D01*
G01X5453825Y3506140D02*
G01X5382021Y3506140D01*
G01X5752160Y4721621D02*
G01X5752160Y4793425D01*
G01X5752160Y4793425D02*
G01X5652440Y4793425D01*
G01X5652440Y4793425D02*
G01X5652440Y4721621D01*
G01X5752160Y4676379D02*
G01X5752160Y4604576D01*
G01X5752160Y4604576D02*
G01X5652440Y4604576D01*
G01X5652440Y4604576D02*
G01X5652440Y4676379D01*
G01X6000351Y4931631D02*
G01X6265588Y4931631D01*
G01X6265588Y4931631D02*
G01X6265588Y4816749D01*
G01X6000351Y4466394D02*
G01X6265588Y4466394D01*
G01X6265588Y4466394D02*
G01X6265588Y4581276D01*
G01X6003219Y4412059D02*
G01X6146714Y4412059D01*
G01X6146714Y4412059D02*
G01X6146714Y4020741D01*
G01X6146714Y4020741D02*
G01X6003219Y4020741D01*
G01X5502981Y4412059D02*
G01X5359486Y4412059D01*
G01X5359486Y4412059D02*
G01X5359486Y4020741D01*
G01X5359486Y4020741D02*
G01X5502981Y4020741D01*
G01X3119735Y4774019D02*
G01X3047931Y4774019D01*
G01X3047931Y4774019D02*
G01X3047931Y4674299D01*
G01X3047931Y4674299D02*
G01X3119735Y4674299D01*
G01X3164977Y4774019D02*
G01X3236780Y4774019D01*
G01X3236780Y4774019D02*
G01X3236780Y4674299D01*
G01X3236780Y4674299D02*
G01X3164977Y4674299D01*
G01X4527151Y4931631D02*
G01X4792388Y4931631D01*
G01X4792388Y4931631D02*
G01X4792388Y4816749D01*
G01X4527151Y4466394D02*
G01X4792388Y4466394D01*
G01X4792388Y4466394D02*
G01X4792388Y4581276D01*
G01X4029344Y4908733D02*
G01X4172839Y4908733D01*
G01X4172839Y4908733D02*
G01X4172839Y4517415D01*
G01X4172839Y4517415D02*
G01X4029344Y4517415D01*
G01X3529106Y4908733D02*
G01X3385612Y4908733D01*
G01X3385612Y4908733D02*
G01X3385612Y4517415D01*
G01X3385612Y4517415D02*
G01X3529106Y4517415D01*
G54D12*
G01X2334923Y4572699D02*
G01X2414925Y4572699D01*
G01X2303937Y4683674D02*
G01X2303937Y4603676D01*
G01X2445903Y4683674D02*
G01X2445903Y4603676D01*
G01X2303356Y4741263D02*
G01X2303356Y4821263D01*
G01X2334339Y4852246D02*
G01X2414336Y4852246D01*
G01X2445316Y4741263D02*
G01X2445316Y4821263D01*
G01X2334339Y4852251D02*
G03X2303356Y4821268I0J-30983D01*
G01X2445322Y4821268D02*
G03X2414336Y4852251I-30983J0D01*
G01X2303937Y4603681D02*
G03X2334923Y4572699I30983J-0D01*
G01X2414920Y4572699D02*
G03X2445903Y4603681I0J30983D01*
G01X2588923Y4585399D02*
G01X2668925Y4585399D01*
G01X2557937Y4696374D02*
G01X2557937Y4616376D01*
G01X2699903Y4696374D02*
G01X2699903Y4616376D01*
G01X2557356Y4753963D02*
G01X2557356Y4833963D01*
G01X2588339Y4864946D02*
G01X2668336Y4864946D01*
G01X2699316Y4753963D02*
G01X2699316Y4833963D01*
G01X2588339Y4864951D02*
G03X2557356Y4833968I0J-30983D01*
G01X2699322Y4833968D02*
G03X2668336Y4864951I-30983J0D01*
G01X2557937Y4616381D02*
G03X2588923Y4585399I30983J-0D01*
G01X2668920Y4585399D02*
G03X2699903Y4616381I0J30983D01*
G54D11*
G01X2945460Y4826030D02*
G01X2945460Y4747021D01*
G01X2845740Y4747021D02*
G01X2845740Y4826030D01*
G01X2860980Y4841270D02*
G01X2930220Y4841270D01*
G01X2945460Y4622770D02*
G01X2945460Y4701779D01*
G01X2845740Y4701779D02*
G01X2845740Y4622770D01*
G01X2860980Y4607530D02*
G01X2930220Y4607530D01*
G01X2845740Y4826030D02*
G02X2860980Y4841270I15240J0D01*
G01X2930220Y4841270D02*
G02X2945460Y4826030I0J-15240D01*
G01X2845740Y4622770D02*
G03X2860980Y4607530I15240J0D01*
G01X2930220Y4607530D02*
G03X2945460Y4622770I0J15240D01*
G01X6418576Y3999327D02*
G01X6254835Y3999327D01*
G01X6254835Y3999327D02*
G01X6254835Y4207053D01*
G01X6254835Y4207053D02*
G01X6418576Y4207053D01*
G01X6583813Y3999327D02*
G01X6732312Y3999327D01*
G01X6732312Y3999327D02*
G01X6747554Y4014569D01*
G01X6747554Y4014569D02*
G01X6747554Y4191810D01*
G01X6747554Y4191810D02*
G01X6732312Y4207053D01*
G01X6732312Y4207053D02*
G01X6583813Y4207053D01*
G36*
G01X6762797Y4014567D02*
G01X6762797Y4191808D01*
G01X6778037D01*
G01Y4014567D01*
G01X6762797D01*
G37*
G01X4792838Y4070817D02*
G01X4649346Y4070817D01*
G01X4649346Y4070817D02*
G01X4649346Y4386539D01*
G01X4649346Y4386539D02*
G01X4792838Y4386539D01*
G01X5158080Y4070817D02*
G01X5301572Y4070817D01*
G01X5301572Y4070817D02*
G01X5301572Y4386539D01*
G01X5301572Y4386539D02*
G01X5158080Y4386539D01*
G01X6396846Y4774949D02*
G01X6396846Y4918441D01*
G01X6396846Y4918441D02*
G01X6712568Y4918441D01*
G01X6712568Y4918441D02*
G01X6712568Y4774949D01*
G01X6396846Y4409707D02*
G01X6396846Y4266214D01*
G01X6396846Y4266214D02*
G01X6712568Y4266214D01*
G01X6712568Y4266214D02*
G01X6712568Y4409707D01*
G54D12*
G01X2539995Y1524000D02*
G01X2184397Y1524000D01*
G01X2184397Y1519964D02*
G01X2184397Y1524000D01*
G01X2184397Y319966D02*
G01X2184397Y1233736D01*
G01X3530592Y33739D02*
G01X3530592Y25405D01*
G01X3530592Y25405D02*
G01X2184397Y25405D01*
G01X2184397Y25405D02*
G01X2184397Y33739D01*
G01X3530592Y1233736D02*
G01X3530592Y319966D01*
G01X3403595Y1524000D02*
G01X3530592Y1524000D01*
G01X3530592Y1524000D02*
G01X3530592Y1519964D01*
G54D11*
G01X3864920Y1700527D02*
G01X3729680Y1700527D01*
G01X3864920Y1525288D02*
G01X3729680Y1525288D01*
G01X5137244Y4630386D02*
G01X4973503Y4630386D01*
G01X4973503Y4630386D02*
G01X4973503Y4838112D01*
G01X4973503Y4838112D02*
G01X5137244Y4838112D01*
G01X5302481Y4630386D02*
G01X5450980Y4630386D01*
G01X5450980Y4630386D02*
G01X5466222Y4645628D01*
G01X5466222Y4645628D02*
G01X5466222Y4822869D01*
G01X5466222Y4822869D02*
G01X5450980Y4838112D01*
G01X5450980Y4838112D02*
G01X5302481Y4838112D01*
G36*
G01X5481465Y4645626D02*
G01X5481465Y4822867D01*
G01X5496705D01*
G01Y4645626D01*
G01X5481465D01*
G37*
G01X3721280Y1404661D02*
G01X3869779Y1404661D01*
G01X3869779Y1186139D02*
G01X3721280Y1186139D01*
G01X3706040Y1201379D02*
G01X3706040Y1389421D01*
G01X4203520Y1404661D02*
G01X4055021Y1404661D01*
G01X4055021Y1186139D02*
G01X4203520Y1186139D01*
G01X4218760Y1201379D02*
G01X4218760Y1389421D01*
G01X3721280Y1186139D02*
G02X3706040Y1201379I0J15240D01*
G01X3706040Y1389421D02*
G02X3721280Y1404661I15240J0D01*
G01X4203520Y1186139D02*
G03X4218760Y1201379I0J15240D01*
G01X4218760Y1389421D02*
G03X4203520Y1404661I-15240J0D01*
G01X4429368Y321274D02*
G01X4577866Y321274D01*
G01X4577866Y102753D02*
G01X4429368Y102753D01*
G01X4414128Y117993D02*
G01X4414128Y306034D01*
G01X4911607Y321274D02*
G01X4763108Y321274D01*
G01X4763108Y102753D02*
G01X4911607Y102753D01*
G01X4926847Y117993D02*
G01X4926847Y306034D01*
G01X4429368Y102753D02*
G02X4414128Y117993I0J15240D01*
G01X4414128Y306034D02*
G02X4429368Y321274I15240J0D01*
G01X4911607Y102753D02*
G03X4926847Y117993I0J15240D01*
G01X4926847Y306034D02*
G03X4911607Y321274I-15240J0D01*
G01X1998939Y4432480D02*
G01X1998939Y4580979D01*
G01X2217461Y4580979D02*
G01X2217461Y4432480D01*
G01X2202221Y4417240D02*
G01X2014179Y4417240D01*
G01X1998939Y4914720D02*
G01X1998939Y4766221D01*
G01X2217461Y4766221D02*
G01X2217461Y4914720D01*
G01X2202221Y4929960D02*
G01X2014179Y4929960D01*
G01X2217461Y4432480D02*
G02X2202221Y4417240I-15240J0D01*
G01X2014179Y4417240D02*
G02X1998939Y4432480I0J15240D01*
G01X2217461Y4914720D02*
G03X2202221Y4929960I-15240J0D01*
G01X2014179Y4929960D02*
G03X1998939Y4914720I0J-15240D01*
G54D12*
G01X5108202Y882802D02*
G01X5120698Y882802D01*
G01X4963201Y882802D02*
G01X5013195Y882802D01*
G01X4810697Y882802D02*
G01X4818192Y882802D01*
G01X5108202Y742803D02*
G01X5120698Y742803D01*
G01X4918199Y742803D02*
G01X5013195Y742803D01*
G01X4810697Y742803D02*
G01X4823193Y742803D01*
G01X5120698Y882802D02*
G01X5120698Y742803D01*
G01X4810697Y882802D02*
G01X4810697Y742803D01*
G54D11*
G01X4178480Y1671361D02*
G01X4326979Y1671361D01*
G01X4326979Y1452839D02*
G01X4178480Y1452839D01*
G01X4163240Y1468079D02*
G01X4163240Y1656121D01*
G01X4660720Y1671361D02*
G01X4512221Y1671361D01*
G01X4512221Y1452839D02*
G01X4660720Y1452839D01*
G01X4675960Y1468079D02*
G01X4675960Y1656121D01*
G01X4178480Y1452839D02*
G02X4163240Y1468079I0J15240D01*
G01X4163240Y1656121D02*
G02X4178480Y1671361I15240J0D01*
G01X4660720Y1452839D02*
G03X4675960Y1468079I0J15240D01*
G01X4675960Y1656121D02*
G03X4660720Y1671361I-15240J0D01*
G01X8559620Y513039D02*
G01X8411121Y513039D01*
G01X8411121Y731561D02*
G01X8559620Y731561D01*
G01X8574860Y716321D02*
G01X8574860Y528279D01*
G01X8077380Y513039D02*
G01X8225879Y513039D01*
G01X8225879Y731561D02*
G01X8077380Y731561D01*
G01X8062140Y716321D02*
G01X8062140Y528279D01*
G01X8559620Y731561D02*
G02X8574860Y716321I0J-15240D01*
G01X8574860Y528279D02*
G02X8559620Y513039I-15240J0D01*
G01X8077380Y731561D02*
G03X8062140Y716321I0J-15240D01*
G01X8062140Y528279D02*
G03X8077380Y513039I15240J0D01*
G01X8064680Y337861D02*
G01X8213179Y337861D01*
G01X8213179Y119339D02*
G01X8064680Y119339D01*
G01X8049440Y134579D02*
G01X8049440Y322621D01*
G01X8546920Y337861D02*
G01X8398421Y337861D01*
G01X8398421Y119339D02*
G01X8546920Y119339D01*
G01X8562160Y134579D02*
G01X8562160Y322621D01*
G01X8064680Y119339D02*
G02X8049440Y134579I0J15240D01*
G01X8049440Y322621D02*
G02X8064680Y337861I15240J0D01*
G01X8546920Y119339D02*
G03X8562160Y134579I0J15240D01*
G01X8562160Y322621D02*
G03X8546920Y337861I-15240J0D01*
G54D12*
G01X8546402Y798223D02*
G01X8546402Y878225D01*
G01X8435426Y767237D02*
G01X8515424Y767237D01*
G01X8435426Y909203D02*
G01X8515424Y909203D01*
G01X8377837Y766656D02*
G01X8297837Y766656D01*
G01X8266854Y797639D02*
G01X8266854Y877636D01*
G01X8377837Y908616D02*
G01X8297837Y908616D01*
G01X8266849Y797639D02*
G03X8297832Y766656I30983J0D01*
G01X8297832Y908622D02*
G03X8266849Y877636I-0J-30983D01*
G01X8515419Y767237D02*
G03X8546402Y798223I0J30983D01*
G01X8546402Y878220D02*
G03X8515419Y909203I-30983J0D01*
G01X5158077Y405702D02*
G01X5078075Y405702D01*
G01X5189063Y294726D02*
G01X5189063Y374724D01*
G01X5047097Y294726D02*
G01X5047097Y374724D01*
G01X5189644Y237137D02*
G01X5189644Y157137D01*
G01X5158661Y126154D02*
G01X5078664Y126154D01*
G01X5047684Y237137D02*
G01X5047684Y157137D01*
G01X5158661Y126149D02*
G03X5189644Y157132I0J30983D01*
G01X5047679Y157132D02*
G03X5078664Y126149I30983J-0D01*
G01X5189063Y374719D02*
G03X5158077Y405702I-30983J0D01*
G01X5078080Y405702D02*
G03X5047097Y374719I0J-30983D01*
G01X3997960Y4042918D02*
G01X3705352Y4042918D01*
G01X3599180Y4042918D02*
G01X3595370Y4042918D01*
G01X3489198Y4042918D02*
G01X3485388Y4042918D01*
G01X3379216Y4042918D02*
G01X3375406Y4042918D01*
G01X3269234Y4042918D02*
G01X3265424Y4042918D01*
G01X3159252Y4042918D02*
G01X3155442Y4042918D01*
G01X3049270Y4042918D02*
G01X3045460Y4042918D01*
G01X2939288Y4042918D02*
G01X2935478Y4042918D01*
G01X2829306Y4042918D02*
G01X2825496Y4042918D01*
G01X2719324Y4042918D02*
G01X2421890Y4042918D01*
G01X2421890Y4042918D02*
G01X2421890Y3820922D01*
G01X2421890Y3714750D02*
G01X2421890Y3710940D01*
G01X2421890Y3604768D02*
G01X2421890Y3600958D01*
G01X2421890Y3494786D02*
G01X2421890Y3490976D01*
G01X2421890Y3384804D02*
G01X2421890Y3380994D01*
G01X2421890Y3274822D02*
G01X2421890Y3271012D01*
G01X2421890Y3164840D02*
G01X2421890Y3161030D01*
G01X2421890Y3054858D02*
G01X2421890Y3050794D01*
G01X2421890Y2944622D02*
G01X2421890Y2940812D01*
G01X2421890Y2834640D02*
G01X2421890Y2830830D01*
G01X2421890Y2724658D02*
G01X2421890Y2720848D01*
G01X2421890Y2614676D02*
G01X2421890Y2610866D01*
G01X2421890Y2504694D02*
G01X2421890Y2283460D01*
G01X2421890Y2283460D02*
G01X2718308Y2283460D01*
G01X2824480Y2283460D02*
G01X2828290Y2283460D01*
G01X2934462Y2283460D02*
G01X2938272Y2283460D01*
G01X3044444Y2283460D02*
G01X3048254Y2283460D01*
G01X3154426Y2283460D02*
G01X3158236Y2283460D01*
G01X3264408Y2283460D02*
G01X3268218Y2283460D01*
G01X3374390Y2283460D02*
G01X3378200Y2283460D01*
G01X3484372Y2283460D02*
G01X3488182Y2283460D01*
G01X3594354Y2283460D02*
G01X3598164Y2283460D01*
G01X3704336Y2283460D02*
G01X4000500Y2283460D01*
G01X4000500Y2283460D02*
G01X4000500Y2503678D01*
G01X4000500Y2609850D02*
G01X4000500Y2613660D01*
G01X4000500Y2719832D02*
G01X4000500Y2723642D01*
G01X4000500Y2829814D02*
G01X4000500Y2833624D01*
G01X4000500Y2939796D02*
G01X4000500Y2943860D01*
G01X4000500Y3050032D02*
G01X4000500Y3053842D01*
G01X4000500Y3160014D02*
G01X4000500Y3163824D01*
G01X4000500Y3269996D02*
G01X4000500Y3273806D01*
G01X4000500Y3379978D02*
G01X4000500Y3383788D01*
G01X4000500Y3489960D02*
G01X4000500Y3493770D01*
G01X4000500Y3599942D02*
G01X4000500Y3603752D01*
G01X4000500Y3709924D02*
G01X4000500Y3713734D01*
G01X4000500Y3819906D02*
G01X4000500Y4042918D01*
G04 PolygonModel End*

G04 Circle Start*
G01X5156200Y2882900D02*
G03X5181600Y2882900I12700J0D01*
G03X5156200I-12700J0D01*
G54D10*
G01X3884793Y1707888D02*
G03X3899779Y1707888I7493J0D01*
G03X3884793I-7493J0D01*
G54D12*
G01X4775187Y939813D02*
G03X4800587Y939813I12700J0D01*
G03X4775187I-12700J0D01*
G01X3834130Y3929380D02*
G03X3930650Y3929380I48260J0D01*
G03X3834130I-48260J0D01*
G04 Circle End*

M02*
