G04 Layer: BottomSolderMaskLayer*
G04 EasyEDA Pro v2.1.49.573a4102.674264, 2024-03-06 21:11:32*
G04 Gerber Generator version 0.3*
G04 Scale: 100 percent, Rotated: No, Reflected: No*
G04 Dimensions in millimeters*
G04 Leading zeros omitted, absolute positions, 3 integers and 5 decimals*
G04 Panelize: V-CUT, Column: 2, Row: 2, Board Size: 105.286mm x 50.038mm, Panelized Board Size: 174.323mm x 101.42mm, Panelized Method: Only Board Outline*
%FSLAX35Y35*%
%MOMM*%
%AMRoundRect*1,1,$1,$2,$3*1,1,$1,$4,$5*1,1,$1,0-$2,0-$3*1,1,$1,0-$4,0-$5*20,1,$1,$2,$3,$4,$5,0*20,1,$1,$4,$5,0-$2,0-$3,0*20,1,$1,0-$2,0-$3,0-$4,0-$5,0*20,1,$1,0-$4,0-$5,$2,$3,0*4,1,4,$2,$3,$4,$5,0-$2,0-$3,0-$4,0-$5,$2,$3,0*%
%ADD10C,2.0*%
%ADD11O,1.4016X1.9016*%
%ADD12C,1.4016*%
%ADD13C,1.7016*%
%ADD14RoundRect,0.09288X1.17436X-0.49437X-1.17436X-0.49437*%
%ADD15RoundRect,0.09754X1.17203X-1.80203X-1.17203X-1.80203*%
%ADD16RoundRect,0.09138X-0.40835X0.43712X0.40835X0.43712*%
%ADD17RoundRect,0.0973X-0.43712X-0.40835X-0.43712X0.40835*%
%ADD18RoundRect,0.09138X-0.43712X-0.40835X-0.43712X0.40835*%
%ADD19RoundRect,0.09618X-0.85271X1.35271X0.85271X1.35271*%
%ADD20RoundRect,0.08024X-0.15069X-0.43569X-0.15069X0.43569*%
%ADD21RoundRect,0.08024X-0.43569X-0.15069X-0.43569X0.15069*%
%ADD22RoundRect,0.09131X0.40514X-0.45514X-0.40514X-0.45514*%
%ADD23RoundRect,0.09131X-0.40514X0.45514X0.40514X0.45514*%
%ADD24RoundRect,0.08771X0.28977X-0.27695X-0.28977X-0.27695*%
%ADD25RoundRect,0.08771X-0.28977X0.27695X0.28977X0.27695*%
%ADD26RoundRect,0.08771X0.27695X0.28977X0.27695X-0.28977*%
%ADD27RoundRect,0.08981X0.7934X-0.3419X-0.7934X-0.3419*%
%ADD28RoundRect,0.09465X-0.64474X1.73147X0.64474X1.73147*%
%ADD29RoundRect,0.09131X0.45514X0.40514X0.45514X-0.40514*%
%ADD30RoundRect,0.08771X-0.27695X-0.40199X-0.27695X0.40199*%
%ADD31RoundRect,0.09549X0.74556X-0.81306X-0.74556X-0.81306*%
%ADD32RoundRect,0.09465X0.64474X-1.35347X-0.64474X-1.35347*%
%ADD33RoundRect,0.09465X-1.35347X-0.64474X-1.35347X0.64474*%
%ADD34RoundRect,0.09X0.405X-0.574X-0.405X-0.574*%
%ADD35RoundRect,0.08889X0.35555X-0.57455X-0.35555X-0.57455*%
%ADD36RoundRect,0.08889X0.35555X-1.20555X-0.35555X-1.20555*%
%ADD37RoundRect,0.08024X0.35069X0.15069X0.35069X-0.15069*%
%ADD38RoundRect,0.09549X0.74556X-0.86705X-0.74556X-0.86705*%
%ADD39RoundRect,0.09549X0.86705X0.74556X0.86705X-0.74556*%
%ADD40RoundRect,0.09017X-0.55571X0.35571X0.55571X0.35571*%
%ADD41RoundRect,0.08875X-0.30643X0.35643X0.30643X0.35643*%
%ADD42RoundRect,0.09549X-0.74556X0.86705X0.74556X0.86705*%
%ADD43RoundRect,0.09131X-0.45514X-0.40514X-0.45514X0.40514*%
%ADD44RoundRect,0.08921X0.32119X-1.08569X-0.32119X-1.08569*%
%ADD45RoundRect,0.08921X1.10619X-0.32119X-1.10619X-0.32119*%
%ADD46RoundRect,0.08921X0.32119X-1.10619X-0.32119X-1.10619*%
G75*


G04 Panelize Start*
G54D10*
G01X1692427Y1012827D03*
G01X15739827Y1512827D03*
G01X1692427Y9129119D03*
G01X15739827Y8629119D03*
G04 Panelize End*

G04 Pad Start*
G54D11*
G01X6204483Y145169D03*
G01X5479517Y145169D03*
G54D12*
G01X5599506Y412173D03*
G01X6084494Y412199D03*
G54D13*
G01X7861300Y2324100D03*
G01X7861300Y2578100D03*
G54D14*
G01X3942105Y570103D03*
G01X3942105Y800100D03*
G01X3942105Y1030097D03*
G54D15*
G01X4516095Y800100D03*
G54D16*
G01X4190136Y215900D03*
G01X4039464Y215900D03*
G54D18*
G01X3763965Y318590D03*
G01X3763965Y167917D03*
G54D19*
G01X5321097Y3175000D03*
G54D20*
G01X5396306Y2950007D03*
G54D21*
G01X5496103Y2999994D03*
G01X5496103Y3050007D03*
G01X5496103Y3099994D03*
G01X5496103Y3150006D03*
G01X5496103Y3199994D03*
G01X5496103Y3250006D03*
G01X5496306Y3300146D03*
G01X5496306Y3350158D03*
G54D20*
G01X5396103Y3399993D03*
G01X5246091Y3399993D03*
G54D21*
G01X5146294Y3350158D03*
G01X5146294Y3300146D03*
G01X5146294Y3250159D03*
G01X5146294Y3200146D03*
G01X5146294Y3150159D03*
G01X5146294Y3100146D03*
G01X5146294Y3050159D03*
G01X5146294Y3000146D03*
G54D20*
G01X5246091Y2950007D03*
G54D22*
G01X4992322Y2766093D03*
G01X5132327Y2766093D03*
G54D23*
G01X5569102Y2717800D03*
G01X5429098Y2717800D03*
G54D24*
G01X5062118Y3556000D03*
G01X5148682Y3556000D03*
G54D25*
G01X5402682Y3556000D03*
G01X5316118Y3556000D03*
G54D26*
G01X5702300Y4655718D03*
G01X5702300Y4742282D03*
G54D27*
G01X5934977Y4549000D03*
G01X5934977Y4849000D03*
G36*
G01X6303493Y4599088D02*
G01X6299040Y4598981D01*
G01X6298921Y4598980D01*
G01X6113501D01*
G01X6113381Y4598981D01*
G01X6108928Y4599088D01*
G01X6108697Y4599099D01*
G01X6104255Y4599411D01*
G01X6104021Y4599433D01*
G01X6099596Y4599954D01*
G01X6099365Y4599987D01*
G01X6094971Y4600713D01*
G01X6094737Y4600757D01*
G01X6090381Y4601692D01*
G01X6090155Y4601746D01*
G01X6085850Y4602882D01*
G01X6085625Y4602946D01*
G01X6081376Y4604283D01*
G01X6081153Y4604358D01*
G01X6076972Y4605893D01*
G01X6076753Y4605979D01*
G01X6072648Y4607709D01*
G01X6072437Y4607803D01*
G01X6068417Y4609721D01*
G01X6068205Y4609828D01*
G01X6064281Y4611934D01*
G01X6064076Y4612050D01*
G01X6060254Y4614338D01*
G01X6060056Y4614463D01*
G01X6056345Y4616927D01*
G01X6056154Y4617060D01*
G01X6052562Y4619694D01*
G01X6052376Y4619838D01*
G01X6048914Y4622637D01*
G01X6048734Y4622789D01*
G01X6045404Y4625751D01*
G01X6045233Y4625910D01*
G01X6042048Y4629022D01*
G01X6041885Y4629189D01*
G01X6038847Y4632448D01*
G01X6038691Y4632623D01*
G01X6035811Y4636019D01*
G01X6035663Y4636202D01*
G01X6032945Y4639730D01*
G01X6032806Y4639919D01*
G01X6030256Y4643572D01*
G01X6030126Y4643767D01*
G01X6027751Y4647534D01*
G01X6027631Y4647735D01*
G01X6025434Y4651611D01*
G01X6025324Y4651816D01*
G01X6023310Y4655788D01*
G01X6022896Y4656930D01*
G01X6021965Y4660984D01*
G01X5856214D01*
G02X5851213Y4665985I0J5001D01*
G01Y4731984D01*
G02X5856214Y4736986I5001J0D01*
G01X6021965D01*
G01X6022896Y4741035D01*
G01X6023310Y4742176D01*
G01X6025324Y4746149D01*
G01X6025434Y4746353D01*
G01X6027631Y4750229D01*
G01X6027751Y4750430D01*
G01X6030126Y4754197D01*
G01X6030256Y4754393D01*
G01X6032806Y4758045D01*
G01X6032945Y4758234D01*
G01X6035663Y4761762D01*
G01X6035811Y4761945D01*
G01X6038691Y4765341D01*
G01X6038847Y4765517D01*
G01X6041885Y4768775D01*
G01X6042048Y4768943D01*
G01X6045233Y4772054D01*
G01X6045404Y4772214D01*
G01X6048734Y4775175D01*
G01X6048914Y4775327D01*
G01X6052376Y4778126D01*
G01X6052562Y4778270D01*
G01X6056154Y4780904D01*
G01X6056345Y4781038D01*
G01X6060056Y4783502D01*
G01X6060254Y4783626D01*
G01X6064076Y4785915D01*
G01X6064281Y4786031D01*
G01X6068205Y4788136D01*
G01X6068417Y4788243D01*
G01X6072437Y4790161D01*
G01X6072648Y4790256D01*
G01X6076753Y4791985D01*
G01Y4791986D01*
G01X6076972Y4792072D01*
G01X6081153Y4793606D01*
G01X6081376Y4793682D01*
G01X6085625Y4795018D01*
G01X6085850Y4795083D01*
G01X6090155Y4796218D01*
G01X6090381Y4796272D01*
G01X6094737Y4797207D01*
G01X6094971Y4797251D01*
G01X6099365Y4797978D01*
G01X6099596Y4798010D01*
G01X6104021Y4798531D01*
G01X6104255Y4798553D01*
G01X6108697Y4798866D01*
G01X6108928Y4798876D01*
G01X6113381Y4798983D01*
G01X6113501Y4798985D01*
G01X6298921D01*
G01X6299040Y4798983D01*
G01X6303493Y4798876D01*
G01X6303724Y4798866D01*
G01X6308167Y4798553D01*
G01X6308400Y4798531D01*
G01X6312825Y4798010D01*
G01X6313056Y4797978D01*
G01X6317450Y4797251D01*
G01X6317684Y4797207D01*
G01X6322040Y4796272D01*
G01X6322266Y4796218D01*
G01X6326571Y4795083D01*
G01X6326796Y4795018D01*
G01X6331045Y4793682D01*
G01X6331268Y4793606D01*
G01X6335449Y4792072D01*
G01X6335668Y4791986D01*
G01Y4791985D01*
G01X6339773Y4790256D01*
G01X6339984Y4790161D01*
G01X6344005Y4788243D01*
G01X6344216Y4788136D01*
G01X6348141Y4786031D01*
G01X6348345Y4785915D01*
G01X6352168Y4783626D01*
G01X6352365Y4783502D01*
G01X6356076Y4781038D01*
G01X6356267Y4780904D01*
G01X6359859Y4778270D01*
G01X6360046Y4778126D01*
G01X6363508Y4775327D01*
G01X6363687Y4775175D01*
G01X6367017Y4772214D01*
G01X6367188Y4772054D01*
G01X6370373Y4768943D01*
G01X6370537Y4768775D01*
G01X6373574Y4765517D01*
G01X6373730Y4765341D01*
G01X6376611Y4761945D01*
G01X6376758Y4761762D01*
G01X6379476Y4758234D01*
G01X6379615Y4758045D01*
G01X6382165Y4754393D01*
G01X6382295Y4754197D01*
G01X6384670Y4750430D01*
G01X6384790Y4750229D01*
G01X6386987Y4746353D01*
G01X6387097Y4746149D01*
G01Y4746148D01*
G01X6389111Y4742176D01*
G01X6389214Y4741962D01*
G01X6391037Y4737898D01*
G01X6391127Y4737685D01*
G01X6392760Y4733542D01*
G01X6392842Y4733319D01*
G01X6394277Y4729103D01*
G01X6394347Y4728880D01*
G01X6395584Y4724600D01*
G01X6395644Y4724372D01*
G01X6396678Y4720039D01*
G01X6396727Y4719811D01*
G01X6397558Y4715437D01*
G01X6397596Y4715205D01*
G01X6398221Y4710793D01*
G01X6398248Y4710560D01*
G01X6398665Y4706125D01*
G01X6398681Y4705891D01*
G01X6398890Y4701444D01*
G01X6398895Y4701210D01*
G01Y4696755D01*
G01X6398890Y4696521D01*
G01X6398681Y4692073D01*
G01X6398665Y4691839D01*
G01X6398248Y4687405D01*
G01X6398221Y4687171D01*
G01X6397596Y4682759D01*
G01X6397558Y4682527D01*
G01X6396727Y4678153D01*
G01X6396678Y4677926D01*
G01X6395644Y4673593D01*
G01X6395584Y4673365D01*
G01X6394347Y4669085D01*
G01X6394277Y4668862D01*
G01X6392842Y4664645D01*
G01X6392760Y4664423D01*
G01X6391127Y4660280D01*
G01X6391037Y4660067D01*
G01Y4660066D01*
G01X6389214Y4656003D01*
G01X6389111Y4655788D01*
G01X6387097Y4651816D01*
G01X6386987Y4651611D01*
G01X6384790Y4647735D01*
G01X6384670Y4647534D01*
G01X6382295Y4643767D01*
G01X6382165Y4643572D01*
G01X6379615Y4639919D01*
G01X6379476Y4639730D01*
G01X6376758Y4636202D01*
G01X6376611Y4636019D01*
G01X6373730Y4632623D01*
G01X6373574Y4632448D01*
G01X6370537Y4629189D01*
G01X6370373Y4629022D01*
G01X6367188Y4625910D01*
G01X6367017Y4625751D01*
G01X6363687Y4622789D01*
G01X6363508Y4622637D01*
G01X6360046Y4619838D01*
G01X6359859Y4619694D01*
G01X6356267Y4617060D01*
G01X6356076Y4616927D01*
G01X6352365Y4614463D01*
G01X6352168Y4614338D01*
G01X6348345Y4612050D01*
G01X6348141Y4611934D01*
G01X6344216Y4609828D01*
G01X6344005Y4609721D01*
G01X6339984Y4607803D01*
G01X6339773Y4607709D01*
G01X6335668Y4605979D01*
G01X6335449Y4605893D01*
G01X6331268Y4604358D01*
G01X6331045Y4604283D01*
G01X6326796Y4602946D01*
G01X6326571Y4602882D01*
G01X6322266Y4601746D01*
G01X6322040Y4601692D01*
G01X6317684Y4600757D01*
G01X6317450Y4600713D01*
G01X6313056Y4599987D01*
G01X6312825Y4599954D01*
G01X6308400Y4599433D01*
G01X6308167Y4599411D01*
G01X6308166D01*
G01X6303724Y4599099D01*
G01X6303493Y4599088D01*
G37*
G54D28*
G01X6059729Y4216400D03*
G01X5446471Y4216400D03*
G54D25*
G01X3185638Y4724159D03*
G01X3099074Y4724159D03*
G54D27*
G01X4461777Y4549000D03*
G01X4461777Y4849000D03*
G36*
G01X4640181Y4598981D02*
G01X4635728Y4599088D01*
G01X4635497Y4599099D01*
G01X4631055Y4599411D01*
G01X4630821Y4599433D01*
G01X4626396Y4599954D01*
G01X4626165Y4599987D01*
G01X4621771Y4600713D01*
G01X4621537Y4600757D01*
G01X4617181Y4601692D01*
G01X4616955Y4601746D01*
G01X4612650Y4602882D01*
G01X4612425Y4602946D01*
G01X4608176Y4604282D01*
G01Y4604283D01*
G01X4607953Y4604358D01*
G01X4603772Y4605893D01*
G01X4603553Y4605979D01*
G01X4599448Y4607709D01*
G01X4599237Y4607803D01*
G01X4595217Y4609721D01*
G01X4595005Y4609828D01*
G01X4591081Y4611934D01*
G01X4590876Y4612050D01*
G01X4587054Y4614338D01*
G01X4586856Y4614463D01*
G01X4583145Y4616927D01*
G01X4582954Y4617060D01*
G01X4579362Y4619694D01*
G01X4579176Y4619838D01*
G01X4575714Y4622637D01*
G01X4575534Y4622789D01*
G01X4572204Y4625751D01*
G01X4572033Y4625910D01*
G01X4568848Y4629022D01*
G01X4568685Y4629189D01*
G01X4565647Y4632448D01*
G01X4565491Y4632623D01*
G01X4562611Y4636019D01*
G01X4562463Y4636202D01*
G01X4559745Y4639730D01*
G01X4559606Y4639919D01*
G01X4557056Y4643572D01*
G01X4556926Y4643767D01*
G01X4554551Y4647534D01*
G01X4554431Y4647735D01*
G01X4552234Y4651611D01*
G01X4552124Y4651816D01*
G01X4550110Y4655788D01*
G01X4549696Y4656930D01*
G01X4548765Y4660984D01*
G01X4383014D01*
G02X4378013Y4665985I0J5001D01*
G01Y4731984D01*
G02X4383014Y4736986I5001J0D01*
G01X4548765D01*
G01X4549696Y4741035D01*
G01X4550110Y4742176D01*
G01X4552124Y4746149D01*
G01X4552234Y4746353D01*
G01X4554431Y4750229D01*
G01X4554551Y4750430D01*
G01X4556926Y4754197D01*
G01X4557056Y4754393D01*
G01X4559606Y4758045D01*
G01X4559745Y4758234D01*
G01X4562463Y4761762D01*
G01X4562611Y4761945D01*
G01X4565491Y4765341D01*
G01X4565647Y4765517D01*
G01X4568685Y4768775D01*
G01X4568848Y4768943D01*
G01X4572033Y4772054D01*
G01X4572204Y4772214D01*
G01X4575534Y4775175D01*
G01X4575714Y4775327D01*
G01X4579176Y4778126D01*
G01X4579362Y4778270D01*
G01X4582954Y4780904D01*
G01X4583145Y4781038D01*
G01X4586856Y4783502D01*
G01X4587054Y4783626D01*
G01X4590876Y4785915D01*
G01X4591081Y4786031D01*
G01X4595005Y4788136D01*
G01X4595217Y4788243D01*
G01X4599237Y4790161D01*
G01X4599448Y4790256D01*
G01X4603553Y4791985D01*
G01Y4791986D01*
G01X4603772Y4792072D01*
G01X4607953Y4793606D01*
G01X4608176Y4793682D01*
G01X4612425Y4795018D01*
G01X4612650Y4795083D01*
G01X4616955Y4796218D01*
G01X4617181Y4796272D01*
G01X4621537Y4797207D01*
G01X4621771Y4797251D01*
G01X4626165Y4797978D01*
G01X4626396Y4798010D01*
G01X4630821Y4798531D01*
G01X4631055Y4798553D01*
G01X4635497Y4798866D01*
G01X4635728Y4798876D01*
G01X4640181Y4798983D01*
G01X4640301Y4798985D01*
G01X4825721D01*
G01X4825840Y4798983D01*
G01X4830293Y4798876D01*
G01X4830524Y4798866D01*
G01X4834966Y4798553D01*
G01X4834967D01*
G01X4835200Y4798531D01*
G01X4839625Y4798010D01*
G01X4839856Y4797978D01*
G01X4844250Y4797251D01*
G01X4844484Y4797207D01*
G01X4848840Y4796272D01*
G01X4849066Y4796218D01*
G01X4853371Y4795083D01*
G01X4853596Y4795018D01*
G01X4857845Y4793682D01*
G01X4858068Y4793606D01*
G01X4862249Y4792072D01*
G01X4862468Y4791986D01*
G01Y4791985D01*
G01X4866573Y4790256D01*
G01X4866784Y4790161D01*
G01X4870805Y4788243D01*
G01X4871016Y4788136D01*
G01X4874941Y4786031D01*
G01X4875145Y4785915D01*
G01X4878968Y4783626D01*
G01X4879165Y4783502D01*
G01X4882876Y4781038D01*
G01X4883067Y4780904D01*
G01X4886659Y4778270D01*
G01X4886846Y4778126D01*
G01X4890308Y4775327D01*
G01X4890487Y4775175D01*
G01X4893817Y4772214D01*
G01X4893988Y4772054D01*
G01X4897173Y4768943D01*
G01X4897337Y4768775D01*
G01X4900374Y4765517D01*
G01X4900530Y4765341D01*
G01X4903411Y4761945D01*
G01X4903558Y4761762D01*
G01X4906276Y4758234D01*
G01X4906415Y4758045D01*
G01X4908965Y4754393D01*
G01X4909095Y4754197D01*
G01X4911470Y4750430D01*
G01X4911590Y4750229D01*
G01X4913787Y4746353D01*
G01X4913897Y4746149D01*
G01X4915911Y4742176D01*
G01X4916014Y4741962D01*
G01X4917837Y4737898D01*
G01X4917927Y4737685D01*
G01X4919560Y4733542D01*
G01X4919642Y4733319D01*
G01X4921077Y4729103D01*
G01X4921147Y4728880D01*
G01X4922384Y4724600D01*
G01X4922444Y4724372D01*
G01X4923478Y4720039D01*
G01X4923527Y4719811D01*
G01X4924358Y4715437D01*
G01X4924396Y4715205D01*
G01X4925021Y4710793D01*
G01X4925048Y4710560D01*
G01X4925465Y4706125D01*
G01X4925481Y4705891D01*
G01X4925690Y4701444D01*
G01X4925695Y4701210D01*
G01Y4696755D01*
G01X4925690Y4696521D01*
G01X4925481Y4692073D01*
G01X4925465Y4691839D01*
G01X4925048Y4687405D01*
G01X4925021Y4687171D01*
G01X4924396Y4682759D01*
G01X4924358Y4682527D01*
G01X4923527Y4678153D01*
G01X4923478Y4677926D01*
G01X4922444Y4673593D01*
G01X4922384Y4673365D01*
G01X4921147Y4669085D01*
G01X4921077Y4668862D01*
G01X4919642Y4664645D01*
G01X4919560Y4664423D01*
G01Y4664422D01*
G01X4917927Y4660280D01*
G01X4917837Y4660067D01*
G01X4916014Y4656003D01*
G01X4915911Y4655788D01*
G01X4913897Y4651816D01*
G01X4913787Y4651611D01*
G01X4911590Y4647735D01*
G01X4911470Y4647534D01*
G01X4909095Y4643767D01*
G01X4908965Y4643572D01*
G01X4906415Y4639919D01*
G01X4906276Y4639730D01*
G01X4903558Y4636202D01*
G01X4903411Y4636019D01*
G01X4900530Y4632623D01*
G01X4900374Y4632448D01*
G01X4897337Y4629189D01*
G01X4897173Y4629022D01*
G01X4893988Y4625910D01*
G01X4893817Y4625751D01*
G01X4890487Y4622789D01*
G01X4890308Y4622637D01*
G01X4886846Y4619838D01*
G01X4886659Y4619694D01*
G01X4883067Y4617060D01*
G01X4882876Y4616927D01*
G01X4879165Y4614463D01*
G01X4878968Y4614338D01*
G01X4875145Y4612050D01*
G01X4874941Y4611934D01*
G01X4871016Y4609828D01*
G01X4870805Y4609721D01*
G01X4866784Y4607803D01*
G01X4866573Y4607709D01*
G01X4862468Y4605979D01*
G01X4862249Y4605893D01*
G01X4858068Y4604358D01*
G01X4857845Y4604283D01*
G01Y4604282D01*
G01X4853596Y4602947D01*
G01Y4602946D01*
G01X4853371Y4602882D01*
G01X4849066Y4601746D01*
G01X4848840Y4601692D01*
G01X4844484Y4600757D01*
G01X4844250Y4600713D01*
G01X4839856Y4599987D01*
G01X4839625Y4599954D01*
G01X4835200Y4599433D01*
G01X4834967Y4599411D01*
G01X4830524Y4599099D01*
G01X4830293Y4599088D01*
G01X4825840Y4598981D01*
G01X4825721Y4598980D01*
G01X4640301D01*
G01X4640181Y4598981D01*
G37*
G54D28*
G01X4085854Y4713074D03*
G01X3472597Y4713074D03*
G54D29*
G01X2374900Y4641698D03*
G01X2374900Y4781702D03*
G01X2628900Y4654398D03*
G01X2628900Y4794402D03*
G54D30*
G01X2895600Y4778908D03*
G01X2895600Y4669892D03*
G54D31*
G01X6650438Y4103185D03*
G01X6351937Y4103185D03*
G54D32*
G01X4736343Y4228678D03*
G01X5214574Y4228678D03*
G54D33*
G01X6554707Y4831443D03*
G01X6554707Y4353212D03*
G54D34*
G01X2832494Y1524940D03*
G01X3086494Y1524940D03*
G01X3340494Y1524940D03*
G54D35*
G01X2705494Y1524940D03*
G54D34*
G01X2959494Y1524940D03*
G01X3213494Y1524940D03*
G54D35*
G01X2610498Y1524940D03*
G54D36*
G01X3507499Y1376858D03*
G01X3507499Y176860D03*
G01X2207501Y176860D03*
G01X2207501Y1376858D03*
G54D37*
G01X3733282Y1662905D03*
G01X3733282Y1612918D03*
G01X3733282Y1562905D03*
G01X3861298Y1562905D03*
G01X3861298Y1612918D03*
G01X3861298Y1662905D03*
G54D31*
G01X5369105Y4734244D03*
G01X5070605Y4734244D03*
G54D38*
G01X3803142Y1295400D03*
G01X4121658Y1295400D03*
G01X4511229Y212014D03*
G01X4829745Y212014D03*
G54D39*
G01X2108200Y4514342D03*
G01X2108200Y4832858D03*
G54D40*
G01X4890707Y922795D03*
G54D41*
G01X5060709Y922795D03*
G01X5060709Y702805D03*
G01X4870691Y702805D03*
G54D38*
G01X4260342Y1562100D03*
G01X4578858Y1562100D03*
G54D42*
G01X8477758Y622300D03*
G01X8159242Y622300D03*
G54D38*
G01X8146542Y228600D03*
G01X8465058Y228600D03*
G54D23*
G01X8477402Y838200D03*
G01X8337398Y838200D03*
G54D43*
G01X5118100Y336702D03*
G01X5118100Y196698D03*
G54D44*
G01X3652266Y4053840D03*
G01X3542284Y4053840D03*
G01X3432302Y4053840D03*
G01X3322320Y4053840D03*
G01X3212338Y4053840D03*
G01X3102356Y4053840D03*
G01X2992374Y4053840D03*
G01X2882392Y4053840D03*
G01X2772410Y4053840D03*
G54D45*
G01X2414270Y3767836D03*
G01X2414270Y3657854D03*
G01X2414270Y3547872D03*
G01X2414270Y3437890D03*
G01X2414270Y3327908D03*
G01X2414270Y3217926D03*
G01X2414270Y3107944D03*
G01X2414270Y2997708D03*
G01X2414270Y2887726D03*
G01X2414270Y2777744D03*
G01X2414270Y2667762D03*
G01X2414270Y2557780D03*
G54D46*
G01X2771394Y2270760D03*
G01X2881376Y2270760D03*
G01X2991358Y2270760D03*
G01X3101340Y2270760D03*
G01X3211322Y2270760D03*
G01X3321304Y2270760D03*
G01X3431286Y2270760D03*
G01X3541268Y2270760D03*
G01X3651250Y2270760D03*
G54D45*
G01X4011930Y2556764D03*
G01X4011930Y2666746D03*
G01X4011930Y2776728D03*
G01X4011930Y2886710D03*
G01X4011930Y2996946D03*
G01X4011930Y3106928D03*
G01X4011930Y3216910D03*
G01X4011930Y3326892D03*
G01X4011930Y3436874D03*
G01X4011930Y3546856D03*
G01X4011930Y3656838D03*
G01X4011930Y3766820D03*
G04 Pad End*

M02*
