G04 Layer: BottomLayer*
G04 EasyEDA Pro v2.1.49.573a4102.674264, 2024-03-06 21:11:32*
G04 Gerber Generator version 0.3*
G04 Scale: 100 percent, Rotated: No, Reflected: No*
G04 Dimensions in millimeters*
G04 Leading zeros omitted, absolute positions, 3 integers and 5 decimals*
G04 Panelize: V-CUT, Column: 2, Row: 2, Board Size: 105.286mm x 50.038mm, Panelized Board Size: 174.323mm x 101.42mm, Panelized Method: Only Board Outline*
%FSLAX35Y35*%
%MOMM*%
%ADD10C,1.0*%
%ADD8191C,0.2032*%
%ADD11C,0.254*%
%ADD12O,1.3X1.8*%
%ADD13C,1.3*%
%ADD14C,1.6*%
%ADD15R,2.3451X0.98001*%
%ADD16R,2.34X0.98001*%
%ADD17R,2.34X3.59999*%
%ADD18R,0.80648X0.86401*%
%ADD19R,0.86401X0.80648*%
%ADD20R,1.7X2.69999*%
%ADD21R,0.28001X0.85001*%
%ADD22R,0.85001X0.28001*%
%ADD23R,0.8X0.9*%
%ADD24R,0.8X0.9*%
%ADD25R,0.56566X0.54*%
%ADD26R,0.56566X0.54*%
%ADD27R,0.54X0.56566*%
%ADD28R,1.575X0.67201*%
%ADD29R,1.28252X3.456*%
%ADD30R,0.9X0.8*%
%ADD31R,0.54X0.79009*%
%ADD32R,1.48501X1.62001*%
%ADD33R,1.28252X2.69999*%
%ADD34R,2.69999X1.28252*%
%ADD35R,0.8X1.138*%
%ADD36R,0.7X1.138*%
%ADD37R,0.7X2.4*%
%ADD38R,0.68001X0.28001*%
%ADD39R,1.48501X1.72799*%
%ADD40R,1.72799X1.48501*%
%ADD41R,1.1X0.7*%
%ADD42R,0.6X0.7*%
%ADD43R,1.48501X1.72799*%
%ADD44R,0.9X0.8*%
%ADD45R,0.63X2.159*%
%ADD46R,2.2X0.63*%
%ADD47R,0.63X2.2*%
%ADD48C,0.61*%
%ADD49C,0.71*%
%ADD50C,0.8*%
%ADD51C,0.75*%
%ADD52C,0.6*%
%ADD53C,0.7*%
%ADD54C,0.62*%
%ADD55C,0.27*%
%ADD56C,0.5*%
%ADD57C,1.2*%
%ADD58C,0.3*%
%ADD59C,0.4*%
%ADD60C,0.25*%
%ADD61C,0.2*%
%ADD62C,0.45*%
%ADD63C,0.15*%
%ADD64C,0.35*%
G75*


G04 Panelize Start*
G54D10*
G01X1692427Y1012827D03*
G01X15739827Y1512827D03*
G01X1692427Y9129119D03*
G01X15739827Y8629119D03*
G04 Panelize End*

G04 Copper Start*
G36*
G01X2278315Y73660D02*
G01X2278315Y296860D01*
G03X2242501Y332674I-35814J0D01*
G01X2172501D01*
G03X2136687Y296860I0J-35814D01*
G01Y73660D01*
G01X1940560D01*
G01Y4917440D01*
G01X1987509D01*
G03X1985987Y4907109I34291J-10331D01*
G01Y4758607D01*
G03X2021801Y4722793I35814J0D01*
G01X2194599D01*
G03X2230413Y4758607I0J35814D01*
G01Y4907109D01*
G03X2228891Y4917440I-35814J0D01*
G01X3391552D01*
G03X3372656Y4885874I16919J-31566D01*
G01Y4784973D01*
G01X3225722D01*
G03X3213920Y4786973I-11801J-33814D01*
G01X3157355D01*
G03X3142356Y4783681I0J-35814D01*
G03X3127357Y4786973I-14999J-32522D01*
G01X3070791D01*
G03X3034977Y4751159I0J-35814D01*
G01Y4697159D01*
G03X3070791Y4661345I35814J0D01*
G01X3127357D01*
G03X3142356Y4664636I0J35814D01*
G03X3157355Y4661345I14999J32522D01*
G01X3213920D01*
G03X3225722Y4663345I0J35814D01*
G01X3372656D01*
G01Y4540274D01*
G03X3408470Y4504460I35814J0D01*
G01X3536723D01*
G03X3572537Y4540274I0J35814D01*
G01Y4652260D01*
G01X3577076D01*
G01X3591452Y4637884D01*
G01Y4192942D01*
G03X3573784Y4197604I-17668J-31152D01*
G01X3510784D01*
G03X3487293Y4188823I0J-35814D01*
G03X3463802Y4197604I-23491J-27033D01*
G01X3400802D01*
G03X3377311Y4188823I0J-35814D01*
G03X3353820Y4197604I-23491J-27033D01*
G01X3290820D01*
G03X3267329Y4188823I0J-35814D01*
G03X3243838Y4197604I-23491J-27033D01*
G01X3180838D01*
G03X3157347Y4188823I0J-35814D01*
G03X3133856Y4197604I-23491J-27033D01*
G01X3070856D01*
G03X3047365Y4188823I0J-35814D01*
G03X3032883Y4196452I-23491J-27033D01*
G01X3044127Y4207697D01*
G03X3073400Y4200886I29273J59503D01*
G03X3139714Y4267200I0J66314D01*
G03X3089402Y4331554I-66314J0D01*
G01Y4389412D01*
G03X3074958Y4424282I-49314J0D01*
G01X3019370Y4479870D01*
G03X2984500Y4494314I-34870J-34870D01*
G01X2954127D01*
G01X2944914Y4503527D01*
G01Y4602374D01*
G03X2958414Y4630387I-22314J28013D01*
G01Y4709396D01*
G03X2955120Y4724400I-35814J0D01*
G03X2958414Y4739404I-32520J15004D01*
G01Y4818413D01*
G03X2922600Y4854227I-35814J0D01*
G01X2868600D01*
G03X2832786Y4818413I0J-35814D01*
G01Y4739404D01*
G03X2836080Y4724400I35814J0D01*
G03X2832786Y4709396I32520J-15004D01*
G01Y4703712D01*
G01X2708482D01*
G03X2693457Y4724400I-34582J-9314D01*
G03X2709714Y4754402I-19557J30002D01*
G01Y4834402D01*
G03X2673900Y4870216I-35814J0D01*
G01X2583900D01*
G03X2548086Y4834402I0J-35814D01*
G01Y4754402D01*
G03X2564343Y4724400I35814J0D01*
G03X2548086Y4694398I19557J-30002D01*
G01Y4691012D01*
G01X2454482D01*
G03X2439457Y4711700I-34582J-9314D01*
G03X2455714Y4741702I-19557J30002D01*
G01Y4821702D01*
G03X2419900Y4857516I-35814J0D01*
G01X2329900D01*
G03X2294086Y4821702I0J-35814D01*
G01Y4741702D01*
G03X2310343Y4711700I35814J0D01*
G03X2294086Y4681698I19557J-30002D01*
G01Y4630624D01*
G01X2230413Y4566951D01*
G01Y4588593D01*
G03X2194599Y4624407I-35814J0D01*
G01X2021801D01*
G03X1985987Y4588593I0J-35814D01*
G01Y4440091D01*
G03X2021801Y4404277I35814J0D01*
G01X2194599D01*
G03X2230413Y4440091I0J35814D01*
G01Y4465028D01*
G01X2247544D01*
G03X2282415Y4479472I0J49314D01*
G01X2368827Y4565884D01*
G01X2419900D01*
G03X2454482Y4592384I0J35814D01*
G01X2555651D01*
G03X2583900Y4578584I28249J22014D01*
G01X2673900D01*
G03X2708482Y4605084I0J35814D01*
G01X2843255D01*
G03X2846286Y4602374I25345J25303D01*
G01Y4483100D01*
G03X2860730Y4448230I49314J0D01*
G01X2898830Y4410130D01*
G03X2933700Y4395686I34870J34870D01*
G01X2964073D01*
G01X2990774Y4368986D01*
G01Y4293824D01*
G01X2962664Y4265714D01*
G01X2895600D01*
G03X2860730Y4251270I0J-49314D01*
G01X2835330Y4225870D01*
G03X2820940Y4193296I34870J-34870D01*
G03X2803910Y4197604I-17030J-31506D01*
G01X2740910D01*
G03X2705096Y4161790I0J-35814D01*
G01Y3945890D01*
G03X2740910Y3910076I35814J0D01*
G01X2803910D01*
G03X2827401Y3918857I0J35814D01*
G03X2850892Y3910076I23491J27033D01*
G01X2913892D01*
G03X2937383Y3918857I0J35814D01*
G03X2960874Y3910076I23491J27033D01*
G01X3023874D01*
G03X3047365Y3918857I0J35814D01*
G03X3070856Y3910076I23491J27033D01*
G01X3133856D01*
G03X3157347Y3918857I0J35814D01*
G03X3180838Y3910076I23491J27033D01*
G01X3243838D01*
G03X3267329Y3918857I0J35814D01*
G03X3290820Y3910076I23491J27033D01*
G01X3309587D01*
G03X3298686Y3873500I55913J-36576D01*
G03X3322085Y3822714I66814J0D01*
G01X2776948D01*
G01X2590903Y4008759D01*
G01Y4273398D01*
G03X2578114Y4307104I-50814J0D01*
G01Y4439536D01*
G03X2603114Y4495800I-50814J56264D01*
G03X2527300Y4571614I-75814J0D01*
G03X2451486Y4495800I0J-75814D01*
G03X2476486Y4439536I75814J0D01*
G01Y4286187D01*
G03X2489275Y4252480I50814J0D01*
G01Y3987711D01*
G03X2504158Y3951780I50814J0D01*
G01X2719969Y3735969D01*
G03X2755900Y3721086I35931J35931D01*
G01X3416300D01*
G03X3452231Y3735969I0J50814D01*
G01X3579231Y3862969D01*
G03X3594114Y3898900I-35931J35931D01*
G01Y3916406D01*
G03X3597275Y3918857I-20330J29484D01*
G03X3620766Y3910076I23491J27033D01*
G01X3667485D01*
G01X3637905Y3880495D01*
G03X3624486Y3848100I32395J-32395D01*
G01Y3518831D01*
G03X3612874Y3520937I-17686J-64431D01*
G03X3622814Y3556000I-56874J35063D01*
G03X3556000Y3622814I-66814J0D01*
G03X3489186Y3556000I0J-66814D01*
G01X3489216Y3554007D01*
G01X3472805Y3537595D01*
G03X3459386Y3505200I32395J-32395D01*
G01Y3162300D01*
G03X3472805Y3129905I45814J0D01*
G01X3726086Y2876623D01*
G01Y2501900D01*
G03X3739505Y2469505I45814J0D01*
G01X3815705Y2393305D01*
G03X3848100Y2379886I32395J32395D01*
G01X4330700D01*
G03X4363095Y2393305I0J45814D01*
G01X4484655Y2514865D01*
G03X4498074Y2547260I-32395J32395D01*
G01Y2928103D01*
G03X4533900Y2917686I35826J56397D01*
G03X4568858Y2927561I0J66814D01*
G01X4767896D01*
G03X4759686Y2895600I58104J-31961D01*
G03X4826000Y2829286I66314J0D01*
G03X4868609Y2844786I0J66314D01*
G01X4940180D01*
G03X4916508Y2811093I12142J-33693D01*
G01Y2776283D01*
G01X4674415Y2534190D01*
G01X4540085D01*
G03X4479271Y2473376I0J-60814D01*
G03X4540085Y2412562I60814J0D01*
G01X4621129D01*
G03X4619986Y2400300I65171J-12262D01*
G03X4686300Y2333986I66314J0D01*
G03X4736514Y2356986I0J66314D01*
G01X4743688D01*
G03X4759720Y2360063I0J43314D01*
G03X4822015Y2296006I66280J2137D01*
G01X4793605Y2267595D01*
G03X4780186Y2235200I32395J-32395D01*
G01Y1987004D01*
G03X4772386Y1955800I58514J-31204D01*
G03X4793350Y1907417I66314J0D01*
G03X4734286Y1841500I7250J-65917D01*
G03X4790239Y1776000I66314J0D01*
G01X4713869Y1699631D01*
G03X4698986Y1663700I35931J-35931D01*
G01Y1439609D01*
G03X4683486Y1397000I50814J-42609D01*
G03X4712438Y1342213I66314J0D01*
G03X4708886Y1320800I62762J-21413D01*
G03X4709094Y1315551I66314J0D01*
G03X4660900Y1336314I-48194J-45551D01*
G03X4594586Y1270000I0J-66314D01*
G03X4599637Y1244614I66314J0D01*
G01X4417709D01*
G01Y1295400D01*
G03X4366895Y1346214I-50814J0D01*
G01X4258476D01*
G01X4303344Y1391082D01*
G03X4321156Y1434084I-43002J43002D01*
G01Y1439887D01*
G01X4334593D01*
G03X4370407Y1475701I0J35814D01*
G01Y1648499D01*
G03X4334593Y1684313I-35814J0D01*
G01X4191040D01*
G01X4396961Y1890235D01*
G03X4406900Y1889486I9939J65565D01*
G03X4473214Y1955800I0J66314D01*
G03X4406900Y2022114I-66314J0D01*
G03X4342776Y1972702I0J-66314D01*
G01X4012514Y1642440D01*
G03X4016014Y1663700I-62814J21260D01*
G03X3949700Y1730014I-66314J0D01*
G03X3905364Y1713014I0J-66314D01*
G01X3862093D01*
G03X3856711Y1712719I0J-49314D01*
G01X3827297D01*
G03X3797290Y1696455I0J-35814D01*
G03X3779096Y1710715I-30008J-19550D01*
G01Y1727718D01*
G03X3765677Y1760114I-45814J0D01*
G01X3761997Y1763794D01*
G01X3762014Y1765300D01*
G03X3695700Y1831614I-66314J0D01*
G03X3629386Y1765300I0J-66314D01*
G03X3674274Y1702543I66314J0D01*
G03X3663467Y1676905I25007J-25637D01*
G01Y1652997D01*
G03X3657329Y1647788I28732J-40079D01*
G01X3633655Y1624114D01*
G01X3390354D01*
G03X3385914Y1623914I0J-49314D01*
G01Y1641156D01*
G03X3406414Y1689100I-45814J47944D01*
G03X3340100Y1755414I-66314J0D01*
G03X3297014Y1739510I0J-66314D01*
G01Y1809823D01*
G01X3463681Y1976491D01*
G03X3477100Y2008886I-32395J32395D01*
G01Y2127931D01*
G03X3486277Y2133727I-14314J32829D01*
G03X3509768Y2124946I23491J27033D01*
G01X3572768D01*
G03X3596259Y2133727I0J35814D01*
G03X3619750Y2124946I23491J27033D01*
G01X3682750D01*
G03X3718564Y2160760I0J35814D01*
G01Y2380760D01*
G03X3682750Y2416574I-35814J0D01*
G01X3619750D01*
G03X3596259Y2407793I0J-35814D01*
G03X3572768Y2416574I-23491J-27033D01*
G01X3509768D01*
G03X3486277Y2407793I0J-35814D01*
G03X3462786Y2416574I-23491J-27033D01*
G01X3399786D01*
G03X3376295Y2407793I0J-35814D01*
G03X3352804Y2416574I-23491J-27033D01*
G01X3289804D01*
G03X3266313Y2407793I0J-35814D01*
G03X3242822Y2416574I-23491J-27033D01*
G01X3179822D01*
G03X3156331Y2407793I0J-35814D01*
G03X3132840Y2416574I-23491J-27033D01*
G01X3069840D01*
G03X3046349Y2407793I0J-35814D01*
G03X3022858Y2416574I-23491J-27033D01*
G01X2959858D01*
G03X2936367Y2407793I0J-35814D01*
G03X2912876Y2416574I-23491J-27033D01*
G01X2849876D01*
G03X2826385Y2407793I0J-35814D01*
G03X2802894Y2416574I-23491J-27033D01*
G01X2739894D01*
G03X2704080Y2380760I0J-35814D01*
G01Y2160760D01*
G03X2739894Y2124946I35814J0D01*
G01X2802894D01*
G03X2826385Y2133727I0J35814D01*
G03X2849876Y2124946I23491J27033D01*
G01X2912876D01*
G03X2936367Y2133727I0J35814D01*
G03X2959858Y2124946I23491J27033D01*
G01X3022858D01*
G03X3046349Y2133727I0J35814D01*
G03X3055526Y2127931I23491J27033D01*
G01Y1841047D01*
G01X2832133Y1617654D01*
G01X2792494D01*
G03X2766494Y1606470I0J-35814D01*
G03X2740494Y1617654I-26000J-24630D01*
G01X2670494D01*
G03X2657996Y1615402I0J-35814D01*
G03X2645498Y1617654I-12498J-33562D01*
G01X2575498D01*
G03X2539684Y1581840I0J-35814D01*
G01Y1468040D01*
G03X2575498Y1432226I35814J0D01*
G01X2645498D01*
G03X2657996Y1434477I0J35814D01*
G03X2670494Y1432226I12498J33562D01*
G01X2740494D01*
G03X2766494Y1443410I0J35814D01*
G03X2776680Y1435907I26000J24630D01*
G01Y1369916D01*
G03X2765786Y1333500I55420J-36416D01*
G03X2832100Y1267186I66314J0D01*
G03X2898414Y1333500I0J66314D01*
G03X2888308Y1368689I-66314J0D01*
G01Y1435907D01*
G03X2895994Y1441014I-15814J32133D01*
G03X2919494Y1432226I23500J27026D01*
G01X2999494D01*
G03X3022994Y1441014I0J35814D01*
G03X3026336Y1438437I23500J27026D01*
G03X3019786Y1409700I59764J-28737D01*
G03X3086100Y1343386I66314J0D01*
G03X3152414Y1409700I0J66314D01*
G03X3146054Y1438039I-66314J0D01*
G03X3149994Y1441014I-19560J30001D01*
G03X3173494Y1432226I23500J27026D01*
G01X3253494D01*
G03X3276994Y1441014I0J35814D01*
G03X3300494Y1432226I23500J27026D01*
G01X3380494D01*
G03X3416308Y1468040I0J35814D01*
G01Y1525486D01*
G01X3450980D01*
G03X3436685Y1496858I21519J-28628D01*
G01Y1256858D01*
G03X3472499Y1221044I35814J0D01*
G01X3542499D01*
G03X3578313Y1256858I0J35814D01*
G01Y1496858D01*
G03X3564017Y1525486I-35814J0D01*
G01X3654081D01*
G03X3670090Y1528157I0J49314D01*
G03X3687468Y1515095I29192J20748D01*
G01Y1491659D01*
G01X3646406Y1450597D01*
G01X3644900Y1450614D01*
G03X3578586Y1384300I0J-66314D01*
G03X3644900Y1317986I66314J0D01*
G03X3693077Y1338731I0J66314D01*
G01Y1209001D01*
G03X3697749Y1191314I35814J0D01*
G01X3213100D01*
G03X3178937Y1177163I0J-48314D01*
G01X2779256Y777483D01*
G03X2714986Y711200I2044J-66283D01*
G03X2781300Y644886I66314J0D01*
G03X2847583Y709156I0J66314D01*
G01X3233112Y1094686D01*
G01X3792862D01*
G03X3789291Y1079097I32243J-15589D01*
G01Y1011014D01*
G01X3730944D01*
G03X3683000Y1031514I-47944J-45814D01*
G03X3616686Y965200I0J-66314D01*
G03X3683000Y898886I66314J0D01*
G03X3730944Y919386I0J66314D01*
G01X3787834D01*
G01X3729562Y861114D01*
G01X3649243D01*
G03X3594100Y886114I-55143J-48314D01*
G03X3520786Y812800I0J-73314D01*
G03X3594100Y739486I73314J0D01*
G03X3649243Y764486I0J73314D01*
G01X3749575D01*
G03X3783738Y778637I0J48314D01*
G01X3789291Y784190D01*
G01Y751100D01*
G03X3797342Y728476I35814J0D01*
G03X3781786Y685800I50758J-42676D01*
G03X3797932Y642433I66314J0D01*
G03X3789291Y619103I27173J-23329D01*
G01Y521103D01*
G01X3789292Y520971D01*
G01X3723894Y455573D01*
G01X3723914Y457200D01*
G03X3657600Y523514I-66314J0D01*
G03X3591317Y459244I0J-66314D01*
G01X3547237Y415163D01*
G03X3533086Y381000I34163J-34163D01*
G01Y332674D01*
G01X3472499D01*
G03X3436685Y296860I0J-35814D01*
G01Y73660D01*
G01X3041329D01*
G03X3101620Y139700I-6023J66040D01*
G03X3038363Y205944I-66314J0D01*
G03X3022606Y208214I-15757J-53544D01*
G01X2588510D01*
G03X2552700Y218714I-35810J-55814D01*
G03X2486386Y152400I0J-66314D01*
G03X2552700Y86086I66314J0D01*
G03X2588510Y96586I0J66314D01*
G01X2984920D01*
G03X3029283Y73660I50386J43114D01*
G01X2278315D01*
G37*
%LPC*%
G36*
G01X2268456Y2526280D02*
G03X2304270Y2490466I35814J0D01*
G01X2524270D01*
G03X2560084Y2526280I0J35814D01*
G01Y2589280D01*
G03X2551303Y2612771I-35814J0D01*
G03X2560084Y2636262I-27033J23491D01*
G01Y2699262D01*
G03X2551303Y2722753I-35814J0D01*
G03X2560084Y2746244I-27033J23491D01*
G01Y2809244D01*
G03X2551303Y2832735I-35814J0D01*
G03X2560084Y2856226I-27033J23491D01*
G01Y2919226D01*
G03X2551303Y2942717I-35814J0D01*
G03X2560084Y2966208I-27033J23491D01*
G01Y3029208D01*
G03X2551192Y3052826I-35814J0D01*
G03X2560084Y3076444I-26923J23618D01*
G01Y3139444D01*
G03X2551303Y3162935I-35814J0D01*
G03X2560084Y3186426I-27033J23491D01*
G01Y3249426D01*
G03X2551303Y3272917I-35814J0D01*
G03X2560084Y3296408I-27033J23491D01*
G01Y3359408D01*
G03X2551303Y3382899I-35814J0D01*
G03X2560084Y3406390I-27033J23491D01*
G01Y3469390D01*
G03X2551303Y3492881I-35814J0D01*
G03X2560084Y3516372I-27033J23491D01*
G01Y3579372D01*
G03X2551303Y3602863I-35814J0D01*
G03X2560084Y3626354I-27033J23491D01*
G01Y3689354D01*
G03X2551303Y3712845I-35814J0D01*
G03X2560084Y3736336I-27033J23491D01*
G01Y3799336D01*
G03X2524270Y3835150I-35814J0D01*
G01X2304270D01*
G03X2293714Y3833559I0J-35814D01*
G01Y3913767D01*
G03X2314714Y3962400I-45814J48633D01*
G03X2247900Y4029214I-66814J0D01*
G03X2181086Y3962400I0J-66814D01*
G03X2202086Y3913767I66814J0D01*
G01Y3683000D01*
G03X2215505Y3650605I45814J0D01*
G01X2228205Y3637905D01*
G03X2260600Y3624486I32395J32395D01*
G01X2268505D01*
G03X2277237Y3602863I35765J1868D01*
G03X2268456Y3579372I27033J-23491D01*
G01Y3516372D01*
G03X2277237Y3492881I35814J0D01*
G03X2268456Y3469390I27033J-23491D01*
G01Y3406390D01*
G03X2277237Y3382899I35814J0D01*
G03X2268456Y3359408I27033J-23491D01*
G01Y3296408D01*
G03X2277237Y3272917I35814J0D01*
G03X2268456Y3249426I27033J-23491D01*
G01Y3186426D01*
G03X2277237Y3162935I35814J0D01*
G03X2268456Y3139444I27033J-23491D01*
G01Y3076444D01*
G03X2277348Y3052826I35814J0D01*
G03X2268456Y3029208I26923J-23618D01*
G01Y2966208D01*
G03X2277237Y2942717I35814J0D01*
G03X2268456Y2919226I27033J-23491D01*
G01Y2856226D01*
G03X2277237Y2832735I35814J0D01*
G03X2268456Y2809244I27033J-23491D01*
G01Y2746244D01*
G03X2277237Y2722753I35814J0D01*
G03X2268456Y2699262I27033J-23491D01*
G01Y2636262D01*
G03X2277237Y2612771I35814J0D01*
G03X2268456Y2589280I27033J-23491D01*
G01Y2526280D01*
G37*
G36*
G01X4653109Y1439887D02*
G03X4688923Y1475701I0J35814D01*
G01Y1648499D01*
G03X4653109Y1684313I-35814J0D01*
G01X4504607D01*
G03X4468793Y1648499I0J-35814D01*
G01Y1475701D01*
G03X4504607Y1439887I35814J0D01*
G01X4653109D01*
G37*
G36*
G01X2136687Y1256858D02*
G03X2172501Y1221044I35814J0D01*
G01X2242501D01*
G03X2278315Y1256858I0J35814D01*
G01Y1496858D01*
G03X2242501Y1532672I-35814J0D01*
G01X2172501D01*
G03X2136687Y1496858I0J-35814D01*
G01Y1256858D01*
G37*
G36*
G01X3281672Y301854D02*
G03X3357486Y226040I75814J0D01*
G03X3433300Y301854I0J75814D01*
G03X3357486Y377668I-75814J0D01*
G03X3281672Y301854I0J-75814D01*
G37*
G36*
G01X2431687Y301854D02*
G03X2507501Y226040I75814J0D01*
G03X2583315Y301854I0J75814D01*
G03X2507501Y377668I-75814J0D01*
G03X2431687Y301854I0J-75814D01*
G37*
%LPD*%
G36*
G01X3684951Y127593D02*
G03X3685083Y124514I35814J0D01*
G01X3629714D01*
G01Y360988D01*
G01X3659644Y390917D01*
G03X3691089Y399963I-2044J66283D01*
G03X3690651Y391963I72876J-8001D01*
G01Y378299D01*
G03X3684951Y358913I30114J-19386D01*
G01Y278266D01*
G03X3713231Y243253I35814J0D01*
G03X3684951Y208241I7534J-35013D01*
G01Y127593D01*
G37*
G36*
G01X3863286Y1473200D02*
G01X3863286Y1417613D01*
G01X3743004D01*
G01X3765677Y1440286D01*
G03X3779096Y1472682I-32395J32395D01*
G01Y1515095D01*
G03X3797290Y1529355I-11814J33810D01*
G03X3827297Y1513091I30008J19550D01*
G01X3883164D01*
G01X3877437Y1507363D01*
G03X3863286Y1473200I34163J-34163D01*
G37*
G36*
G01X3866116Y3028446D02*
G01X3866116Y2980475D01*
G01X3755505Y3091086D01*
G01X3866116D01*
G01Y3075428D01*
G03X3874897Y3051937I35814J0D01*
G03X3866116Y3028446I27033J-23491D01*
G37*
G36*
G01X3962236Y73660D02*
G03X3978281Y116910I-50269J43250D01*
G03X3911967Y183224I-66314J0D01*
G03X3846090Y124514I0J-66314D01*
G01X3842847D01*
G03X3842979Y127593I-35681J3079D01*
G01Y208241D01*
G03X3814699Y243253I-35814J0D01*
G03X3821104Y245276I-7534J35013D01*
G01X3906406D01*
G01X3963326Y188356D01*
G01Y172700D01*
G03X3999140Y136886I35814J0D01*
G01X4079787D01*
G03X4114800Y165166I0J35814D01*
G03X4141822Y137788I35013J7534D01*
G01Y102879D01*
G03X4151659Y73660I48314J0D01*
G01X3962236D01*
G37*
G36*
G01X4719681Y127107D02*
G01X4703150Y110577D01*
G01X4617984D01*
G03X4621294Y125614I-32504J15038D01*
G01Y298413D01*
G03X4585480Y334227I-35814J0D01*
G01X4436979D01*
G03X4401165Y298413I0J-35814D01*
G01Y125614D01*
G03X4404475Y110577I35814J0D01*
G01X4250765D01*
G01X4238450Y122891D01*
G01Y137788D01*
G03X4266274Y172700I-7990J34911D01*
G01Y259100D01*
G03X4230460Y294914I-35814J0D01*
G01X4149813D01*
G03X4114800Y266634I0J-35814D01*
G03X4079787Y294914I-35013J-7534D01*
G01X4064131D01*
G01X3988615Y370431D01*
G03X3936774Y391904I-51841J-51841D01*
G01X3867588D01*
G01X3960973Y485289D01*
G01X4059105D01*
G03X4094919Y521103I0J35814D01*
G01Y619103D01*
G03X4088857Y639041I-35814J0D01*
G03X4110863Y651637I-12157J46760D01*
G01X4114060Y654834D01*
G03X4178300Y614486I64240J30966D01*
G03X4249155Y677722I0J71314D01*
G01X4357466Y786034D01*
G03X4363281Y792868I-39466J39466D01*
G01Y620100D01*
G03X4399095Y584286I35814J0D01*
G01X4430281D01*
G01Y554861D01*
G03X4455415Y494182I85814J0D01*
G01X4719681Y229916D01*
G01Y127107D01*
G37*
G36*
G01X6262152Y3172514D02*
G03X6263914Y3187700I-64552J15186D01*
G03X6243414Y3235644I-66314J0D01*
G01Y3596956D01*
G03X6263914Y3644900I-45814J47944D01*
G03X6197600Y3711214I-66314J0D01*
G03X6131286Y3644900I0J-66314D01*
G03X6151786Y3596956I66314J0D01*
G01Y3530210D01*
G03X6146062Y3534587I-43086J-50410D01*
G03X6149614Y3556000I-62762J21413D01*
G03X6083300Y3622314I-66314J0D01*
G03X6016986Y3556000I0J-66314D01*
G01X6017003Y3554494D01*
G01X6013523Y3551014D01*
G01X5648644D01*
G03X5600700Y3571514I-47944J-45814D01*
G03X5534386Y3505200I0J-66314D01*
G01X5534404Y3503658D01*
G01X5466779Y3571283D01*
G01Y3583000D01*
G03X5430965Y3618814I-35814J0D01*
G01X5430964D01*
G01X5374399D01*
G03X5359400Y3615522I0J-35814D01*
G03X5344401Y3618814I-14999J-32522D01*
G01X5287836D01*
G03X5252022Y3583000I0J-35814D01*
G01Y3529000D01*
G03X5287836Y3493186I35814J0D01*
G01X5344401D01*
G03X5359400Y3496478I0J35814D01*
G03X5374399Y3493186I14999J32522D01*
G01X5401152D01*
G01X5416630Y3477708D01*
G03X5410103Y3478308I-6527J-35214D01*
G01X5382103D01*
G03X5346289Y3442494I0J-35814D01*
G01Y3357493D01*
G03X5348246Y3345814I35814J0D01*
G01X5293947D01*
G03X5295905Y3357493I-33856J11679D01*
G01Y3389964D01*
G03X5296905Y3399993I-49814J10029D01*
G01Y3428009D01*
G03X5295905Y3438038I-50814J0D01*
G01Y3442494D01*
G03X5268706Y3477256I-35814J0D01*
G01X5255631Y3490331D01*
G03X5219700Y3505214I-35931J-35931D01*
G01X5203739D01*
G03X5212779Y3529000I-26775J23786D01*
G01Y3583000D01*
G03X5176965Y3618814I-35814J0D01*
G01X5176964D01*
G01X5120399D01*
G03X5105400Y3615522I0J-35814D01*
G03X5090401Y3618814I-14999J-32522D01*
G01X5057822D01*
G03X5049418Y3619514I-8404J-50114D01*
G01X4851400D01*
G03X4815469Y3604631I0J-50814D01*
G01X4764669Y3553831D01*
G03X4749802Y3519188I35931J-35931D01*
G01X4744095Y3524895D01*
G03X4711700Y3538314I-32395J-32395D01*
G01X4709708D01*
G01X4585899Y3662123D01*
G01Y3778415D01*
G03X4572480Y3810810I-45814J0D01*
G01X4312295Y4070995D01*
G03X4279900Y4084414I-32395J-32395D01*
G01X4126170D01*
G03X4132783Y4089386I-36770J55786D01*
G01X4474752D01*
G01X4561469Y4002669D01*
G03X4597400Y3987786I35931J35931D01*
G01X4935205D01*
G01X5121895Y3801095D01*
G03X5156200Y3786886I34305J34305D01*
G01X6492240D01*
G01Y3213804D01*
G03X6486886Y3187700I60960J-26104D01*
G03X6488648Y3172514I66314J0D01*
G01X6262152D01*
G37*
G36*
G01X4157744Y2527714D02*
G01X4157744Y2588264D01*
G03X4148963Y2611755I-35814J0D01*
G03X4157744Y2635246I-27033J23491D01*
G01Y2698246D01*
G03X4148963Y2721737I-35814J0D01*
G03X4157744Y2745228I-27033J23491D01*
G01Y2808228D01*
G03X4148963Y2831719I-35814J0D01*
G03X4157744Y2855210I-27033J23491D01*
G01Y2918210D01*
G03X4148852Y2941828I-35814J0D01*
G03X4157744Y2965446I-26923J23618D01*
G01Y3028446D01*
G03X4148963Y3051937I-35814J0D01*
G03X4157744Y3075428I-27033J23491D01*
G01Y3138428D01*
G03X4148963Y3161919I-35814J0D01*
G03X4157744Y3185410I-27033J23491D01*
G01Y3194265D01*
G01X4263916Y3088093D01*
G01X4263886Y3086100D01*
G03X4330700Y3019286I66814J0D01*
G03X4373786Y3035034I0J66814D01*
G01Y2622477D01*
G01X4279023Y2527714D01*
G01X4157744D01*
G37*
G36*
G01X4383027Y4618415D02*
G03X4359744Y4609814I0J-35814D01*
G01X4275118D01*
G01X4185794Y4699138D01*
G01Y4885874D01*
G03X4166899Y4917440I-35814J0D01*
G01X4374731D01*
G03X4347213Y4882600I8296J-34840D01*
G01Y4815399D01*
G03X4383027Y4779585I35814J0D01*
G01X4537297D01*
G01X4535335Y4777038D01*
G01X4534342Y4775685D01*
G01X4531792Y4772032D01*
G01X4530861Y4770630D01*
G01X4529076Y4767798D01*
G01X4383014D01*
G03X4347200Y4731984I0J-35814D01*
G01Y4665985D01*
G03X4383014Y4630171I35814J0D01*
G01X4529073D01*
G01X4530861Y4627334D01*
G01X4531792Y4625932D01*
G01X4534342Y4622280D01*
G01X4535335Y4620926D01*
G01X4537270Y4618415D01*
G01X4383027D01*
G37*
G36*
G01X4733452Y3268886D02*
G01X4806365Y3195973D01*
G01X4744776D01*
G01X4634980Y3305770D01*
G03X4602584Y3319188I-32395J-32395D01*
G01X4492574D01*
G03X4460179Y3305770I0J-45814D01*
G01X4397365Y3242956D01*
G03X4373427Y3289866I-66665J-4456D01*
G03X4361328Y3313387I-42727J-7107D01*
G01X4259714Y3415001D01*
G01Y3555124D01*
G01X4292586Y3522252D01*
G01Y3497783D01*
G03X4276586Y3454400I50814J-43383D01*
G03X4343400Y3387586I66814J0D01*
G03X4410214Y3454400I0J66814D01*
G03X4394214Y3497783I-66814J0D01*
G01Y3529295D01*
G01X4482531Y3440978D01*
G03X4514926Y3427560I32395J32395D01*
G01X4648349D01*
G01X4661192Y3414717D01*
G03X4619486Y3352800I25108J-61917D01*
G03X4686300Y3285986I66814J0D01*
G01X4688293Y3286016D01*
G01X4692005Y3282305D01*
G03X4724400Y3268886I32395J32395D01*
G01X4733452D01*
G37*
G36*
G01X6492240Y4253272D02*
G01X6492240Y3883914D01*
G01X5176295D01*
G01X4992780Y4067429D01*
G03X4947788Y4094626I-44992J-23617D01*
G03X4925370Y4089414I0J-50814D01*
G01X4836028D01*
G03X4836283Y4093679I-35559J4265D01*
G01Y4363678D01*
G03X4828837Y4385539I-35814J0D01*
G01Y4568232D01*
G01X4831031Y4568284D01*
G01X4832686Y4568362D01*
G01X4837128Y4568674D01*
G01X4838801Y4568832D01*
G01X4843226Y4569352D01*
G01X4844882Y4569587D01*
G01X4849276Y4570313D01*
G01X4850948Y4570630D01*
G01X4850949D01*
G01X4855304Y4571565D01*
G01X4856923Y4571952D01*
G01X4861228Y4573087D01*
G01X4862838Y4573552D01*
G01X4867087Y4574888D01*
G01X4868683Y4575432D01*
G01X4872864Y4576966D01*
G01X4874434Y4577584D01*
G01X4878539Y4579314D01*
G01X4880048Y4579992D01*
G01X4884069Y4581910D01*
G01X4885585Y4582677D01*
G01X4889509Y4584783D01*
G01X4890972Y4585613D01*
G01X4894795Y4587901D01*
G01X4896208Y4588793D01*
G01X4899919Y4591256D01*
G01X4901290Y4592213D01*
G01X4904881Y4594847D01*
G01X4906218Y4595877D01*
G01X4909680Y4598676D01*
G01X4910964Y4599765D01*
G01X4914294Y4602727D01*
G01X4915519Y4603869D01*
G01X4915520D01*
G01X4918705Y4606980D01*
G01X4919875Y4608179D01*
G01X4922913Y4611438D01*
G01X4924029Y4612692D01*
G01X4926909Y4616088D01*
G01X4927968Y4617398D01*
G01X4930686Y4620926D01*
G01X4931679Y4622280D01*
G01X4934229Y4625932D01*
G01X4935160Y4627334D01*
G01X4937535Y4631101D01*
G01X4938396Y4632541D01*
G01X4940593Y4636417D01*
G01X4941379Y4637882D01*
G01X4943393Y4641854D01*
G01X4944126Y4643387D01*
G01X4945949Y4647451D01*
G01X4946593Y4648979D01*
G01X4948226Y4653121D01*
G01Y4653122D01*
G01X4948812Y4654717D01*
G01X4950247Y4658934D01*
G01X4950749Y4660529D01*
G01X4951986Y4664809D01*
G01X4952416Y4666442D01*
G01X4953450Y4670775D01*
G01X4953799Y4672405D01*
G01X4954629Y4676779D01*
G01X4954904Y4678438D01*
G01X4955529Y4682850D01*
G01X4955726Y4684523D01*
G01X4956143Y4688958D01*
G01X4956260Y4690632D01*
G01X4956469Y4695079D01*
G01X4956508Y4696755D01*
G01Y4701210D01*
G01X4956469Y4702885D01*
G01X4956260Y4707333D01*
G01X4956143Y4709007D01*
G01X4955726Y4713441D01*
G01X4955529Y4715114D01*
G01X4954904Y4719526D01*
G01X4954629Y4721186D01*
G01X4953799Y4725559D01*
G01Y4725560D01*
G01X4953450Y4727189D01*
G01X4952416Y4731522D01*
G01X4951986Y4733155D01*
G01X4950749Y4737435D01*
G01X4950247Y4739031D01*
G01X4948812Y4743247D01*
G01X4948226Y4744843D01*
G01X4946593Y4748986D01*
G01X4945949Y4750513D01*
G01X4944126Y4754577D01*
G01X4943393Y4756110D01*
G01X4941379Y4760083D01*
G01X4940593Y4761548D01*
G01X4938396Y4765424D01*
G01X4937535Y4766864D01*
G01X4935160Y4770630D01*
G01X4934229Y4772032D01*
G01X4931679Y4775685D01*
G01X4930686Y4777038D01*
G01X4927968Y4780566D01*
G01X4926909Y4781876D01*
G01X4924029Y4785272D01*
G01X4922913Y4786527D01*
G01X4919875Y4789786D01*
G01X4918705Y4790984D01*
G01X4915520Y4794095D01*
G01X4915519D01*
G01X4914294Y4795238D01*
G01X4910964Y4798199D01*
G01X4909680Y4799288D01*
G01X4906218Y4802087D01*
G01X4904881Y4803117D01*
G01X4901290Y4805751D01*
G01X4899919Y4806708D01*
G01X4896208Y4809172D01*
G01X4894795Y4810063D01*
G01X4890972Y4812352D01*
G01X4889509Y4813182D01*
G01X4885585Y4815287D01*
G01X4884069Y4816055D01*
G01X4880048Y4817973D01*
G01X4878539Y4818650D01*
G01X4874434Y4820380D01*
G01X4872864Y4820999D01*
G01X4868683Y4822533D01*
G01X4867087Y4823076D01*
G01X4862838Y4824412D01*
G01X4861228Y4824877D01*
G01X4856923Y4826012D01*
G01X4855304Y4826399D01*
G01X4850948Y4827334D01*
G01X4849276Y4827651D01*
G01X4844882Y4828378D01*
G01X4843226Y4828612D01*
G01X4838801Y4829133D01*
G01X4837128Y4829290D01*
G01X4832686Y4829602D01*
G01X4831031Y4829680D01*
G01X4826579Y4829787D01*
G01X4826578D01*
G01X4825721Y4829797D01*
G01X4640301D01*
G01X4639443Y4829787D01*
G01X4634990Y4829680D01*
G01X4633336Y4829602D01*
G01X4633335D01*
G01X4628893Y4829290D01*
G01X4627220Y4829133D01*
G01X4622795Y4828612D01*
G01X4621139Y4828378D01*
G01X4616745Y4827652D01*
G01Y4827651D01*
G01X4615073Y4827334D01*
G01X4610717Y4826399D01*
G01X4609098Y4826012D01*
G01X4604793Y4824877D01*
G01X4603184Y4824412D01*
G01X4603183D01*
G01X4598934Y4823076D01*
G01X4597338Y4822533D01*
G01X4593158Y4820999D01*
G01X4593157D01*
G01X4591587Y4820380D01*
G01X4587483Y4818650D01*
G01X4587482D01*
G01X4585973Y4817973D01*
G01X4581952Y4816055D01*
G01X4580436Y4815287D01*
G01X4576512Y4813182D01*
G01X4576264Y4813047D01*
G01X4576341Y4815399D01*
G01Y4882600D01*
G03X4548823Y4917440I-35814J0D01*
G01X5847931D01*
G03X5820413Y4882600I8296J-34840D01*
G01Y4815399D01*
G03X5856227Y4779585I35814J0D01*
G01X6010497D01*
G01X6008535Y4777038D01*
G01X6007542Y4775685D01*
G01X6004992Y4772032D01*
G01X6004061Y4770630D01*
G01X6002276Y4767798D01*
G01X5856214D01*
G03X5820400Y4731984I0J-35814D01*
G01Y4665985D01*
G03X5856214Y4630171I35814J0D01*
G01X6002273D01*
G01X6004061Y4627334D01*
G01X6004992Y4625932D01*
G01X6007542Y4622280D01*
G01X6008535Y4620926D01*
G01X6010470Y4618415D01*
G01X5856227D01*
G03X5820413Y4582601I0J-35814D01*
G01Y4515400D01*
G03X5856227Y4479586I35814J0D01*
G01X5874163D01*
G01Y4341152D01*
G03X5891975Y4298150I60814J0D01*
G01X5959789Y4230336D01*
G01Y4043600D01*
G03X5995603Y4007786I35814J0D01*
G01X6123855D01*
G03X6159669Y4043600I0J35814D01*
G01Y4389200D01*
G03X6123855Y4425014I-35814J0D01*
G01X5995791D01*
G01Y4479586D01*
G01X6013727D01*
G03X6049541Y4515400I0J35814D01*
G01Y4582601D01*
G01X6049466Y4584916D01*
G01X6049712Y4584783D01*
G01X6053636Y4582677D01*
G01X6055152Y4581910D01*
G01X6059173Y4579992D01*
G01X6060682Y4579314D01*
G01X6064787Y4577584D01*
G01X6066357Y4576966D01*
G01X6066358D01*
G01X6070538Y4575432D01*
G01X6072134Y4574888D01*
G01X6076383Y4573552D01*
G01X6076384D01*
G01X6077993Y4573087D01*
G01X6082298Y4571952D01*
G01X6083917Y4571565D01*
G01X6088273Y4570630D01*
G01X6089945Y4570313D01*
G01X6094339Y4569587D01*
G01X6095995Y4569352D01*
G01X6100420Y4568832D01*
G01X6102093Y4568674D01*
G01X6106536Y4568362D01*
G01X6108190Y4568284D01*
G01X6112643Y4568177D01*
G01X6113501Y4568167D01*
G01X6298921D01*
G01X6299778Y4568177D01*
G01X6304231Y4568284D01*
G01X6305886Y4568362D01*
G01X6310328Y4568674D01*
G01X6312001Y4568832D01*
G01X6316426Y4569352D01*
G01X6318082Y4569587D01*
G01X6322476Y4570313D01*
G01X6324148Y4570630D01*
G01X6328504Y4571565D01*
G01X6330123Y4571952D01*
G01X6334428Y4573087D01*
G01X6336038Y4573552D01*
G01X6340287Y4574888D01*
G01X6341883Y4575432D01*
G01X6346064Y4576966D01*
G01X6347634Y4577584D01*
G01X6351739Y4579314D01*
G01X6353248Y4579992D01*
G01X6357269Y4581910D01*
G01X6358785Y4582677D01*
G01X6362709Y4584783D01*
G01X6364172Y4585613D01*
G01X6367995Y4587901D01*
G01X6369408Y4588793D01*
G01X6373119Y4591256D01*
G01X6374490Y4592213D01*
G01X6378081Y4594847D01*
G01X6379418Y4595877D01*
G01X6382258Y4598173D01*
G01X6422252D01*
G03X6492240Y4626426I0J100814D01*
G01Y4453152D01*
G01X6419708D01*
G03X6383894Y4417338I0J-35814D01*
G01Y4289086D01*
G03X6419708Y4253272I35814J0D01*
G01X6492240D01*
G37*
%LPC*%
G36*
G01X5278700Y4057865D02*
G03X5314514Y4093679I0J35814D01*
G01Y4363678D01*
G03X5310388Y4380367I-35814J0D01*
G01Y4590274D01*
G03X5306460Y4617429I-95814J0D01*
G01X5443356D01*
G03X5479170Y4653243I0J35814D01*
G01Y4815244D01*
G03X5443356Y4851058I-35814J0D01*
G01X5294855D01*
G03X5259041Y4815244I0J-35814D01*
G01Y4681309D01*
G01X5180669Y4759681D01*
G01Y4815244D01*
G03X5144855Y4851058I-35814J0D01*
G01X4996354D01*
G03X4960540Y4815244I0J-35814D01*
G01Y4653243D01*
G03X4996354Y4617429I35814J0D01*
G01X5051918D01*
G01X5118760Y4550587D01*
G01Y4380367D01*
G03X5114634Y4363678I31688J-16689D01*
G01Y4093679D01*
G03X5150448Y4057865I35814J0D01*
G01X5278700D01*
G37*
G36*
G01X5346531Y4043600D02*
G03X5382345Y4007786I35814J0D01*
G01X5510597D01*
G03X5546411Y4043600I0J35814D01*
G01Y4160586D01*
G01X5552181D01*
G01X5555245Y4157522D01*
G03X5626100Y4094286I70855J8078D01*
G03X5697414Y4165600I0J71314D01*
G03X5634178Y4236455I-71314J0D01*
G01X5614766Y4255866D01*
G03X5587040Y4270965I-39466J-39466D01*
G01X5745302Y4429227D01*
G03X5763114Y4472229I-43002J43002D01*
G01Y4615634D01*
G03X5765114Y4627436I-33814J11801D01*
G01Y4684001D01*
G03X5761822Y4699000I-35814J0D01*
G03X5765114Y4713999I-32522J14999D01*
G01Y4770564D01*
G01Y4770565D01*
G03X5729300Y4806379I-35814J0D01*
G01X5675300D01*
G03X5639486Y4770565I0J-35814D01*
G01Y4770564D01*
G01Y4713999D01*
G03X5642778Y4699000I35814J0D01*
G03X5639486Y4684001I32522J-14999D01*
G01Y4627436D01*
G03X5641486Y4615634I35814J0D01*
G01Y4497419D01*
G01X5544578Y4400511D01*
G03X5510597Y4425014I-33981J-11311D01*
G01X5382345D01*
G03X5346531Y4389200I0J-35814D01*
G01Y4043600D01*
G37*
G36*
G01X6426187Y3986370D02*
G03X6462001Y4022184I0J35814D01*
G01Y4184185D01*
G03X6426187Y4219999I-35814J0D01*
G01X6277686D01*
G03X6241872Y4184185I0J-35814D01*
G01Y4022184D01*
G03X6277686Y3986370I35814J0D01*
G01X6426187D01*
G37*
%LPD*%
G36*
G01X4752086Y725542D02*
G03X4702520Y752021I-53086J-39742D01*
G01X4668909Y785632D01*
G01Y962086D01*
G01X4800151D01*
G03X4799893Y957795I35556J-4291D01*
G01Y887795D01*
G03X4834686Y851995I35814J0D01*
G01X4766295Y783605D01*
G03X4752086Y749300I34305J-34305D01*
G01Y725542D01*
G37*
G36*
G01X4802886Y73660D02*
G01X4819027Y89800D01*
G01X4903996D01*
G03X4939810Y125614I0J35814D01*
G01Y163700D01*
G01X5037286D01*
G01Y156698D01*
G03X5073100Y120884I35814J0D01*
G01X5163100D01*
G03X5198914Y156698I0J35814D01*
G01Y236698D01*
G03X5182657Y266700I-35814J0D01*
G03X5198914Y296702I-19557J30002D01*
G01Y376702D01*
G03X5163100Y412516I-35814J0D01*
G01X5073100D01*
G03X5037286Y376702I0J-35814D01*
G01Y296702D01*
G03X5053543Y266700I35814J0D01*
G03X5046188Y260328I19557J-30002D01*
G01X4939810D01*
G01Y298413D01*
G03X4903996Y334227I-35814J0D01*
G01X4858088D01*
G01X4720129Y472186D01*
G01X5054600D01*
G03X5088905Y486395I0J48514D01*
G01X5176295Y573786D01*
G01X5275805D01*
G01X5336286Y513305D01*
G01Y498037D01*
G03X5317986Y452097I48514J-45940D01*
G03X5384800Y385283I66814J0D01*
G03X5451614Y452097I0J66814D01*
G03X5433314Y498037I-66814J0D01*
G01Y533400D01*
G03X5419105Y567705I-48514J0D01*
G01X5330205Y656605D01*
G03X5295900Y670814I-34305J-34305D01*
G01X5273323D01*
G01X5298757Y696248D01*
G03X5361714Y762000I-2857J65752D01*
G03X5295900Y827814I-65814J0D01*
G03X5230148Y764857I0J-65814D01*
G01X5216610Y751319D01*
G01X5170289D01*
G01X5254396Y835426D01*
G01X5353812D01*
G01X5511786Y677452D01*
G01Y584200D01*
G03X5526669Y548269I50814J0D01*
G01X5567250Y507688D01*
G03X5498692Y412173I32256J-95514D01*
G03X5599506Y311360I100814J0D01*
G03X5700320Y412173I0J100814D01*
G03X5699307Y426431I-100814J0D01*
G01X5776494Y349245D01*
G03X5842000Y289786I65506J6355D01*
G03X5907814Y355600I0J65814D01*
G03X5848355Y421106I-65814J0D01*
G01X5712831Y556631D01*
G03X5676900Y571514I-35931J-35931D01*
G01X5647148D01*
G01X5613414Y605248D01*
G01Y677424D01*
G01X5628269Y662569D01*
G03X5664200Y647686I35931J35931D01*
G01X5738650D01*
G03X5774581Y662569I0J50814D01*
G01X5861298Y749286D01*
G01X6062252D01*
G01X6148969Y662569D01*
G03X6184900Y647686I35931J35931D01*
G01X6248400D01*
G03X6284331Y662569I0J50814D01*
G01X6292398Y670636D01*
G03X6299200Y670286I6802J65964D01*
G03X6365514Y736600I0J66314D01*
G03X6299200Y802914I-66314J0D01*
G03X6236643Y758605I0J-66314D01*
G01X6227352Y749314D01*
G01X6205948D01*
G01X6119231Y836031D01*
G03X6083300Y850914I-35931J-35931D01*
G01X5840250D01*
G03X5804319Y836031I0J-50814D01*
G01X5780245Y811957D01*
G03X5715000Y866414I-65245J-11857D01*
G03X5697598Y864090I0J-66314D01*
G03X5708590Y871286I-33398J63010D01*
G01X5727700D01*
G03X5767166Y887634I0J55814D01*
G01X5906866Y1027334D01*
G03X5923214Y1066800I-39466J39466D01*
G01Y1206500D01*
G03X5906866Y1245966I-55814J0D01*
G01X5817966Y1334866D01*
G03X5778500Y1351214I-39466J-39466D01*
G01X5731575D01*
G03X5748214Y1397000I-54675J45786D01*
G03X5747521Y1406917I-71314J0D01*
G01X6212469Y941969D01*
G03X6248400Y927086I35931J35931D01*
G01X6344653D01*
G01X6492240Y779499D01*
G01Y522533D01*
G01X6299921Y330214D01*
G01X6172200D01*
G03X6136269Y315331I0J-50814D01*
G01X6036852Y215914D01*
G01X5986209D01*
G03X5943600Y231414I-42609J-50814D01*
G03X5877286Y165100I0J-66314D01*
G03X5943600Y98786I66314J0D01*
G03X5986209Y114286I0J66314D01*
G01X6057900D01*
G03X6093831Y129169I0J50814D01*
G01X6103670Y139008D01*
G01Y120169D01*
G03X6115039Y73660I100814J0D01*
G01X5568961D01*
G03X5580330Y120169I-89445J46509D01*
G01Y170169D01*
G03X5479517Y270982I-100814J0D01*
G03X5378703Y170169I0J-100814D01*
G01Y120169D01*
G03X5390072Y73660I100814J0D01*
G01X4802886D01*
G37*
%LPC*%
G36*
G01X5981894Y269754D02*
G03X6045634Y319175I0J65814D01*
G03X6084494Y311385I38860J93023D01*
G03X6185308Y412199I0J100814D01*
G03X6084494Y513013I-100814J0D01*
G03X5983680Y412199I0J-100814D01*
G03X5984267Y401339I100814J0D01*
G01X5981894Y401381D01*
G03X5916080Y335568I0J-65814D01*
G03X5981894Y269754I65814J0D01*
G37*
%LPD*%
G36*
G01X4892030Y2356071D02*
G03X4892283Y2360156I-66030J6129D01*
G01X5100012Y2567886D01*
G01X5232400D01*
G03X5266563Y2582037I0J48314D01*
G01X5330063Y2645537D01*
G03X5344214Y2679700I-34163J34163D01*
G01Y2723176D01*
G03X5353284Y2735363I-48314J45424D01*
G01Y2672800D01*
G03X5389098Y2636986I35814J0D01*
G01X5416995D01*
G01X5225557Y2445548D01*
G03X5191486Y2387600I32243J-57948D01*
G03X5198857Y2357214I66314J0D01*
G01X4902200D01*
G03X4892030Y2356071I0J-45814D01*
G37*
G36*
G01X4981504Y886714D02*
G01X4981520Y887795D01*
G01Y957795D01*
G03X4981262Y962086I-35814J0D01*
G01X4995153D01*
G03X4994895Y957795I35556J-4291D01*
G01Y887795D01*
G01X4994911Y886714D01*
G01X4981504D01*
G37*
G36*
G01X5080000Y2664514D02*
G03X5067516Y2662873I0J-48314D01*
G01X5085689Y2681046D01*
G03X5089490Y2685392I-30628J30628D01*
G03X5092327Y2685279I2836J35702D01*
G01X5172326D01*
G03X5208140Y2721093I0J35814D01*
G01Y2790519D01*
G01X5233313D01*
G03X5229586Y2768600I62587J-21919D01*
G03X5247586Y2723176I66314J0D01*
G01Y2699712D01*
G01X5212388Y2664514D01*
G01X5080000D01*
G37*
G36*
G01X5126523Y915232D02*
G01X5126523Y957795D01*
G03X5126265Y962086I-35814J0D01*
G01X5173377D01*
G01X5126523Y915232D01*
G37*
G36*
G01X6060864Y1649327D02*
G01X6002114Y1708077D01*
G01Y1771723D01*
G01X6082934Y1852543D01*
G03X6136914Y1917700I-12334J65157D01*
G03X6070600Y1984014I-66314J0D01*
G03X6004286Y1917700I0J-66314D01*
G03X6005562Y1904753I66314J0D01*
G01X5923905Y1823095D01*
G03X5910486Y1790700I32395J-32395D01*
G01Y1752975D01*
G01X5839041Y1824420D01*
G01Y1920673D01*
G03X5824158Y1956604I-50814J0D01*
G01X5656113Y2124649D01*
G03X5620182Y2139532I-35931J-35931D01*
G01X5523929D01*
G01X5397875Y2265586D01*
G01X5590856D01*
G03X5638800Y2245086I47944J45814D01*
G03X5705114Y2311400I0J66314D01*
G03X5638800Y2377714I-66314J0D01*
G03X5590856Y2357214I0J-66314D01*
G01X5316743D01*
G03X5324114Y2387600I-58943J30386D01*
G03X5320050Y2410459I-66314J0D01*
G01X5546577Y2636986D01*
G01X5609102D01*
G03X5616044Y2637665I0J35814D01*
G01X5619105Y2634605D01*
G03X5651500Y2621186I32395J32395D01*
G01X5702300D01*
G03X5719284Y2624450I0J45814D01*
G03X5778500Y2587986I59216J29850D01*
G01X5780006Y2588003D01*
G01X5809605Y2558405D01*
G03X5842000Y2544986I32395J32395D01*
G01X6469286D01*
G01Y1790700D01*
G03X6482705Y1758305I45814J0D01*
G01X6492240Y1748769D01*
G01Y1745722D01*
G01X5730260Y2507702D01*
G03X5664200Y2568214I-66060J-5802D01*
G03X5597886Y2501900I0J-66314D01*
G03X5658398Y2435840I66314J0D01*
G01X5883576Y2210663D01*
G03X5842000Y2225314I-41576J-51663D01*
G03X5775686Y2159000I0J-66314D01*
G03X5842000Y2092686I66314J0D01*
G03X5908314Y2159000I0J66314D01*
G03X5893663Y2200576I-66314J0D01*
G01X6265424Y1828814D01*
G01X6240209D01*
G03X6197600Y1844314I-42609J-50814D01*
G03X6131286Y1778000I0J-66314D01*
G03X6144210Y1738668I66314J0D01*
G03X6121400Y1742714I-22810J-62268D01*
G03X6055086Y1676400I0J-66314D01*
G03X6060864Y1649327I66314J0D01*
G37*
G36*
G01X5445917Y3399093D02*
G01X5445917Y3442494D01*
G03X5445318Y3449020I-35814J0D01*
G01X5483744Y3410594D01*
G01Y3399973D01*
G01X5453805D01*
G03X5445917Y3399093I0J-35814D01*
G37*
G36*
G01X5683470Y858439D02*
G03X5670584Y849342I31530J-58339D01*
G01X5664140Y855786D01*
G01X5664200D01*
G03X5683470Y858439I0J71314D01*
G37*
G36*
G01X6383894Y4803202D02*
G01X6381277Y4800585D01*
G01X6379418Y4802087D01*
G01X6378081Y4803117D01*
G01X6374490Y4805751D01*
G01X6373119Y4806708D01*
G01X6369408Y4809172D01*
G01X6367995Y4810063D01*
G01X6364172Y4812352D01*
G01X6362709Y4813182D01*
G01X6358785Y4815287D01*
G01X6357269Y4816055D01*
G01X6353248Y4817973D01*
G01X6351739Y4818650D01*
G01X6347634Y4820380D01*
G01X6346064Y4820999D01*
G01X6341883Y4822533D01*
G01X6340287Y4823076D01*
G01X6336038Y4824412D01*
G01X6334428Y4824877D01*
G01X6330123Y4826012D01*
G01X6328504Y4826399D01*
G01X6324148Y4827334D01*
G01X6322476Y4827651D01*
G01X6318082Y4828378D01*
G01X6316426Y4828612D01*
G01X6312002Y4829133D01*
G01X6312001D01*
G01X6310328Y4829290D01*
G01X6305886Y4829602D01*
G01X6304231Y4829680D01*
G01X6299778Y4829787D01*
G01X6298921Y4829797D01*
G01X6113501D01*
G01X6112643Y4829787D01*
G01X6108190Y4829680D01*
G01X6106536Y4829602D01*
G01X6102093Y4829290D01*
G01X6100420Y4829133D01*
G01X6095995Y4828612D01*
G01X6094339Y4828378D01*
G01X6089945Y4827651D01*
G01X6088273Y4827334D01*
G01X6083917Y4826399D01*
G01X6082298Y4826012D01*
G01X6077993Y4824877D01*
G01X6076384Y4824412D01*
G01X6072134Y4823076D01*
G01X6070538Y4822533D01*
G01X6066357Y4820999D01*
G01X6064787Y4820380D01*
G01X6060682Y4818650D01*
G01X6059173Y4817973D01*
G01X6055152Y4816055D01*
G01X6053636Y4815287D01*
G01X6049712Y4813182D01*
G01X6049464Y4813047D01*
G01X6049541Y4815399D01*
G01Y4882600D01*
G03X6022023Y4917440I-35814J0D01*
G01X6391347D01*
G03X6383894Y4895569I28360J-21871D01*
G01Y4803202D01*
G37*
G36*
G01X6463437Y1076024D02*
G01X6449431Y1090031D01*
G03X6413500Y1104914I-35931J-35931D01*
G01X6353486D01*
G03X6365514Y1143000I-54286J38086D01*
G03X6345014Y1190944I-66314J0D01*
G01Y1346200D01*
G03X6331595Y1378595I-45814J0D01*
G01X6094327Y1615864D01*
G03X6115598Y1610340I27073J60536D01*
G01X6464286Y1261652D01*
G01Y1160209D01*
G03X6448786Y1117600I50814J-42609D01*
G03X6463437Y1076024I66314J0D01*
G37*
G36*
G01X6377569Y103769D02*
G01X6407678Y73660D01*
G01X6293928D01*
G03X6305297Y120169I-89445J46509D01*
G01Y170169D01*
G03X6286647Y228586I-100814J0D01*
G01X6320969D01*
G03X6347398Y236000I0J50814D01*
G03X6362686Y198691I66102J5300D01*
G01Y139700D01*
G03X6377569Y103769I50814J0D01*
G37*
G36*
G01X6492240Y255704D02*
G03X6479811Y240650I48260J-52504D01*
G01X6479814Y241300D01*
G03X6420658Y307227I-66314J0D01*
G01X6492240Y378809D01*
G01Y255704D01*
G37*
G36*
G01X6479986Y152400D02*
G03X6480518Y144544I58314J0D01*
G01X6464314Y160748D01*
G01Y198691D01*
G03X6469218Y205341I-50814J42609D01*
G01X6469186Y203200D01*
G03X6481099Y163738I71314J0D01*
G03X6479986Y152400I57201J-11338D01*
G37*
G36*
G01X6492240Y1055351D02*
G01X6492240Y1047222D01*
G01X6473524Y1065937D01*
G03X6492240Y1055351I41576J51663D01*
G37*
G36*
G01X6601460Y147414D02*
G01X6601460Y483851D01*
G03X6644914Y546100I-22860J62249D01*
G03X6639136Y573173I-66314J0D01*
G01X6951886Y260423D01*
G01Y215564D01*
G01Y190094D01*
G03X6909206Y147414I20414J-63094D01*
G01X6601460D01*
G37*
G36*
G01X8600440Y4955286D02*
G01X8600440Y48514D01*
G01X7638776D01*
G01X7655931Y65669D01*
G03X7670814Y101600I-35931J35931D01*
G01Y423452D01*
G01X7702002Y454640D01*
G03X7762514Y520700I-5802J66060D01*
G03X7696200Y587014I-66314J0D01*
G03X7630140Y526502I0J-66314D01*
G01X7584069Y480431D01*
G03X7569186Y444500I35931J-35931D01*
G01Y122648D01*
G01X7555024Y108486D01*
G01X7035977D01*
G03X7038614Y127000I-63677J18514D01*
G03X7036998Y141550I-66314J0D01*
G03X7043514Y165100I-39298J23550D01*
G01Y169750D01*
G01X7416800D01*
G03X7419879Y169853I0J45814D01*
G03X7467600Y149586I47721J46047D01*
G03X7533914Y215900I0J66314D01*
G03X7467600Y282214I-66314J0D01*
G03X7419656Y261714I0J-66314D01*
G01X7417136D01*
G03X7411595Y261378I0J-45814D01*
G01X7043514D01*
G01Y279400D01*
G03X7030095Y311795I-45814J0D01*
G01X6948205Y393686D01*
G01X7162800D01*
G03X7198731Y408569I0J50814D01*
G01X7575002Y784840D01*
G03X7635514Y850900I-5802J66060D01*
G03X7569200Y917214I-66314J0D01*
G03X7562093Y916832I0J-66314D01*
G03X7567031Y921169I-30993J40268D01*
G01X7592431Y946569D01*
G03X7607314Y982500I-35931J35931D01*
G01Y1467779D01*
G01X7658086Y1417007D01*
G01Y723900D01*
G03X7672969Y687969I50814J0D01*
G01X7774569Y586369D01*
G03X7810500Y571486I35931J35931D01*
G01X7937500D01*
G03X7973431Y586369I0J50814D01*
G01X8024231Y637169D01*
G03X8039114Y673100I-35931J35931D01*
G01Y791752D01*
G01X8314148Y1066786D01*
G01X8342316D01*
G03X8407400Y1013186I65084J12714D01*
G03X8473714Y1079500I0J66314D01*
G03X8413202Y1145560I-66314J0D01*
G01X8405231Y1153531D01*
G03X8369300Y1168414I-35931J-35931D01*
G01X8293100D01*
G03X8257169Y1153531I0J-50814D01*
G01X7983451Y879813D01*
G01Y1242375D01*
G03X7985814Y1257300I-45951J14925D01*
G01Y1300776D01*
G03X8003814Y1346200I-48314J45424D01*
G03X7937500Y1412514I-66314J0D01*
G03X7912114Y1407463I0J-66314D01*
G01Y1727200D01*
G03X7897231Y1763131I-50814J0D01*
G01X7508260Y2152102D01*
G03X7501347Y2176286I-66060J-5802D01*
G01X7772152D01*
G01X7787269Y2161169D01*
G03X7823200Y2146286I35931J35931D01*
G01X7912100D01*
G03X7948031Y2161169I0J50814D01*
G01X8189331Y2402469D01*
G03X8204214Y2438400I-35931J35931D01*
G01Y2675191D01*
G03X8219714Y2717800I-50814J42609D01*
G03X8153400Y2784114I-66314J0D01*
G03X8087086Y2717800I0J-66314D01*
G03X8102586Y2675191I66314J0D01*
G01Y2459448D01*
G01X7976725Y2333586D01*
G03X7861300Y2439914I-115425J-9486D01*
G03X7745486Y2324100I0J-115814D01*
G03X7755094Y2277914I115814J0D01*
G01X7437100D01*
G03X7401170Y2263031I0J-50814D01*
G01X7376214Y2238075D01*
G01Y2316788D01*
G01X7507744Y2448317D01*
G03X7572014Y2514600I-2044J66283D01*
G03X7566714Y2540578I-66314J0D01*
G01Y2939076D01*
G03X7584714Y2984500I-48314J45424D01*
G03X7518400Y3050814I-66314J0D01*
G03X7500714Y3048412I0J-66314D01*
G01Y3492500D01*
G03X7487295Y3524895I-45814J0D01*
G01X7394197Y3617994D01*
G01X7394214Y3619500D01*
G03X7327900Y3685814I-66314J0D01*
G03X7261586Y3619500I0J-66314D01*
G03X7327900Y3553186I66314J0D01*
G01X7329406Y3553203D01*
G01X7409086Y3473523D01*
G01Y2664144D01*
G03X7388586Y2616200I45814J-47944D01*
G03X7449683Y2550091I66314J0D01*
G03X7439417Y2516644I56017J-35491D01*
G01X7320214Y2397440D01*
G01Y3314700D01*
G03X7303866Y3354166I-55814J0D01*
G01X7189488Y3468545D01*
G03X7151904Y3514877I-64788J-14145D01*
G01X7209663Y3572637D01*
G03X7223814Y3606800I-34163J34163D01*
G01Y3644900D01*
G03X7209663Y3679063I-48314J0D01*
G01X6804714Y4084012D01*
G01Y4710648D01*
G03X6819900Y4708886I15186J64552D01*
G03X6865324Y4726886I0J66314D01*
G01X6876088D01*
G01X7109217Y4493756D01*
G03X7175500Y4429486I66283J2044D01*
G03X7241814Y4495800I0J66314D01*
G03X7177544Y4562083I-66314J0D01*
G01X6930263Y4809363D01*
G03X6896100Y4823514I-34163J-34163D01*
G01X6865324D01*
G03X6819900Y4841514I-45424J-48314D01*
G03X6804714Y4839752I0J-66314D01*
G01Y4844088D01*
G01X6827212Y4866586D01*
G01X7952686D01*
G01Y4635500D01*
G03X7966837Y4601337I48314J0D01*
G01X8036317Y4531856D01*
G03X8102600Y4467586I66283J2044D01*
G03X8168914Y4533900I0J66314D01*
G03X8104644Y4600183I-66314J0D01*
G01X8049314Y4655512D01*
G01Y4889900D01*
G03X8035163Y4924063I-48314J0D01*
G01X8010163Y4949063D01*
G03X8002518Y4955286I-34163J-34163D01*
G01X8600440D01*
G37*
%LPC*%
G36*
G01X8036477Y142201D02*
G03X8072291Y106387I35814J0D01*
G01X8220793D01*
G03X8256607Y142201I0J35814D01*
G01Y273874D01*
G01X8350895Y368163D01*
G03X8364314Y400558I-32395J32395D01*
G01Y421956D01*
G03X8384814Y469900I-45814J47944D01*
G03X8318500Y536214I-66314J0D01*
G01X8316994Y536197D01*
G01X8269307Y583884D01*
G01Y708699D01*
G03X8233493Y744513I-35814J0D01*
G01X8211499D01*
G01X8250671Y783685D01*
G01X8262871D01*
G03X8297398Y757386I34527J9515D01*
G01X8377398D01*
G03X8407400Y773643I0J35814D01*
G03X8437402Y757386I30002J19557D01*
G01X8517402D01*
G03X8553216Y793200I0J35814D01*
G01Y883200D01*
G03X8517402Y919014I-35814J0D01*
G01X8437402D01*
G03X8407400Y902757I0J-35814D01*
G03X8377398Y919014I-30002J-19557D01*
G01X8297398D01*
G03X8261584Y883200I0J-35814D01*
G01Y875313D01*
G01X8231694D01*
G03X8199299Y861895I0J-45814D01*
G01X8126847Y789442D01*
G03X8113428Y757047I32395J-32395D01*
G01Y744513D01*
G01X8084991D01*
G03X8049177Y708699I0J-35814D01*
G01Y535901D01*
G03X8084991Y500087I35814J0D01*
G01X8223523D01*
G01X8252203Y471406D01*
G01X8252186Y469900D01*
G03X8272686Y421956I66314J0D01*
G01Y419535D01*
G01X8203965Y350813D01*
G01X8072291D01*
G03X8036477Y314999I0J-35814D01*
G01Y142201D01*
G37*
G36*
G01X8354993Y142201D02*
G03X8390807Y106387I35814J0D01*
G01X8539309D01*
G03X8575123Y142201I0J35814D01*
G01Y314999D01*
G03X8539309Y350813I-35814J0D01*
G01X8390807D01*
G03X8354993Y314999I0J-35814D01*
G01Y142201D01*
G37*
G36*
G01X8552009Y500087D02*
G03X8587823Y535901I0J35814D01*
G01Y708699D01*
G03X8552009Y744513I-35814J0D01*
G01X8403507D01*
G03X8367693Y708699I0J-35814D01*
G01Y535901D01*
G03X8403507Y500087I35814J0D01*
G01X8552009D01*
G37*
G36*
G01X7861300Y2462286D02*
G03X7977114Y2578100I0J115814D01*
G03X7861300Y2693914I-115814J0D01*
G03X7745486Y2578100I0J-115814D01*
G03X7861300Y2462286I115814J0D01*
G37*
%LPD*%
G36*
G01X7503140Y856702D02*
G01X7141752Y495314D01*
G01X6920148D01*
G01X6871944Y543518D01*
G03X6877050Y547689I-39344J53382D01*
G03X6921500Y530586I44450J49211D01*
G03X6987814Y596900I0J66314D01*
G03X6962316Y649165I-66314J0D01*
G01Y1062217D01*
G03X6966498Y1061716I9984J65558D01*
G01X6984986Y1043228D01*
G01Y1011615D01*
G01Y711200D01*
G03X7035800Y660386I50814J0D01*
G01X7038286Y660447D01*
G01Y642324D01*
G03X7020286Y596900I48314J-45424D01*
G03X7086600Y530586I66314J0D01*
G03X7152914Y596900I0J66314D01*
G03X7134914Y642324I-66314J0D01*
G01Y894388D01*
G01X7176186Y935660D01*
G03X7172686Y914400I62814J-21260D01*
G03X7239000Y848086I66314J0D01*
G03X7281609Y863586I0J66314D01*
G01X7467600D01*
G03X7503531Y878469I0J50814D01*
G01X7517537Y892476D01*
G03X7503140Y856702I51663J-41576D01*
G37*
G36*
G01X7532773Y906314D02*
G03X7527624Y902563I36427J-55414D01*
G01X7531348Y906287D01*
G01X7532773Y906314D01*
G37*
G54D8191*
G01X2278315Y73660D02*
G01X2278315Y296860D01*
G03X2242501Y332674I-35814J0D01*
G01X2172501D01*
G03X2136687Y296860I0J-35814D01*
G01Y73660D01*
G01X1940560D01*
G01Y4917440D01*
G01X1987509D01*
G03X1985987Y4907109I34291J-10331D01*
G01Y4758607D01*
G03X2021801Y4722793I35814J0D01*
G01X2194599D01*
G03X2230413Y4758607I0J35814D01*
G01Y4907109D01*
G03X2228891Y4917440I-35814J0D01*
G01X3391552D01*
G03X3372656Y4885874I16919J-31566D01*
G01Y4784973D01*
G01X3225722D01*
G03X3213920Y4786973I-11801J-33814D01*
G01X3157355D01*
G03X3142356Y4783681I0J-35814D01*
G03X3127357Y4786973I-14999J-32522D01*
G01X3070791D01*
G03X3034977Y4751159I0J-35814D01*
G01Y4697159D01*
G03X3070791Y4661345I35814J0D01*
G01X3127357D01*
G03X3142356Y4664636I0J35814D01*
G03X3157355Y4661345I14999J32522D01*
G01X3213920D01*
G03X3225722Y4663345I0J35814D01*
G01X3372656D01*
G01Y4540274D01*
G03X3408470Y4504460I35814J0D01*
G01X3536723D01*
G03X3572537Y4540274I0J35814D01*
G01Y4652260D01*
G01X3577076D01*
G01X3591452Y4637884D01*
G01Y4192942D01*
G03X3573784Y4197604I-17668J-31152D01*
G01X3510784D01*
G03X3487293Y4188823I0J-35814D01*
G03X3463802Y4197604I-23491J-27033D01*
G01X3400802D01*
G03X3377311Y4188823I0J-35814D01*
G03X3353820Y4197604I-23491J-27033D01*
G01X3290820D01*
G03X3267329Y4188823I0J-35814D01*
G03X3243838Y4197604I-23491J-27033D01*
G01X3180838D01*
G03X3157347Y4188823I0J-35814D01*
G03X3133856Y4197604I-23491J-27033D01*
G01X3070856D01*
G03X3047365Y4188823I0J-35814D01*
G03X3032883Y4196452I-23491J-27033D01*
G01X3044127Y4207697D01*
G03X3073400Y4200886I29273J59503D01*
G03X3139714Y4267200I0J66314D01*
G03X3089402Y4331554I-66314J0D01*
G01Y4389412D01*
G03X3074958Y4424282I-49314J0D01*
G01X3019370Y4479870D01*
G03X2984500Y4494314I-34870J-34870D01*
G01X2954127D01*
G01X2944914Y4503527D01*
G01Y4602374D01*
G03X2958414Y4630387I-22314J28013D01*
G01Y4709396D01*
G03X2955120Y4724400I-35814J0D01*
G03X2958414Y4739404I-32520J15004D01*
G01Y4818413D01*
G03X2922600Y4854227I-35814J0D01*
G01X2868600D01*
G03X2832786Y4818413I0J-35814D01*
G01Y4739404D01*
G03X2836080Y4724400I35814J0D01*
G03X2832786Y4709396I32520J-15004D01*
G01Y4703712D01*
G01X2708482D01*
G03X2693457Y4724400I-34582J-9314D01*
G03X2709714Y4754402I-19557J30002D01*
G01Y4834402D01*
G03X2673900Y4870216I-35814J0D01*
G01X2583900D01*
G03X2548086Y4834402I0J-35814D01*
G01Y4754402D01*
G03X2564343Y4724400I35814J0D01*
G03X2548086Y4694398I19557J-30002D01*
G01Y4691012D01*
G01X2454482D01*
G03X2439457Y4711700I-34582J-9314D01*
G03X2455714Y4741702I-19557J30002D01*
G01Y4821702D01*
G03X2419900Y4857516I-35814J0D01*
G01X2329900D01*
G03X2294086Y4821702I0J-35814D01*
G01Y4741702D01*
G03X2310343Y4711700I35814J0D01*
G03X2294086Y4681698I19557J-30002D01*
G01Y4630624D01*
G01X2230413Y4566951D01*
G01Y4588593D01*
G03X2194599Y4624407I-35814J0D01*
G01X2021801D01*
G03X1985987Y4588593I0J-35814D01*
G01Y4440091D01*
G03X2021801Y4404277I35814J0D01*
G01X2194599D01*
G03X2230413Y4440091I0J35814D01*
G01Y4465028D01*
G01X2247544D01*
G03X2282415Y4479472I0J49314D01*
G01X2368827Y4565884D01*
G01X2419900D01*
G03X2454482Y4592384I0J35814D01*
G01X2555651D01*
G03X2583900Y4578584I28249J22014D01*
G01X2673900D01*
G03X2708482Y4605084I0J35814D01*
G01X2843255D01*
G03X2846286Y4602374I25345J25303D01*
G01Y4483100D01*
G03X2860730Y4448230I49314J0D01*
G01X2898830Y4410130D01*
G03X2933700Y4395686I34870J34870D01*
G01X2964073D01*
G01X2990774Y4368986D01*
G01Y4293824D01*
G01X2962664Y4265714D01*
G01X2895600D01*
G03X2860730Y4251270I0J-49314D01*
G01X2835330Y4225870D01*
G03X2820940Y4193296I34870J-34870D01*
G03X2803910Y4197604I-17030J-31506D01*
G01X2740910D01*
G03X2705096Y4161790I0J-35814D01*
G01Y3945890D01*
G03X2740910Y3910076I35814J0D01*
G01X2803910D01*
G03X2827401Y3918857I0J35814D01*
G03X2850892Y3910076I23491J27033D01*
G01X2913892D01*
G03X2937383Y3918857I0J35814D01*
G03X2960874Y3910076I23491J27033D01*
G01X3023874D01*
G03X3047365Y3918857I0J35814D01*
G03X3070856Y3910076I23491J27033D01*
G01X3133856D01*
G03X3157347Y3918857I0J35814D01*
G03X3180838Y3910076I23491J27033D01*
G01X3243838D01*
G03X3267329Y3918857I0J35814D01*
G03X3290820Y3910076I23491J27033D01*
G01X3309587D01*
G03X3298686Y3873500I55913J-36576D01*
G03X3322085Y3822714I66814J0D01*
G01X2776948D01*
G01X2590903Y4008759D01*
G01Y4273398D01*
G03X2578114Y4307104I-50814J0D01*
G01Y4439536D01*
G03X2603114Y4495800I-50814J56264D01*
G03X2527300Y4571614I-75814J0D01*
G03X2451486Y4495800I0J-75814D01*
G03X2476486Y4439536I75814J0D01*
G01Y4286187D01*
G03X2489275Y4252480I50814J0D01*
G01Y3987711D01*
G03X2504158Y3951780I50814J0D01*
G01X2719969Y3735969D01*
G03X2755900Y3721086I35931J35931D01*
G01X3416300D01*
G03X3452231Y3735969I0J50814D01*
G01X3579231Y3862969D01*
G03X3594114Y3898900I-35931J35931D01*
G01Y3916406D01*
G03X3597275Y3918857I-20330J29484D01*
G03X3620766Y3910076I23491J27033D01*
G01X3667485D01*
G01X3637905Y3880495D01*
G03X3624486Y3848100I32395J-32395D01*
G01Y3518831D01*
G03X3612874Y3520937I-17686J-64431D01*
G03X3622814Y3556000I-56874J35063D01*
G03X3556000Y3622814I-66814J0D01*
G03X3489186Y3556000I0J-66814D01*
G01X3489216Y3554007D01*
G01X3472805Y3537595D01*
G03X3459386Y3505200I32395J-32395D01*
G01Y3162300D01*
G03X3472805Y3129905I45814J0D01*
G01X3726086Y2876623D01*
G01Y2501900D01*
G03X3739505Y2469505I45814J0D01*
G01X3815705Y2393305D01*
G03X3848100Y2379886I32395J32395D01*
G01X4330700D01*
G03X4363095Y2393305I0J45814D01*
G01X4484655Y2514865D01*
G03X4498074Y2547260I-32395J32395D01*
G01Y2928103D01*
G03X4533900Y2917686I35826J56397D01*
G03X4568858Y2927561I0J66814D01*
G01X4767896D01*
G03X4759686Y2895600I58104J-31961D01*
G03X4826000Y2829286I66314J0D01*
G03X4868609Y2844786I0J66314D01*
G01X4940180D01*
G03X4916508Y2811093I12142J-33693D01*
G01Y2776283D01*
G01X4674415Y2534190D01*
G01X4540085D01*
G03X4479271Y2473376I0J-60814D01*
G03X4540085Y2412562I60814J0D01*
G01X4621129D01*
G03X4619986Y2400300I65171J-12262D01*
G03X4686300Y2333986I66314J0D01*
G03X4736514Y2356986I0J66314D01*
G01X4743688D01*
G03X4759720Y2360063I0J43314D01*
G03X4822015Y2296006I66280J2137D01*
G01X4793605Y2267595D01*
G03X4780186Y2235200I32395J-32395D01*
G01Y1987004D01*
G03X4772386Y1955800I58514J-31204D01*
G03X4793350Y1907417I66314J0D01*
G03X4734286Y1841500I7250J-65917D01*
G03X4790239Y1776000I66314J0D01*
G01X4713869Y1699631D01*
G03X4698986Y1663700I35931J-35931D01*
G01Y1439609D01*
G03X4683486Y1397000I50814J-42609D01*
G03X4712438Y1342213I66314J0D01*
G03X4708886Y1320800I62762J-21413D01*
G03X4709094Y1315551I66314J0D01*
G03X4660900Y1336314I-48194J-45551D01*
G03X4594586Y1270000I0J-66314D01*
G03X4599637Y1244614I66314J0D01*
G01X4417709D01*
G01Y1295400D01*
G03X4366895Y1346214I-50814J0D01*
G01X4258476D01*
G01X4303344Y1391082D01*
G03X4321156Y1434084I-43002J43002D01*
G01Y1439887D01*
G01X4334593D01*
G03X4370407Y1475701I0J35814D01*
G01Y1648499D01*
G03X4334593Y1684313I-35814J0D01*
G01X4191040D01*
G01X4396961Y1890235D01*
G03X4406900Y1889486I9939J65565D01*
G03X4473214Y1955800I0J66314D01*
G03X4406900Y2022114I-66314J0D01*
G03X4342776Y1972702I0J-66314D01*
G01X4012514Y1642440D01*
G03X4016014Y1663700I-62814J21260D01*
G03X3949700Y1730014I-66314J0D01*
G03X3905364Y1713014I0J-66314D01*
G01X3862093D01*
G03X3856711Y1712719I0J-49314D01*
G01X3827297D01*
G03X3797290Y1696455I0J-35814D01*
G03X3779096Y1710715I-30008J-19550D01*
G01Y1727718D01*
G03X3765677Y1760114I-45814J0D01*
G01X3761997Y1763794D01*
G01X3762014Y1765300D01*
G03X3695700Y1831614I-66314J0D01*
G03X3629386Y1765300I0J-66314D01*
G03X3674274Y1702543I66314J0D01*
G03X3663467Y1676905I25007J-25637D01*
G01Y1652997D01*
G03X3657329Y1647788I28732J-40079D01*
G01X3633655Y1624114D01*
G01X3390354D01*
G03X3385914Y1623914I0J-49314D01*
G01Y1641156D01*
G03X3406414Y1689100I-45814J47944D01*
G03X3340100Y1755414I-66314J0D01*
G03X3297014Y1739510I0J-66314D01*
G01Y1809823D01*
G01X3463681Y1976491D01*
G03X3477100Y2008886I-32395J32395D01*
G01Y2127931D01*
G03X3486277Y2133727I-14314J32829D01*
G03X3509768Y2124946I23491J27033D01*
G01X3572768D01*
G03X3596259Y2133727I0J35814D01*
G03X3619750Y2124946I23491J27033D01*
G01X3682750D01*
G03X3718564Y2160760I0J35814D01*
G01Y2380760D01*
G03X3682750Y2416574I-35814J0D01*
G01X3619750D01*
G03X3596259Y2407793I0J-35814D01*
G03X3572768Y2416574I-23491J-27033D01*
G01X3509768D01*
G03X3486277Y2407793I0J-35814D01*
G03X3462786Y2416574I-23491J-27033D01*
G01X3399786D01*
G03X3376295Y2407793I0J-35814D01*
G03X3352804Y2416574I-23491J-27033D01*
G01X3289804D01*
G03X3266313Y2407793I0J-35814D01*
G03X3242822Y2416574I-23491J-27033D01*
G01X3179822D01*
G03X3156331Y2407793I0J-35814D01*
G03X3132840Y2416574I-23491J-27033D01*
G01X3069840D01*
G03X3046349Y2407793I0J-35814D01*
G03X3022858Y2416574I-23491J-27033D01*
G01X2959858D01*
G03X2936367Y2407793I0J-35814D01*
G03X2912876Y2416574I-23491J-27033D01*
G01X2849876D01*
G03X2826385Y2407793I0J-35814D01*
G03X2802894Y2416574I-23491J-27033D01*
G01X2739894D01*
G03X2704080Y2380760I0J-35814D01*
G01Y2160760D01*
G03X2739894Y2124946I35814J0D01*
G01X2802894D01*
G03X2826385Y2133727I0J35814D01*
G03X2849876Y2124946I23491J27033D01*
G01X2912876D01*
G03X2936367Y2133727I0J35814D01*
G03X2959858Y2124946I23491J27033D01*
G01X3022858D01*
G03X3046349Y2133727I0J35814D01*
G03X3055526Y2127931I23491J27033D01*
G01Y1841047D01*
G01X2832133Y1617654D01*
G01X2792494D01*
G03X2766494Y1606470I0J-35814D01*
G03X2740494Y1617654I-26000J-24630D01*
G01X2670494D01*
G03X2657996Y1615402I0J-35814D01*
G03X2645498Y1617654I-12498J-33562D01*
G01X2575498D01*
G03X2539684Y1581840I0J-35814D01*
G01Y1468040D01*
G03X2575498Y1432226I35814J0D01*
G01X2645498D01*
G03X2657996Y1434477I0J35814D01*
G03X2670494Y1432226I12498J33562D01*
G01X2740494D01*
G03X2766494Y1443410I0J35814D01*
G03X2776680Y1435907I26000J24630D01*
G01Y1369916D01*
G03X2765786Y1333500I55420J-36416D01*
G03X2832100Y1267186I66314J0D01*
G03X2898414Y1333500I0J66314D01*
G03X2888308Y1368689I-66314J0D01*
G01Y1435907D01*
G03X2895994Y1441014I-15814J32133D01*
G03X2919494Y1432226I23500J27026D01*
G01X2999494D01*
G03X3022994Y1441014I0J35814D01*
G03X3026336Y1438437I23500J27026D01*
G03X3019786Y1409700I59764J-28737D01*
G03X3086100Y1343386I66314J0D01*
G03X3152414Y1409700I0J66314D01*
G03X3146054Y1438039I-66314J0D01*
G03X3149994Y1441014I-19560J30001D01*
G03X3173494Y1432226I23500J27026D01*
G01X3253494D01*
G03X3276994Y1441014I0J35814D01*
G03X3300494Y1432226I23500J27026D01*
G01X3380494D01*
G03X3416308Y1468040I0J35814D01*
G01Y1525486D01*
G01X3450980D01*
G03X3436685Y1496858I21519J-28628D01*
G01Y1256858D01*
G03X3472499Y1221044I35814J0D01*
G01X3542499D01*
G03X3578313Y1256858I0J35814D01*
G01Y1496858D01*
G03X3564017Y1525486I-35814J0D01*
G01X3654081D01*
G03X3670090Y1528157I0J49314D01*
G03X3687468Y1515095I29192J20748D01*
G01Y1491659D01*
G01X3646406Y1450597D01*
G01X3644900Y1450614D01*
G03X3578586Y1384300I0J-66314D01*
G03X3644900Y1317986I66314J0D01*
G03X3693077Y1338731I0J66314D01*
G01Y1209001D01*
G03X3697749Y1191314I35814J0D01*
G01X3213100D01*
G03X3178937Y1177163I0J-48314D01*
G01X2779256Y777483D01*
G03X2714986Y711200I2044J-66283D01*
G03X2781300Y644886I66314J0D01*
G03X2847583Y709156I0J66314D01*
G01X3233112Y1094686D01*
G01X3792862D01*
G03X3789291Y1079097I32243J-15589D01*
G01Y1011014D01*
G01X3730944D01*
G03X3683000Y1031514I-47944J-45814D01*
G03X3616686Y965200I0J-66314D01*
G03X3683000Y898886I66314J0D01*
G03X3730944Y919386I0J66314D01*
G01X3787834D01*
G01X3729562Y861114D01*
G01X3649243D01*
G03X3594100Y886114I-55143J-48314D01*
G03X3520786Y812800I0J-73314D01*
G03X3594100Y739486I73314J0D01*
G03X3649243Y764486I0J73314D01*
G01X3749575D01*
G03X3783738Y778637I0J48314D01*
G01X3789291Y784190D01*
G01Y751100D01*
G03X3797342Y728476I35814J0D01*
G03X3781786Y685800I50758J-42676D01*
G03X3797932Y642433I66314J0D01*
G03X3789291Y619103I27173J-23329D01*
G01Y521103D01*
G01X3789292Y520971D01*
G01X3723894Y455573D01*
G01X3723914Y457200D01*
G03X3657600Y523514I-66314J0D01*
G03X3591317Y459244I0J-66314D01*
G01X3547237Y415163D01*
G03X3533086Y381000I34163J-34163D01*
G01Y332674D01*
G01X3472499D01*
G03X3436685Y296860I0J-35814D01*
G01Y73660D01*
G01X3041329D01*
G03X3101620Y139700I-6023J66040D01*
G03X3038363Y205944I-66314J0D01*
G03X3022606Y208214I-15757J-53544D01*
G01X2588510D01*
G03X2552700Y218714I-35810J-55814D01*
G03X2486386Y152400I0J-66314D01*
G03X2552700Y86086I66314J0D01*
G03X2588510Y96586I0J66314D01*
G01X2984920D01*
G03X3029283Y73660I50386J43114D01*
G01X2278315D01*
G01X2268456Y2526280D02*
G03X2304270Y2490466I35814J0D01*
G01X2524270D01*
G03X2560084Y2526280I0J35814D01*
G01Y2589280D01*
G03X2551303Y2612771I-35814J0D01*
G03X2560084Y2636262I-27033J23491D01*
G01Y2699262D01*
G03X2551303Y2722753I-35814J0D01*
G03X2560084Y2746244I-27033J23491D01*
G01Y2809244D01*
G03X2551303Y2832735I-35814J0D01*
G03X2560084Y2856226I-27033J23491D01*
G01Y2919226D01*
G03X2551303Y2942717I-35814J0D01*
G03X2560084Y2966208I-27033J23491D01*
G01Y3029208D01*
G03X2551192Y3052826I-35814J0D01*
G03X2560084Y3076444I-26923J23618D01*
G01Y3139444D01*
G03X2551303Y3162935I-35814J0D01*
G03X2560084Y3186426I-27033J23491D01*
G01Y3249426D01*
G03X2551303Y3272917I-35814J0D01*
G03X2560084Y3296408I-27033J23491D01*
G01Y3359408D01*
G03X2551303Y3382899I-35814J0D01*
G03X2560084Y3406390I-27033J23491D01*
G01Y3469390D01*
G03X2551303Y3492881I-35814J0D01*
G03X2560084Y3516372I-27033J23491D01*
G01Y3579372D01*
G03X2551303Y3602863I-35814J0D01*
G03X2560084Y3626354I-27033J23491D01*
G01Y3689354D01*
G03X2551303Y3712845I-35814J0D01*
G03X2560084Y3736336I-27033J23491D01*
G01Y3799336D01*
G03X2524270Y3835150I-35814J0D01*
G01X2304270D01*
G03X2293714Y3833559I0J-35814D01*
G01Y3913767D01*
G03X2314714Y3962400I-45814J48633D01*
G03X2247900Y4029214I-66814J0D01*
G03X2181086Y3962400I0J-66814D01*
G03X2202086Y3913767I66814J0D01*
G01Y3683000D01*
G03X2215505Y3650605I45814J0D01*
G01X2228205Y3637905D01*
G03X2260600Y3624486I32395J32395D01*
G01X2268505D01*
G03X2277237Y3602863I35765J1868D01*
G03X2268456Y3579372I27033J-23491D01*
G01Y3516372D01*
G03X2277237Y3492881I35814J0D01*
G03X2268456Y3469390I27033J-23491D01*
G01Y3406390D01*
G03X2277237Y3382899I35814J0D01*
G03X2268456Y3359408I27033J-23491D01*
G01Y3296408D01*
G03X2277237Y3272917I35814J0D01*
G03X2268456Y3249426I27033J-23491D01*
G01Y3186426D01*
G03X2277237Y3162935I35814J0D01*
G03X2268456Y3139444I27033J-23491D01*
G01Y3076444D01*
G03X2277348Y3052826I35814J0D01*
G03X2268456Y3029208I26923J-23618D01*
G01Y2966208D01*
G03X2277237Y2942717I35814J0D01*
G03X2268456Y2919226I27033J-23491D01*
G01Y2856226D01*
G03X2277237Y2832735I35814J0D01*
G03X2268456Y2809244I27033J-23491D01*
G01Y2746244D01*
G03X2277237Y2722753I35814J0D01*
G03X2268456Y2699262I27033J-23491D01*
G01Y2636262D01*
G03X2277237Y2612771I35814J0D01*
G03X2268456Y2589280I27033J-23491D01*
G01Y2526280D01*
G01X4653109Y1439887D02*
G03X4688923Y1475701I0J35814D01*
G01Y1648499D01*
G03X4653109Y1684313I-35814J0D01*
G01X4504607D01*
G03X4468793Y1648499I0J-35814D01*
G01Y1475701D01*
G03X4504607Y1439887I35814J0D01*
G01X4653109D01*
G01X2136687Y1256858D02*
G03X2172501Y1221044I35814J0D01*
G01X2242501D01*
G03X2278315Y1256858I0J35814D01*
G01Y1496858D01*
G03X2242501Y1532672I-35814J0D01*
G01X2172501D01*
G03X2136687Y1496858I0J-35814D01*
G01Y1256858D01*
G01X3281672Y301854D02*
G03X3357486Y226040I75814J0D01*
G03X3433300Y301854I0J75814D01*
G03X3357486Y377668I-75814J0D01*
G03X3281672Y301854I0J-75814D01*
G01X2431687Y301854D02*
G03X2507501Y226040I75814J0D01*
G03X2583315Y301854I0J75814D01*
G03X2507501Y377668I-75814J0D01*
G03X2431687Y301854I0J-75814D01*
G01X3684951Y127593D02*
G03X3685083Y124514I35814J0D01*
G01X3629714D01*
G01Y360988D01*
G01X3659644Y390917D01*
G03X3691089Y399963I-2044J66283D01*
G03X3690651Y391963I72876J-8001D01*
G01Y378299D01*
G03X3684951Y358913I30114J-19386D01*
G01Y278266D01*
G03X3713231Y243253I35814J0D01*
G03X3684951Y208241I7534J-35013D01*
G01Y127593D01*
G01X3863286Y1473200D02*
G01X3863286Y1417613D01*
G01X3743004D01*
G01X3765677Y1440286D01*
G03X3779096Y1472682I-32395J32395D01*
G01Y1515095D01*
G03X3797290Y1529355I-11814J33810D01*
G03X3827297Y1513091I30008J19550D01*
G01X3883164D01*
G01X3877437Y1507363D01*
G03X3863286Y1473200I34163J-34163D01*
G01X3866116Y3028446D02*
G01X3866116Y2980475D01*
G01X3755505Y3091086D01*
G01X3866116D01*
G01Y3075428D01*
G03X3874897Y3051937I35814J0D01*
G03X3866116Y3028446I27033J-23491D01*
G01X3962236Y73660D02*
G03X3978281Y116910I-50269J43250D01*
G03X3911967Y183224I-66314J0D01*
G03X3846090Y124514I0J-66314D01*
G01X3842847D01*
G03X3842979Y127593I-35681J3079D01*
G01Y208241D01*
G03X3814699Y243253I-35814J0D01*
G03X3821104Y245276I-7534J35013D01*
G01X3906406D01*
G01X3963326Y188356D01*
G01Y172700D01*
G03X3999140Y136886I35814J0D01*
G01X4079787D01*
G03X4114800Y165166I0J35814D01*
G03X4141822Y137788I35013J7534D01*
G01Y102879D01*
G03X4151659Y73660I48314J0D01*
G01X3962236D01*
G01X4719681Y127107D02*
G01X4703150Y110577D01*
G01X4617984D01*
G03X4621294Y125614I-32504J15038D01*
G01Y298413D01*
G03X4585480Y334227I-35814J0D01*
G01X4436979D01*
G03X4401165Y298413I0J-35814D01*
G01Y125614D01*
G03X4404475Y110577I35814J0D01*
G01X4250765D01*
G01X4238450Y122891D01*
G01Y137788D01*
G03X4266274Y172700I-7990J34911D01*
G01Y259100D01*
G03X4230460Y294914I-35814J0D01*
G01X4149813D01*
G03X4114800Y266634I0J-35814D01*
G03X4079787Y294914I-35013J-7534D01*
G01X4064131D01*
G01X3988615Y370431D01*
G03X3936774Y391904I-51841J-51841D01*
G01X3867588D01*
G01X3960973Y485289D01*
G01X4059105D01*
G03X4094919Y521103I0J35814D01*
G01Y619103D01*
G03X4088857Y639041I-35814J0D01*
G03X4110863Y651637I-12157J46760D01*
G01X4114060Y654834D01*
G03X4178300Y614486I64240J30966D01*
G03X4249155Y677722I0J71314D01*
G01X4357466Y786034D01*
G03X4363281Y792868I-39466J39466D01*
G01Y620100D01*
G03X4399095Y584286I35814J0D01*
G01X4430281D01*
G01Y554861D01*
G03X4455415Y494182I85814J0D01*
G01X4719681Y229916D01*
G01Y127107D01*
G01X6262152Y3172514D02*
G03X6263914Y3187700I-64552J15186D01*
G03X6243414Y3235644I-66314J0D01*
G01Y3596956D01*
G03X6263914Y3644900I-45814J47944D01*
G03X6197600Y3711214I-66314J0D01*
G03X6131286Y3644900I0J-66314D01*
G03X6151786Y3596956I66314J0D01*
G01Y3530210D01*
G03X6146062Y3534587I-43086J-50410D01*
G03X6149614Y3556000I-62762J21413D01*
G03X6083300Y3622314I-66314J0D01*
G03X6016986Y3556000I0J-66314D01*
G01X6017003Y3554494D01*
G01X6013523Y3551014D01*
G01X5648644D01*
G03X5600700Y3571514I-47944J-45814D01*
G03X5534386Y3505200I0J-66314D01*
G01X5534404Y3503658D01*
G01X5466779Y3571283D01*
G01Y3583000D01*
G03X5430965Y3618814I-35814J0D01*
G01X5430964D01*
G01X5374399D01*
G03X5359400Y3615522I0J-35814D01*
G03X5344401Y3618814I-14999J-32522D01*
G01X5287836D01*
G03X5252022Y3583000I0J-35814D01*
G01Y3529000D01*
G03X5287836Y3493186I35814J0D01*
G01X5344401D01*
G03X5359400Y3496478I0J35814D01*
G03X5374399Y3493186I14999J32522D01*
G01X5401152D01*
G01X5416630Y3477708D01*
G03X5410103Y3478308I-6527J-35214D01*
G01X5382103D01*
G03X5346289Y3442494I0J-35814D01*
G01Y3357493D01*
G03X5348246Y3345814I35814J0D01*
G01X5293947D01*
G03X5295905Y3357493I-33856J11679D01*
G01Y3389964D01*
G03X5296905Y3399993I-49814J10029D01*
G01Y3428009D01*
G03X5295905Y3438038I-50814J0D01*
G01Y3442494D01*
G03X5268706Y3477256I-35814J0D01*
G01X5255631Y3490331D01*
G03X5219700Y3505214I-35931J-35931D01*
G01X5203739D01*
G03X5212779Y3529000I-26775J23786D01*
G01Y3583000D01*
G03X5176965Y3618814I-35814J0D01*
G01X5176964D01*
G01X5120399D01*
G03X5105400Y3615522I0J-35814D01*
G03X5090401Y3618814I-14999J-32522D01*
G01X5057822D01*
G03X5049418Y3619514I-8404J-50114D01*
G01X4851400D01*
G03X4815469Y3604631I0J-50814D01*
G01X4764669Y3553831D01*
G03X4749802Y3519188I35931J-35931D01*
G01X4744095Y3524895D01*
G03X4711700Y3538314I-32395J-32395D01*
G01X4709708D01*
G01X4585899Y3662123D01*
G01Y3778415D01*
G03X4572480Y3810810I-45814J0D01*
G01X4312295Y4070995D01*
G03X4279900Y4084414I-32395J-32395D01*
G01X4126170D01*
G03X4132783Y4089386I-36770J55786D01*
G01X4474752D01*
G01X4561469Y4002669D01*
G03X4597400Y3987786I35931J35931D01*
G01X4935205D01*
G01X5121895Y3801095D01*
G03X5156200Y3786886I34305J34305D01*
G01X6492240D01*
G01Y3213804D01*
G03X6486886Y3187700I60960J-26104D01*
G03X6488648Y3172514I66314J0D01*
G01X6262152D01*
G01X4157744Y2527714D02*
G01X4157744Y2588264D01*
G03X4148963Y2611755I-35814J0D01*
G03X4157744Y2635246I-27033J23491D01*
G01Y2698246D01*
G03X4148963Y2721737I-35814J0D01*
G03X4157744Y2745228I-27033J23491D01*
G01Y2808228D01*
G03X4148963Y2831719I-35814J0D01*
G03X4157744Y2855210I-27033J23491D01*
G01Y2918210D01*
G03X4148852Y2941828I-35814J0D01*
G03X4157744Y2965446I-26923J23618D01*
G01Y3028446D01*
G03X4148963Y3051937I-35814J0D01*
G03X4157744Y3075428I-27033J23491D01*
G01Y3138428D01*
G03X4148963Y3161919I-35814J0D01*
G03X4157744Y3185410I-27033J23491D01*
G01Y3194265D01*
G01X4263916Y3088093D01*
G01X4263886Y3086100D01*
G03X4330700Y3019286I66814J0D01*
G03X4373786Y3035034I0J66814D01*
G01Y2622477D01*
G01X4279023Y2527714D01*
G01X4157744D01*
G01X4383027Y4618415D02*
G03X4359744Y4609814I0J-35814D01*
G01X4275118D01*
G01X4185794Y4699138D01*
G01Y4885874D01*
G03X4166899Y4917440I-35814J0D01*
G01X4374731D01*
G03X4347213Y4882600I8296J-34840D01*
G01Y4815399D01*
G03X4383027Y4779585I35814J0D01*
G01X4537297D01*
G01X4535335Y4777038D01*
G01X4534342Y4775685D01*
G01X4531792Y4772032D01*
G01X4530861Y4770630D01*
G01X4529076Y4767798D01*
G01X4383014D01*
G03X4347200Y4731984I0J-35814D01*
G01Y4665985D01*
G03X4383014Y4630171I35814J0D01*
G01X4529073D01*
G01X4530861Y4627334D01*
G01X4531792Y4625932D01*
G01X4534342Y4622280D01*
G01X4535335Y4620926D01*
G01X4537270Y4618415D01*
G01X4383027D01*
G01X4733452Y3268886D02*
G01X4806365Y3195973D01*
G01X4744776D01*
G01X4634980Y3305770D01*
G03X4602584Y3319188I-32395J-32395D01*
G01X4492574D01*
G03X4460179Y3305770I0J-45814D01*
G01X4397365Y3242956D01*
G03X4373427Y3289866I-66665J-4456D01*
G03X4361328Y3313387I-42727J-7107D01*
G01X4259714Y3415001D01*
G01Y3555124D01*
G01X4292586Y3522252D01*
G01Y3497783D01*
G03X4276586Y3454400I50814J-43383D01*
G03X4343400Y3387586I66814J0D01*
G03X4410214Y3454400I0J66814D01*
G03X4394214Y3497783I-66814J0D01*
G01Y3529295D01*
G01X4482531Y3440978D01*
G03X4514926Y3427560I32395J32395D01*
G01X4648349D01*
G01X4661192Y3414717D01*
G03X4619486Y3352800I25108J-61917D01*
G03X4686300Y3285986I66814J0D01*
G01X4688293Y3286016D01*
G01X4692005Y3282305D01*
G03X4724400Y3268886I32395J32395D01*
G01X4733452D01*
G01X6492240Y4253272D02*
G01X6492240Y3883914D01*
G01X5176295D01*
G01X4992780Y4067429D01*
G03X4947788Y4094626I-44992J-23617D01*
G03X4925370Y4089414I0J-50814D01*
G01X4836028D01*
G03X4836283Y4093679I-35559J4265D01*
G01Y4363678D01*
G03X4828837Y4385539I-35814J0D01*
G01Y4568232D01*
G01X4831031Y4568284D01*
G01X4832686Y4568362D01*
G01X4837128Y4568674D01*
G01X4838801Y4568832D01*
G01X4843226Y4569352D01*
G01X4844882Y4569587D01*
G01X4849276Y4570313D01*
G01X4850948Y4570630D01*
G01X4850949D01*
G01X4855304Y4571565D01*
G01X4856923Y4571952D01*
G01X4861228Y4573087D01*
G01X4862838Y4573552D01*
G01X4867087Y4574888D01*
G01X4868683Y4575432D01*
G01X4872864Y4576966D01*
G01X4874434Y4577584D01*
G01X4878539Y4579314D01*
G01X4880048Y4579992D01*
G01X4884069Y4581910D01*
G01X4885585Y4582677D01*
G01X4889509Y4584783D01*
G01X4890972Y4585613D01*
G01X4894795Y4587901D01*
G01X4896208Y4588793D01*
G01X4899919Y4591256D01*
G01X4901290Y4592213D01*
G01X4904881Y4594847D01*
G01X4906218Y4595877D01*
G01X4909680Y4598676D01*
G01X4910964Y4599765D01*
G01X4914294Y4602727D01*
G01X4915519Y4603869D01*
G01X4915520D01*
G01X4918705Y4606980D01*
G01X4919875Y4608179D01*
G01X4922913Y4611438D01*
G01X4924029Y4612692D01*
G01X4926909Y4616088D01*
G01X4927968Y4617398D01*
G01X4930686Y4620926D01*
G01X4931679Y4622280D01*
G01X4934229Y4625932D01*
G01X4935160Y4627334D01*
G01X4937535Y4631101D01*
G01X4938396Y4632541D01*
G01X4940593Y4636417D01*
G01X4941379Y4637882D01*
G01X4943393Y4641854D01*
G01X4944126Y4643387D01*
G01X4945949Y4647451D01*
G01X4946593Y4648979D01*
G01X4948226Y4653121D01*
G01Y4653122D01*
G01X4948812Y4654717D01*
G01X4950247Y4658934D01*
G01X4950749Y4660529D01*
G01X4951986Y4664809D01*
G01X4952416Y4666442D01*
G01X4953450Y4670775D01*
G01X4953799Y4672405D01*
G01X4954629Y4676779D01*
G01X4954904Y4678438D01*
G01X4955529Y4682850D01*
G01X4955726Y4684523D01*
G01X4956143Y4688958D01*
G01X4956260Y4690632D01*
G01X4956469Y4695079D01*
G01X4956508Y4696755D01*
G01Y4701210D01*
G01X4956469Y4702885D01*
G01X4956260Y4707333D01*
G01X4956143Y4709007D01*
G01X4955726Y4713441D01*
G01X4955529Y4715114D01*
G01X4954904Y4719526D01*
G01X4954629Y4721186D01*
G01X4953799Y4725559D01*
G01Y4725560D01*
G01X4953450Y4727189D01*
G01X4952416Y4731522D01*
G01X4951986Y4733155D01*
G01X4950749Y4737435D01*
G01X4950247Y4739031D01*
G01X4948812Y4743247D01*
G01X4948226Y4744843D01*
G01X4946593Y4748986D01*
G01X4945949Y4750513D01*
G01X4944126Y4754577D01*
G01X4943393Y4756110D01*
G01X4941379Y4760083D01*
G01X4940593Y4761548D01*
G01X4938396Y4765424D01*
G01X4937535Y4766864D01*
G01X4935160Y4770630D01*
G01X4934229Y4772032D01*
G01X4931679Y4775685D01*
G01X4930686Y4777038D01*
G01X4927968Y4780566D01*
G01X4926909Y4781876D01*
G01X4924029Y4785272D01*
G01X4922913Y4786527D01*
G01X4919875Y4789786D01*
G01X4918705Y4790984D01*
G01X4915520Y4794095D01*
G01X4915519D01*
G01X4914294Y4795238D01*
G01X4910964Y4798199D01*
G01X4909680Y4799288D01*
G01X4906218Y4802087D01*
G01X4904881Y4803117D01*
G01X4901290Y4805751D01*
G01X4899919Y4806708D01*
G01X4896208Y4809172D01*
G01X4894795Y4810063D01*
G01X4890972Y4812352D01*
G01X4889509Y4813182D01*
G01X4885585Y4815287D01*
G01X4884069Y4816055D01*
G01X4880048Y4817973D01*
G01X4878539Y4818650D01*
G01X4874434Y4820380D01*
G01X4872864Y4820999D01*
G01X4868683Y4822533D01*
G01X4867087Y4823076D01*
G01X4862838Y4824412D01*
G01X4861228Y4824877D01*
G01X4856923Y4826012D01*
G01X4855304Y4826399D01*
G01X4850948Y4827334D01*
G01X4849276Y4827651D01*
G01X4844882Y4828378D01*
G01X4843226Y4828612D01*
G01X4838801Y4829133D01*
G01X4837128Y4829290D01*
G01X4832686Y4829602D01*
G01X4831031Y4829680D01*
G01X4826579Y4829787D01*
G01X4826578D01*
G01X4825721Y4829797D01*
G01X4640301D01*
G01X4639443Y4829787D01*
G01X4634990Y4829680D01*
G01X4633336Y4829602D01*
G01X4633335D01*
G01X4628893Y4829290D01*
G01X4627220Y4829133D01*
G01X4622795Y4828612D01*
G01X4621139Y4828378D01*
G01X4616745Y4827652D01*
G01Y4827651D01*
G01X4615073Y4827334D01*
G01X4610717Y4826399D01*
G01X4609098Y4826012D01*
G01X4604793Y4824877D01*
G01X4603184Y4824412D01*
G01X4603183D01*
G01X4598934Y4823076D01*
G01X4597338Y4822533D01*
G01X4593158Y4820999D01*
G01X4593157D01*
G01X4591587Y4820380D01*
G01X4587483Y4818650D01*
G01X4587482D01*
G01X4585973Y4817973D01*
G01X4581952Y4816055D01*
G01X4580436Y4815287D01*
G01X4576512Y4813182D01*
G01X4576264Y4813047D01*
G01X4576341Y4815399D01*
G01Y4882600D01*
G03X4548823Y4917440I-35814J0D01*
G01X5847931D01*
G03X5820413Y4882600I8296J-34840D01*
G01Y4815399D01*
G03X5856227Y4779585I35814J0D01*
G01X6010497D01*
G01X6008535Y4777038D01*
G01X6007542Y4775685D01*
G01X6004992Y4772032D01*
G01X6004061Y4770630D01*
G01X6002276Y4767798D01*
G01X5856214D01*
G03X5820400Y4731984I0J-35814D01*
G01Y4665985D01*
G03X5856214Y4630171I35814J0D01*
G01X6002273D01*
G01X6004061Y4627334D01*
G01X6004992Y4625932D01*
G01X6007542Y4622280D01*
G01X6008535Y4620926D01*
G01X6010470Y4618415D01*
G01X5856227D01*
G03X5820413Y4582601I0J-35814D01*
G01Y4515400D01*
G03X5856227Y4479586I35814J0D01*
G01X5874163D01*
G01Y4341152D01*
G03X5891975Y4298150I60814J0D01*
G01X5959789Y4230336D01*
G01Y4043600D01*
G03X5995603Y4007786I35814J0D01*
G01X6123855D01*
G03X6159669Y4043600I0J35814D01*
G01Y4389200D01*
G03X6123855Y4425014I-35814J0D01*
G01X5995791D01*
G01Y4479586D01*
G01X6013727D01*
G03X6049541Y4515400I0J35814D01*
G01Y4582601D01*
G01X6049466Y4584916D01*
G01X6049712Y4584783D01*
G01X6053636Y4582677D01*
G01X6055152Y4581910D01*
G01X6059173Y4579992D01*
G01X6060682Y4579314D01*
G01X6064787Y4577584D01*
G01X6066357Y4576966D01*
G01X6066358D01*
G01X6070538Y4575432D01*
G01X6072134Y4574888D01*
G01X6076383Y4573552D01*
G01X6076384D01*
G01X6077993Y4573087D01*
G01X6082298Y4571952D01*
G01X6083917Y4571565D01*
G01X6088273Y4570630D01*
G01X6089945Y4570313D01*
G01X6094339Y4569587D01*
G01X6095995Y4569352D01*
G01X6100420Y4568832D01*
G01X6102093Y4568674D01*
G01X6106536Y4568362D01*
G01X6108190Y4568284D01*
G01X6112643Y4568177D01*
G01X6113501Y4568167D01*
G01X6298921D01*
G01X6299778Y4568177D01*
G01X6304231Y4568284D01*
G01X6305886Y4568362D01*
G01X6310328Y4568674D01*
G01X6312001Y4568832D01*
G01X6316426Y4569352D01*
G01X6318082Y4569587D01*
G01X6322476Y4570313D01*
G01X6324148Y4570630D01*
G01X6328504Y4571565D01*
G01X6330123Y4571952D01*
G01X6334428Y4573087D01*
G01X6336038Y4573552D01*
G01X6340287Y4574888D01*
G01X6341883Y4575432D01*
G01X6346064Y4576966D01*
G01X6347634Y4577584D01*
G01X6351739Y4579314D01*
G01X6353248Y4579992D01*
G01X6357269Y4581910D01*
G01X6358785Y4582677D01*
G01X6362709Y4584783D01*
G01X6364172Y4585613D01*
G01X6367995Y4587901D01*
G01X6369408Y4588793D01*
G01X6373119Y4591256D01*
G01X6374490Y4592213D01*
G01X6378081Y4594847D01*
G01X6379418Y4595877D01*
G01X6382258Y4598173D01*
G01X6422252D01*
G03X6492240Y4626426I0J100814D01*
G01Y4453152D01*
G01X6419708D01*
G03X6383894Y4417338I0J-35814D01*
G01Y4289086D01*
G03X6419708Y4253272I35814J0D01*
G01X6492240D01*
G01X5278700Y4057865D02*
G03X5314514Y4093679I0J35814D01*
G01Y4363678D01*
G03X5310388Y4380367I-35814J0D01*
G01Y4590274D01*
G03X5306460Y4617429I-95814J0D01*
G01X5443356D01*
G03X5479170Y4653243I0J35814D01*
G01Y4815244D01*
G03X5443356Y4851058I-35814J0D01*
G01X5294855D01*
G03X5259041Y4815244I0J-35814D01*
G01Y4681309D01*
G01X5180669Y4759681D01*
G01Y4815244D01*
G03X5144855Y4851058I-35814J0D01*
G01X4996354D01*
G03X4960540Y4815244I0J-35814D01*
G01Y4653243D01*
G03X4996354Y4617429I35814J0D01*
G01X5051918D01*
G01X5118760Y4550587D01*
G01Y4380367D01*
G03X5114634Y4363678I31688J-16689D01*
G01Y4093679D01*
G03X5150448Y4057865I35814J0D01*
G01X5278700D01*
G01X5346531Y4043600D02*
G03X5382345Y4007786I35814J0D01*
G01X5510597D01*
G03X5546411Y4043600I0J35814D01*
G01Y4160586D01*
G01X5552181D01*
G01X5555245Y4157522D01*
G03X5626100Y4094286I70855J8078D01*
G03X5697414Y4165600I0J71314D01*
G03X5634178Y4236455I-71314J0D01*
G01X5614766Y4255866D01*
G03X5587040Y4270965I-39466J-39466D01*
G01X5745302Y4429227D01*
G03X5763114Y4472229I-43002J43002D01*
G01Y4615634D01*
G03X5765114Y4627436I-33814J11801D01*
G01Y4684001D01*
G03X5761822Y4699000I-35814J0D01*
G03X5765114Y4713999I-32522J14999D01*
G01Y4770564D01*
G01Y4770565D01*
G03X5729300Y4806379I-35814J0D01*
G01X5675300D01*
G03X5639486Y4770565I0J-35814D01*
G01Y4770564D01*
G01Y4713999D01*
G03X5642778Y4699000I35814J0D01*
G03X5639486Y4684001I32522J-14999D01*
G01Y4627436D01*
G03X5641486Y4615634I35814J0D01*
G01Y4497419D01*
G01X5544578Y4400511D01*
G03X5510597Y4425014I-33981J-11311D01*
G01X5382345D01*
G03X5346531Y4389200I0J-35814D01*
G01Y4043600D01*
G01X6426187Y3986370D02*
G03X6462001Y4022184I0J35814D01*
G01Y4184185D01*
G03X6426187Y4219999I-35814J0D01*
G01X6277686D01*
G03X6241872Y4184185I0J-35814D01*
G01Y4022184D01*
G03X6277686Y3986370I35814J0D01*
G01X6426187D01*
G01X4752086Y725542D02*
G03X4702520Y752021I-53086J-39742D01*
G01X4668909Y785632D01*
G01Y962086D01*
G01X4800151D01*
G03X4799893Y957795I35556J-4291D01*
G01Y887795D01*
G03X4834686Y851995I35814J0D01*
G01X4766295Y783605D01*
G03X4752086Y749300I34305J-34305D01*
G01Y725542D01*
G01X4802886Y73660D02*
G01X4819027Y89800D01*
G01X4903996D01*
G03X4939810Y125614I0J35814D01*
G01Y163700D01*
G01X5037286D01*
G01Y156698D01*
G03X5073100Y120884I35814J0D01*
G01X5163100D01*
G03X5198914Y156698I0J35814D01*
G01Y236698D01*
G03X5182657Y266700I-35814J0D01*
G03X5198914Y296702I-19557J30002D01*
G01Y376702D01*
G03X5163100Y412516I-35814J0D01*
G01X5073100D01*
G03X5037286Y376702I0J-35814D01*
G01Y296702D01*
G03X5053543Y266700I35814J0D01*
G03X5046188Y260328I19557J-30002D01*
G01X4939810D01*
G01Y298413D01*
G03X4903996Y334227I-35814J0D01*
G01X4858088D01*
G01X4720129Y472186D01*
G01X5054600D01*
G03X5088905Y486395I0J48514D01*
G01X5176295Y573786D01*
G01X5275805D01*
G01X5336286Y513305D01*
G01Y498037D01*
G03X5317986Y452097I48514J-45940D01*
G03X5384800Y385283I66814J0D01*
G03X5451614Y452097I0J66814D01*
G03X5433314Y498037I-66814J0D01*
G01Y533400D01*
G03X5419105Y567705I-48514J0D01*
G01X5330205Y656605D01*
G03X5295900Y670814I-34305J-34305D01*
G01X5273323D01*
G01X5298757Y696248D01*
G03X5361714Y762000I-2857J65752D01*
G03X5295900Y827814I-65814J0D01*
G03X5230148Y764857I0J-65814D01*
G01X5216610Y751319D01*
G01X5170289D01*
G01X5254396Y835426D01*
G01X5353812D01*
G01X5511786Y677452D01*
G01Y584200D01*
G03X5526669Y548269I50814J0D01*
G01X5567250Y507688D01*
G03X5498692Y412173I32256J-95514D01*
G03X5599506Y311360I100814J0D01*
G03X5700320Y412173I0J100814D01*
G03X5699307Y426431I-100814J0D01*
G01X5776494Y349245D01*
G03X5842000Y289786I65506J6355D01*
G03X5907814Y355600I0J65814D01*
G03X5848355Y421106I-65814J0D01*
G01X5712831Y556631D01*
G03X5676900Y571514I-35931J-35931D01*
G01X5647148D01*
G01X5613414Y605248D01*
G01Y677424D01*
G01X5628269Y662569D01*
G03X5664200Y647686I35931J35931D01*
G01X5738650D01*
G03X5774581Y662569I0J50814D01*
G01X5861298Y749286D01*
G01X6062252D01*
G01X6148969Y662569D01*
G03X6184900Y647686I35931J35931D01*
G01X6248400D01*
G03X6284331Y662569I0J50814D01*
G01X6292398Y670636D01*
G03X6299200Y670286I6802J65964D01*
G03X6365514Y736600I0J66314D01*
G03X6299200Y802914I-66314J0D01*
G03X6236643Y758605I0J-66314D01*
G01X6227352Y749314D01*
G01X6205948D01*
G01X6119231Y836031D01*
G03X6083300Y850914I-35931J-35931D01*
G01X5840250D01*
G03X5804319Y836031I0J-50814D01*
G01X5780245Y811957D01*
G03X5715000Y866414I-65245J-11857D01*
G03X5697598Y864090I0J-66314D01*
G03X5708590Y871286I-33398J63010D01*
G01X5727700D01*
G03X5767166Y887634I0J55814D01*
G01X5906866Y1027334D01*
G03X5923214Y1066800I-39466J39466D01*
G01Y1206500D01*
G03X5906866Y1245966I-55814J0D01*
G01X5817966Y1334866D01*
G03X5778500Y1351214I-39466J-39466D01*
G01X5731575D01*
G03X5748214Y1397000I-54675J45786D01*
G03X5747521Y1406917I-71314J0D01*
G01X6212469Y941969D01*
G03X6248400Y927086I35931J35931D01*
G01X6344653D01*
G01X6492240Y779499D01*
G01Y522533D01*
G01X6299921Y330214D01*
G01X6172200D01*
G03X6136269Y315331I0J-50814D01*
G01X6036852Y215914D01*
G01X5986209D01*
G03X5943600Y231414I-42609J-50814D01*
G03X5877286Y165100I0J-66314D01*
G03X5943600Y98786I66314J0D01*
G03X5986209Y114286I0J66314D01*
G01X6057900D01*
G03X6093831Y129169I0J50814D01*
G01X6103670Y139008D01*
G01Y120169D01*
G03X6115039Y73660I100814J0D01*
G01X5568961D01*
G03X5580330Y120169I-89445J46509D01*
G01Y170169D01*
G03X5479517Y270982I-100814J0D01*
G03X5378703Y170169I0J-100814D01*
G01Y120169D01*
G03X5390072Y73660I100814J0D01*
G01X4802886D01*
G01X5981894Y269754D02*
G03X6045634Y319175I0J65814D01*
G03X6084494Y311385I38860J93023D01*
G03X6185308Y412199I0J100814D01*
G03X6084494Y513013I-100814J0D01*
G03X5983680Y412199I0J-100814D01*
G03X5984267Y401339I100814J0D01*
G01X5981894Y401381D01*
G03X5916080Y335568I0J-65814D01*
G03X5981894Y269754I65814J0D01*
G01X4892030Y2356071D02*
G03X4892283Y2360156I-66030J6129D01*
G01X5100012Y2567886D01*
G01X5232400D01*
G03X5266563Y2582037I0J48314D01*
G01X5330063Y2645537D01*
G03X5344214Y2679700I-34163J34163D01*
G01Y2723176D01*
G03X5353284Y2735363I-48314J45424D01*
G01Y2672800D01*
G03X5389098Y2636986I35814J0D01*
G01X5416995D01*
G01X5225557Y2445548D01*
G03X5191486Y2387600I32243J-57948D01*
G03X5198857Y2357214I66314J0D01*
G01X4902200D01*
G03X4892030Y2356071I0J-45814D01*
G01X4981504Y886714D02*
G01X4981520Y887795D01*
G01Y957795D01*
G03X4981262Y962086I-35814J0D01*
G01X4995153D01*
G03X4994895Y957795I35556J-4291D01*
G01Y887795D01*
G01X4994911Y886714D01*
G01X4981504D01*
G01X5080000Y2664514D02*
G03X5067516Y2662873I0J-48314D01*
G01X5085689Y2681046D01*
G03X5089490Y2685392I-30628J30628D01*
G03X5092327Y2685279I2836J35702D01*
G01X5172326D01*
G03X5208140Y2721093I0J35814D01*
G01Y2790519D01*
G01X5233313D01*
G03X5229586Y2768600I62587J-21919D01*
G03X5247586Y2723176I66314J0D01*
G01Y2699712D01*
G01X5212388Y2664514D01*
G01X5080000D01*
G01X5126523Y915232D02*
G01X5126523Y957795D01*
G03X5126265Y962086I-35814J0D01*
G01X5173377D01*
G01X5126523Y915232D01*
G01X6060864Y1649327D02*
G01X6002114Y1708077D01*
G01Y1771723D01*
G01X6082934Y1852543D01*
G03X6136914Y1917700I-12334J65157D01*
G03X6070600Y1984014I-66314J0D01*
G03X6004286Y1917700I0J-66314D01*
G03X6005562Y1904753I66314J0D01*
G01X5923905Y1823095D01*
G03X5910486Y1790700I32395J-32395D01*
G01Y1752975D01*
G01X5839041Y1824420D01*
G01Y1920673D01*
G03X5824158Y1956604I-50814J0D01*
G01X5656113Y2124649D01*
G03X5620182Y2139532I-35931J-35931D01*
G01X5523929D01*
G01X5397875Y2265586D01*
G01X5590856D01*
G03X5638800Y2245086I47944J45814D01*
G03X5705114Y2311400I0J66314D01*
G03X5638800Y2377714I-66314J0D01*
G03X5590856Y2357214I0J-66314D01*
G01X5316743D01*
G03X5324114Y2387600I-58943J30386D01*
G03X5320050Y2410459I-66314J0D01*
G01X5546577Y2636986D01*
G01X5609102D01*
G03X5616044Y2637665I0J35814D01*
G01X5619105Y2634605D01*
G03X5651500Y2621186I32395J32395D01*
G01X5702300D01*
G03X5719284Y2624450I0J45814D01*
G03X5778500Y2587986I59216J29850D01*
G01X5780006Y2588003D01*
G01X5809605Y2558405D01*
G03X5842000Y2544986I32395J32395D01*
G01X6469286D01*
G01Y1790700D01*
G03X6482705Y1758305I45814J0D01*
G01X6492240Y1748769D01*
G01Y1745722D01*
G01X5730260Y2507702D01*
G03X5664200Y2568214I-66060J-5802D01*
G03X5597886Y2501900I0J-66314D01*
G03X5658398Y2435840I66314J0D01*
G01X5883576Y2210663D01*
G03X5842000Y2225314I-41576J-51663D01*
G03X5775686Y2159000I0J-66314D01*
G03X5842000Y2092686I66314J0D01*
G03X5908314Y2159000I0J66314D01*
G03X5893663Y2200576I-66314J0D01*
G01X6265424Y1828814D01*
G01X6240209D01*
G03X6197600Y1844314I-42609J-50814D01*
G03X6131286Y1778000I0J-66314D01*
G03X6144210Y1738668I66314J0D01*
G03X6121400Y1742714I-22810J-62268D01*
G03X6055086Y1676400I0J-66314D01*
G03X6060864Y1649327I66314J0D01*
G01X5445917Y3399093D02*
G01X5445917Y3442494D01*
G03X5445318Y3449020I-35814J0D01*
G01X5483744Y3410594D01*
G01Y3399973D01*
G01X5453805D01*
G03X5445917Y3399093I0J-35814D01*
G01X5683470Y858439D02*
G03X5670584Y849342I31530J-58339D01*
G01X5664140Y855786D01*
G01X5664200D01*
G03X5683470Y858439I0J71314D01*
G01X6383894Y4803202D02*
G01X6381277Y4800585D01*
G01X6379418Y4802087D01*
G01X6378081Y4803117D01*
G01X6374490Y4805751D01*
G01X6373119Y4806708D01*
G01X6369408Y4809172D01*
G01X6367995Y4810063D01*
G01X6364172Y4812352D01*
G01X6362709Y4813182D01*
G01X6358785Y4815287D01*
G01X6357269Y4816055D01*
G01X6353248Y4817973D01*
G01X6351739Y4818650D01*
G01X6347634Y4820380D01*
G01X6346064Y4820999D01*
G01X6341883Y4822533D01*
G01X6340287Y4823076D01*
G01X6336038Y4824412D01*
G01X6334428Y4824877D01*
G01X6330123Y4826012D01*
G01X6328504Y4826399D01*
G01X6324148Y4827334D01*
G01X6322476Y4827651D01*
G01X6318082Y4828378D01*
G01X6316426Y4828612D01*
G01X6312002Y4829133D01*
G01X6312001D01*
G01X6310328Y4829290D01*
G01X6305886Y4829602D01*
G01X6304231Y4829680D01*
G01X6299778Y4829787D01*
G01X6298921Y4829797D01*
G01X6113501D01*
G01X6112643Y4829787D01*
G01X6108190Y4829680D01*
G01X6106536Y4829602D01*
G01X6102093Y4829290D01*
G01X6100420Y4829133D01*
G01X6095995Y4828612D01*
G01X6094339Y4828378D01*
G01X6089945Y4827651D01*
G01X6088273Y4827334D01*
G01X6083917Y4826399D01*
G01X6082298Y4826012D01*
G01X6077993Y4824877D01*
G01X6076384Y4824412D01*
G01X6072134Y4823076D01*
G01X6070538Y4822533D01*
G01X6066357Y4820999D01*
G01X6064787Y4820380D01*
G01X6060682Y4818650D01*
G01X6059173Y4817973D01*
G01X6055152Y4816055D01*
G01X6053636Y4815287D01*
G01X6049712Y4813182D01*
G01X6049464Y4813047D01*
G01X6049541Y4815399D01*
G01Y4882600D01*
G03X6022023Y4917440I-35814J0D01*
G01X6391347D01*
G03X6383894Y4895569I28360J-21871D01*
G01Y4803202D01*
G01X6463437Y1076024D02*
G01X6449431Y1090031D01*
G03X6413500Y1104914I-35931J-35931D01*
G01X6353486D01*
G03X6365514Y1143000I-54286J38086D01*
G03X6345014Y1190944I-66314J0D01*
G01Y1346200D01*
G03X6331595Y1378595I-45814J0D01*
G01X6094327Y1615864D01*
G03X6115598Y1610340I27073J60536D01*
G01X6464286Y1261652D01*
G01Y1160209D01*
G03X6448786Y1117600I50814J-42609D01*
G03X6463437Y1076024I66314J0D01*
G01X6377569Y103769D02*
G01X6407678Y73660D01*
G01X6293928D01*
G03X6305297Y120169I-89445J46509D01*
G01Y170169D01*
G03X6286647Y228586I-100814J0D01*
G01X6320969D01*
G03X6347398Y236000I0J50814D01*
G03X6362686Y198691I66102J5300D01*
G01Y139700D01*
G03X6377569Y103769I50814J0D01*
G01X6492240Y255704D02*
G03X6479811Y240650I48260J-52504D01*
G01X6479814Y241300D01*
G03X6420658Y307227I-66314J0D01*
G01X6492240Y378809D01*
G01Y255704D01*
G01X6479986Y152400D02*
G03X6480518Y144544I58314J0D01*
G01X6464314Y160748D01*
G01Y198691D01*
G03X6469218Y205341I-50814J42609D01*
G01X6469186Y203200D01*
G03X6481099Y163738I71314J0D01*
G03X6479986Y152400I57201J-11338D01*
G01X6492240Y1055351D02*
G01X6492240Y1047222D01*
G01X6473524Y1065937D01*
G03X6492240Y1055351I41576J51663D01*
G01X6601460Y147414D02*
G01X6601460Y483851D01*
G03X6644914Y546100I-22860J62249D01*
G03X6639136Y573173I-66314J0D01*
G01X6951886Y260423D01*
G01Y215564D01*
G01Y190094D01*
G03X6909206Y147414I20414J-63094D01*
G01X6601460D01*
G01X8600440Y4955286D02*
G01X8600440Y48514D01*
G01X7638776D01*
G01X7655931Y65669D01*
G03X7670814Y101600I-35931J35931D01*
G01Y423452D01*
G01X7702002Y454640D01*
G03X7762514Y520700I-5802J66060D01*
G03X7696200Y587014I-66314J0D01*
G03X7630140Y526502I0J-66314D01*
G01X7584069Y480431D01*
G03X7569186Y444500I35931J-35931D01*
G01Y122648D01*
G01X7555024Y108486D01*
G01X7035977D01*
G03X7038614Y127000I-63677J18514D01*
G03X7036998Y141550I-66314J0D01*
G03X7043514Y165100I-39298J23550D01*
G01Y169750D01*
G01X7416800D01*
G03X7419879Y169853I0J45814D01*
G03X7467600Y149586I47721J46047D01*
G03X7533914Y215900I0J66314D01*
G03X7467600Y282214I-66314J0D01*
G03X7419656Y261714I0J-66314D01*
G01X7417136D01*
G03X7411595Y261378I0J-45814D01*
G01X7043514D01*
G01Y279400D01*
G03X7030095Y311795I-45814J0D01*
G01X6948205Y393686D01*
G01X7162800D01*
G03X7198731Y408569I0J50814D01*
G01X7575002Y784840D01*
G03X7635514Y850900I-5802J66060D01*
G03X7569200Y917214I-66314J0D01*
G03X7562093Y916832I0J-66314D01*
G03X7567031Y921169I-30993J40268D01*
G01X7592431Y946569D01*
G03X7607314Y982500I-35931J35931D01*
G01Y1467779D01*
G01X7658086Y1417007D01*
G01Y723900D01*
G03X7672969Y687969I50814J0D01*
G01X7774569Y586369D01*
G03X7810500Y571486I35931J35931D01*
G01X7937500D01*
G03X7973431Y586369I0J50814D01*
G01X8024231Y637169D01*
G03X8039114Y673100I-35931J35931D01*
G01Y791752D01*
G01X8314148Y1066786D01*
G01X8342316D01*
G03X8407400Y1013186I65084J12714D01*
G03X8473714Y1079500I0J66314D01*
G03X8413202Y1145560I-66314J0D01*
G01X8405231Y1153531D01*
G03X8369300Y1168414I-35931J-35931D01*
G01X8293100D01*
G03X8257169Y1153531I0J-50814D01*
G01X7983451Y879813D01*
G01Y1242375D01*
G03X7985814Y1257300I-45951J14925D01*
G01Y1300776D01*
G03X8003814Y1346200I-48314J45424D01*
G03X7937500Y1412514I-66314J0D01*
G03X7912114Y1407463I0J-66314D01*
G01Y1727200D01*
G03X7897231Y1763131I-50814J0D01*
G01X7508260Y2152102D01*
G03X7501347Y2176286I-66060J-5802D01*
G01X7772152D01*
G01X7787269Y2161169D01*
G03X7823200Y2146286I35931J35931D01*
G01X7912100D01*
G03X7948031Y2161169I0J50814D01*
G01X8189331Y2402469D01*
G03X8204214Y2438400I-35931J35931D01*
G01Y2675191D01*
G03X8219714Y2717800I-50814J42609D01*
G03X8153400Y2784114I-66314J0D01*
G03X8087086Y2717800I0J-66314D01*
G03X8102586Y2675191I66314J0D01*
G01Y2459448D01*
G01X7976725Y2333586D01*
G03X7861300Y2439914I-115425J-9486D01*
G03X7745486Y2324100I0J-115814D01*
G03X7755094Y2277914I115814J0D01*
G01X7437100D01*
G03X7401170Y2263031I0J-50814D01*
G01X7376214Y2238075D01*
G01Y2316788D01*
G01X7507744Y2448317D01*
G03X7572014Y2514600I-2044J66283D01*
G03X7566714Y2540578I-66314J0D01*
G01Y2939076D01*
G03X7584714Y2984500I-48314J45424D01*
G03X7518400Y3050814I-66314J0D01*
G03X7500714Y3048412I0J-66314D01*
G01Y3492500D01*
G03X7487295Y3524895I-45814J0D01*
G01X7394197Y3617994D01*
G01X7394214Y3619500D01*
G03X7327900Y3685814I-66314J0D01*
G03X7261586Y3619500I0J-66314D01*
G03X7327900Y3553186I66314J0D01*
G01X7329406Y3553203D01*
G01X7409086Y3473523D01*
G01Y2664144D01*
G03X7388586Y2616200I45814J-47944D01*
G03X7449683Y2550091I66314J0D01*
G03X7439417Y2516644I56017J-35491D01*
G01X7320214Y2397440D01*
G01Y3314700D01*
G03X7303866Y3354166I-55814J0D01*
G01X7189488Y3468545D01*
G03X7151904Y3514877I-64788J-14145D01*
G01X7209663Y3572637D01*
G03X7223814Y3606800I-34163J34163D01*
G01Y3644900D01*
G03X7209663Y3679063I-48314J0D01*
G01X6804714Y4084012D01*
G01Y4710648D01*
G03X6819900Y4708886I15186J64552D01*
G03X6865324Y4726886I0J66314D01*
G01X6876088D01*
G01X7109217Y4493756D01*
G03X7175500Y4429486I66283J2044D01*
G03X7241814Y4495800I0J66314D01*
G03X7177544Y4562083I-66314J0D01*
G01X6930263Y4809363D01*
G03X6896100Y4823514I-34163J-34163D01*
G01X6865324D01*
G03X6819900Y4841514I-45424J-48314D01*
G03X6804714Y4839752I0J-66314D01*
G01Y4844088D01*
G01X6827212Y4866586D01*
G01X7952686D01*
G01Y4635500D01*
G03X7966837Y4601337I48314J0D01*
G01X8036317Y4531856D01*
G03X8102600Y4467586I66283J2044D01*
G03X8168914Y4533900I0J66314D01*
G03X8104644Y4600183I-66314J0D01*
G01X8049314Y4655512D01*
G01Y4889900D01*
G03X8035163Y4924063I-48314J0D01*
G01X8010163Y4949063D01*
G03X8002518Y4955286I-34163J-34163D01*
G01X8600440D01*
G01X8036477Y142201D02*
G03X8072291Y106387I35814J0D01*
G01X8220793D01*
G03X8256607Y142201I0J35814D01*
G01Y273874D01*
G01X8350895Y368163D01*
G03X8364314Y400558I-32395J32395D01*
G01Y421956D01*
G03X8384814Y469900I-45814J47944D01*
G03X8318500Y536214I-66314J0D01*
G01X8316994Y536197D01*
G01X8269307Y583884D01*
G01Y708699D01*
G03X8233493Y744513I-35814J0D01*
G01X8211499D01*
G01X8250671Y783685D01*
G01X8262871D01*
G03X8297398Y757386I34527J9515D01*
G01X8377398D01*
G03X8407400Y773643I0J35814D01*
G03X8437402Y757386I30002J19557D01*
G01X8517402D01*
G03X8553216Y793200I0J35814D01*
G01Y883200D01*
G03X8517402Y919014I-35814J0D01*
G01X8437402D01*
G03X8407400Y902757I0J-35814D01*
G03X8377398Y919014I-30002J-19557D01*
G01X8297398D01*
G03X8261584Y883200I0J-35814D01*
G01Y875313D01*
G01X8231694D01*
G03X8199299Y861895I0J-45814D01*
G01X8126847Y789442D01*
G03X8113428Y757047I32395J-32395D01*
G01Y744513D01*
G01X8084991D01*
G03X8049177Y708699I0J-35814D01*
G01Y535901D01*
G03X8084991Y500087I35814J0D01*
G01X8223523D01*
G01X8252203Y471406D01*
G01X8252186Y469900D01*
G03X8272686Y421956I66314J0D01*
G01Y419535D01*
G01X8203965Y350813D01*
G01X8072291D01*
G03X8036477Y314999I0J-35814D01*
G01Y142201D01*
G01X8354993Y142201D02*
G03X8390807Y106387I35814J0D01*
G01X8539309D01*
G03X8575123Y142201I0J35814D01*
G01Y314999D01*
G03X8539309Y350813I-35814J0D01*
G01X8390807D01*
G03X8354993Y314999I0J-35814D01*
G01Y142201D01*
G01X8552009Y500087D02*
G03X8587823Y535901I0J35814D01*
G01Y708699D01*
G03X8552009Y744513I-35814J0D01*
G01X8403507D01*
G03X8367693Y708699I0J-35814D01*
G01Y535901D01*
G03X8403507Y500087I35814J0D01*
G01X8552009D01*
G01X7861300Y2462286D02*
G03X7977114Y2578100I0J115814D01*
G03X7861300Y2693914I-115814J0D01*
G03X7745486Y2578100I0J-115814D01*
G03X7861300Y2462286I115814J0D01*
G01X7503140Y856702D02*
G01X7141752Y495314D01*
G01X6920148D01*
G01X6871944Y543518D01*
G03X6877050Y547689I-39344J53382D01*
G03X6921500Y530586I44450J49211D01*
G03X6987814Y596900I0J66314D01*
G03X6962316Y649165I-66314J0D01*
G01Y1062217D01*
G03X6966498Y1061716I9984J65558D01*
G01X6984986Y1043228D01*
G01Y1011615D01*
G01Y711200D01*
G03X7035800Y660386I50814J0D01*
G01X7038286Y660447D01*
G01Y642324D01*
G03X7020286Y596900I48314J-45424D01*
G03X7086600Y530586I66314J0D01*
G03X7152914Y596900I0J66314D01*
G03X7134914Y642324I-66314J0D01*
G01Y894388D01*
G01X7176186Y935660D01*
G03X7172686Y914400I62814J-21260D01*
G03X7239000Y848086I66314J0D01*
G03X7281609Y863586I0J66314D01*
G01X7467600D01*
G03X7503531Y878469I0J50814D01*
G01X7517537Y892476D01*
G03X7503140Y856702I51663J-41576D01*
G01X7532773Y906314D02*
G03X7527624Y902563I36427J-55414D01*
G01X7531348Y906287D01*
G01X7532773Y906314D01*
G54D11*
G01X5369105Y4734244D02*
G01X5469264Y4734244D01*
G01X5369105Y4734244D02*
G01X5268947Y4734244D01*
G01X5369105Y4734244D02*
G01X5369105Y4627335D01*
G01X5369105Y4734244D02*
G01X5369105Y4841152D01*
G01X4461777Y4849000D02*
G01X4566435Y4849000D01*
G01X4461777Y4849000D02*
G01X4357119Y4849000D01*
G01X4461777Y4849000D02*
G01X4461777Y4789491D01*
G01X5702300Y4742282D02*
G01X5702300Y4796473D01*
G01X5702300Y4742282D02*
G01X5755208Y4742282D01*
G01X5702300Y4742282D02*
G01X5649392Y4742282D01*
G01X5934977Y4849000D02*
G01X6039635Y4849000D01*
G01X5934977Y4849000D02*
G01X5830319Y4849000D01*
G01X5934977Y4849000D02*
G01X5934977Y4789491D01*
G01X3099074Y4724159D02*
G01X3044883Y4724159D01*
G01X3099074Y4724159D02*
G01X3099074Y4777067D01*
G01X3099074Y4724159D02*
G01X3099074Y4671251D01*
G01X2895600Y4778908D02*
G01X2895600Y4844321D01*
G01X2895600Y4778908D02*
G01X2842692Y4778908D01*
G01X2895600Y4778908D02*
G01X2948508Y4778908D01*
G01X2374900Y4781702D02*
G01X2374900Y4847610D01*
G01X2374900Y4781702D02*
G01X2445808Y4781702D01*
G01X2374900Y4781702D02*
G01X2303992Y4781702D01*
G01X2628900Y4794402D02*
G01X2628900Y4860310D01*
G01X2628900Y4794402D02*
G01X2699808Y4794402D01*
G01X2628900Y4794402D02*
G01X2557992Y4794402D01*
G01X2108200Y4832858D02*
G01X2108200Y4732699D01*
G01X2108200Y4832858D02*
G01X2220507Y4832858D01*
G01X2108200Y4832858D02*
G01X1995893Y4832858D01*
G01X2414270Y3107944D02*
G01X2550178Y3107944D01*
G01X2414270Y3107944D02*
G01X2278362Y3107944D01*
G01X2414270Y3437890D02*
G01X2550178Y3437890D01*
G01X2414270Y3437890D02*
G01X2278362Y3437890D01*
G01X2414270Y3547872D02*
G01X2550178Y3547872D01*
G01X2414270Y3547872D02*
G01X2278362Y3547872D01*
G01X5396103Y3399993D02*
G01X5396103Y3468402D01*
G01X5396103Y3399993D02*
G01X5356195Y3399993D01*
G01X5396103Y3399993D02*
G01X5436011Y3399993D01*
G01X5148682Y3556000D02*
G01X5202873Y3556000D01*
G01X5148682Y3556000D02*
G01X5148682Y3608908D01*
G01X6351937Y4103185D02*
G01X6452095Y4103185D01*
G01X6351937Y4103185D02*
G01X6251778Y4103185D01*
G01X6351937Y4103185D02*
G01X6351937Y3996276D01*
G01X6351937Y4103185D02*
G01X6351937Y4210093D01*
G01X5316118Y3556000D02*
G01X5261928Y3556000D01*
G01X5316118Y3556000D02*
G01X5316118Y3608908D01*
G01X5316118Y3556000D02*
G01X5316118Y3503092D01*
G01X2414270Y3767836D02*
G01X2550178Y3767836D01*
G01X2414270Y3767836D02*
G01X2414270Y3825244D01*
G01X3102356Y4053840D02*
G01X3102356Y3919982D01*
G01X3102356Y4053840D02*
G01X3102356Y4187698D01*
G01X2992374Y4053840D02*
G01X2992374Y3919982D01*
G01X5132327Y2766093D02*
G01X5198234Y2766093D01*
G01X5132327Y2766093D02*
G01X5132327Y2695185D01*
G01X4011930Y2996946D02*
G01X4147838Y2996946D01*
G01X4011930Y2996946D02*
G01X3876022Y2996946D01*
G01X2705494Y1524940D02*
G01X2705494Y1442132D01*
G01X2705494Y1524940D02*
G01X2705494Y1607748D01*
G01X2991358Y2270760D02*
G01X2991358Y2134852D01*
G01X2991358Y2270760D02*
G01X2991358Y2406668D01*
G01X2771394Y2270760D02*
G01X2713986Y2270760D01*
G01X2771394Y2270760D02*
G01X2771394Y2134852D01*
G01X2771394Y2270760D02*
G01X2771394Y2406668D01*
G01X3651250Y2270760D02*
G01X3708658Y2270760D01*
G01X3651250Y2270760D02*
G01X3651250Y2134852D01*
G01X3651250Y2270760D02*
G01X3651250Y2406668D01*
G01X5429098Y2717800D02*
G01X5363190Y2717800D01*
G01X5118100Y336702D02*
G01X5118100Y402610D01*
G01X5118100Y336702D02*
G01X5047192Y336702D01*
G01X5118100Y336702D02*
G01X5189008Y336702D01*
G01X2207501Y176860D02*
G01X2268409Y176860D01*
G01X2207501Y176860D02*
G01X2146593Y176860D01*
G01X2207501Y176860D02*
G01X2207501Y322768D01*
G01X2207501Y1376858D02*
G01X2268409Y1376858D01*
G01X2207501Y1376858D02*
G01X2146593Y1376858D01*
G01X2207501Y1376858D02*
G01X2207501Y1230950D01*
G01X2207501Y1376858D02*
G01X2207501Y1522766D01*
G01X4578858Y1562100D02*
G01X4679017Y1562100D01*
G01X4578858Y1562100D02*
G01X4478699Y1562100D01*
G01X4578858Y1562100D02*
G01X4578858Y1449793D01*
G01X4578858Y1562100D02*
G01X4578858Y1674407D01*
G01X4890707Y922795D02*
G01X4809799Y922795D01*
G01X4890707Y922795D02*
G01X4971614Y922795D01*
G01X5060709Y922795D02*
G01X5004801Y922795D01*
G01X5060709Y922795D02*
G01X5116617Y922795D01*
G01X3803142Y1295400D02*
G01X3702983Y1295400D01*
G01X3803142Y1295400D02*
G01X3803142Y1407707D01*
G01X3507499Y1376858D02*
G01X3568407Y1376858D01*
G01X3507499Y1376858D02*
G01X3446591Y1376858D01*
G01X3507499Y1376858D02*
G01X3507499Y1230950D01*
G01X3763965Y167917D02*
G01X3694857Y167917D01*
G01X3763965Y167917D02*
G01X3833073Y167917D01*
G01X3507499Y176860D02*
G01X3446591Y176860D01*
G01X3507499Y176860D02*
G01X3507499Y322768D01*
G01X4511229Y212014D02*
G01X4611388Y212014D01*
G01X4511229Y212014D02*
G01X4411071Y212014D01*
G01X4511229Y212014D02*
G01X4511229Y324321D01*
G01X5479517Y145169D02*
G01X5388609Y145169D01*
G01X5479517Y145169D02*
G01X5570424Y145169D01*
G01X5479517Y145169D02*
G01X5479517Y261076D01*
G01X5599506Y412173D02*
G01X5508598Y412173D01*
G01X5599506Y412173D02*
G01X5690414Y412173D01*
G01X5599506Y412173D02*
G01X5599506Y321266D01*
G01X6204483Y145169D02*
G01X6295391Y145169D01*
G01X6084494Y412199D02*
G01X5993586Y412199D01*
G01X6084494Y412199D02*
G01X6175402Y412199D01*
G01X6084494Y412199D02*
G01X6084494Y503107D01*
G01X6084494Y412199D02*
G01X6084494Y321291D01*
G01X8465058Y228600D02*
G01X8565217Y228600D01*
G01X8465058Y228600D02*
G01X8364899Y228600D01*
G01X8465058Y228600D02*
G01X8465058Y116293D01*
G01X8465058Y228600D02*
G01X8465058Y340907D01*
G01X8477402Y838200D02*
G01X8543310Y838200D01*
G01X8477402Y838200D02*
G01X8477402Y909108D01*
G01X8477402Y838200D02*
G01X8477402Y767292D01*
G01X8477758Y622300D02*
G01X8377599Y622300D01*
G01X8477758Y622300D02*
G01X8577917Y622300D01*
G01X8477758Y622300D02*
G01X8477758Y734607D01*
G01X8477758Y622300D02*
G01X8477758Y509993D01*
G04 Copper End*

G04 Pad Start*
G54D12*
G01X6204483Y145169D03*
G01X5479517Y145169D03*
G54D13*
G01X5599506Y412173D03*
G01X6084494Y412199D03*
G54D14*
G01X7861300Y2324100D03*
G01X7861300Y2578100D03*
G54D16*
G01X3942105Y570103D03*
G01X3942105Y800100D03*
G01X3942105Y1030097D03*
G54D17*
G01X4516095Y800100D03*
G54D18*
G01X4190136Y215900D03*
G01X4039464Y215900D03*
G54D19*
G01X3763965Y318590D03*
G01X3763965Y167917D03*
G54D20*
G01X5321097Y3175000D03*
G54D21*
G01X5396306Y2950007D03*
G54D22*
G01X5496103Y2999994D03*
G01X5496103Y3050007D03*
G01X5496103Y3099994D03*
G01X5496103Y3150006D03*
G01X5496103Y3199994D03*
G01X5496103Y3250006D03*
G01X5496306Y3300146D03*
G01X5496306Y3350158D03*
G54D21*
G01X5396103Y3399993D03*
G01X5246091Y3399993D03*
G54D22*
G01X5146294Y3350158D03*
G01X5146294Y3300146D03*
G01X5146294Y3250159D03*
G01X5146294Y3200146D03*
G01X5146294Y3150159D03*
G01X5146294Y3100146D03*
G01X5146294Y3050159D03*
G01X5146294Y3000146D03*
G54D21*
G01X5246091Y2950007D03*
G54D23*
G01X4992322Y2766093D03*
G01X5132327Y2766093D03*
G54D24*
G01X5569102Y2717800D03*
G01X5429098Y2717800D03*
G54D25*
G01X5062118Y3556000D03*
G01X5148682Y3556000D03*
G54D26*
G01X5402682Y3556000D03*
G01X5316118Y3556000D03*
G54D27*
G01X5702300Y4655718D03*
G01X5702300Y4742282D03*
G54D28*
G01X5934977Y4549000D03*
G01X5934977Y4849000D03*
G36*
G01X6298921Y4793983D02*
G01X6113501Y4793983D01*
G01X6109048Y4793877D01*
G01X6104606Y4793564D01*
G01X6100181Y4793044D01*
G01X6095787Y4792317D01*
G01X6091431Y4791382D01*
G01X6087125Y4790247D01*
G01X6082876Y4788911D01*
G01X6078695Y4787377D01*
G01X6074590Y4785647D01*
G01X6070570Y4783729D01*
G01X6066645Y4781624D01*
G01X6062823Y4779335D01*
G01X6059112Y4776871D01*
G01X6055520Y4774237D01*
G01X6052058Y4771438D01*
G01X6048728Y4768477D01*
G01X6045543Y4765365D01*
G01X6042505Y4762106D01*
G01X6039625Y4758710D01*
G01X6036907Y4755182D01*
G01X6034357Y4751530D01*
G01X6031982Y4747763D01*
G01X6029785Y4743887D01*
G01X6027771Y4739914D01*
G01X6025947Y4731984D01*
G01X5856214D01*
G01Y4665985D01*
G01X6025947D01*
G01X6027771Y4658050D01*
G01X6029785Y4654078D01*
G01X6031982Y4650202D01*
G01X6034357Y4646435D01*
G01X6036907Y4642782D01*
G01X6039625Y4639254D01*
G01X6042505Y4635858D01*
G01X6045543Y4632599D01*
G01X6048728Y4629488D01*
G01X6052058Y4626526D01*
G01X6055520Y4623727D01*
G01X6059112Y4621093D01*
G01X6062823Y4618629D01*
G01X6066645Y4616341D01*
G01X6070570Y4614235D01*
G01X6074590Y4612317D01*
G01X6078695Y4610588D01*
G01X6082876Y4609054D01*
G01X6087125Y4607717D01*
G01X6091431Y4606582D01*
G01X6095787Y4605647D01*
G01X6100181Y4604921D01*
G01X6104606Y4604400D01*
G01X6109048Y4604088D01*
G01X6113501Y4603981D01*
G01X6298921D01*
G01X6303373Y4604088D01*
G01X6307816Y4604400D01*
G01X6312240Y4604921D01*
G01X6316635Y4605647D01*
G01X6320991Y4606582D01*
G01X6325296Y4607717D01*
G01X6329545Y4609054D01*
G01X6333726Y4610588D01*
G01X6337831Y4612317D01*
G01X6341852Y4614235D01*
G01X6345776Y4616341D01*
G01X6349599Y4618629D01*
G01X6353310Y4621093D01*
G01X6356901Y4623727D01*
G01X6360363Y4626526D01*
G01X6363693Y4629488D01*
G01X6366878Y4632599D01*
G01X6369916Y4635858D01*
G01X6372797Y4639254D01*
G01X6375514Y4642782D01*
G01X6378064Y4646435D01*
G01X6380439Y4650202D01*
G01X6382636Y4654078D01*
G01X6384651Y4658050D01*
G01X6386474Y4662114D01*
G01X6388108Y4666257D01*
G01X6389543Y4670473D01*
G01X6390780Y4674753D01*
G01X6391813Y4679086D01*
G01X6392644Y4683460D01*
G01X6393269Y4687872D01*
G01X6393685Y4692307D01*
G01X6393894Y4696755D01*
G01Y4701210D01*
G01X6393685Y4705657D01*
G01X6393269Y4710092D01*
G01X6392644Y4714504D01*
G01X6391813Y4718878D01*
G01X6390780Y4723211D01*
G01X6389543Y4727491D01*
G01X6388108Y4731708D01*
G01X6386474Y4735850D01*
G01X6384651Y4739914D01*
G01X6382636Y4743887D01*
G01X6380439Y4747763D01*
G01X6378064Y4751530D01*
G01X6375514Y4755182D01*
G01X6372797Y4758710D01*
G01X6369916Y4762106D01*
G01X6366878Y4765365D01*
G01X6363693Y4768477D01*
G01X6360363Y4771438D01*
G01X6356901Y4774237D01*
G01X6353310Y4776871D01*
G01X6349599Y4779335D01*
G01X6345776Y4781624D01*
G01X6341852Y4783729D01*
G01X6337831Y4785647D01*
G01X6333726Y4787377D01*
G01X6329545Y4788911D01*
G01X6325296Y4790247D01*
G01X6320991Y4791382D01*
G01X6316635Y4792317D01*
G01X6312240Y4793044D01*
G01X6307816Y4793564D01*
G01X6303373Y4793877D01*
G01X6298921Y4793983D01*
G37*
G54D29*
G01X6059729Y4216400D03*
G01X5446471Y4216400D03*
G54D26*
G01X3185638Y4724159D03*
G01X3099074Y4724159D03*
G54D28*
G01X4461777Y4549000D03*
G01X4461777Y4849000D03*
G36*
G01X4825721Y4793983D02*
G01X4640301Y4793983D01*
G01X4635848Y4793877D01*
G01X4631406Y4793564D01*
G01X4626981Y4793044D01*
G01X4622587Y4792317D01*
G01X4618231Y4791382D01*
G01X4613925Y4790247D01*
G01X4609676Y4788911D01*
G01X4605495Y4787377D01*
G01X4601390Y4785647D01*
G01X4597370Y4783729D01*
G01X4593445Y4781624D01*
G01X4589623Y4779335D01*
G01X4585912Y4776871D01*
G01X4582320Y4774237D01*
G01X4578858Y4771438D01*
G01X4575528Y4768477D01*
G01X4572343Y4765365D01*
G01X4569305Y4762106D01*
G01X4566425Y4758710D01*
G01X4563707Y4755182D01*
G01X4561157Y4751530D01*
G01X4558782Y4747763D01*
G01X4556585Y4743887D01*
G01X4554571Y4739914D01*
G01X4552747Y4731984D01*
G01X4383014D01*
G01Y4665985D01*
G01X4552747D01*
G01X4554571Y4658050D01*
G01X4556585Y4654078D01*
G01X4558782Y4650202D01*
G01X4561157Y4646435D01*
G01X4563707Y4642782D01*
G01X4566425Y4639254D01*
G01X4569305Y4635858D01*
G01X4572343Y4632599D01*
G01X4575528Y4629488D01*
G01X4578858Y4626526D01*
G01X4582320Y4623727D01*
G01X4585912Y4621093D01*
G01X4589623Y4618629D01*
G01X4593445Y4616341D01*
G01X4597370Y4614235D01*
G01X4601390Y4612317D01*
G01X4605495Y4610588D01*
G01X4609676Y4609054D01*
G01X4613925Y4607717D01*
G01X4618231Y4606582D01*
G01X4622587Y4605647D01*
G01X4626981Y4604921D01*
G01X4631406Y4604400D01*
G01X4635848Y4604088D01*
G01X4640301Y4603981D01*
G01X4825721D01*
G01X4830173Y4604088D01*
G01X4834616Y4604400D01*
G01X4839040Y4604921D01*
G01X4843435Y4605647D01*
G01X4847791Y4606582D01*
G01X4852096Y4607717D01*
G01X4856345Y4609054D01*
G01X4860526Y4610588D01*
G01X4864631Y4612317D01*
G01X4868652Y4614235D01*
G01X4872576Y4616341D01*
G01X4876399Y4618629D01*
G01X4880110Y4621093D01*
G01X4883701Y4623727D01*
G01X4887163Y4626526D01*
G01X4890493Y4629488D01*
G01X4893678Y4632599D01*
G01X4896716Y4635858D01*
G01X4899597Y4639254D01*
G01X4902314Y4642782D01*
G01X4904864Y4646435D01*
G01X4907239Y4650202D01*
G01X4909436Y4654078D01*
G01X4911451Y4658050D01*
G01X4913274Y4662114D01*
G01X4914908Y4666257D01*
G01X4916343Y4670473D01*
G01X4917580Y4674753D01*
G01X4918613Y4679086D01*
G01X4919444Y4683460D01*
G01X4920069Y4687872D01*
G01X4920485Y4692307D01*
G01X4920694Y4696755D01*
G01Y4701210D01*
G01X4920485Y4705657D01*
G01X4920069Y4710092D01*
G01X4919444Y4714504D01*
G01X4918613Y4718878D01*
G01X4917580Y4723211D01*
G01X4916343Y4727491D01*
G01X4914908Y4731708D01*
G01X4913274Y4735850D01*
G01X4911451Y4739914D01*
G01X4909436Y4743887D01*
G01X4907239Y4747763D01*
G01X4904864Y4751530D01*
G01X4902314Y4755182D01*
G01X4899597Y4758710D01*
G01X4896716Y4762106D01*
G01X4893678Y4765365D01*
G01X4890493Y4768477D01*
G01X4887163Y4771438D01*
G01X4883701Y4774237D01*
G01X4880110Y4776871D01*
G01X4876399Y4779335D01*
G01X4872576Y4781624D01*
G01X4868652Y4783729D01*
G01X4864631Y4785647D01*
G01X4860526Y4787377D01*
G01X4856345Y4788911D01*
G01X4852096Y4790247D01*
G01X4847791Y4791382D01*
G01X4843435Y4792317D01*
G01X4839040Y4793044D01*
G01X4834616Y4793564D01*
G01X4830173Y4793877D01*
G01X4825721Y4793983D01*
G37*
G54D29*
G01X4085854Y4713074D03*
G01X3472597Y4713074D03*
G54D30*
G01X2374900Y4641698D03*
G01X2374900Y4781702D03*
G01X2628900Y4654398D03*
G01X2628900Y4794402D03*
G54D31*
G01X2895600Y4778908D03*
G01X2895600Y4669892D03*
G54D32*
G01X6650438Y4103185D03*
G01X6351937Y4103185D03*
G54D33*
G01X4736343Y4228678D03*
G01X5214574Y4228678D03*
G54D34*
G01X6554707Y4831443D03*
G01X6554707Y4353212D03*
G54D35*
G01X2832494Y1524940D03*
G01X3086494Y1524940D03*
G01X3340494Y1524940D03*
G54D36*
G01X2705494Y1524940D03*
G54D35*
G01X2959494Y1524940D03*
G01X3213494Y1524940D03*
G54D36*
G01X2610498Y1524940D03*
G54D37*
G01X3507499Y1376858D03*
G01X3507499Y176860D03*
G01X2207501Y176860D03*
G01X2207501Y1376858D03*
G54D38*
G01X3733282Y1662905D03*
G01X3733282Y1612918D03*
G01X3733282Y1562905D03*
G01X3861298Y1562905D03*
G01X3861298Y1612918D03*
G01X3861298Y1662905D03*
G54D32*
G01X5369105Y4734244D03*
G01X5070605Y4734244D03*
G54D39*
G01X3803142Y1295400D03*
G01X4121658Y1295400D03*
G01X4511229Y212014D03*
G01X4829745Y212014D03*
G54D40*
G01X2108200Y4514342D03*
G01X2108200Y4832858D03*
G54D41*
G01X4890707Y922795D03*
G54D42*
G01X5060709Y922795D03*
G01X5060709Y702805D03*
G01X4870691Y702805D03*
G54D39*
G01X4260342Y1562100D03*
G01X4578858Y1562100D03*
G54D43*
G01X8477758Y622300D03*
G01X8159242Y622300D03*
G54D39*
G01X8146542Y228600D03*
G01X8465058Y228600D03*
G54D24*
G01X8477402Y838200D03*
G01X8337398Y838200D03*
G54D44*
G01X5118100Y336702D03*
G01X5118100Y196698D03*
G54D45*
G01X3652266Y4053840D03*
G01X3542284Y4053840D03*
G01X3432302Y4053840D03*
G01X3322320Y4053840D03*
G01X3212338Y4053840D03*
G01X3102356Y4053840D03*
G01X2992374Y4053840D03*
G01X2882392Y4053840D03*
G01X2772410Y4053840D03*
G54D46*
G01X2414270Y3767836D03*
G01X2414270Y3657854D03*
G01X2414270Y3547872D03*
G01X2414270Y3437890D03*
G01X2414270Y3327908D03*
G01X2414270Y3217926D03*
G01X2414270Y3107944D03*
G01X2414270Y2997708D03*
G01X2414270Y2887726D03*
G01X2414270Y2777744D03*
G01X2414270Y2667762D03*
G01X2414270Y2557780D03*
G54D47*
G01X2771394Y2270760D03*
G01X2881376Y2270760D03*
G01X2991358Y2270760D03*
G01X3101340Y2270760D03*
G01X3211322Y2270760D03*
G01X3321304Y2270760D03*
G01X3431286Y2270760D03*
G01X3541268Y2270760D03*
G01X3651250Y2270760D03*
G54D46*
G01X4011930Y2556764D03*
G01X4011930Y2666746D03*
G01X4011930Y2776728D03*
G01X4011930Y2886710D03*
G01X4011930Y2996946D03*
G01X4011930Y3106928D03*
G01X4011930Y3216910D03*
G01X4011930Y3326892D03*
G01X4011930Y3436874D03*
G01X4011930Y3546856D03*
G01X4011930Y3656838D03*
G01X4011930Y3766820D03*
G04 Pad End*

G04 Via Start*
G54D48*
G01X4864100Y3492500D03*
G01X4826000Y2895600D03*
G01X4749800Y3238500D03*
G01X4737100Y3543300D03*
G54D49*
G01X5626100Y4165600D03*
G54D50*
G01X2527300Y4495800D03*
G54D48*
G01X2832100Y1333500D03*
G01X3949700Y1663700D03*
G01X3073400Y4267200D03*
G01X4699000Y685800D03*
G01X2552700Y152400D03*
G01X3035306Y139700D03*
G54D51*
G01X3594100Y812800D03*
G54D48*
G01X5778500Y1092200D03*
G01X5715000Y800100D03*
G01X3911967Y116910D03*
G01X5295900Y2768600D03*
G01X2781300Y711200D03*
G01X7086600Y596900D03*
G01X6057900Y3149600D03*
G01X6921500Y596900D03*
G01X5969000Y3149600D03*
G01X5702300Y3149600D03*
G01X5753100Y2997200D03*
G01X6832600Y596900D03*
G01X6794500Y3009900D03*
G01X6794500Y3136900D03*
G01X6032500Y2971800D03*
G01X8102600Y4533900D03*
G01X6883400Y3136900D03*
G01X7696200Y520700D03*
G01X6413500Y241300D03*
G01X5956300Y2933700D03*
G01X5295900Y2209800D03*
G01X4749800Y1397000D03*
G01X5295900Y2101016D03*
G01X4775200Y1320800D03*
G01X5308600Y1993900D03*
G01X4660900Y1270000D03*
G01X7442200Y2146300D03*
G01X7861300Y736600D03*
G01X8407400Y1079500D03*
G01X7442200Y1804760D03*
G01X6781800Y660400D03*
G01X5702300Y1612900D03*
G01X7569200Y850900D03*
G01X5689600Y1485900D03*
G01X5930900Y1549400D03*
G01X4800600Y1841500D03*
G01X7239000Y914400D03*
G01X6121400Y1676400D03*
G01X6515100Y1117600D03*
G01X6591300Y1117600D03*
G01X5664200Y2501900D03*
G01X6654800Y1206500D03*
G01X7226300Y1384300D03*
G01X6794500Y2590800D03*
G01X6807200Y2870200D03*
G01X6680200Y2806700D03*
G01X6680200Y3187700D03*
G01X5511800Y850900D03*
G01X6299200Y736600D03*
G01X6680200Y838200D03*
G01X6807200Y1193800D03*
G01X5943600Y165100D03*
G01X6578600Y546100D03*
G01X6807200Y3505200D03*
G01X7124700Y3454400D03*
G54D49*
G01X4178300Y685800D03*
G01X5435600Y1003300D03*
G01X5676900Y1397000D03*
G01X5829300Y1663700D03*
G54D48*
G01X7340153Y1332855D03*
G01X6731000Y1574800D03*
G01X6756400Y1130300D03*
G01X7150100Y1130300D03*
G01X6972300Y1206500D03*
G01X5105400Y1676400D03*
G01X5689600Y1803400D03*
G01X6972300Y2044700D03*
G01X6794500Y2070100D03*
G01X6299200Y1143000D03*
G01X6070600Y1917700D03*
G01X6540500Y2882900D03*
G01X6388100Y2794000D03*
G01X6553200Y3187700D03*
G01X6565900Y3657600D03*
G01X6565900Y1739900D03*
G01X5130800Y2870200D03*
G54D49*
G01X5664200Y927100D03*
G54D48*
G01X7454900Y2616200D03*
G01X7327900Y3619500D03*
G01X6197600Y3644900D03*
G01X6197600Y3187700D03*
G01X5842000Y2870200D03*
G01X5842000Y2707846D03*
G01X5842000Y2159000D03*
G01X5283200Y1689100D03*
G01X5295900Y1854200D03*
G01X5638800Y1968500D03*
G01X5638800Y2311400D03*
G01X4838700Y1955800D03*
G01X7518400Y2984500D03*
G01X6819900Y4775200D03*
G01X7175500Y4495800D03*
G01X7480300Y1524000D03*
G01X7505700Y2514600D03*
G01X7658100Y1765300D03*
G01X7937500Y1346200D03*
G01X7823200Y1993900D03*
G01X7721600Y1651000D03*
G01X7721600Y1511300D03*
G54D10*
G01X6819900Y190500D03*
G54D48*
G01X6972300Y850900D03*
G01X6350000Y1968500D03*
G01X3644900Y1384300D03*
G01X5486400Y584200D03*
G01X5346700Y825500D03*
G01X4292600Y215900D03*
G01X8318500Y469900D03*
G54D49*
G01X6540500Y203200D03*
G54D48*
G01X5014098Y4464050D03*
G01X3848100Y685800D03*
G01X3657600Y457200D03*
G01X3111500Y4851400D03*
G01X4572000Y152400D03*
G01X5279326Y546100D03*
G01X5308600Y292100D03*
G01X8331200Y1041400D03*
G01X4711700Y3035300D03*
G01X4686300Y2400300D03*
G01X4826000Y2362200D03*
G01X4406900Y1955800D03*
G01X5676900Y2730500D03*
G01X5778500Y2654300D03*
G01X5270500Y1562449D03*
G01X5080000Y1587500D03*
G01X6388100Y1676400D03*
G01X6197600Y1778000D03*
G01X5105400Y1371600D03*
G01X5080000Y1181100D03*
G01X5600700Y3505200D03*
G01X6083300Y3556000D03*
G01X5600700Y3390900D03*
G01X6108700Y3479800D03*
G01X5702300Y3619500D03*
G01X5803900Y609600D03*
G01X6972300Y127000D03*
G01X6299200Y571500D03*
G01X6286500Y914400D03*
G01X5257800Y2387600D03*
G01X6667500Y1130300D03*
G01X6972300Y1127775D03*
G01X5689600Y2870200D03*
G01X5778500Y2755900D03*
G01X5626100Y2984500D03*
G01X6121400Y609600D03*
G54D52*
G01X5842000Y355600D03*
G01X5981894Y335568D03*
G01X5295900Y762000D03*
G54D53*
G01X6350000Y88900D03*
G01X7073900Y139700D03*
G54D54*
G01X4686300Y3352800D03*
G01X4406900Y3683000D03*
G54D48*
G01X8153400Y2717800D03*
G54D54*
G01X5448300Y901700D03*
G01X4749800Y584200D03*
G01X5130800Y939800D03*
G01X5384800Y452097D03*
G01X4660900Y558800D03*
G01X4089400Y4140200D03*
G54D10*
G01X6680200Y3835400D03*
G54D48*
G01X7467600Y215900D03*
G01X3683000Y965200D03*
G54D10*
G01X2082800Y368300D03*
G01X2082800Y368300D03*
G54D48*
G01X5156200Y1181100D03*
G01X5384800Y1219200D03*
G54D54*
G01X2247900Y3962400D03*
G54D48*
G01X3238500Y1955800D03*
G01X3086100Y1409700D03*
G01X3695700Y1765300D03*
G01X3340100Y1689100D03*
G54D54*
G01X3365500Y3873500D03*
G01X4343400Y3454400D03*
G01X3848100Y3708400D03*
G01X3771900Y3225800D03*
G01X5397500Y3657600D03*
G01X4508500Y3111500D03*
G01X4533900Y2984500D03*
G01X4330700Y3238500D03*
G01X4330700Y3086100D03*
G01X3848100Y3556000D03*
G01X3556000Y3556000D03*
G01X3606800Y3454400D03*
G01X3848100Y3441700D03*
G01X6578600Y635000D03*
G01X7366000Y1172841D03*
G01X4660720Y1732226D03*
G01X4356100Y2844800D03*
G01X4561403Y2808946D03*
G04 Via End*

G04 Track Start*
G54D55*
G01X3340494Y1524940D02*
G01X3390354Y1574800D01*
G01X3654081D01*
G01X3692199Y1612918D01*
G01X3733282D01*
G54D51*
G01X3763965Y318590D02*
G01X3763965Y391963D01*
G01X3942105Y570103D01*
G01X3763965Y318590D02*
G01X3936774Y318590D01*
G01X4039464Y215900D01*
G54D10*
G01X4858942Y212014D02*
G01X4516095Y554861D01*
G01Y800100D01*
G54D51*
G01X4829745Y212014D02*
G01X4858942Y212014D01*
G54D56*
G01X3185638Y4724159D02*
G01X3461512Y4724159D01*
G01X3472597Y4713074D01*
G01X4461777Y4549000D02*
G01X4249928Y4549000D01*
G01X4085854Y4713074D01*
G54D57*
G01X5070605Y4734244D02*
G01X5214574Y4590274D01*
G01Y4228678D01*
G54D56*
G01X5446471Y4216400D02*
G01X5702300Y4472229D01*
G01Y4638798D01*
G01X6059729Y4216400D02*
G01X5934977Y4341152D01*
G01Y4549000D01*
G54D10*
G01X6650438Y4103185D02*
G01X6650438Y4257482D01*
G01X6554707Y4353212D01*
G54D13*
G01X6554707Y4831443D02*
G01X6422252Y4698987D01*
G01X6206223D01*
G54D56*
G01X4540085Y2473376D02*
G01X4699605Y2473376D01*
G01X4992322Y2766093D01*
G54D58*
G01X5246091Y3399993D02*
G01X5246091Y3428009D01*
G01X5219700Y3454400D01*
G01X5146294Y3000146D02*
G01X5032146Y3000146D01*
G01X5003800Y2971800D01*
G01X5003800Y2777571D02*
G01X4992322Y2766093D01*
G01X4902200Y3454400D02*
G01X4864100Y3492500D01*
G01X4902200Y3454400D02*
G01X5219700Y3454400D01*
G01X5496306Y3350158D02*
G01X5534558Y3350158D01*
G01X5534558Y3431642D02*
G01X5410200Y3556000D01*
G01X5402682D01*
G01X5534558Y3350158D02*
G01X5534558Y3431642D01*
G54D57*
G01X4733023Y4698987D02*
G01X4733023Y4231998D01*
G01X4736343Y4228678D01*
G54D59*
G01X5446471Y4216400D02*
G01X5575300Y4216400D01*
G01X5626100Y4165600D01*
G01X2832494Y1333894D02*
G01X2832494Y1524940D01*
G01X2832100Y1333500D02*
G01X2832494Y1333894D01*
G54D55*
G01X3949700Y1663700D02*
G01X3862093Y1663700D01*
G01X3861298Y1662905D01*
G01X2108200Y4514342D02*
G01X2247544Y4514342D01*
G01X2374900Y4641698D01*
G01X2616200D01*
G01X2628900Y4654398D01*
G01X2880106D01*
G01X2895600Y4669892D01*
G01X3067202Y4273398D02*
G01X3040088Y4273398D01*
G01X3073400Y4267200D02*
G01X3067202Y4273398D01*
G01X4584700Y800100D02*
G01X4516095Y800100D01*
G01X4699000Y685800D02*
G01X4584700Y800100D01*
G54D59*
G01X2552700Y152400D02*
G01X3022606Y152400D01*
G01X3035306Y139700D01*
G54D60*
G01X3871257Y76200D02*
G01X3911967Y116910D01*
G01X3749575Y812800D02*
G01X3594100Y812800D01*
G01X3825775Y889000D02*
G01X3749575Y812800D01*
G01X5496103Y3099994D02*
G01X5650306Y3099994D01*
G01X5496103Y3150006D02*
G01X5701894Y3150006D01*
G01X5702300Y3149600D01*
G01X5496103Y3199994D02*
G01X5551103Y3199994D01*
G01X5564210Y3213100D01*
G01X5969000Y3149600D02*
G01X5905500Y3213100D01*
G01X5564210D01*
G01X5496103Y3250006D02*
G01X5551103Y3250006D01*
G01X5564997Y3263900D01*
G01X6057900Y3149600D02*
G01X5943600Y3263900D01*
G01X5564997D01*
G01X6997700Y3009900D02*
G01X6794500Y3009900D01*
G54D58*
G01X6413500Y241300D02*
G01X6413500Y139700D01*
G01X7576072Y57672D02*
G01X6495528Y57672D01*
G01X6413500Y139700D02*
G01X6495528Y57672D01*
G01X7696200Y520700D02*
G01X7620000Y444500D01*
G01Y101600D01*
G01X7576072Y57672D01*
G01X5956300Y2933700D02*
G01X5956300Y2921000D01*
G01X4749800Y1397000D02*
G01X4749800Y1663700D01*
G01X5295900Y2209800D01*
G01X5295900Y2101016D02*
G01X4813300Y1618416D01*
G01X4813300Y1333500D02*
G01X4800600Y1320800D01*
G01X4775200D01*
G01X4813300Y1618416D02*
G01X4813300Y1333500D01*
G01X5308600Y1993900D02*
G01X4876800Y1562100D01*
G01X4876800Y1308100D02*
G01X4876800Y1562100D01*
G01X4673600Y1257300D02*
G01X4826000Y1257300D01*
G01X4673600Y1257300D02*
G01X4660900Y1270000D01*
G01X7861300Y736600D02*
G01X7861300Y1727200D01*
G01X7442200Y2146300D01*
G01X5702300Y1612900D02*
G01X5702300Y1562100D01*
G01X5727700Y1536700D01*
G01X4800600Y1841500D02*
G01X4841701Y1841500D01*
G01X5273501Y2273300D01*
G01X5318299D01*
G01X5930900Y1660699D02*
G01X5930900Y1549400D01*
G01X7823200Y2197100D02*
G01X7912100Y2197100D01*
G01X8153400Y2438400D01*
G01Y2717800D01*
G01X7437100Y2227100D02*
G01X7793200Y2227100D01*
G01X7823200Y2197100D01*
G01X7381460Y2171459D02*
G01X7437100Y2227100D01*
G01X7239000Y914400D02*
G01X7467600Y914400D01*
G01X7510300Y957100D01*
G01X6121400Y1676400D02*
G01X6515100Y1282700D01*
G01Y1117600D01*
G01X6591300Y1574800D02*
G01X5664200Y2501900D01*
G01X6591300Y1117600D02*
G01X6591300Y1574800D01*
G01X5956300Y2921000D02*
G01X6197600Y2679700D01*
G01X6828000D01*
G01X6807200Y2870200D02*
G01X6731000Y2870200D01*
G01X6680200Y2819400D01*
G01X6680200Y2806700D02*
G01X6680200Y2819400D01*
G54D60*
G01X6794500Y3136900D02*
G01X6781800Y3124200D01*
G54D58*
G01X6286500Y736600D02*
G01X6248400Y698500D01*
G01X6299200Y736600D02*
G01X6286500Y736600D01*
G54D60*
G01X6883400Y3136900D02*
G01X6883400Y3314700D01*
G54D59*
G01X5676900Y1397000D02*
G01X5646283Y1397000D01*
G01X5613400Y1429883D01*
G01X5613400Y1676400D02*
G01X5626100Y1689100D01*
G01X5765800D01*
G01X5613400Y1429883D02*
G01X5613400Y1676400D01*
G01X5791200Y1663700D02*
G01X5765800Y1689100D01*
G01X5829300Y1663700D02*
G01X5791200Y1663700D01*
G54D58*
G01X6828000Y2679700D02*
G01X6876274Y2631426D01*
G54D59*
G01X6756400Y1130300D02*
G01X6731000Y1155700D01*
G01Y1574800D01*
G54D61*
G01X5638800Y1790700D02*
G01X5676900Y1790700D01*
G01X5689600Y1803400D01*
G01X6946900Y2070100D02*
G01X6794500Y2070100D01*
G01X6972300Y2044700D02*
G01X6946900Y2070100D01*
G54D60*
G01X5295900Y2768600D02*
G01X5295900Y2679700D01*
G54D59*
G01X5270500Y1003300D02*
G01X5435600Y1003300D01*
G54D61*
G01X6299200Y1143000D02*
G01X6299200Y1346200D01*
G01X5956300Y1790700D02*
G01X5956300Y1689100D01*
G01X6299200Y1346200D02*
G01X5956300Y1689100D01*
G01X6070600Y1917700D02*
G01X6070600Y1905000D01*
G01X5956300Y1790700D01*
G01X6477000Y2882900D02*
G01X6540500Y2882900D01*
G01X6388100Y2794000D02*
G01X6477000Y2882900D01*
G01X7454900Y2616200D02*
G01X7454900Y3492500D01*
G01X7327900Y3619500D01*
G01X6197600Y3644900D02*
G01X6197600Y3187700D01*
G01X5842000Y2870200D02*
G01X5842000Y2707846D01*
G01X5295900Y1854200D02*
G01X5524500Y1854200D01*
G54D58*
G01X5318299Y2273300D02*
G01X5502882Y2088718D01*
G01X5620182D01*
G01X5788227Y1920673D01*
G01Y1803372D01*
G01X5930900Y1660699D01*
G54D61*
G01X5524500Y1854200D02*
G01X5638800Y1968500D01*
G01X5638800Y2311400D02*
G01X4902200Y2311400D01*
G01X4826000Y2235200D01*
G01Y1981200D01*
G01X4838700Y1955800D02*
G01X4838700Y1968500D01*
G01X4826000Y1981200D01*
G54D60*
G01X6883400Y3314700D02*
G01X7175500Y3606800D01*
G01X7175500Y3644900D02*
G01X6756400Y4064000D01*
G01Y4864100D01*
G01X6807200Y4914900D01*
G01X7175500Y3606800D02*
G01X7175500Y3644900D01*
G01X8102600Y4533900D02*
G01X8001000Y4635500D01*
G01Y4889900D01*
G01X7976000Y4914900D02*
G01X6807200Y4914900D01*
G01X8001000Y4889900D02*
G01X7976000Y4914900D01*
G01X6819900Y4775200D02*
G01X6896100Y4775200D01*
G01X7175500Y4495800D01*
G01X7505700Y2514600D02*
G01X7327900Y2336800D01*
G01X7696200Y1765300D02*
G01X7787941Y1673559D01*
G54D58*
G01X7810500Y622300D02*
G01X7937500Y622300D01*
G01X7988300Y673100D01*
G01Y812800D01*
G54D60*
G01X7937500Y1257300D02*
G01X7937500Y1346200D01*
G01X7935137Y1254937D02*
G01X7937500Y1257300D01*
G01X7824860Y673100D02*
G01X7912100Y673100D01*
G01X7935137Y696137D01*
G01Y1254937D01*
G01X7823200Y1993900D02*
G01X7912100Y1993900D01*
G01X7924800Y2006600D01*
G54D58*
G01X7442200Y1804760D02*
G01X7442200Y1704755D01*
G54D60*
G01X7721600Y1651000D02*
G01X7721600Y1511300D01*
G54D58*
G01X6819900Y190500D02*
G01X6870700Y241300D01*
G01X6934200D01*
G01X3861298Y1612918D02*
G01X3810000Y1612918D01*
G54D61*
G01X3809982Y1612900D02*
G01X3797300Y1612900D01*
G01Y1301242D01*
G01X3803142Y1295400D01*
G01X3733282Y1562905D02*
G01X3733282Y1472682D01*
G01X3644900Y1384300D01*
G01X5346700Y825500D02*
G01X5486400Y685800D01*
G01Y584200D01*
G01X5524506Y546094D01*
G01Y487173D01*
G01X5599506Y412173D01*
G01X4296486Y212014D02*
G01X4511229Y212014D01*
G01X4292600Y215900D02*
G01X4296486Y212014D01*
G01X3942105Y1030097D02*
G01X4121658Y1209650D01*
G01Y1295400D01*
G01X8159242Y622300D02*
G01X8166100Y622300D01*
G01X8318500Y469900D01*
G01X8146542Y228600D02*
G01X8318500Y400558D01*
G01Y469900D01*
G01X8159242Y622300D02*
G01X8159242Y757047D01*
G01X8231694Y829499D02*
G01X8159242Y757047D01*
G54D62*
G01X6540500Y203200D02*
G01X6540500Y154600D01*
G54D58*
G01X7569200Y850900D02*
G01X7162800Y444500D01*
G54D60*
G01X7543800Y914400D02*
G01X7620000Y914400D01*
G01X4461777Y4849000D02*
G01X5254349Y4849000D01*
G01X5369105Y4734244D01*
G01X5934977Y4849000D02*
G01X5809018Y4849000D01*
G01X5702300Y4742282D01*
G01X5694262Y4734244D01*
G01X5369105D01*
G01X5014098Y4464050D02*
G01X5014098Y4117202D01*
G01X5143500Y3987800D01*
G01X5295900Y3987800D02*
G01X5143500Y3987800D01*
G01X5334000Y4699138D02*
G01X5334000Y4025900D01*
G01X5334000Y4699138D02*
G01X5369105Y4734244D01*
G01X3581400Y381000D02*
G01X3581400Y101600D01*
G01X3606800Y76200D01*
G01X3871257D01*
G54D61*
G01X3763965Y167917D02*
G01X3690582Y241300D01*
G01X3657600D01*
G01Y381000D01*
G01X3670300Y393700D01*
G01X3683000D01*
G01X3771900Y482600D02*
G01X3771900Y508000D01*
G01X3670300Y609600D01*
G01X3771900Y482600D02*
G01X3683000Y393700D01*
G54D60*
G01X4190136Y102879D02*
G01X4190136Y215900D01*
G01X4800600Y182869D02*
G01X4800600Y139700D01*
G01X4800600Y182869D02*
G01X4829745Y212014D01*
G01X4800600Y139700D02*
G01X4723163Y62263D01*
G01X4190136Y102879D02*
G01X4230753Y62263D01*
G01X4723163D01*
G54D58*
G01X8369300Y1117600D02*
G01X8407400Y1079500D01*
G01X8293100Y1117600D02*
G01X8369300Y1117600D01*
G01X7988300Y812800D02*
G01X8293100Y1117600D01*
G54D60*
G01X5295900Y2679700D02*
G01X5232400Y2616200D01*
G54D63*
G01X4673625Y3073375D02*
G01X4540085Y3073375D01*
G01X4711700Y3035300D02*
G01X4673625Y3073375D01*
G01X4743688Y2400300D02*
G01X4686300Y2400300D01*
G01X5132327Y2693927D02*
G01X5132327Y2766093D01*
G01X5041900Y2654300D02*
G01X5092700Y2654300D01*
G01X4660976Y2273376D02*
G01X4540085Y2273376D01*
G54D60*
G01X4394200Y1955800D02*
G01X3911600Y1473200D01*
G01X4406900Y1955800D02*
G01X4394200Y1955800D01*
G01X4826000Y2362200D02*
G01X5080000Y2616200D01*
G01X5232400D01*
G54D63*
G01X4714911Y2327311D02*
G01X4746589Y2327311D01*
G01X4800600Y2273300D01*
G01X4815600D01*
G01X4978400Y2436100D01*
G01Y2451100D01*
G01X5003800Y2476500D01*
G01X5162398D01*
G01X4660976Y2273376D02*
G01X4714911Y2327311D01*
G01X5041900Y2654300D01*
G54D61*
G01X5765800Y2730500D02*
G01X5702300Y2667000D01*
G01X5105400Y1676400D02*
G01X5194300Y1765300D01*
G01X5613400D01*
G01X5638800Y1790700D01*
G54D59*
G01X5778500Y1295400D02*
G01X5582600Y1295400D01*
G01X5283200Y1689100D02*
G01X5359400Y1689100D01*
G01X5255900Y1017900D02*
G01X5270500Y1003300D01*
G54D61*
G01X5258149Y1574800D02*
G01X5270500Y1562449D01*
G01X5080000Y1587500D02*
G01X5092700Y1574800D01*
G54D58*
G01X6197600Y1778000D02*
G01X6286500Y1778000D01*
G01X6388100Y1676400D01*
G54D61*
G01X5105400Y1206500D02*
G01X5105400Y1371600D01*
G01X6032500Y3505200D02*
G01X5600700Y3505200D01*
G01X6083300Y3556000D02*
G01X6032500Y3505200D01*
G01X6019800Y3390900D02*
G01X5600700Y3390900D01*
G54D58*
G01X5664200Y698500D02*
G01X5738650Y698500D01*
G01X6083300Y800100D02*
G01X5840250Y800100D01*
G01X6184900Y698500D02*
G01X6083300Y800100D01*
G01X6248400Y698500D02*
G01X6184900Y698500D01*
G01X5840250Y800100D02*
G01X5738650Y698500D01*
G54D62*
G01X6819900Y190500D02*
G01X6705600Y190500D01*
G01X6667500Y152400D01*
G01X6538300D01*
G01X6540500Y154600D02*
G01X6538300Y152400D01*
G54D61*
G01X6108700Y3479800D02*
G01X6019800Y3390900D01*
G54D58*
G01X6578600Y546100D02*
G01X6578600Y537031D01*
G01X6320969Y279400D01*
G54D61*
G01X6228469Y145169D02*
G01X6204483Y145169D01*
G01X6335549Y244200D02*
G01X6328264Y244964D01*
G01X6972300Y127000D02*
G01X6946900Y101600D01*
G01X6527800D01*
G01X6396149Y304800D02*
G01X6446949Y304800D01*
G01X6527800Y101600D02*
G01X6469240Y160160D01*
G01Y282509D01*
G01X6446949Y304800D01*
G54D60*
G01X7658100Y1765300D02*
G01X7696200Y1765300D01*
G54D61*
G01X6532740Y683488D02*
G01X6492328Y723900D01*
G01X6375400D01*
G01X6354940Y744360D01*
G01Y772644D01*
G01X6286500Y841084D02*
G01X6354940Y772644D01*
G01X6286500Y841084D02*
G01X6286500Y914400D01*
G54D58*
G01X6350000Y1189200D02*
G01X6350000Y1346200D01*
G01X6159500Y1943100D02*
G01X6121400Y1981200D01*
G01X6057900Y1981200D02*
G01X6045200Y1993900D01*
G01X6121400Y1981200D02*
G01X6057900Y1981200D01*
G01X6007100Y1742901D02*
G01X6159500Y1895301D01*
G01Y1943100D01*
G01X6007100Y1689100D02*
G01X6007100Y1742901D01*
G01X6350000Y1346200D02*
G01X6007100Y1689100D01*
G01X6350000Y1189200D02*
G01X6485100Y1054100D01*
G01X6667500Y1130300D02*
G01X6667500Y1107901D01*
G01X6613699Y1054100D01*
G01X6485100D01*
G54D63*
G01X5162398Y2476500D02*
G01X5429098Y2743200D01*
G54D58*
G01X5003800Y2868951D02*
G01X4977151Y2895600D01*
G01X4826000D01*
G01X5003800Y2971800D02*
G01X5003800Y2868951D01*
G01Y2777571D01*
G01X6972300Y1127775D02*
G01X7035800Y1064275D01*
G54D60*
G01X7493835Y828851D02*
G01X7493000Y829686D01*
G01X7493000Y863600D02*
G01X7543800Y914400D01*
G01X7493000Y829686D02*
G01X7493000Y863600D01*
G01X7487190Y822149D02*
G01X7173041Y508000D01*
G54D63*
G01X5092700Y2654300D02*
G01X5132327Y2693927D01*
G01X5055062Y2921462D02*
G01X5055062Y2711674D01*
G01X4743688Y2400300D01*
G01X5246091Y2950007D02*
G01X5083607Y2950007D01*
G01X5055062Y2921462D01*
G54D58*
G01X7065585Y1041400D02*
G01X7035800Y1011615D01*
G01X7035800Y1064275D02*
G01X7035800Y1011615D01*
G01Y711200D01*
G54D60*
G01X6934200Y2348810D02*
G01X6934200Y2705500D01*
G01X6909200Y2730500D01*
G01X6273800D01*
G01X6032500Y2971800D01*
G54D58*
G01X5396306Y2950007D02*
G01X5463413Y2882900D01*
G54D61*
G01X5257800Y2387600D02*
G01X5257800Y2413000D01*
G01X5164667Y2836333D02*
G01X5130800Y2870200D01*
G01X5702300Y2667000D02*
G01X5651500Y2667000D01*
G01X5591099Y2727401D01*
G01X5572201D01*
G01X5257800Y2413000D02*
G01X5572201Y2727401D01*
G01X5676900Y2730697D02*
G01X5571264Y2836333D01*
G01X5164667D01*
G54D58*
G01X5715000Y2806700D02*
G01X5721350Y2800350D01*
G01X5753100Y2832100D01*
G01X5664200Y2806700D02*
G01X5715000Y2806700D01*
G01X5588000Y2882900D02*
G01X5664200Y2806700D01*
G01X5463413Y2882900D02*
G01X5588000Y2882900D01*
G01X5146294Y3350158D02*
G01X5118252Y3378200D01*
G01X5049418Y3568700D02*
G01X5062118Y3556000D01*
G01X5118252Y3378200D02*
G01X4876800Y3378200D01*
G01X4851400Y3568700D02*
G01X5049418Y3568700D01*
G54D60*
G01X5496306Y3300146D02*
G01X5553807Y3300146D01*
G01X5581061Y3327400D01*
G01X5975536D01*
G01X6178736Y3124200D01*
G01X6781800Y3124200D02*
G01X6178736Y3124200D01*
G54D58*
G01X6876274Y2631426D02*
G01X6876274Y2532874D01*
G54D60*
G01X6654800Y1206500D02*
G01X6654800Y1752600D01*
G54D58*
G01X6819900Y939800D02*
G01X6819900Y711200D01*
G01X6819900Y1295400D02*
G01X6876342Y1238958D01*
G01X6876342Y996242D02*
G01X6819900Y939800D01*
G01X6876342Y1238958D02*
G01X6876342Y996242D01*
G01X7510300Y957100D02*
G01X7531100Y957100D01*
G01X7556500Y982500D01*
G54D60*
G01X7620000Y914400D02*
G01X7658100Y876300D01*
G01Y660400D01*
G01X7594600Y596900D01*
G54D58*
G01X7442200Y1704755D02*
G01X7708900Y1438055D01*
G01Y723900D01*
G01X7810500Y622300D01*
G54D60*
G01X7787941Y710019D02*
G01X7824860Y673100D01*
G01X7787941Y1673559D02*
G01X7787941Y710019D01*
G54D58*
G01X5740400Y1485900D02*
G01X5689600Y1485900D01*
G01X5943600Y165100D02*
G01X6057900Y165100D01*
G01X6172200Y279400D01*
G01X6320969D01*
G54D60*
G01X4051300Y889000D02*
G01X3825775Y889000D01*
G01X7210552Y1285748D02*
G01X7121652Y1285748D01*
G01X7289800Y1206500D02*
G01X7210552Y1285748D01*
G01X7269844Y1320800D02*
G01X7366000Y1224644D01*
G54D58*
G01X7183600Y1219200D02*
G01X7213600Y1189200D01*
G01X7125122Y1219200D02*
G01X7183600Y1219200D01*
G01X7150100Y1041400D02*
G01X7065585Y1041400D01*
G01X7213600Y1104900D02*
G01X7150100Y1041400D01*
G01X7213600Y1189200D02*
G01X7213600Y1104900D01*
G54D60*
G01X7289800Y1117600D02*
G01X7289800Y1206500D01*
G01X7086600Y914400D02*
G01X7289800Y1117600D01*
G01X7086600Y596900D02*
G01X7086600Y914400D01*
G54D58*
G01X6159500Y2946400D02*
G01X6908800Y2946400D01*
G01X6073360Y3032540D02*
G01X6159500Y2946400D01*
G54D60*
G01X5650306Y3099994D02*
G01X5675306Y3074994D01*
G01X6157906D01*
G01X6197600Y3035300D01*
G54D58*
G01X5890040Y3032540D02*
G01X6073360Y3032540D01*
G01X5753100Y2895600D02*
G01X5890040Y3032540D01*
G01X5753100Y2832100D02*
G01X5753100Y2895600D01*
G54D61*
G01X5689600Y2870200D02*
G01X5654181Y2870200D01*
G01X5524387Y2999994D01*
G01X5496103D01*
G54D60*
G01X5753100Y2997200D02*
G01X5703531Y2997200D01*
G01X5650724Y3050007D01*
G01X5496103D01*
G54D61*
G01X5626100Y2984500D02*
G01X5689600Y2921000D01*
G01Y2870200D01*
G54D55*
G01X2895600Y4483100D02*
G01X2895600Y4669892D01*
G54D58*
G01X5676900Y520700D02*
G01X5842000Y355600D01*
G01X5562600Y584200D02*
G01X5626100Y520700D01*
G01X5676900D01*
G01X5511800Y850900D02*
G01X5664200Y698500D01*
G54D60*
G01X5715000Y800100D02*
G01X5651500Y800100D01*
G01X5537200Y914400D01*
G01Y1013255D01*
G54D59*
G01X5582600Y1295400D02*
G01X5511800Y1366200D01*
G01Y1536700D01*
G01X5359400Y1689100D02*
G01X5511800Y1536700D01*
G01X5664200Y927100D02*
G01X5727700Y927100D01*
G01X5867400Y1066800D01*
G01Y1206500D01*
G01X5778500Y1295400D01*
G54D61*
G01X6396149Y304800D02*
G01X6335549Y244200D01*
G54D11*
G01X6261100Y609600D02*
G01X6121400Y609600D01*
G01X6299200Y571500D02*
G01X6261100Y609600D01*
G54D64*
G01X5479517Y145169D02*
G01X5646031Y145169D01*
G01X6160915Y101600D02*
G01X6204483Y145169D01*
G01X5646031Y145169D02*
G01X5689600Y101600D01*
G01X6160915D01*
G54D61*
G01X6350000Y88900D02*
G01X6350000Y166232D01*
G01X6299766Y216466D01*
G01X6328264Y244964D02*
G01X6299766Y216466D01*
G01X6228469Y145169D01*
G01X6972300Y127000D02*
G01X6972300Y139700D01*
G01X6997700Y165100D01*
G54D58*
G01X5842000Y1536700D02*
G01X5905500Y1473200D01*
G01X6070600D01*
G01X6223000Y1320800D01*
G01Y1117600D01*
G01X6286500Y1054100D01*
G01X5727700Y1536700D02*
G01X5842000Y1536700D01*
G01X6286500Y1054100D02*
G01X6413500Y1054100D01*
G01X6718300Y876300D02*
G01X6680200Y838200D01*
G01X6764774Y660400D02*
G01X6781800Y660400D01*
G01X7162800Y444500D02*
G01X6899101Y444500D01*
G01X6365701Y977900D01*
G01X6248400D01*
G54D61*
G01X6593612Y683488D02*
G01X6532740Y683488D01*
G01X6997700Y279400D02*
G01X6593612Y683488D01*
G54D58*
G01X6413500Y1054100D02*
G01X6591300Y876300D01*
G01Y833874D01*
G01X6764774Y660400D01*
G01X6908800Y2946400D02*
G01X7035800Y2819400D01*
G01Y1600200D01*
G54D61*
G01X6565900Y1739900D02*
G01X6515100Y1790700D01*
G01Y2565400D01*
G01X6489700Y2590800D01*
G01X5842000D01*
G01X5778500Y2654300D01*
G54D60*
G01X6654800Y1752600D02*
G01X6578600Y1828800D01*
G01X6794500Y2590800D02*
G01X6756400Y2590800D01*
G01X6578600Y2413000D01*
G01Y1828800D01*
G54D58*
G01X6876274Y2532874D02*
G01X6654800Y2311400D01*
G54D60*
G01X6731000Y1993900D02*
G01X6731000Y2145610D01*
G01X6934200Y2348810D01*
G54D58*
G01X6654800Y2311400D02*
G01X6654800Y1905000D01*
G01X6819900Y1739900D01*
G01Y1295400D01*
G54D60*
G01X6197600Y3035300D02*
G01X6629400Y3035300D01*
G01X6667500Y3073400D01*
G01X7073900D01*
G54D61*
G01X6565900Y3657600D02*
G01X6565900Y3352800D01*
G01X6553200Y3340100D01*
G01Y3187700D01*
G54D59*
G01X6807200Y3505200D02*
G01X6680200Y3378200D01*
G01Y3187700D01*
G54D61*
G01X5092700Y1574800D02*
G01X5258149Y1574800D01*
G54D58*
G01X5080000Y1587500D02*
G01X4991100Y1498600D01*
G54D60*
G01X5334000Y4025900D02*
G01X5295900Y3987800D01*
G54D59*
G01X4370700Y1017900D02*
G01X5255900Y1017900D01*
G54D58*
G01X4366895Y1221105D02*
G01X4394200Y1193800D01*
G01X4961100D01*
G01X4991100Y1223800D01*
G01X4991100Y1498600D02*
G01X4991100Y1223800D01*
G54D60*
G01X5537200Y1013255D02*
G01X5470955Y1079500D01*
G01X4356100D01*
G01X4076700Y685800D02*
G01X3848100Y685800D01*
G01X4356100Y1079500D02*
G01X4114800Y838200D01*
G01Y723900D01*
G01X4076700Y685800D01*
G01X3911600Y1473200D02*
G01X3911600Y1168000D01*
G01X3886600Y1143000D01*
G01X3213100D01*
G01X2781300Y711200D01*
G54D55*
G01X2984500Y4445000D02*
G01X2933700Y4445000D01*
G01X3040088Y4389412D02*
G01X3040088Y4273398D01*
G01X2984500Y4445000D02*
G01X3040088Y4389412D01*
G54D58*
G01X2527300Y4495800D02*
G01X2527300Y4286187D01*
G01X2540089Y4273398D01*
G54D55*
G01X2933700Y4445000D02*
G01X2895600Y4483100D01*
G54D61*
G01X4917059Y3050159D02*
G01X5146294Y3050159D01*
G01X4540085Y2973375D02*
G01X4840275Y2973375D01*
G01X4917059Y3050159D01*
G01X4723313Y3100146D02*
G01X5146294Y3100146D01*
G01X4650085Y3173374D02*
G01X4723313Y3100146D01*
G01X4540085Y3173374D02*
G01X4650085Y3173374D01*
G01X4725800Y3150159D02*
G01X5146294Y3150159D01*
G01X4602584Y3273374D02*
G01X4725800Y3150159D01*
G01X5146294Y3300146D02*
G01X4904054Y3300146D01*
G54D58*
G01X4876800Y3378200D02*
G01X4800600Y3454400D01*
G01Y3517900D01*
G01X4851400Y3568700D01*
G54D61*
G01X4904054Y3300146D02*
G01X4711700Y3492500D01*
G01X4752428Y3314700D02*
G01X4866982Y3200146D01*
G01X5146294D01*
G01X4890541Y3250159D02*
G01X4667326Y3473374D01*
G01X5146294Y3250159D02*
G01X4890541Y3250159D01*
G01X3086100Y1525334D02*
G01X3086494Y1524940D01*
G01X3086100Y1545530D02*
G01X3086100Y1525334D01*
G01X3732487Y1663700D02*
G01X3733282Y1662905D01*
G01X4724400Y3314700D02*
G01X4752428Y3314700D01*
G01X4686300Y3352800D02*
G01X4724400Y3314700D01*
G54D58*
G01X4366895Y1295400D02*
G01X4121658Y1295400D01*
G01X4366895Y1295400D02*
G01X4366895Y1221105D01*
G54D56*
G01X4121658Y1295400D02*
G01X4260342Y1434084D01*
G01Y1562100D01*
G54D61*
G01X5080000Y1181100D02*
G01X5105400Y1206500D01*
G54D58*
G01X5562600Y698500D02*
G01X5562600Y584200D01*
G54D11*
G01X5448300Y901700D02*
G01X5410200Y939800D01*
G01X5236705Y702805D02*
G01X5060709Y702805D01*
G01X5295900Y762000D02*
G01X5236705Y702805D01*
G54D58*
G01X4870691Y702805D02*
G01X4942586Y774700D01*
G54D11*
G01X4889500Y838200D02*
G01X4800600Y749300D01*
G01Y635000D01*
G01X4749800Y584200D02*
G01X4800600Y635000D01*
G54D58*
G01X5374860Y886240D02*
G01X5562600Y698500D01*
G01X4942586Y774700D02*
G01X5121808Y774700D01*
G01X5233348Y886240D01*
G01X5374860D01*
G54D11*
G01X5410200Y939800D02*
G01X5219700Y939800D01*
G01X5118100Y838200D01*
G01X4889500D01*
G01X5060709Y922795D02*
G01X5113795Y922795D01*
G01X5130800Y939800D01*
G54D63*
G01X5308600Y292100D02*
G01X5279326Y321374D01*
G01Y546100D01*
G54D11*
G01X5384800Y452097D02*
G01X5384800Y533400D01*
G01X5295900Y622300D01*
G01X5156200D01*
G01X5054600Y520700D01*
G01X4699000D01*
G01X4660900Y558800D02*
G01X4699000Y520700D01*
G01X6680200Y3835400D02*
G01X5156200Y3835400D01*
G54D61*
G01X6997700Y215564D02*
G01X7416800Y215564D01*
G01X6997700Y279400D02*
G01X6997700Y215564D01*
G01Y165100D01*
G01X7467600Y215900D02*
G01X7417136Y215900D01*
G01X7416800Y215564D01*
G01X3683000Y965200D02*
G01X3877208Y965200D01*
G01X3942105Y1030097D01*
G01X5156200Y1181100D02*
G01X5346700Y1181100D01*
G01X5384800Y1219200D02*
G01X5346700Y1181100D01*
G01X8328697Y829499D02*
G01X8337398Y838200D01*
G01X8231694Y829499D02*
G01X8328697Y829499D01*
G54D60*
G01X5102784Y212014D02*
G01X5118100Y196698D01*
G01X4858942Y212014D02*
G01X5102784Y212014D01*
G01X7518400Y2984500D02*
G01X7518400Y2527300D01*
G01X7505700Y2514600D01*
G54D55*
G01X3040088Y4273398D02*
G01X2983090Y4216400D01*
G01X2895600D01*
G01X2870200Y4191000D02*
G01X2870200Y4066032D01*
G01X2882392Y4053840D01*
G01X2772410Y4053840D02*
G01X2882392Y4053840D01*
G01X2895600Y4216400D02*
G01X2870200Y4191000D01*
G54D58*
G01X2540089Y4273398D02*
G01X2540089Y3987711D01*
G01X2755900Y3771900D01*
G01X3416300D01*
G01X3543300Y3898900D01*
G01Y4052824D01*
G01X3542284Y4053840D01*
G54D61*
G01X2247900Y3962400D02*
G01X2247900Y3683000D01*
G01X2260600Y3670300D01*
G01X2401824D01*
G01X2414270Y3657854D01*
G01X3238500Y1955800D02*
G01X3321304Y2038604D01*
G01Y2270760D01*
G01X3211322Y2270760D02*
G01X3211322Y2030222D01*
G01X3086494Y1524940D02*
G01X3086494Y1410094D01*
G01X3086100Y1409700D01*
G01X3695700Y1765300D02*
G01X3733282Y1727718D01*
G01Y1662905D01*
G01X2832494Y1553224D02*
G01X2832494Y1524940D01*
G01X3101340Y2270760D02*
G01X3101340Y1822070D01*
G01X2832494Y1553224D01*
G01X3211322Y2030222D02*
G01X3182760Y2001660D01*
G01Y1642190D01*
G01X3086100Y1545530D01*
G01X3251200Y1562646D02*
G01X3213494Y1524940D01*
G01X3251200Y1828800D02*
G01X3251200Y1562646D01*
G01X3431286Y2270760D02*
G01X3431286Y2008886D01*
G01X3251200Y1828800D01*
G01X3340100Y1689100D02*
G01X3340100Y1525334D01*
G01X3340494Y1524940D01*
G54D56*
G01X3472597Y4713074D02*
G01X3602266Y4713074D01*
G01X3652266Y4663074D01*
G01X3652266Y4053840D02*
G01X3652266Y4663074D01*
G54D61*
G01X3365500Y3873500D02*
G01X3432302Y3940302D01*
G01Y4053840D01*
G01X4011930Y3656838D02*
G01X4128262Y3656838D01*
G54D63*
G01X4145280Y3766820D02*
G01X4011930Y3766820D01*
G54D58*
G01X4343400Y3543300D02*
G01X4343400Y3454400D01*
G01X4275300Y3738400D02*
G01X4275300Y3611400D01*
G01X4178300Y3835400D02*
G01X4275300Y3738400D01*
G01X4275300Y3611400D02*
G01X4343400Y3543300D01*
G01X3771900Y3225800D02*
G01X4003040Y3225800D01*
G01X4011930Y3216910D01*
G54D60*
G01X3581400Y381000D02*
G01X3657600Y457200D01*
G54D58*
G01X3848100Y3708400D02*
G01X3848100Y3787255D01*
G01X3896245Y3835400D01*
G01X4178300D01*
G01X3763800Y3225800D02*
G01X3771900Y3225800D01*
G01X4089400Y4140200D02*
G01X4495800Y4140200D01*
G01X4597400Y4038600D01*
G01X4942576D01*
G01X4947788Y4043812D01*
G54D11*
G01X5156200Y3835400D01*
G54D61*
G01X3746500Y3136900D02*
G01X3981958Y3136900D01*
G01X4011930Y3106928D01*
G01X4128262Y3656838D02*
G01X4178300Y3606800D01*
G54D63*
G01X4216400Y3397060D02*
G01X4216400Y3695700D01*
G01X4145280Y3766820D01*
G54D61*
G01X3670300Y3213100D02*
G01X3746500Y3136900D01*
G54D63*
G01X4508500Y3104960D02*
G01X4540085Y3073375D01*
G01X4508500Y3111500D02*
G01X4508500Y3104960D01*
G01X4216400Y3397060D02*
G01X4330700Y3282760D01*
G01Y3238500D01*
G54D61*
G01X4178300Y3238500D02*
G01X4178300Y3606800D01*
G01X4330700Y3086100D02*
G01X4178300Y3238500D01*
G01X4533900Y2984500D02*
G01X4533900Y2979560D01*
G01X4540085Y2973375D01*
G01X4513059Y3200400D02*
G01X4540085Y3173374D01*
G01X3848100Y2425700D02*
G01X4330700Y2425700D01*
G01X3771900Y2501900D02*
G01X3848100Y2425700D01*
G01X4492574Y3273374D02*
G01X4602584Y3273374D01*
G01X4472260Y3200400D02*
G01X4513059Y3200400D01*
G01X4452260Y3180400D02*
G01X4472260Y3200400D01*
G01X4452260Y2547260D02*
G01X4452260Y3180400D01*
G01X4330700Y2425700D02*
G01X4452260Y2547260D01*
G01X4419600Y3200400D02*
G01X4492574Y3273374D01*
G01X4419600Y2603500D02*
G01X4419600Y3200400D01*
G01X4298000Y2481900D02*
G01X4419600Y2603500D01*
G01X3848100Y3556000D02*
G01X4002786Y3556000D01*
G01X4011930Y3546856D01*
G01X3556000Y3556000D02*
G01X3505200Y3505200D01*
G01X3848100Y3441700D02*
G01X4007104Y3441700D01*
G01X4011930Y3436874D01*
G54D60*
G01X6972300Y850900D02*
G01X6997700Y825500D01*
G01Y533000D01*
G01X7022700Y508000D02*
G01X7173041Y508000D01*
G01X6997700Y533000D02*
G01X7022700Y508000D01*
G54D58*
G01X6819900Y711200D02*
G01X6849900Y681200D01*
G01Y614200D01*
G01X6832600Y596900D01*
G54D63*
G01X6578600Y635000D02*
G01X6515100Y571500D01*
G01X6299200D01*
G54D60*
G01X7366000Y1224644D02*
G01X7366000Y1172841D01*
G54D61*
G01X4711700Y3492500D02*
G01X4690731Y3492500D01*
G01X4540085Y3643146D01*
G01X3505200Y3505200D02*
G01X3505200Y3162300D01*
G01X3771900Y2895600D01*
G01Y2501900D01*
G01X3606800Y3454400D02*
G01X3606800Y3175000D01*
G01X3835400Y2946400D01*
G01Y2535326D01*
G01X3888826Y2481900D01*
G01X4298000D01*
G01X4540085Y3643146D02*
G01X4540085Y3778415D01*
G01X4279900Y4038600D01*
G01X3860800D01*
G01X3670300Y3848100D01*
G01Y3213100D01*
G54D58*
G01X4406900Y3683000D02*
G01X4406900Y3822700D01*
G01X4267200Y3962400D01*
G01X3873500D01*
G54D61*
G01X4336100Y3652200D02*
G01X4336100Y3779200D01*
G01X4216400Y3898900D02*
G01X3898900Y3898900D01*
G01X4336100Y3779200D02*
G01X4216400Y3898900D01*
G01X3848608Y3326892D02*
G01X4011930Y3326892D01*
G01X3898900Y3898900D02*
G01X3779160Y3779160D01*
G01Y3396340D01*
G01X3848608Y3326892D01*
G54D58*
G01X3873500Y3962400D02*
G01X3721100Y3810000D01*
G01Y3268500D01*
G01X3763800Y3225800D01*
G54D61*
G01X4667326Y3473374D02*
G01X4514926Y3473374D01*
G01X4336100Y3652200D02*
G01X4514926Y3473374D01*
G54D60*
G01X7137400Y1453908D02*
G01X7137400Y1345800D01*
G01X7162400Y1320800D01*
G01X7269844D01*
G01X5778500Y1092200D02*
G01X5747840Y1122860D01*
G01X4285160D01*
G01X4051300Y889000D01*
G54D59*
G01X4178300Y685800D02*
G01X4318000Y825500D01*
G01Y965200D01*
G01X4370700Y1017900D01*
G54D58*
G01X4826000Y1257300D02*
G01X4876800Y1308100D01*
G01X5740400Y1485900D02*
G01X6248400Y977900D01*
G54D60*
G01X6921500Y596900D02*
G01X6914002Y604398D01*
G01Y1810898D01*
G01X6731000Y1993900D01*
G54D58*
G01X6718300Y990600D02*
G01X6718300Y876300D01*
G01X6807200Y1193800D02*
G01X6832600Y1168400D01*
G01Y1104900D01*
G01X6718300Y990600D01*
G54D59*
G01X6972300Y1206500D02*
G01X6986934Y1191866D01*
G01X7150100Y1130300D02*
G01X7105068Y1130300D01*
G01X7043502Y1191866D01*
G01X6986934D01*
G54D58*
G01X7095122Y1249200D02*
G01X7125122Y1219200D01*
G01X7043900Y1249200D02*
G01X7095122Y1249200D01*
G54D60*
G01X7121652Y1285748D02*
G01X7086600Y1320800D01*
G01Y1524000D01*
G54D58*
G01X7035800Y1600200D02*
G01X7005800Y1570200D01*
G01Y1287300D01*
G01X7043900Y1249200D01*
G54D60*
G01X7086600Y1524000D02*
G01X7112000Y1549400D01*
G01Y2895600D01*
G01X6997700Y3009900D01*
G54D59*
G01X7226300Y1384300D02*
G01X7264400Y1422400D01*
G01Y3314700D01*
G01X7124700Y3454400D01*
G54D60*
G01X7073900Y3073400D02*
G01X7188200Y2959100D01*
G01Y1504708D01*
G01X7137400Y1453908D01*
G01X7480300Y1524000D02*
G01X7416800Y1524000D01*
G01X7327900Y1612900D01*
G01Y2336800D01*
G54D58*
G01X7556500Y982500D02*
G01X7556500Y1533699D01*
G01X7381460Y1708740D01*
G01Y2171459D01*
G04 Track End*

M02*
