G04 Layer: TopSilkscreenLayer*
G04 EasyEDA Pro v2.1.49.573a4102.674264, 2024-03-06 21:11:32*
G04 Gerber Generator version 0.3*
G04 Scale: 100 percent, Rotated: No, Reflected: No*
G04 Dimensions in millimeters*
G04 Leading zeros omitted, absolute positions, 3 integers and 5 decimals*
G04 Panelize: V-CUT, Column: 2, Row: 2, Board Size: 105.286mm x 50.038mm, Panelized Board Size: 174.323mm x 101.42mm, Panelized Method: Only Board Outline*
%FSLAX35Y35*%
%MOMM*%
%ADD10C,0.15*%
%ADD11C,0.1524*%
%ADD12C,0.254*%
%ADD13C,0.2*%
%ADD14C,0.15199*%
%ADD15C,0.051*%
%ADD16C,0.3027*%
%ADD17C,0.3*%
G75*


G04 Text Start*
G54D10*
G01X1938020Y4717288D02*
G01X1938020Y4661662D01*
G01X1938020Y4717288D02*
G01X1959102Y4661662D01*
G01X1980438Y4717288D02*
G01X1959102Y4661662D01*
G01X1980438Y4717288D02*
G01X1980438Y4661662D01*
G01X2029460Y4717288D02*
G01X2008124Y4661662D01*
G01X2029460Y4717288D02*
G01X2050796Y4661662D01*
G01X2016252Y4680204D02*
G01X2042668Y4680204D01*
G01X2078482Y4717288D02*
G01X2078482Y4661662D01*
G01X2078482Y4717288D02*
G01X2097024Y4717288D01*
G01X2105152Y4714748D01*
G01X2110486Y4709414D01*
G01X2113026Y4704080D01*
G01X2115820Y4696206D01*
G01Y4682744D01*
G01X2113026Y4674870D01*
G01X2110486Y4669536D01*
G01X2105152Y4664202D01*
G01X2097024Y4661662D01*
G01X2078482D01*
G01X2143506Y4717288D02*
G01X2143506Y4661662D01*
G01X2143506Y4717288D02*
G01X2178050Y4717288D01*
G01X2143506Y4690872D02*
G01X2164842Y4690872D01*
G01X2143506Y4661662D02*
G01X2178050Y4661662D01*
G01X2265426Y4717288D02*
G01X2265426Y4661662D01*
G01X2265426Y4717288D02*
G01X2289302Y4717288D01*
G01X2297176Y4714748D01*
G01X2299716Y4711954D01*
G01X2302510Y4706874D01*
G01Y4701540D01*
G01X2299716Y4696206D01*
G01X2297176Y4693412D01*
G01X2289302Y4690872D01*
G01X2265426Y4690872D02*
G01X2289302Y4690872D01*
G01X2297176Y4688078D01*
G01X2299716Y4685538D01*
G01X2302510Y4680204D01*
G01Y4672330D01*
G01X2299716Y4666996D01*
G01X2297176Y4664202D01*
G01X2289302Y4661662D01*
G01X2265426D01*
G01X2330196Y4717288D02*
G01X2351532Y4690872D01*
G01Y4661662D01*
G01X2372868Y4717288D02*
G01X2351532Y4690872D01*
G01X2403348Y4693412D02*
G01X2400554Y4690872D01*
G01X2403348Y4688078D01*
G01X2405888Y4690872D01*
G01X2403348Y4693412D01*
G01X2403348Y4674870D02*
G01X2400554Y4672330D01*
G01X2403348Y4669536D01*
G01X2405888Y4672330D01*
G01X2403348Y4674870D01*
G01X2493264Y4717288D02*
G01X2493264Y4661662D01*
G01X2493264Y4717288D02*
G01X2530348Y4661662D01*
G01X2530348Y4717288D02*
G01X2530348Y4661662D01*
G01X2574036Y4717288D02*
G01X2568702Y4714748D01*
G01X2563368Y4709414D01*
G01X2560828Y4704080D01*
G01X2558034Y4696206D01*
G01Y4682744D01*
G01X2560828Y4674870D01*
G01X2563368Y4669536D01*
G01X2568702Y4664202D01*
G01X2574036Y4661662D01*
G01X2584704D01*
G01X2590038Y4664202D01*
G01X2595372Y4669536D01*
G01X2597912Y4674870D01*
G01X2600706Y4682744D01*
G01Y4696206D01*
G01X2597912Y4704080D01*
G01X2595372Y4709414D01*
G01X2590038Y4714748D01*
G01X2584704Y4717288D01*
G01X2574036D01*
G01X2628392Y4717288D02*
G01X2628392Y4661662D01*
G01X2628392Y4717288D02*
G01X2662936Y4717288D01*
G01X2628392Y4690872D02*
G01X2649728Y4690872D01*
G01X2628392Y4661662D02*
G01X2662936Y4661662D01*
G01X2690622Y4717288D02*
G01X2690622Y4661662D01*
G01X2690622Y4661662D02*
G01X2722626Y4661662D01*
G01X2810002Y4717288D02*
G01X2810002Y4661662D01*
G01X2810002Y4717288D02*
G01X2831084Y4661662D01*
G01X2852420Y4717288D02*
G01X2831084Y4661662D01*
G01X2852420Y4717288D02*
G01X2852420Y4661662D01*
G01X2901442Y4717288D02*
G01X2880106Y4661662D01*
G01X2901442Y4717288D02*
G01X2922778Y4661662D01*
G01X2888234Y4680204D02*
G01X2914650Y4680204D01*
G01X2969006Y4717288D02*
G01X2969006Y4661662D01*
G01X2950464Y4717288D02*
G01X2987802Y4717288D01*
G01X3015488Y4717288D02*
G01X3015488Y4661662D01*
G01X3015488Y4717288D02*
G01X3050032Y4717288D01*
G01X3015488Y4690872D02*
G01X3036824Y4690872D01*
G01X3015488Y4661662D02*
G01X3050032Y4661662D01*
G01X3077718Y4717288D02*
G01X3077718Y4661662D01*
G01X3077718Y4717288D02*
G01X3101594Y4717288D01*
G01X3109722Y4714748D01*
G01X3112262Y4711954D01*
G01X3115056Y4706874D01*
G01Y4701540D01*
G01X3112262Y4696206D01*
G01X3109722Y4693412D01*
G01X3101594Y4690872D01*
G01X3077718D01*
G01X3096260Y4690872D02*
G01X3115056Y4661662D01*
G01X3158744Y4717288D02*
G01X3153410Y4714748D01*
G01X3148076Y4709414D01*
G01X3145536Y4704080D01*
G01X3142742Y4696206D01*
G01Y4682744D01*
G01X3145536Y4674870D01*
G01X3148076Y4669536D01*
G01X3153410Y4664202D01*
G01X3158744Y4661662D01*
G01X3169412D01*
G01X3174746Y4664202D01*
G01X3180080Y4669536D01*
G01X3182620Y4674870D01*
G01X3185414Y4682744D01*
G01Y4696206D01*
G01X3182620Y4704080D01*
G01X3180080Y4709414D01*
G01X3174746Y4714748D01*
G01X3169412Y4717288D01*
G01X3158744D01*
G54D11*
G01X5212334Y2659380D02*
G01X5147310Y2659380D01*
G01X5212334Y2659380D02*
G01X5212334Y2619248D01*
G01X5181346Y2659380D02*
G01X5181346Y2634488D01*
G01X5212334Y2589022D02*
G01X5147310Y2589022D01*
G01X5212334Y2589022D02*
G01X5212334Y2561336D01*
G01X5209286Y2551938D01*
G01X5206238Y2548890D01*
G01X5199888Y2545842D01*
G01X5190744D01*
G01X5184648Y2548890D01*
G01X5181346Y2551938D01*
G01X5178298Y2561336D01*
G01Y2589022D01*
G01X5196840Y2469388D02*
G01X5203190Y2472436D01*
G01X5209286Y2478532D01*
G01X5212334Y2484882D01*
G01Y2497074D01*
G01X5209286Y2503424D01*
G01X5203190Y2509520D01*
G01X5196840Y2512568D01*
G01X5187696Y2515616D01*
G01X5172202D01*
G01X5162804Y2512568D01*
G01X5156708Y2509520D01*
G01X5150358Y2503424D01*
G01X5147310Y2497074D01*
G01Y2484882D01*
G01X5150358Y2478532D01*
G01X5156708Y2472436D01*
G01X5162804Y2469388D01*
G01X5199888Y2439162D02*
G01X5203190Y2433066D01*
G01X5212334Y2423922D01*
G01X5147310D01*
G01X6256020Y1173734D02*
G01X6256020Y1127252D01*
G01X6259068Y1118108D01*
G01X6265418Y1111758D01*
G01X6274562Y1108710D01*
G01X6280912D01*
G01X6290056Y1111758D01*
G01X6296152Y1118108D01*
G01X6299454Y1127252D01*
G01Y1173734D01*
G01X6332728Y1158240D02*
G01X6332728Y1161288D01*
G01X6335776Y1167638D01*
G01X6338824Y1170686D01*
G01X6344920Y1173734D01*
G01X6357366D01*
G01X6363716Y1170686D01*
G01X6366764Y1167638D01*
G01X6369812Y1161288D01*
G01Y1155192D01*
G01X6366764Y1149096D01*
G01X6360414Y1139698D01*
G01X6329680Y1108710D01*
G01X6372860D01*
G01X5481320Y653034D02*
G01X5481320Y606552D01*
G01X5484368Y597408D01*
G01X5490718Y591058D01*
G01X5499862Y588010D01*
G01X5506212D01*
G01X5515356Y591058D01*
G01X5521452Y597408D01*
G01X5524754Y606552D01*
G01Y653034D01*
G01X5598160Y643890D02*
G01X5592064Y649986D01*
G01X5582666Y653034D01*
G01X5570220D01*
G01X5561076Y649986D01*
G01X5554980Y643890D01*
G01Y637540D01*
G01X5558028Y631444D01*
G01X5561076Y628396D01*
G01X5567172Y625348D01*
G01X5585714Y618998D01*
G01X5592064Y615950D01*
G01X5595112Y612902D01*
G01X5598160Y606552D01*
G01Y597408D01*
G01X5592064Y591058D01*
G01X5582666Y588010D01*
G01X5570220D01*
G01X5561076Y591058D01*
G01X5554980Y597408D01*
G01X5628386Y653034D02*
G01X5628386Y588010D01*
G01X5628386Y653034D02*
G01X5656072Y653034D01*
G01X5665470Y649986D01*
G01X5668518Y646938D01*
G01X5671566Y640588D01*
G01Y634492D01*
G01X5668518Y628396D01*
G01X5665470Y625348D01*
G01X5656072Y622046D01*
G01X5628386Y622046D02*
G01X5656072Y622046D01*
G01X5665470Y618998D01*
G01X5668518Y615950D01*
G01X5671566Y609854D01*
G01Y600456D01*
G01X5668518Y594360D01*
G01X5665470Y591058D01*
G01X5656072Y588010D01*
G01X5628386D01*
G01X5704840Y637540D02*
G01X5704840Y640588D01*
G01X5707888Y646938D01*
G01X5710936Y649986D01*
G01X5717032Y653034D01*
G01X5729478D01*
G01X5735828Y649986D01*
G01X5738876Y646938D01*
G01X5741924Y640588D01*
G01Y634492D01*
G01X5738876Y628396D01*
G01X5732526Y618998D01*
G01X5701792Y588010D01*
G01X5744972D01*
G01X7731760Y2771902D02*
G01X7725410Y2768854D01*
G01X7719314Y2762504D01*
G01X7716266Y2756408D01*
G01Y2743962D01*
G01X7719314Y2737866D01*
G01X7725410Y2731516D01*
G01X7731760Y2728468D01*
G01X7740904Y2725420D01*
G01X7756398D01*
G01X7765796Y2728468D01*
G01X7771892Y2731516D01*
G01X7778242Y2737866D01*
G01X7781290Y2743962D01*
G01Y2756408D01*
G01X7778242Y2762504D01*
G01X7771892Y2768854D01*
G01X7765796Y2771902D01*
G01X7716266Y2802128D02*
G01X7781290Y2802128D01*
G01X7716266Y2802128D02*
G01X7781290Y2845308D01*
G01X7716266Y2845308D02*
G01X7781290Y2845308D01*
G01X7728712Y2875534D02*
G01X7725410Y2881630D01*
G01X7716266Y2890774D01*
G01X7781290D01*
G01X7868920Y1986534D02*
G01X7868920Y1940052D01*
G01X7871968Y1930908D01*
G01X7878318Y1924558D01*
G01X7887462Y1921510D01*
G01X7893812D01*
G01X7902956Y1924558D01*
G01X7909052Y1930908D01*
G01X7912354Y1940052D01*
G01Y1986534D01*
G01X7979664Y1986534D02*
G01X7948676Y1986534D01*
G01X7945628Y1958848D01*
G01X7948676Y1961896D01*
G01X7957820Y1964944D01*
G01X7967218D01*
G01X7976616Y1961896D01*
G01X7982712Y1955546D01*
G01X7985760Y1946402D01*
G01Y1940052D01*
G01X7982712Y1930908D01*
G01X7976616Y1924558D01*
G01X7967218Y1921510D01*
G01X7957820D01*
G01X7948676Y1924558D01*
G01X7945628Y1927860D01*
G01X7942580Y1933956D01*
G01X7386320Y4247134D02*
G01X7386320Y4200652D01*
G01X7389368Y4191508D01*
G01X7395718Y4185158D01*
G01X7404862Y4182110D01*
G01X7411212D01*
G01X7420356Y4185158D01*
G01X7426452Y4191508D01*
G01X7429754Y4200652D01*
G01Y4247134D01*
G01X7497064Y4237990D02*
G01X7494016Y4244086D01*
G01X7484618Y4247134D01*
G01X7478522D01*
G01X7469124Y4244086D01*
G01X7463028Y4234688D01*
G01X7459980Y4219448D01*
G01Y4203954D01*
G01X7463028Y4191508D01*
G01X7469124Y4185158D01*
G01X7478522Y4182110D01*
G01X7481570D01*
G01X7490714Y4185158D01*
G01X7497064Y4191508D01*
G01X7500112Y4200652D01*
G01Y4203954D01*
G01X7497064Y4213098D01*
G01X7490714Y4219448D01*
G01X7481570Y4222496D01*
G01X7478522D01*
G01X7469124Y4219448D01*
G01X7463028Y4213098D01*
G01X7459980Y4203954D01*
G01X7500620Y437134D02*
G01X7500620Y372110D01*
G01X7500620Y372110D02*
G01X7537704Y372110D01*
G01X7567930Y437134D02*
G01X7567930Y372110D01*
G01X7567930Y437134D02*
G01X7608062Y437134D01*
G01X7567930Y406146D02*
G01X7592568Y406146D01*
G01X7567930Y372110D02*
G01X7608062Y372110D01*
G01X7638288Y437134D02*
G01X7638288Y372110D01*
G01X7638288Y437134D02*
G01X7659878Y437134D01*
G01X7669022Y434086D01*
G01X7675372Y427990D01*
G01X7678420Y421640D01*
G01X7681468Y412496D01*
G01Y397002D01*
G01X7678420Y387604D01*
G01X7675372Y381508D01*
G01X7669022Y375158D01*
G01X7659878Y372110D01*
G01X7638288D01*
G01X7742428Y437134D02*
G01X7711694Y393954D01*
G01X7757922D01*
G01X7742428Y437134D02*
G01X7742428Y372110D01*
G01X7272020Y1224534D02*
G01X7272020Y1159510D01*
G01X7272020Y1224534D02*
G01X7299960Y1224534D01*
G01X7309104Y1221486D01*
G01X7312152Y1218438D01*
G01X7315454Y1212088D01*
G01Y1205992D01*
G01X7312152Y1199896D01*
G01X7309104Y1196848D01*
G01X7299960Y1193546D01*
G01X7272020D01*
G01X7293610Y1193546D02*
G01X7315454Y1159510D01*
G01X7382764Y1215390D02*
G01X7379716Y1221486D01*
G01X7370318Y1224534D01*
G01X7364222D01*
G01X7354824Y1221486D01*
G01X7348728Y1212088D01*
G01X7345680Y1196848D01*
G01Y1181354D01*
G01X7348728Y1168908D01*
G01X7354824Y1162558D01*
G01X7364222Y1159510D01*
G01X7367270D01*
G01X7376414Y1162558D01*
G01X7382764Y1168908D01*
G01X7385812Y1178052D01*
G01Y1181354D01*
G01X7382764Y1190498D01*
G01X7376414Y1196848D01*
G01X7367270Y1199896D01*
G01X7364222D01*
G01X7354824Y1196848D01*
G01X7348728Y1190498D01*
G01X7345680Y1181354D01*
G01X4084320Y805434D02*
G01X4084320Y740410D01*
G01X4084320Y805434D02*
G01X4112260Y805434D01*
G01X4121404Y802386D01*
G01X4124452Y799338D01*
G01X4127754Y792988D01*
G01Y786892D01*
G01X4124452Y780796D01*
G01X4121404Y777748D01*
G01X4112260Y774446D01*
G01X4084320D01*
G01X4105910Y774446D02*
G01X4127754Y740410D01*
G01X4201160Y805434D02*
G01X4170172Y740410D01*
G01X4157980Y805434D02*
G01X4201160Y805434D01*
G01X4249420Y386334D02*
G01X4249420Y321310D01*
G01X4249420Y321310D02*
G01X4286504Y321310D01*
G01X4316730Y386334D02*
G01X4316730Y321310D01*
G01X4316730Y386334D02*
G01X4356862Y386334D01*
G01X4316730Y355346D02*
G01X4341368Y355346D01*
G01X4316730Y321310D02*
G01X4356862Y321310D01*
G01X4387088Y386334D02*
G01X4387088Y321310D01*
G01X4387088Y386334D02*
G01X4408678Y386334D01*
G01X4417822Y383286D01*
G01X4424172Y377190D01*
G01X4427220Y370840D01*
G01X4430268Y361696D01*
G01Y346202D01*
G01X4427220Y336804D01*
G01X4424172Y330708D01*
G01X4417822Y324358D01*
G01X4408678Y321310D01*
G01X4387088D01*
G01X4497578Y386334D02*
G01X4466590Y386334D01*
G01X4463542Y358648D01*
G01X4466590Y361696D01*
G01X4475734Y364744D01*
G01X4485132D01*
G01X4494530Y361696D01*
G01X4500626Y355346D01*
G01X4503674Y346202D01*
G01Y339852D01*
G01X4500626Y330708D01*
G01X4494530Y324358D01*
G01X4485132Y321310D01*
G01X4475734D01*
G01X4466590Y324358D01*
G01X4463542Y327660D01*
G01X4460494Y333756D01*
G01X8059420Y614934D02*
G01X8059420Y568452D01*
G01X8062468Y559308D01*
G01X8068818Y552958D01*
G01X8077962Y549910D01*
G01X8084312D01*
G01X8093456Y552958D01*
G01X8099552Y559308D01*
G01X8102854Y568452D01*
G01Y614934D01*
G01X8176260Y614934D02*
G01X8145272Y549910D01*
G01X8133080Y614934D02*
G01X8176260Y614934D01*
G01X2922524Y628396D02*
G01X2916428Y625348D01*
G01X2910078Y619252D01*
G01X2907030Y612902D01*
G01X2903982Y603758D01*
G01Y588264D01*
G01X2907030Y578866D01*
G01X2910078Y572770D01*
G01X2916428Y566420D01*
G01X2922524Y563372D01*
G01X2934970D01*
G01X2941066Y566420D01*
G01X2947416Y572770D01*
G01X2950464Y578866D01*
G01X2953512Y588264D01*
G01Y603758D01*
G01X2950464Y612902D01*
G01X2947416Y619252D01*
G01X2941066Y625348D01*
G01X2934970Y628396D01*
G01X2922524D01*
G01X2931922Y575818D02*
G01X2950464Y557276D01*
G01X3026918Y628396D02*
G01X2995930Y563372D01*
G01X2983738Y628396D02*
G01X3026918Y628396D01*
G01X3169920Y665734D02*
G01X3169920Y600710D01*
G01X3169920Y665734D02*
G01X3197860Y665734D01*
G01X3207004Y662686D01*
G01X3210052Y659638D01*
G01X3213354Y653288D01*
G01Y647192D01*
G01X3210052Y641096D01*
G01X3207004Y638048D01*
G01X3197860Y634746D01*
G01X3169920D01*
G01X3191510Y634746D02*
G01X3213354Y600710D01*
G01X3283712Y644144D02*
G01X3280664Y634746D01*
G01X3274314Y628650D01*
G01X3265170Y625602D01*
G01X3262122D01*
G01X3252724Y628650D01*
G01X3246628Y634746D01*
G01X3243580Y644144D01*
G01Y647192D01*
G01X3246628Y656590D01*
G01X3252724Y662686D01*
G01X3262122Y665734D01*
G01X3265170D01*
G01X3274314Y662686D01*
G01X3280664Y656590D01*
G01X3283712Y644144D01*
G01Y628650D01*
G01X3280664Y613156D01*
G01X3274314Y603758D01*
G01X3265170Y600710D01*
G01X3258820D01*
G01X3249676Y603758D01*
G01X3246628Y610108D01*
G01X3093720Y310134D02*
G01X3093720Y245110D01*
G01X3093720Y310134D02*
G01X3121660Y310134D01*
G01X3130804Y307086D01*
G01X3133852Y304038D01*
G01X3137154Y297688D01*
G01Y291592D01*
G01X3133852Y285496D01*
G01X3130804Y282448D01*
G01X3121660Y279146D01*
G01X3093720D01*
G01X3115310Y279146D02*
G01X3137154Y245110D01*
G01X3167380Y297688D02*
G01X3173476Y300990D01*
G01X3182620Y310134D01*
G01Y245110D01*
G01X3231388Y310134D02*
G01X3221990Y307086D01*
G01X3215894Y297688D01*
G01X3212846Y282448D01*
G01Y273050D01*
G01X3215894Y257556D01*
G01X3221990Y248158D01*
G01X3231388Y245110D01*
G01X3237484D01*
G01X3246882Y248158D01*
G01X3252978Y257556D01*
G01X3256026Y273050D01*
G01Y282448D01*
G01X3252978Y297688D01*
G01X3246882Y307086D01*
G01X3237484Y310134D01*
G01X3231388D01*
G01X5350002Y853440D02*
G01X5346954Y859790D01*
G01X5340604Y865886D01*
G01X5334508Y868934D01*
G01X5322062D01*
G01X5315966Y865886D01*
G01X5309616Y859790D01*
G01X5306568Y853440D01*
G01X5303520Y844296D01*
G01Y828802D01*
G01X5306568Y819404D01*
G01X5309616Y813308D01*
G01X5315966Y806958D01*
G01X5322062Y803910D01*
G01X5334508D01*
G01X5340604Y806958D01*
G01X5346954Y813308D01*
G01X5350002Y819404D01*
G01X5417312Y868934D02*
G01X5386324Y868934D01*
G01X5383276Y841248D01*
G01X5386324Y844296D01*
G01X5395468Y847344D01*
G01X5404866D01*
G01X5414264Y844296D01*
G01X5420360Y837946D01*
G01X5423408Y828802D01*
G01Y822452D01*
G01X5420360Y813308D01*
G01X5414264Y806958D01*
G01X5404866Y803910D01*
G01X5395468D01*
G01X5386324Y806958D01*
G01X5383276Y810260D01*
G01X5380228Y816356D01*
G01X4026662Y424434D02*
G01X4020566Y421386D01*
G01X4014216Y415290D01*
G01X4011168Y408940D01*
G01X4008120Y399796D01*
G01Y384302D01*
G01X4011168Y374904D01*
G01X4014216Y368808D01*
G01X4020566Y362458D01*
G01X4026662Y359410D01*
G01X4039108D01*
G01X4045204Y362458D01*
G01X4051554Y368808D01*
G01X4054602Y374904D01*
G01X4057650Y384302D01*
G01Y399796D01*
G01X4054602Y408940D01*
G01X4051554Y415290D01*
G01X4045204Y421386D01*
G01X4039108Y424434D01*
G01X4026662D01*
G01X4036060Y371856D02*
G01X4054602Y353314D01*
G01X4103116Y424434D02*
G01X4093972Y421386D01*
G01X4090924Y415290D01*
G01Y408940D01*
G01X4093972Y402844D01*
G01X4100068Y399796D01*
G01X4112514Y396748D01*
G01X4121912Y393446D01*
G01X4128008Y387350D01*
G01X4131056Y381254D01*
G01Y371856D01*
G01X4128008Y365760D01*
G01X4124960Y362458D01*
G01X4115562Y359410D01*
G01X4103116D01*
G01X4093972Y362458D01*
G01X4090924Y365760D01*
G01X4087876Y371856D01*
G01Y381254D01*
G01X4090924Y387350D01*
G01X4097020Y393446D01*
G01X4106418Y396748D01*
G01X4118610Y399796D01*
G01X4124960Y402844D01*
G01X4128008Y408940D01*
G01Y415290D01*
G01X4124960Y421386D01*
G01X4115562Y424434D01*
G01X4103116D01*
G01X6764020Y4717034D02*
G01X6764020Y4652010D01*
G01X6764020Y4717034D02*
G01X6791960Y4717034D01*
G01X6801104Y4713986D01*
G01X6804152Y4710938D01*
G01X6807454Y4704588D01*
G01Y4698492D01*
G01X6804152Y4692396D01*
G01X6801104Y4689348D01*
G01X6791960Y4686046D01*
G01X6764020D01*
G01X6785610Y4686046D02*
G01X6807454Y4652010D01*
G01X6837680Y4704588D02*
G01X6843776Y4707890D01*
G01X6852920Y4717034D01*
G01Y4652010D01*
G01X6883146Y4704588D02*
G01X6889242Y4707890D01*
G01X6898386Y4717034D01*
G01Y4652010D01*
G01X6865620Y4043934D02*
G01X6865620Y3997452D01*
G01X6868668Y3988308D01*
G01X6875018Y3981958D01*
G01X6884162Y3978910D01*
G01X6890512D01*
G01X6899656Y3981958D01*
G01X6905752Y3988308D01*
G01X6909054Y3997452D01*
G01Y4043934D01*
G01X6945376Y4043934D02*
G01X6979412Y4043934D01*
G01X6960870Y4019296D01*
G01X6970014D01*
G01X6976364Y4016248D01*
G01X6979412Y4012946D01*
G01X6982460Y4003802D01*
G01Y3997452D01*
G01X6979412Y3988308D01*
G01X6973316Y3981958D01*
G01X6963918Y3978910D01*
G01X6954520D01*
G01X6945376Y3981958D01*
G01X6942328Y3985260D01*
G01X6939280Y3991356D01*
G01X7018782Y4043934D02*
G01X7052818Y4043934D01*
G01X7034276Y4019296D01*
G01X7043420D01*
G01X7049770Y4016248D01*
G01X7052818Y4012946D01*
G01X7055866Y4003802D01*
G01Y3997452D01*
G01X7052818Y3988308D01*
G01X7046722Y3981958D01*
G01X7037324Y3978910D01*
G01X7027926D01*
G01X7018782Y3981958D01*
G01X7015734Y3985260D01*
G01X7012686Y3991356D01*
G01X3462020Y4488434D02*
G01X3462020Y4423410D01*
G01X3462020Y4488434D02*
G01X3489960Y4488434D01*
G01X3499104Y4485386D01*
G01X3502152Y4482338D01*
G01X3505454Y4475988D01*
G01Y4466844D01*
G01X3502152Y4460748D01*
G01X3499104Y4457446D01*
G01X3489960Y4454398D01*
G01X3462020D01*
G01X3581908Y4472940D02*
G01X3578860Y4479290D01*
G01X3572764Y4485386D01*
G01X3566414Y4488434D01*
G01X3554222D01*
G01X3547872Y4485386D01*
G01X3541776Y4479290D01*
G01X3538728Y4472940D01*
G01X3535680Y4463796D01*
G01Y4448302D01*
G01X3538728Y4438904D01*
G01X3541776Y4432808D01*
G01X3547872Y4426458D01*
G01X3554222Y4423410D01*
G01X3566414D01*
G01X3572764Y4426458D01*
G01X3578860Y4432808D01*
G01X3581908Y4438904D01*
G01X3655314Y4479290D02*
G01X3649218Y4485386D01*
G01X3639820Y4488434D01*
G01X3627374D01*
G01X3618230Y4485386D01*
G01X3612134Y4479290D01*
G01Y4472940D01*
G01X3615182Y4466844D01*
G01X3618230Y4463796D01*
G01X3624326Y4460748D01*
G01X3642868Y4454398D01*
G01X3649218Y4451350D01*
G01X3652266Y4448302D01*
G01X3655314Y4441952D01*
G01Y4432808D01*
G01X3649218Y4426458D01*
G01X3639820Y4423410D01*
G01X3627374D01*
G01X3618230Y4426458D01*
G01X3612134Y4432808D01*
G01X3688588Y4438904D02*
G01X3685540Y4435856D01*
G01X3688588Y4432808D01*
G01X3691636Y4435856D01*
G01X3688588Y4438904D01*
G01X3758946Y4488434D02*
G01X3727958Y4488434D01*
G01X3724910Y4460748D01*
G01X3727958Y4463796D01*
G01X3737102Y4466844D01*
G01X3746500D01*
G01X3755898Y4463796D01*
G01X3761994Y4457446D01*
G01X3765042Y4448302D01*
G01Y4441952D01*
G01X3761994Y4432808D01*
G01X3755898Y4426458D01*
G01X3746500Y4423410D01*
G01X3737102D01*
G01X3727958Y4426458D01*
G01X3724910Y4429760D01*
G01X3721862Y4435856D01*
G01X3832352Y4488434D02*
G01X3801364Y4488434D01*
G01X3798316Y4460748D01*
G01X3801364Y4463796D01*
G01X3810508Y4466844D01*
G01X3819906D01*
G01X3829304Y4463796D01*
G01X3835400Y4457446D01*
G01X3838448Y4448302D01*
G01Y4441952D01*
G01X3835400Y4432808D01*
G01X3829304Y4426458D01*
G01X3819906Y4423410D01*
G01X3810508D01*
G01X3801364Y4426458D01*
G01X3798316Y4429760D01*
G01X3795268Y4435856D01*
G01X3871722Y4438904D02*
G01X3868674Y4435856D01*
G01X3871722Y4432808D01*
G01X3874770Y4435856D01*
G01X3871722Y4438904D01*
G01X3929634Y4488434D02*
G01X3904996Y4423410D01*
G01X3929634Y4488434D02*
G01X3954526Y4423410D01*
G01X3914140Y4445254D02*
G01X3945128Y4445254D01*
G01X3508502Y4625340D02*
G01X3505454Y4631690D01*
G01X3499104Y4637786D01*
G01X3493008Y4640834D01*
G01X3480562D01*
G01X3474466Y4637786D01*
G01X3468116Y4631690D01*
G01X3465068Y4625340D01*
G01X3462020Y4616196D01*
G01Y4600702D01*
G01X3465068Y4591304D01*
G01X3468116Y4585208D01*
G01X3474466Y4578858D01*
G01X3480562Y4575810D01*
G01X3493008D01*
G01X3499104Y4578858D01*
G01X3505454Y4585208D01*
G01X3508502Y4591304D01*
G01X3578860Y4619244D02*
G01X3575812Y4609846D01*
G01X3569462Y4603750D01*
G01X3560318Y4600702D01*
G01X3557270D01*
G01X3547872Y4603750D01*
G01X3541776Y4609846D01*
G01X3538728Y4619244D01*
G01Y4622292D01*
G01X3541776Y4631690D01*
G01X3547872Y4637786D01*
G01X3557270Y4640834D01*
G01X3560318D01*
G01X3569462Y4637786D01*
G01X3575812Y4631690D01*
G01X3578860Y4619244D01*
G01Y4603750D01*
G01X3575812Y4588256D01*
G01X3569462Y4578858D01*
G01X3560318Y4575810D01*
G01X3553968D01*
G01X3544824Y4578858D01*
G01X3541776Y4585208D01*
G01X3817620Y4653534D02*
G01X3817620Y4588510D01*
G01X3817620Y4588510D02*
G01X3854704Y4588510D01*
G01X3884930Y4641088D02*
G01X3891026Y4644390D01*
G01X3900170Y4653534D01*
G01Y4588510D01*
G01X3284220Y4640834D02*
G01X3284220Y4575810D01*
G01X3284220Y4640834D02*
G01X3305810Y4640834D01*
G01X3315208Y4637786D01*
G01X3321304Y4631690D01*
G01X3324352Y4625340D01*
G01X3327654Y4616196D01*
G01Y4600702D01*
G01X3324352Y4591304D01*
G01X3321304Y4585208D01*
G01X3315208Y4578858D01*
G01X3305810Y4575810D01*
G01X3284220D01*
G01X3360928Y4625340D02*
G01X3360928Y4628388D01*
G01X3363976Y4634738D01*
G01X3367024Y4637786D01*
G01X3373120Y4640834D01*
G01X3385566D01*
G01X3391916Y4637786D01*
G01X3394964Y4634738D01*
G01X3398012Y4628388D01*
G01Y4622292D01*
G01X3394964Y4616196D01*
G01X3388614Y4606798D01*
G01X3357880Y4575810D01*
G01X3401060D01*
G01X7998224Y4130017D02*
G01X7998224Y4064993D01*
G01X7998224Y4064993D02*
G01X8035308Y4064993D01*
G01X8065534Y4130017D02*
G01X8065534Y4064993D01*
G01X8065534Y4130017D02*
G01X8105666Y4130017D01*
G01X8065534Y4099029D02*
G01X8090172Y4099029D01*
G01X8065534Y4064993D02*
G01X8105666Y4064993D01*
G01X8135892Y4130017D02*
G01X8135892Y4064993D01*
G01X8135892Y4130017D02*
G01X8157482Y4130017D01*
G01X8166626Y4126969D01*
G01X8172976Y4120873D01*
G01X8176024Y4114523D01*
G01X8179072Y4105379D01*
G01Y4089885D01*
G01X8176024Y4080487D01*
G01X8172976Y4074391D01*
G01X8166626Y4068041D01*
G01X8157482Y4064993D01*
G01X8135892D01*
G01X8249430Y4108427D02*
G01X8246382Y4099029D01*
G01X8240032Y4092933D01*
G01X8230888Y4089885D01*
G01X8227840D01*
G01X8218442Y4092933D01*
G01X8212346Y4099029D01*
G01X8209298Y4108427D01*
G01Y4111475D01*
G01X8212346Y4120873D01*
G01X8218442Y4126969D01*
G01X8227840Y4130017D01*
G01X8230888D01*
G01X8240032Y4126969D01*
G01X8246382Y4120873D01*
G01X8249430Y4108427D01*
G01Y4092933D01*
G01X8246382Y4077439D01*
G01X8240032Y4068041D01*
G01X8230888Y4064993D01*
G01X8224538D01*
G01X8215394Y4068041D01*
G01X8212346Y4074391D01*
G01X7932420Y4907534D02*
G01X7932420Y4842510D01*
G01X7932420Y4907534D02*
G01X7960360Y4907534D01*
G01X7969504Y4904486D01*
G01X7972552Y4901438D01*
G01X7975854Y4895088D01*
G01Y4888992D01*
G01X7972552Y4882896D01*
G01X7969504Y4879848D01*
G01X7960360Y4876546D01*
G01X7932420D01*
G01X7954010Y4876546D02*
G01X7975854Y4842510D01*
G01X8009128Y4892040D02*
G01X8009128Y4895088D01*
G01X8012176Y4901438D01*
G01X8015224Y4904486D01*
G01X8021320Y4907534D01*
G01X8033766D01*
G01X8040116Y4904486D01*
G01X8043164Y4901438D01*
G01X8046212Y4895088D01*
G01Y4888992D01*
G01X8043164Y4882896D01*
G01X8036814Y4873498D01*
G01X8006080Y4842510D01*
G01X8049260D01*
G01X8116570Y4907534D02*
G01X8085582Y4907534D01*
G01X8082534Y4879848D01*
G01X8085582Y4882896D01*
G01X8094726Y4885944D01*
G01X8104124D01*
G01X8113522Y4882896D01*
G01X8119618Y4876546D01*
G01X8122666Y4867402D01*
G01Y4861052D01*
G01X8119618Y4851908D01*
G01X8113522Y4845558D01*
G01X8104124Y4842510D01*
G01X8094726D01*
G01X8085582Y4845558D01*
G01X8082534Y4848860D01*
G01X8079486Y4854956D01*
G01X5159502Y2872740D02*
G01X5156454Y2879090D01*
G01X5150104Y2885186D01*
G01X5144008Y2888234D01*
G01X5131562D01*
G01X5125466Y2885186D01*
G01X5119116Y2879090D01*
G01X5116068Y2872740D01*
G01X5113020Y2863596D01*
G01Y2848102D01*
G01X5116068Y2838704D01*
G01X5119116Y2832608D01*
G01X5125466Y2826258D01*
G01X5131562Y2823210D01*
G01X5144008D01*
G01X5150104Y2826258D01*
G01X5156454Y2832608D01*
G01X5159502Y2838704D01*
G01X5189728Y2875788D02*
G01X5195824Y2879090D01*
G01X5204968Y2888234D01*
G01Y2823210D01*
G01X5275326Y2866644D02*
G01X5272278Y2857246D01*
G01X5265928Y2851150D01*
G01X5256784Y2848102D01*
G01X5253736D01*
G01X5244338Y2851150D01*
G01X5238242Y2857246D01*
G01X5235194Y2866644D01*
G01Y2869692D01*
G01X5238242Y2879090D01*
G01X5244338Y2885186D01*
G01X5253736Y2888234D01*
G01X5256784D01*
G01X5265928Y2885186D01*
G01X5272278Y2879090D01*
G01X5275326Y2866644D01*
G01Y2851150D01*
G01X5272278Y2835656D01*
G01X5265928Y2826258D01*
G01X5256784Y2823210D01*
G01X5250434D01*
G01X5241290Y2826258D01*
G01X5238242Y2832608D01*
G01X7693660Y1565402D02*
G01X7687310Y1562354D01*
G01X7681214Y1556004D01*
G01X7678166Y1549908D01*
G01Y1537462D01*
G01X7681214Y1531366D01*
G01X7687310Y1525016D01*
G01X7693660Y1521968D01*
G01X7702804Y1518920D01*
G01X7718298D01*
G01X7727696Y1521968D01*
G01X7733792Y1525016D01*
G01X7740142Y1531366D01*
G01X7743190Y1537462D01*
G01Y1549908D01*
G01X7740142Y1556004D01*
G01X7733792Y1562354D01*
G01X7727696Y1565402D01*
G01X7690612Y1595628D02*
G01X7687310Y1601724D01*
G01X7678166Y1610868D01*
G01X7743190D01*
G01X7678166Y1684274D02*
G01X7743190Y1653286D01*
G01X7678166Y1641094D02*
G01X7678166Y1684274D01*
G01X7068820Y4437634D02*
G01X7068820Y4372610D01*
G01X7068820Y4437634D02*
G01X7096760Y4437634D01*
G01X7105904Y4434586D01*
G01X7108952Y4431538D01*
G01X7112254Y4425188D01*
G01Y4419092D01*
G01X7108952Y4412996D01*
G01X7105904Y4409948D01*
G01X7096760Y4406646D01*
G01X7068820D01*
G01X7090410Y4406646D02*
G01X7112254Y4372610D01*
G01X7145528Y4422140D02*
G01X7145528Y4425188D01*
G01X7148576Y4431538D01*
G01X7151624Y4434586D01*
G01X7157720Y4437634D01*
G01X7170166D01*
G01X7176516Y4434586D01*
G01X7179564Y4431538D01*
G01X7182612Y4425188D01*
G01Y4419092D01*
G01X7179564Y4412996D01*
G01X7173214Y4403598D01*
G01X7142480Y4372610D01*
G01X7185660D01*
G01X7246620Y4437634D02*
G01X7215886Y4394454D01*
G01X7262114D01*
G01X7246620Y4437634D02*
G01X7246620Y4372610D01*
G01X5306060Y3343402D02*
G01X5299710Y3340354D01*
G01X5293614Y3334004D01*
G01X5290566Y3327908D01*
G01Y3315462D01*
G01X5293614Y3309366D01*
G01X5299710Y3303016D01*
G01X5306060Y3299968D01*
G01X5315204Y3296920D01*
G01X5330698D01*
G01X5340096Y3299968D01*
G01X5346192Y3303016D01*
G01X5352542Y3309366D01*
G01X5355590Y3315462D01*
G01Y3327908D01*
G01X5352542Y3334004D01*
G01X5346192Y3340354D01*
G01X5340096Y3343402D01*
G01X5306060Y3376676D02*
G01X5303012Y3376676D01*
G01X5296662Y3379724D01*
G01X5293614Y3382772D01*
G01X5290566Y3388868D01*
G01Y3401314D01*
G01X5293614Y3407664D01*
G01X5296662Y3410712D01*
G01X5303012Y3413760D01*
G01X5309108D01*
G01X5315204Y3410712D01*
G01X5324602Y3404362D01*
G01X5355590Y3373628D01*
G01Y3416808D01*
G01X5303012Y3447034D02*
G01X5299710Y3453130D01*
G01X5290566Y3462274D01*
G01X5355590D01*
G01X7759786Y640413D02*
G01X7759786Y575389D01*
G01X7759786Y640413D02*
G01X7787726Y640413D01*
G01X7796870Y637365D01*
G01X7799918Y634317D01*
G01X7803220Y627967D01*
G01Y621871D01*
G01X7799918Y615775D01*
G01X7796870Y612727D01*
G01X7787726Y609425D01*
G01X7759786D01*
G01X7781376Y609425D02*
G01X7803220Y575389D01*
G01X7833446Y627967D02*
G01X7839542Y631269D01*
G01X7848686Y640413D01*
G01Y575389D01*
G01X7881960Y624919D02*
G01X7881960Y627967D01*
G01X7885008Y634317D01*
G01X7888056Y637365D01*
G01X7894152Y640413D01*
G01X7906598D01*
G01X7912948Y637365D01*
G01X7915996Y634317D01*
G01X7919044Y627967D01*
G01Y621871D01*
G01X7915996Y615775D01*
G01X7909646Y606377D01*
G01X7878912Y575389D01*
G01X7922092D01*
G01X7788402Y1361440D02*
G01X7785354Y1367790D01*
G01X7779004Y1373886D01*
G01X7772908Y1376934D01*
G01X7760462D01*
G01X7754366Y1373886D01*
G01X7748016Y1367790D01*
G01X7744968Y1361440D01*
G01X7741920Y1352296D01*
G01Y1336802D01*
G01X7744968Y1327404D01*
G01X7748016Y1321308D01*
G01X7754366Y1314958D01*
G01X7760462Y1311910D01*
G01X7772908D01*
G01X7779004Y1314958D01*
G01X7785354Y1321308D01*
G01X7788402Y1327404D01*
G01X7821676Y1361440D02*
G01X7821676Y1364488D01*
G01X7824724Y1370838D01*
G01X7827772Y1373886D01*
G01X7833868Y1376934D01*
G01X7846314D01*
G01X7852664Y1373886D01*
G01X7855712Y1370838D01*
G01X7858760Y1364488D01*
G01Y1358392D01*
G01X7855712Y1352296D01*
G01X7849362Y1342898D01*
G01X7818628Y1311910D01*
G01X7861808D01*
G01X7898130Y1376934D02*
G01X7932166Y1376934D01*
G01X7913624Y1352296D01*
G01X7922768D01*
G01X7929118Y1349248D01*
G01X7932166Y1345946D01*
G01X7935214Y1336802D01*
G01Y1330452D01*
G01X7932166Y1321308D01*
G01X7926070Y1314958D01*
G01X7916672Y1311910D01*
G01X7907274D01*
G01X7898130Y1314958D01*
G01X7895082Y1318260D01*
G01X7892034Y1324356D01*
G01X6658102Y154940D02*
G01X6655054Y161290D01*
G01X6648704Y167386D01*
G01X6642608Y170434D01*
G01X6630162D01*
G01X6624066Y167386D01*
G01X6617716Y161290D01*
G01X6614668Y154940D01*
G01X6611620Y145796D01*
G01Y130302D01*
G01X6614668Y120904D01*
G01X6617716Y114808D01*
G01X6624066Y108458D01*
G01X6630162Y105410D01*
G01X6642608D01*
G01X6648704Y108458D01*
G01X6655054Y114808D01*
G01X6658102Y120904D01*
G01X6691376Y154940D02*
G01X6691376Y157988D01*
G01X6694424Y164338D01*
G01X6697472Y167386D01*
G01X6703568Y170434D01*
G01X6716014D01*
G01X6722364Y167386D01*
G01X6725412Y164338D01*
G01X6728460Y157988D01*
G01Y151892D01*
G01X6725412Y145796D01*
G01X6719062Y136398D01*
G01X6688328Y105410D01*
G01X6731508D01*
G01X6798818Y161290D02*
G01X6795770Y167386D01*
G01X6786372Y170434D01*
G01X6780276D01*
G01X6770878Y167386D01*
G01X6764782Y157988D01*
G01X6761734Y142748D01*
G01Y127254D01*
G01X6764782Y114808D01*
G01X6770878Y108458D01*
G01X6780276Y105410D01*
G01X6783324D01*
G01X6792468Y108458D01*
G01X6798818Y114808D01*
G01X6801866Y123952D01*
G01Y127254D01*
G01X6798818Y136398D01*
G01X6792468Y142748D01*
G01X6783324Y145796D01*
G01X6780276D01*
G01X6770878Y142748D01*
G01X6764782Y136398D01*
G01X6761734Y127254D01*
G01X5299202Y383540D02*
G01X5296154Y389890D01*
G01X5289804Y395986D01*
G01X5283708Y399034D01*
G01X5271262D01*
G01X5265166Y395986D01*
G01X5258816Y389890D01*
G01X5255768Y383540D01*
G01X5252720Y374396D01*
G01Y358902D01*
G01X5255768Y349504D01*
G01X5258816Y343408D01*
G01X5265166Y337058D01*
G01X5271262Y334010D01*
G01X5283708D01*
G01X5289804Y337058D01*
G01X5296154Y343408D01*
G01X5299202Y349504D01*
G01X5335524Y399034D02*
G01X5369560Y399034D01*
G01X5351018Y374396D01*
G01X5360162D01*
G01X5366512Y371348D01*
G01X5369560Y368046D01*
G01X5372608Y358902D01*
G01Y352552D01*
G01X5369560Y343408D01*
G01X5363464Y337058D01*
G01X5354066Y334010D01*
G01X5344668D01*
G01X5335524Y337058D01*
G01X5332476Y340360D01*
G01X5329428Y346456D01*
G01X5421376Y399034D02*
G01X5411978Y395986D01*
G01X5405882Y386588D01*
G01X5402834Y371348D01*
G01Y361950D01*
G01X5405882Y346456D01*
G01X5411978Y337058D01*
G01X5421376Y334010D01*
G01X5427472D01*
G01X5436870Y337058D01*
G01X5442966Y346456D01*
G01X5446014Y361950D01*
G01Y371348D01*
G01X5442966Y386588D01*
G01X5436870Y395986D01*
G01X5427472Y399034D01*
G01X5421376D01*
G01X4782566Y401320D02*
G01X4829048Y401320D01*
G01X4838192Y404368D01*
G01X4844542Y410718D01*
G01X4847590Y419862D01*
G01Y426212D01*
G01X4844542Y435356D01*
G01X4838192Y441452D01*
G01X4829048Y444754D01*
G01X4782566D01*
G01X4782566Y505714D02*
G01X4825746Y474980D01*
G01Y521208D01*
G01X4782566Y505714D02*
G01X4847590Y505714D01*
G01X4795012Y551434D02*
G01X4791710Y557530D01*
G01X4782566Y566674D01*
G01X4847590D01*
G01X5481320Y1211834D02*
G01X5481320Y1146810D01*
G01X5481320Y1211834D02*
G01X5509260Y1211834D01*
G01X5518404Y1208786D01*
G01X5521452Y1205738D01*
G01X5524754Y1199388D01*
G01Y1193292D01*
G01X5521452Y1187196D01*
G01X5518404Y1184148D01*
G01X5509260Y1180846D01*
G01X5481320D01*
G01X5502910Y1180846D02*
G01X5524754Y1146810D01*
G01X5558028Y1196340D02*
G01X5558028Y1199388D01*
G01X5561076Y1205738D01*
G01X5564124Y1208786D01*
G01X5570220Y1211834D01*
G01X5582666D01*
G01X5589016Y1208786D01*
G01X5592064Y1205738D01*
G01X5595112Y1199388D01*
G01Y1193292D01*
G01X5592064Y1187196D01*
G01X5585714Y1177798D01*
G01X5554980Y1146810D01*
G01X5598160D01*
G01X5671566Y1211834D02*
G01X5640578Y1146810D01*
G01X5628386Y1211834D02*
G01X5671566Y1211834D01*
G01X7868920Y2926334D02*
G01X7868920Y2861310D01*
G01X7868920Y2926334D02*
G01X7890510Y2926334D01*
G01X7899908Y2923286D01*
G01X7906004Y2917190D01*
G01X7909052Y2910840D01*
G01X7912354Y2901696D01*
G01Y2886202D01*
G01X7909052Y2876804D01*
G01X7906004Y2870708D01*
G01X7899908Y2864358D01*
G01X7890510Y2861310D01*
G01X7868920D01*
G01X7973314Y2926334D02*
G01X7942580Y2883154D01*
G01X7988808D01*
G01X7973314Y2926334D02*
G01X7973314Y2861310D01*
G01X2291121Y578178D02*
G01X2297471Y581226D01*
G01X2303567Y587576D01*
G01X2306615Y593672D01*
G01Y606118D01*
G01X2303567Y612214D01*
G01X2297471Y618564D01*
G01X2291121Y621612D01*
G01X2281977Y624660D01*
G01X2266483D01*
G01X2257085Y621612D01*
G01X2250989Y618564D01*
G01X2244639Y612214D01*
G01X2241591Y606118D01*
G01Y593672D01*
G01X2244639Y587576D01*
G01X2250989Y581226D01*
G01X2257085Y578178D01*
G01X2306615Y541856D02*
G01X2306615Y507820D01*
G01X2281977Y526362D01*
G01Y517218D01*
G01X2278929Y510868D01*
G01X2275627Y507820D01*
G01X2266483Y504772D01*
G01X2260133D01*
G01X2250989Y507820D01*
G01X2244639Y513916D01*
G01X2241591Y523314D01*
G01Y532712D01*
G01X2244639Y541856D01*
G01X2247941Y544904D01*
G01X2254037Y547952D01*
G01X2306615Y468450D02*
G01X2306615Y434414D01*
G01X2281977Y452956D01*
G01Y443812D01*
G01X2278929Y437462D01*
G01X2275627Y434414D01*
G01X2266483Y431366D01*
G01X2260133D01*
G01X2250989Y434414D01*
G01X2244639Y440510D01*
G01X2241591Y449908D01*
G01Y459306D01*
G01X2244639Y468450D01*
G01X2247941Y471498D01*
G01X2254037Y474546D01*
G01X5057902Y891540D02*
G01X5054854Y897890D01*
G01X5048504Y903986D01*
G01X5042408Y907034D01*
G01X5029962D01*
G01X5023866Y903986D01*
G01X5017516Y897890D01*
G01X5014468Y891540D01*
G01X5011420Y882396D01*
G01Y866902D01*
G01X5014468Y857504D01*
G01X5017516Y851408D01*
G01X5023866Y845058D01*
G01X5029962Y842010D01*
G01X5042408D01*
G01X5048504Y845058D01*
G01X5054854Y851408D01*
G01X5057902Y857504D01*
G01X5094224Y907034D02*
G01X5128260Y907034D01*
G01X5109718Y882396D01*
G01X5118862D01*
G01X5125212Y879348D01*
G01X5128260Y876046D01*
G01X5131308Y866902D01*
G01Y860552D01*
G01X5128260Y851408D01*
G01X5122164Y845058D01*
G01X5112766Y842010D01*
G01X5103368D01*
G01X5094224Y845058D01*
G01X5091176Y848360D01*
G01X5088128Y854456D01*
G01X5192268Y907034D02*
G01X5161534Y863854D01*
G01X5207762D01*
G01X5192268Y907034D02*
G01X5192268Y842010D01*
G01X5210302Y1564640D02*
G01X5207254Y1570990D01*
G01X5200904Y1577086D01*
G01X5194808Y1580134D01*
G01X5182362D01*
G01X5176266Y1577086D01*
G01X5169916Y1570990D01*
G01X5166868Y1564640D01*
G01X5163820Y1555496D01*
G01Y1540002D01*
G01X5166868Y1530604D01*
G01X5169916Y1524508D01*
G01X5176266Y1518158D01*
G01X5182362Y1515110D01*
G01X5194808D01*
G01X5200904Y1518158D01*
G01X5207254Y1524508D01*
G01X5210302Y1530604D01*
G01X5246624Y1580134D02*
G01X5280660Y1580134D01*
G01X5262118Y1555496D01*
G01X5271262D01*
G01X5277612Y1552448D01*
G01X5280660Y1549146D01*
G01X5283708Y1540002D01*
G01Y1533652D01*
G01X5280660Y1524508D01*
G01X5274564Y1518158D01*
G01X5265166Y1515110D01*
G01X5255768D01*
G01X5246624Y1518158D01*
G01X5243576Y1521460D01*
G01X5240528Y1527556D01*
G01X5351018Y1580134D02*
G01X5320030Y1580134D01*
G01X5316982Y1552448D01*
G01X5320030Y1555496D01*
G01X5329174Y1558544D01*
G01X5338572D01*
G01X5347970Y1555496D01*
G01X5354066Y1549146D01*
G01X5357114Y1540002D01*
G01Y1533652D01*
G01X5354066Y1524508D01*
G01X5347970Y1518158D01*
G01X5338572Y1515110D01*
G01X5329174D01*
G01X5320030Y1518158D01*
G01X5316982Y1521460D01*
G01X5313934Y1527556D01*
G01X7737602Y3964940D02*
G01X7734554Y3971290D01*
G01X7728204Y3977386D01*
G01X7722108Y3980434D01*
G01X7709662D01*
G01X7703566Y3977386D01*
G01X7697216Y3971290D01*
G01X7694168Y3964940D01*
G01X7691120Y3955796D01*
G01Y3940302D01*
G01X7694168Y3930904D01*
G01X7697216Y3924808D01*
G01X7703566Y3918458D01*
G01X7709662Y3915410D01*
G01X7722108D01*
G01X7728204Y3918458D01*
G01X7734554Y3924808D01*
G01X7737602Y3930904D01*
G01X7798562Y3980434D02*
G01X7767828Y3937254D01*
G01X7814056D01*
G01X7798562Y3980434D02*
G01X7798562Y3915410D01*
G01X7850378Y3980434D02*
G01X7884414Y3980434D01*
G01X7865872Y3955796D01*
G01X7875016D01*
G01X7881366Y3952748D01*
G01X7884414Y3949446D01*
G01X7887462Y3940302D01*
G01Y3933952D01*
G01X7884414Y3924808D01*
G01X7878318Y3918458D01*
G01X7868920Y3915410D01*
G01X7859522D01*
G01X7850378Y3918458D01*
G01X7847330Y3921760D01*
G01X7844282Y3927856D01*
G01X7623302Y2517140D02*
G01X7620254Y2523490D01*
G01X7613904Y2529586D01*
G01X7607808Y2532634D01*
G01X7595362D01*
G01X7589266Y2529586D01*
G01X7582916Y2523490D01*
G01X7579868Y2517140D01*
G01X7576820Y2507996D01*
G01Y2492502D01*
G01X7579868Y2483104D01*
G01X7582916Y2477008D01*
G01X7589266Y2470658D01*
G01X7595362Y2467610D01*
G01X7607808D01*
G01X7613904Y2470658D01*
G01X7620254Y2477008D01*
G01X7623302Y2483104D01*
G01X7684262Y2532634D02*
G01X7653528Y2489454D01*
G01X7699756D01*
G01X7684262Y2532634D02*
G01X7684262Y2467610D01*
G01X7760716Y2532634D02*
G01X7729982Y2489454D01*
G01X7776210D01*
G01X7760716Y2532634D02*
G01X7760716Y2467610D01*
G01X3851402Y4904740D02*
G01X3848354Y4911090D01*
G01X3842004Y4917186D01*
G01X3835908Y4920234D01*
G01X3823462D01*
G01X3817366Y4917186D01*
G01X3811016Y4911090D01*
G01X3807968Y4904740D01*
G01X3804920Y4895596D01*
G01Y4880102D01*
G01X3807968Y4870704D01*
G01X3811016Y4864608D01*
G01X3817366Y4858258D01*
G01X3823462Y4855210D01*
G01X3835908D01*
G01X3842004Y4858258D01*
G01X3848354Y4864608D01*
G01X3851402Y4870704D01*
G01X3912362Y4920234D02*
G01X3881628Y4877054D01*
G01X3927856D01*
G01X3912362Y4920234D02*
G01X3912362Y4855210D01*
G01X3995166Y4920234D02*
G01X3964178Y4920234D01*
G01X3961130Y4892548D01*
G01X3964178Y4895596D01*
G01X3973322Y4898644D01*
G01X3982720D01*
G01X3992118Y4895596D01*
G01X3998214Y4889246D01*
G01X4001262Y4880102D01*
G01Y4873752D01*
G01X3998214Y4864608D01*
G01X3992118Y4858258D01*
G01X3982720Y4855210D01*
G01X3973322D01*
G01X3964178Y4858258D01*
G01X3961130Y4861560D01*
G01X3958082Y4867656D01*
G01X5162104Y3885742D02*
G01X5159056Y3892092D01*
G01X5152706Y3898188D01*
G01X5146610Y3901236D01*
G01X5134164D01*
G01X5128068Y3898188D01*
G01X5121718Y3892092D01*
G01X5118670Y3885742D01*
G01X5115622Y3876598D01*
G01Y3861104D01*
G01X5118670Y3851706D01*
G01X5121718Y3845610D01*
G01X5128068Y3839260D01*
G01X5134164Y3836212D01*
G01X5146610D01*
G01X5152706Y3839260D01*
G01X5159056Y3845610D01*
G01X5162104Y3851706D01*
G01X5223064Y3901236D02*
G01X5192330Y3858056D01*
G01X5238558D01*
G01X5223064Y3901236D02*
G01X5223064Y3836212D01*
G01X5305868Y3892092D02*
G01X5302820Y3898188D01*
G01X5293422Y3901236D01*
G01X5287326D01*
G01X5277928Y3898188D01*
G01X5271832Y3888790D01*
G01X5268784Y3873550D01*
G01Y3858056D01*
G01X5271832Y3845610D01*
G01X5277928Y3839260D01*
G01X5287326Y3836212D01*
G01X5290374D01*
G01X5299518Y3839260D01*
G01X5305868Y3845610D01*
G01X5308916Y3854754D01*
G01Y3858056D01*
G01X5305868Y3867200D01*
G01X5299518Y3873550D01*
G01X5290374Y3876598D01*
G01X5287326D01*
G01X5277928Y3873550D01*
G01X5271832Y3867200D01*
G01X5268784Y3858056D01*
G01X5658866Y1963166D02*
G01X5658866Y2009648D01*
G01X5655818Y2018792D01*
G01X5649468Y2025142D01*
G01X5640324Y2028190D01*
G01X5633974D01*
G01X5624830Y2025142D01*
G01X5618734Y2018792D01*
G01X5615432Y2009648D01*
G01Y1963166D01*
G01X5554472Y1963166D02*
G01X5585206Y2006346D01*
G01X5538978D01*
G01X5554472Y1963166D02*
G01X5554472Y2028190D01*
G01X5505704Y1978660D02*
G01X5505704Y1975612D01*
G01X5502656Y1969262D01*
G01X5499608Y1966214D01*
G01X5493512Y1963166D01*
G01X5481066D01*
G01X5474716Y1966214D01*
G01X5471668Y1969262D01*
G01X5468620Y1975612D01*
G01Y1981708D01*
G01X5471668Y1987804D01*
G01X5478018Y1997202D01*
G01X5508752Y2028190D01*
G01X5465572D01*
G04 Text End*

G04 PolygonModel Start*
G54D12*
G01X4561401Y839498D02*
G01X4921400Y839498D01*
G01X4921400Y839498D02*
G01X4921400Y1019505D01*
G01X4561401Y839498D02*
G01X4561403Y789498D01*
G01X4921364Y1086307D02*
G01X4921364Y1019505D01*
G01X4921364Y3679393D02*
G01X4921364Y3612591D01*
G01X4921402Y3679497D02*
G01X4921400Y3859502D01*
G01X4561401Y3859502D02*
G01X4921402Y3859502D01*
G01X4391401Y3909497D02*
G01X4561403Y3909497D01*
G01X4561403Y3909497D02*
G01X4561401Y3859502D01*
G01X4391401Y789498D02*
G01X4561403Y789498D01*
G01X4561403Y3581992D02*
G01X4561403Y1117003D01*
G01X4391401Y789498D02*
G01X4391401Y3909497D01*
G36*
G01X5001402Y3639497D02*
G01X4941402Y3619497D01*
G01Y3659497D01*
G01X5001402Y3639497D01*
G37*
G54D13*
G01X6198147Y700127D02*
G01X6198147Y660117D01*
G01X6198147Y660117D02*
G01X6158145Y660117D01*
G01X5808130Y660117D02*
G01X5768133Y660117D01*
G01X5768133Y660117D02*
G01X5768133Y700127D01*
G01X5768133Y1050134D02*
G01X5768133Y1090144D01*
G01X5768133Y1090144D02*
G01X5808130Y1090144D01*
G01X6198147Y1050134D02*
G01X6198147Y1090144D01*
G01X6198147Y1090144D02*
G01X6158145Y1090144D01*
G36*
G01X5842189Y621255D02*
G03X5842189Y621001I-25400J-127D01*
G01Y621255D01*
G37*
G54D12*
G01X6220998Y33619D02*
G01X6220998Y-25629D01*
G01X6169378Y435801D02*
G01X6220998Y435801D01*
G01X6220998Y435801D02*
G01X6220998Y256718D01*
G01X5467454Y257452D02*
G01X5467454Y435801D01*
G01X5467454Y435801D02*
G01X5514630Y435801D01*
G01X5467454Y-26723D02*
G01X5467454Y32885D01*
G01X5542001Y-66698D02*
G01X5497002Y-68697D01*
G01X5497002Y-68697D02*
G01X5455001Y-118199D01*
G01X5455001Y-118199D02*
G01X5467454Y-26723D01*
G01X5542001Y-66698D02*
G01X6151999Y-66698D01*
G01X6151999Y-66698D02*
G01X6181999Y-66698D01*
G01X6181999Y-66698D02*
G01X6234999Y-114198D01*
G01X6234999Y-114198D02*
G01X6221999Y-25629D01*
G01X5542001Y-66698D02*
G01X5542001Y-116698D01*
G01X5542001Y-116698D02*
G01X6150999Y-119697D01*
G01X6150999Y-119697D02*
G01X6151999Y-66698D01*
G01X5468729Y277284D02*
G01X5468813Y294742D01*
G01X5468501Y277249D02*
G01X5468871Y298026D01*
G01X6015114Y474121D02*
G01X6021898Y474096D01*
G01X5660641Y475529D02*
G01X5668889Y475496D01*
G01X7861300Y2681224D02*
G01X7861300Y2821102D01*
G01X7861300Y2821102D02*
G01X8601304Y2821102D01*
G01X8601304Y2821102D02*
G01X8601304Y2081098D01*
G01X7861300Y2427214D02*
G01X7861300Y2474986D01*
G01X8601301Y2081101D02*
G01X7861300Y2081101D01*
G01X7861300Y2081101D02*
G01X7861300Y2220986D01*
G54D11*
G01X8041660Y1343779D02*
G01X8041660Y2009021D01*
G01X8041660Y2009021D02*
G01X8315940Y2009021D01*
G01X8315940Y2009021D02*
G01X8315940Y1343779D01*
G01X8315940Y1343779D02*
G01X8041660Y1343779D01*
G54D12*
G01X7825003Y4814291D02*
G01X7825003Y4304284D01*
G01X7825003Y4304309D02*
G01X7414997Y4304309D01*
G01X7414997Y4304309D02*
G01X7414997Y4814316D01*
G01X7700010Y4814291D02*
G01X7825003Y4814291D01*
G01X7539990Y4814291D02*
G01X7414997Y4814291D01*
G01X7700010Y4809287D02*
G02X7539990Y4809287I-80010J37529D01*
G54D11*
G01X7348289Y318596D02*
G01X7184547Y318596D01*
G01X7184547Y318596D02*
G01X7184547Y110870D01*
G01X7184547Y110870D02*
G01X7348289Y110870D01*
G01X7513526Y318596D02*
G01X7662024Y318596D01*
G01X7662024Y318596D02*
G01X7677267Y303353D01*
G01X7677267Y303353D02*
G01X7677267Y126112D01*
G01X7677267Y126112D02*
G01X7662024Y110870D01*
G01X7662024Y110870D02*
G01X7513526Y110870D01*
G36*
G01X7692509Y303356D02*
G01X7692509Y126115D01*
G01X7707749D01*
G01Y303356D01*
G01X7692509D01*
G37*
G01X7258939Y604779D02*
G01X7258939Y461287D01*
G01X7258939Y461287D02*
G01X7574661Y461287D01*
G01X7574661Y461287D02*
G01X7574661Y604779D01*
G01X7258939Y970021D02*
G01X7258939Y1113513D01*
G01X7258939Y1113513D02*
G01X7574661Y1113513D01*
G01X7574661Y1113513D02*
G01X7574661Y970021D01*
G01X4805421Y362839D02*
G01X4948913Y362839D01*
G01X4948913Y362839D02*
G01X4948913Y678561D01*
G01X4948913Y678561D02*
G01X4805421Y678561D01*
G01X4440179Y362839D02*
G01X4296687Y362839D01*
G01X4296687Y362839D02*
G01X4296687Y678561D01*
G01X4296687Y678561D02*
G01X4440179Y678561D01*
G01X4171881Y294363D02*
G01X4008140Y294363D01*
G01X4008140Y294363D02*
G01X4008140Y86637D01*
G01X4008140Y86637D02*
G01X4171881Y86637D01*
G01X4337119Y294363D02*
G01X4485617Y294363D01*
G01X4485617Y294363D02*
G01X4500860Y279121D01*
G01X4500860Y279121D02*
G01X4500860Y101879D01*
G01X4500860Y101879D02*
G01X4485617Y86637D01*
G01X4485617Y86637D02*
G01X4337119Y86637D01*
G36*
G01X4516102Y279123D02*
G01X4516102Y101882D01*
G01X4531342D01*
G01Y279123D01*
G01X4516102D01*
G37*
G54D12*
G01X7709150Y1195925D02*
G01X7709150Y1252310D01*
G01X7709150Y1252310D02*
G01X8504150Y1252310D01*
G01X7709150Y1068925D02*
G01X7709150Y1089697D01*
G01X7709150Y941925D02*
G01X7709150Y962697D01*
G01X7709150Y814925D02*
G01X7709150Y835697D01*
G01X8509149Y708697D02*
G01X8509149Y652311D01*
G01X8509149Y652311D02*
G01X7709150Y652311D01*
G01X7709150Y652311D02*
G01X7709150Y708697D01*
G01X8509149Y835697D02*
G01X8509149Y814925D01*
G01X8509149Y962697D02*
G01X8509149Y941925D01*
G01X8509149Y1089697D02*
G01X8509149Y1068925D01*
G01X8509149Y1252310D02*
G01X8509149Y1195925D01*
G54D11*
G01X3013931Y221851D02*
G01X3013931Y487088D01*
G01X3013931Y487088D02*
G01X2899049Y487088D01*
G01X2548694Y221851D02*
G01X2548694Y487088D01*
G01X2548694Y487088D02*
G01X2663576Y487088D01*
G01X3306521Y353040D02*
G01X3402409Y353040D01*
G01X3402409Y353040D02*
G01X3402409Y485160D01*
G01X3402409Y485160D02*
G01X3306521Y485160D01*
G01X3221279Y353040D02*
G01X3125391Y353040D01*
G01X3125391Y353040D02*
G01X3125391Y485160D01*
G01X3125391Y485160D02*
G01X3221279Y485160D01*
G01X3183179Y205760D02*
G01X3087291Y205760D01*
G01X3087291Y205760D02*
G01X3087291Y73640D01*
G01X3087291Y73640D02*
G01X3183179Y73640D01*
G01X3268421Y205760D02*
G01X3364309Y205760D01*
G01X3364309Y205760D02*
G01X3364309Y73640D01*
G01X3364309Y73640D02*
G01X3268421Y73640D01*
G01X5434660Y533370D02*
G01X5434660Y612379D01*
G01X5334940Y612379D02*
G01X5334940Y533370D01*
G01X5350180Y518130D02*
G01X5419420Y518130D01*
G01X5434660Y736630D02*
G01X5434660Y657621D01*
G01X5334940Y657621D02*
G01X5334940Y736630D01*
G01X5350180Y751870D02*
G01X5419420Y751870D01*
G01X5334940Y533370D02*
G03X5350180Y518130I15240J0D01*
G01X5419420Y518130D02*
G03X5434660Y533370I0J15240D01*
G01X5334940Y736630D02*
G02X5350180Y751870I15240J0D01*
G01X5419420Y751870D02*
G02X5434660Y736630I0J-15240D01*
G01X3587351Y59469D02*
G01X3852588Y59469D01*
G01X3852588Y59469D02*
G01X3852588Y174351D01*
G01X3587351Y524706D02*
G01X3852588Y524706D01*
G01X3852588Y524706D02*
G01X3852588Y409824D01*
G01X7065721Y4759940D02*
G01X7161609Y4759940D01*
G01X7161609Y4759940D02*
G01X7161609Y4892060D01*
G01X7161609Y4892060D02*
G01X7065721Y4892060D01*
G01X6980479Y4759940D02*
G01X6884591Y4759940D01*
G01X6884591Y4759940D02*
G01X6884591Y4892060D01*
G01X6884591Y4892060D02*
G01X6980479Y4892060D01*
G54D12*
G01X7262708Y3908252D02*
G01X7262708Y3261662D01*
G01X5462707Y3908252D02*
G01X5462707Y3263255D01*
G01X7262708Y3908252D02*
G01X5462707Y3908252D01*
G01X7262708Y3279856D02*
G01X5462707Y3279856D01*
G01X7264408Y3228970D02*
G01X7264408Y3279856D01*
G01X7002323Y1358255D02*
G01X7264408Y1358255D01*
G01X7264408Y1358255D02*
G01X7264408Y1441734D01*
G01X5462707Y1441734D02*
G01X5462707Y1358255D01*
G01X5462707Y1358255D02*
G01X5723095Y1358255D01*
G01X5462707Y3279856D02*
G01X5462707Y3228970D01*
G01X4031884Y4965700D02*
G01X6708889Y4965700D01*
G01X6713906Y4965700D02*
G01X6708889Y4965700D01*
G01X4012994Y4965700D02*
G01X4044584Y4965700D01*
G01X4012994Y4965700D02*
G01X4012994Y3962400D01*
G01X6718300D01*
G01Y4965700D01*
G54D11*
G01X3468040Y4902230D02*
G01X3468040Y4823221D01*
G01X3567760Y4823221D02*
G01X3567760Y4902230D01*
G01X3552520Y4917470D02*
G01X3483280Y4917470D01*
G01X3468040Y4698970D02*
G01X3468040Y4777979D01*
G01X3567760Y4777979D02*
G01X3567760Y4698970D01*
G01X3552520Y4683730D02*
G01X3483280Y4683730D01*
G01X3567760Y4902230D02*
G03X3552520Y4917470I-15240J0D01*
G01X3483280Y4917470D02*
G03X3468040Y4902230I0J-15240D01*
G01X3567760Y4698970D02*
G02X3552520Y4683730I-15240J0D01*
G01X3483280Y4683730D02*
G02X3468040Y4698970I0J15240D01*
G54D14*
G01X3760848Y4660732D02*
G01X3760848Y4736932D01*
G01X3760848Y4913734D02*
G01X3760848Y4837534D01*
G01X3628728Y4913734D02*
G01X3628728Y4837534D01*
G54D11*
G01X3628728Y4913734D02*
G01X3643970Y4928964D01*
G01X3643970Y4928964D02*
G01X3745614Y4928964D01*
G01X3745614Y4928964D02*
G01X3760848Y4913734D01*
G54D14*
G01X3628728Y4660732D02*
G01X3628728Y4736932D01*
G54D11*
G01X3760848Y4660732D02*
G01X3745614Y4645490D01*
G01X3745614Y4645490D02*
G01X3643970Y4645490D01*
G01X3643970Y4645490D02*
G01X3628728Y4660732D01*
G54D14*
G01X3289706Y4898073D02*
G01X3289706Y4918393D01*
G01X3289706Y4918393D02*
G01X3390900Y4918393D01*
G01X3390900Y4918393D02*
G01X3390509Y4898730D01*
G54D11*
G01X3390509Y4898730D02*
G01X3289706Y4898730D01*
G01X3289706Y4898730D02*
G01X3289706Y4832970D01*
G54D14*
G01X3289706Y4898730D02*
G01X3289706Y4917597D01*
G54D11*
G01X3390509Y4832970D02*
G01X3390509Y4898730D01*
G01X3390509Y4898730D02*
G01X3289706Y4898730D01*
G01X3289706Y4898730D02*
G01X3289706Y4832970D01*
G01X3289691Y4768230D02*
G01X3289691Y4702472D01*
G01X3289691Y4702472D02*
G01X3390496Y4702472D01*
G01X3390496Y4702472D02*
G01X3390496Y4768230D01*
G54D14*
G01X3390496Y4702472D02*
G01X3390496Y4683600D01*
G01X3390496Y4683600D02*
G01X3290100Y4683600D01*
G01X3290100Y4683600D02*
G01X3290100Y4715911D01*
G54D15*
G01X3365500Y4800613D02*
G01X3314700Y4800613D01*
G36*
G01X3340100Y4800613D02*
G01X3359099Y4790605D01*
G01X3321101D01*
G01X3340100Y4800613D01*
G37*
G36*
G01X3339120Y4800613D02*
G01X3321101Y4811611D01*
G01X3339099Y4811613D01*
G01X3359099Y4811611D01*
G01X3339120Y4800613D01*
G37*
G54D11*
G01X8350319Y3807737D02*
G01X8514060Y3807737D01*
G01X8514060Y3807737D02*
G01X8514060Y4015463D01*
G01X8514060Y4015463D02*
G01X8350319Y4015463D01*
G01X8185081Y3807737D02*
G01X8036583Y3807737D01*
G01X8036583Y3807737D02*
G01X8021340Y3822979D01*
G01X8021340Y3822979D02*
G01X8021340Y4000221D01*
G01X8021340Y4000221D02*
G01X8036583Y4015463D01*
G01X8036583Y4015463D02*
G01X8185081Y4015463D01*
G36*
G01X8006098Y3822977D02*
G01X8006098Y4000218D01*
G01X7990858D01*
G01Y3822977D01*
G01X8006098D01*
G37*
G01X8173339Y4376679D02*
G01X8173339Y4233187D01*
G01X8173339Y4233187D02*
G01X8489061Y4233187D01*
G01X8489061Y4233187D02*
G01X8489061Y4376679D01*
G01X8173339Y4741921D02*
G01X8173339Y4885413D01*
G01X8173339Y4885413D02*
G01X8489061Y4885413D01*
G01X8489061Y4885413D02*
G01X8489061Y4741921D01*
G54D12*
G01X5246977Y2934399D02*
G01X5166975Y2934399D01*
G01X5277963Y3045374D02*
G01X5277963Y2965376D01*
G01X5135997Y3045374D02*
G01X5135997Y2965376D01*
G01X5278544Y3102963D02*
G01X5278544Y3182963D01*
G01X5247561Y3213946D02*
G01X5167564Y3213946D01*
G01X5136584Y3102963D02*
G01X5136584Y3182963D01*
G01X5247561Y3213951D02*
G02X5278544Y3182968I0J-30983D01*
G01X5136579Y3182968D02*
G02X5167564Y3213951I30983J0D01*
G01X5277963Y2965381D02*
G02X5246977Y2934399I-30983J-0D01*
G01X5166980Y2934399D02*
G02X5135997Y2965381I0J30983D01*
G01X7609177Y1562799D02*
G01X7529175Y1562799D01*
G01X7640163Y1673774D02*
G01X7640163Y1593776D01*
G01X7498197Y1673774D02*
G01X7498197Y1593776D01*
G01X7640744Y1731363D02*
G01X7640744Y1811363D01*
G01X7609761Y1842346D02*
G01X7529764Y1842346D01*
G01X7498784Y1731363D02*
G01X7498784Y1811363D01*
G01X7609761Y1842351D02*
G02X7640744Y1811368I0J-30983D01*
G01X7498779Y1811368D02*
G02X7529764Y1842351I30983J0D01*
G01X7640163Y1593781D02*
G02X7609177Y1562799I-30983J-0D01*
G01X7529180Y1562799D02*
G02X7498197Y1593781I0J30983D01*
G54D11*
G01X7038360Y4411421D02*
G01X7038360Y4507309D01*
G01X7038360Y4507309D02*
G01X6906240Y4507309D01*
G01X6906240Y4507309D02*
G01X6906240Y4411421D01*
G01X7038360Y4326179D02*
G01X7038360Y4230291D01*
G01X7038360Y4230291D02*
G01X6906240Y4230291D01*
G01X6906240Y4230291D02*
G01X6906240Y4326179D01*
G01X5256860Y3289270D02*
G01X5256860Y3368279D01*
G01X5157140Y3368279D02*
G01X5157140Y3289270D01*
G01X5172380Y3274030D02*
G01X5241620Y3274030D01*
G01X5256860Y3492530D02*
G01X5256860Y3413521D01*
G01X5157140Y3413521D02*
G01X5157140Y3492530D01*
G01X5172380Y3507770D02*
G01X5241620Y3507770D01*
G01X5157140Y3289270D02*
G03X5172380Y3274030I15240J0D01*
G01X5241620Y3274030D02*
G03X5256860Y3289270I0J15240D01*
G01X5157140Y3492530D02*
G02X5172380Y3507770I15240J0D01*
G01X5241620Y3507770D02*
G02X5256860Y3492530I0J-15240D01*
G01X8403519Y134541D02*
G01X8547014Y134541D01*
G01X8547014Y134541D02*
G01X8547014Y525859D01*
G01X8547014Y525859D02*
G01X8403519Y525859D01*
G01X7903281Y134541D02*
G01X7759786Y134541D01*
G01X7759786Y134541D02*
G01X7759786Y525859D01*
G01X7759786Y525859D02*
G01X7903281Y525859D01*
G54D12*
G01X7593280Y1208846D02*
G01X7513278Y1208846D01*
G01X7624266Y1319821D02*
G01X7624266Y1239824D01*
G01X7482300Y1319821D02*
G01X7482300Y1239824D01*
G01X7624848Y1377410D02*
G01X7624848Y1457410D01*
G01X7593865Y1488393D02*
G01X7513867Y1488393D01*
G01X7482887Y1377410D02*
G01X7482887Y1457410D01*
G01X7593865Y1488398D02*
G02X7624848Y1457415I0J-30983D01*
G01X7482882Y1457415D02*
G02X7513867Y1488398I30983J0D01*
G01X7624266Y1239829D02*
G02X7593280Y1208846I-30983J-0D01*
G01X7513283Y1208846D02*
G02X7482300Y1239829I0J30983D01*
G01X6577902Y154277D02*
G01X6577902Y74275D01*
G01X6466926Y185263D02*
G01X6546924Y185263D01*
G01X6466926Y43297D02*
G01X6546924Y43297D01*
G01X6409337Y185844D02*
G01X6329337Y185844D01*
G01X6298354Y154861D02*
G01X6298354Y74864D01*
G01X6409337Y43884D02*
G01X6329337Y43884D01*
G01X6298349Y154861D02*
G02X6329332Y185844I30983J0D01*
G01X6329332Y43879D02*
G02X6298349Y74864I-0J30983D01*
G01X6546919Y185263D02*
G02X6577902Y154277I0J-30983D01*
G01X6577902Y74280D02*
G02X6546919Y43297I-30983J0D01*
G54D11*
G01X5168870Y77140D02*
G01X5247879Y77140D01*
G01X5247879Y176860D02*
G01X5168870Y176860D01*
G01X5153630Y161620D02*
G01X5153630Y92380D01*
G01X5372130Y77140D02*
G01X5293121Y77140D01*
G01X5293121Y176860D02*
G01X5372130Y176860D01*
G01X5387370Y161620D02*
G01X5387370Y92380D01*
G01X5168870Y176860D02*
G03X5153630Y161620I0J-15240D01*
G01X5153630Y92380D02*
G03X5168870Y77140I15240J0D01*
G01X5372130Y176860D02*
G02X5387370Y161620I0J-15240D01*
G01X5387370Y92380D02*
G02X5372130Y77140I-15240J0D01*
G54D12*
G01X4791639Y65100D02*
G01X4697562Y65100D01*
G01X4607641Y65100D02*
G01X4592201Y65100D01*
G01X4607695Y265176D02*
G01X4592201Y265176D01*
G01X4592201Y265176D02*
G01X4592201Y65024D01*
G01X4791639Y265100D02*
G01X4697562Y265100D01*
G01X4897001Y265100D02*
G01X4881560Y265100D01*
G01X4897001Y265100D02*
G01X4897001Y65100D01*
G01X4897001Y65100D02*
G01X4881560Y65100D01*
G54D11*
G01X5612460Y955279D02*
G01X5612460Y883476D01*
G01X5612460Y883476D02*
G01X5512740Y883476D01*
G01X5512740Y883476D02*
G01X5512740Y955279D01*
G01X5612460Y1000521D02*
G01X5612460Y1072325D01*
G01X5612460Y1072325D02*
G01X5512740Y1072325D01*
G01X5512740Y1072325D02*
G01X5512740Y1000521D01*
G01X8156727Y2942981D02*
G01X8156727Y3483214D01*
G01X8429468Y2942981D02*
G01X8429468Y3483214D01*
G01X8156727Y3079201D02*
G01X8429468Y3079201D01*
G01X8156727Y3483214D02*
G01X8191777Y3483214D01*
G01X8429468Y3483214D02*
G01X8394418Y3483214D01*
G36*
G01X8437090Y2950601D02*
G01X8389341Y2950601D01*
G01Y2904881D01*
G01X8437090D01*
G01Y2950601D01*
G37*
G36*
G01X8149110Y2950601D02*
G01X8196859Y2950601D01*
G01Y2904881D01*
G01X8149110D01*
G01Y2950601D01*
G37*
G01X2192061Y127180D02*
G01X2192061Y275679D01*
G01X1973539Y275679D02*
G01X1973539Y127180D01*
G01X1988779Y111940D02*
G01X2176821Y111940D01*
G01X2192061Y609420D02*
G01X2192061Y460921D01*
G01X1973539Y460921D02*
G01X1973539Y609420D01*
G01X1988779Y624660D02*
G01X2176821Y624660D01*
G01X1973539Y127180D02*
G03X1988779Y111940I15240J0D01*
G01X2176821Y111940D02*
G03X2192061Y127180I0J15240D01*
G01X1973539Y609420D02*
G02X1988779Y624660I15240J0D01*
G01X2176821Y624660D02*
G02X2192061Y609420I0J-15240D01*
G01X5008839Y761820D02*
G01X5008839Y613321D01*
G01X5227361Y613321D02*
G01X5227361Y761820D01*
G01X5212121Y777060D02*
G01X5024079Y777060D01*
G01X5008839Y279580D02*
G01X5008839Y428079D01*
G01X5227361Y428079D02*
G01X5227361Y279580D01*
G01X5212121Y264340D02*
G01X5024079Y264340D01*
G01X5227361Y761820D02*
G03X5212121Y777060I-15240J0D01*
G01X5024079Y777060D02*
G03X5008839Y761820I0J-15240D01*
G01X5227361Y279580D02*
G02X5212121Y264340I-15240J0D01*
G01X5024079Y264340D02*
G02X5008839Y279580I0J15240D01*
G01X5367061Y952680D02*
G01X5367061Y1101179D01*
G01X5148539Y1101179D02*
G01X5148539Y952680D01*
G01X5163779Y937440D02*
G01X5351821Y937440D01*
G01X5367061Y1434920D02*
G01X5367061Y1286421D01*
G01X5148539Y1286421D02*
G01X5148539Y1434920D01*
G01X5163779Y1450160D02*
G01X5351821Y1450160D01*
G01X5148539Y952680D02*
G03X5163779Y937440I15240J0D01*
G01X5351821Y937440D02*
G03X5367061Y952680I0J15240D01*
G01X5148539Y1434920D02*
G02X5163779Y1450160I15240J0D01*
G01X5351821Y1450160D02*
G02X5367061Y1434920I0J-15240D01*
G01X7565880Y4024440D02*
G01X7706881Y4024440D01*
G01X7706881Y4205161D02*
G01X7565880Y4205161D01*
G01X7550640Y4189921D02*
G01X7550640Y4039680D01*
G01X7928120Y4024440D02*
G01X7787119Y4024440D01*
G01X7787119Y4205161D02*
G01X7928120Y4205161D01*
G01X7943360Y4189921D02*
G01X7943360Y4039680D01*
G01X7565880Y4205161D02*
G03X7550640Y4189921I0J-15240D01*
G01X7550640Y4039680D02*
G03X7565880Y4024440I15240J0D01*
G01X7928120Y4205161D02*
G02X7943360Y4189921I0J-15240D01*
G01X7943360Y4039680D02*
G02X7928120Y4024440I-15240J0D01*
G01X7516940Y2365520D02*
G01X7516940Y2224519D01*
G01X7697661Y2224519D02*
G01X7697661Y2365520D01*
G01X7682421Y2380760D02*
G01X7532180Y2380760D01*
G01X7516940Y2003280D02*
G01X7516940Y2144281D01*
G01X7697661Y2144281D02*
G01X7697661Y2003280D01*
G01X7682421Y1988040D02*
G01X7532180Y1988040D01*
G01X7697661Y2365520D02*
G03X7682421Y2380760I-15240J0D01*
G01X7532180Y2380760D02*
G03X7516940Y2365520I0J-15240D01*
G01X7697661Y2003280D02*
G02X7682421Y1988040I-15240J0D01*
G01X7532180Y1988040D02*
G02X7516940Y2003280I0J15240D01*
G01X3975130Y4812360D02*
G01X3896121Y4812360D01*
G01X3896121Y4712640D02*
G01X3975130Y4712640D01*
G01X3990370Y4727880D02*
G01X3990370Y4797120D01*
G01X3771870Y4812360D02*
G01X3850879Y4812360D01*
G01X3850879Y4712640D02*
G01X3771870Y4712640D01*
G01X3756630Y4727880D02*
G01X3756630Y4797120D01*
G01X3975130Y4712640D02*
G03X3990370Y4727880I0J15240D01*
G01X3990370Y4797120D02*
G03X3975130Y4812360I-15240J0D01*
G01X3771870Y4712640D02*
G02X3756630Y4727880I0J15240D01*
G01X3756630Y4797120D02*
G02X3771870Y4812360I15240J0D01*
G54D12*
G01X5346002Y3710277D02*
G01X5346002Y3630275D01*
G01X5235026Y3741263D02*
G01X5315024Y3741263D01*
G01X5235026Y3599297D02*
G01X5315024Y3599297D01*
G01X5177437Y3741844D02*
G01X5097437Y3741844D01*
G01X5066454Y3710861D02*
G01X5066454Y3630864D01*
G01X5177437Y3599884D02*
G01X5097437Y3599884D01*
G01X5066449Y3710861D02*
G02X5097432Y3741844I30983J0D01*
G01X5097432Y3599879D02*
G02X5066449Y3630864I-0J30983D01*
G01X5315019Y3741263D02*
G02X5346002Y3710277I0J-30983D01*
G01X5346002Y3630280D02*
G02X5315019Y3599297I-30983J0D01*
G54D11*
G01X7236320Y875627D02*
G01X7236320Y521348D01*
G01X7236320Y521348D02*
G01X6251080Y521348D01*
G01X6251080Y521348D02*
G01X6251080Y875627D01*
G01X6251080Y875627D02*
G01X7236320Y875627D01*
G04 PolygonModel End*

G04 Circle Start*
G54D17*
G01X7801305Y2181098D02*
G03X7821320Y2181098I10008J0D01*
G03X7801305I-10008J0D01*
G54D12*
G01X7352970Y4862297D02*
G03X7387006Y4862297I17018J0D01*
G03X7352970I-17018J0D01*
G54D17*
G01X7639148Y1222313D02*
G03X7669171Y1222313I15011J0D01*
G03X7639148I-15011J0D01*
G54D12*
G01X4343400Y4597400D02*
G03X4445000Y4597400I50800J0D01*
G03X4343400I-50800J0D01*
G01X4648200Y4610100D02*
G03X4724400Y4610100I38100J0D01*
G03X4648200I-38100J0D01*
G01X4813300Y4610100D02*
G03X4889500Y4610100I38100J0D01*
G03X4813300I-38100J0D01*
G01X4820801Y304800D02*
G03X4846201Y304800I12700J0D01*
G03X4820801I-12700J0D01*
G01X4781641Y165100D02*
G03X4817557Y165100I17958J0D01*
G03X4781641I-17958J0D01*
G54D17*
G01X7151192Y800392D02*
G03X7181215Y800392I15011J0D01*
G03X7151192I-15011J0D01*
G01X7213575Y985076D02*
G03X7243597Y985076I15011J0D01*
G03X7213575I-15011J0D01*
G04 Circle End*

M02*
