G04 Layer: TopLayer*
G04 EasyEDA Pro v2.1.49.573a4102.674264, 2024-03-06 21:11:32*
G04 Gerber Generator version 0.3*
G04 Scale: 100 percent, Rotated: No, Reflected: No*
G04 Dimensions in millimeters*
G04 Leading zeros omitted, absolute positions, 3 integers and 5 decimals*
G04 Panelize: V-CUT, Column: 2, Row: 2, Board Size: 105.286mm x 50.038mm, Panelized Board Size: 174.323mm x 101.42mm, Panelized Method: Only Board Outline*
%FSLAX35Y35*%
%MOMM*%
%AMOval*1,1,$1,$2,$3*1,1,$1,$4,$5*20,1,$1,$2,$3,$4,$5,0*%
%ADD10C,1.0*%
%ADD8191C,0.2032*%
%ADD11C,0.254*%
%ADD12R,1.2X0.3*%
%ADD13R,3.09999X2.3*%
%ADD14O,0.28001X0.8*%
%ADD15O,0.8X0.28001*%
%ADD16R,2.7095X2.69999*%
%ADD17R,2.69999X2.69999*%
%ADD18R,0.4X1.6*%
%ADD19O,1.3X1.8*%
%ADD20C,1.3*%
%ADD21C,1.6*%
%ADD22R,2.47X0.98001*%
%ADD23R,2.47X3.59999*%
%ADD24R,1.2X0.6*%
%ADD25R,2.4X3.29999*%
%ADD26R,1.48501X1.62001*%
%ADD27R,2.69999X1.28252*%
%ADD28R,1.28252X2.69999*%
%ADD29R,3.39999X4.29999*%
%ADD30R,1.0X0.6*%
%ADD31R,1.0X0.6*%
%ADD32R,0.67201X1.575*%
%ADD33R,0.80648X0.86401*%
%ADD34R,0.80648X0.86401*%
%ADD35R,0.54X0.79009*%
%ADD36R,1.575X0.67201*%
%ADD37R,2.1X0.95001*%
%ADD38R,0.95001X2.1*%
%ADD39R,0.9X0.9*%
%ADD40R,3.5X2.5*%
%ADD41R,2.5X2.0*%
%ADD42R,0.54X0.79009*%
%ADD43R,1.0X0.8*%
%ADD44R,0.6X0.6*%
%ADD45R,1.48501X1.62001*%
%ADD46R,0.9X0.8*%
%ADD47R,0.86401X0.80648*%
%ADD48R,1.28252X3.456*%
%ADD49R,0.8X0.9*%
%ADD50R,0.79009X0.54*%
%ADD51R,0.54X0.56566*%
%ADD52R,1.7X2.2*%
%ADD53R,1.72799X1.48501*%
%ADD54R,1.72799X1.48501*%
%ADD55R,1.41X1.35001*%
%ADD56R,1.35001X1.41*%
%ADD57R,0.79009X0.54*%
%ADD58Oval,0.343X0.0X-0.69425X0.0X0.69425*%
%ADD59C,0.61*%
%ADD60C,0.71*%
%ADD61C,0.8*%
%ADD62C,0.75*%
%ADD63C,0.6*%
%ADD64C,0.7*%
%ADD65C,0.62*%
%ADD66C,0.57*%
%ADD67C,1.28*%
%ADD68C,1.46*%
%ADD69C,0.85*%
%ADD70C,1.2*%
%ADD71C,0.55*%
%ADD72C,0.5*%
%ADD73C,0.33*%
%ADD74C,0.3*%
%ADD75C,0.4*%
%ADD76C,0.25*%
%ADD77C,0.2*%
%ADD78C,0.45*%
%ADD79C,0.15*%
%ADD80C,0.27*%
G75*


G04 Panelize Start*
G54D10*
G01X1692427Y1012827D03*
G01X15739827Y1512827D03*
G01X1692427Y9129119D03*
G01X15739827Y8629119D03*
G04 Panelize End*

G04 Copper Start*
G36*
G01X8600440Y4955286D02*
G01X8600440Y1988078D01*
G03X8585789Y1991211I-14651J-32680D01*
G01X8540603D01*
G01Y2218411D01*
G03X8517666Y2273787I-78314J0D01*
G01X8411976Y2379476D01*
G03X8356600Y2402414I-55376J-55376D01*
G01X8109540D01*
G01X8555863Y2848737D01*
G03X8570014Y2882900I-34163J34163D01*
G01Y3086100D01*
G03X8555863Y3120263I-48314J0D01*
G01X8530863Y3145263D01*
G03X8496700Y3159414I-34163J-34163D01*
G01X7996012D01*
G01X7938727Y3216699D01*
G01Y3222201D01*
G01X7970212Y3253686D01*
G01X8394700D01*
G03X8428863Y3267837I0J48314D01*
G01X8530463Y3369437D01*
G03X8544614Y3403600I-34163J34163D01*
G01Y3485188D01*
G01X8581263Y3521837D01*
G03X8595414Y3556000I-34163J34163D01*
G01Y4394600D01*
G03X8581263Y4428763I-48314J0D01*
G01X8556263Y4453763D01*
G03X8522100Y4467914I-34163J-34163D01*
G01X8109188D01*
G03X8168914Y4533900I-6588J65986D01*
G03X8102600Y4600214I-66314J0D01*
G03X8076874Y4595021I0J-66314D01*
G01X8182893Y4701039D01*
G03X8196200Y4698475I13307J33250D01*
G01X8466200D01*
G03X8502014Y4734289I0J35814D01*
G01Y4862542D01*
G03X8466200Y4898356I-35814J0D01*
G01X8196200D01*
G03X8160386Y4862542I0J-35814D01*
G01Y4855856D01*
G03X8143839Y4843892I28929J-57440D01*
G01X8001854Y4701908D01*
G03X8006644Y4719800I-31024J17892D01*
G01Y4779800D01*
G03X7970830Y4815614I-35814J0D01*
G01X7959106D01*
G03X7944993Y4847863I-48276J-1914D01*
G01X7919993Y4872863D01*
G03X7885830Y4887014I-34163J-34163D01*
G01X7354170D01*
G03X7320007Y4872863I0J-48314D01*
G01X7309594Y4862451D01*
G01X7299508Y4872537D01*
G01X7299507D01*
G03X7252970Y4891814I-46537J-46537D01*
G01X7166532D01*
G03X7138760Y4905014I-27772J-22614D01*
G01X7058113D01*
G03X7023100Y4876734I0J-35814D01*
G03X6988087Y4905014I-35013J-7534D01*
G01X6907440D01*
G03X6871626Y4869200I0J-35814D01*
G01Y4782800D01*
G03X6907440Y4746986I35814J0D01*
G01X6930996D01*
G03X6927530Y4743770I41304J-47986D01*
G01X6762430Y4578670D01*
G03X6743886Y4533900I44770J-44770D01*
G01Y4404614D01*
G01X6223000D01*
G03X6188695Y4390405I0J-48514D01*
G01X5733005Y3934714D01*
G01X4381500D01*
G03X4347195Y3920505I0J-48514D01*
G01X4240314Y3813623D01*
G01Y3953881D01*
G03X4252100Y3951886I11786J33819D01*
G01X4602100D01*
G03X4637914Y3987700I0J35814D01*
G01Y4237700D01*
G03X4602100Y4273514I-35814J0D01*
G01X4252100D01*
G03X4216286Y4237700I0J-35814D01*
G01Y4210054D01*
G01X4124270Y4302070D01*
G03X4089400Y4316514I-34870J-34870D01*
G01X3223260D01*
G01Y4389186D01*
G01X4574281D01*
G01X4837334Y4126134D01*
G03X4876800Y4109786I39466J39466D01*
G01X5581710D01*
G03X5626100Y4094286I44390J55814D01*
G03X5697414Y4165600I0J71314D01*
G03X5626100Y4236914I-71314J0D01*
G03X5581710Y4221414I0J-71314D01*
G01X4899919D01*
G01X4636866Y4484466D01*
G03X4597400Y4500814I-39466J-39466D01*
G01X3223260D01*
G01Y4551586D01*
G01X3251200D01*
G03X3283595Y4565005I0J45814D01*
G01X3372495Y4653905D01*
G03X3385914Y4686300I-32395J32395D01*
G01Y4687286D01*
G01X3460732D01*
G03X3490900Y4670773I30168J19301D01*
G01X3544900D01*
G03X3580714Y4706587I0J35814D01*
G01Y4785596D01*
G03X3579642Y4794294I-35814J0D01*
G01X3618770D01*
G03X3626136Y4787900I26943J23595D01*
G03X3609899Y4757910I19577J-29990D01*
G01Y4677910D01*
G03X3645713Y4642096I35814J0D01*
G01X3745713D01*
G03X3781527Y4677910I0J35814D01*
G01Y4699686D01*
G01X3858496D01*
G03X3873500Y4702980I0J35814D01*
G03X3888504Y4699686I15004J32520D01*
G01X3967513D01*
G03X3992848Y4710186I0J35814D01*
G01X4232286D01*
G01Y4687700D01*
G03X4268100Y4651886I35814J0D01*
G01X4518100D01*
G03X4553914Y4687700I0J35814D01*
G01Y4887700D01*
G03X4518100Y4923514I-35814J0D01*
G01X4268100D01*
G03X4232286Y4887700I0J-35814D01*
G01Y4814814D01*
G01X3992848D01*
G03X3967513Y4825314I-25335J-25314D01*
G01X3888504D01*
G03X3873500Y4822020I0J-35814D01*
G03X3858496Y4825314I-15004J-32520D01*
G01X3857237D01*
G01X3787670Y4894881D01*
G03X3781452Y4900195I-36992J-36992D01*
G03X3745713Y4933704I-35740J-2305D01*
G01X3645713D01*
G03X3614770Y4915922I0J-35814D01*
G01X3573685D01*
G03X3544900Y4930427I-28785J-21309D01*
G01X3490900D01*
G03X3455086Y4894613I0J-35814D01*
G01Y4815604D01*
G01X3455126Y4813914D01*
G01X3405284D01*
G03X3405914Y4820600I-35184J6686D01*
G01Y4880600D01*
G03X3370100Y4916414I-35814J0D01*
G01X3310100D01*
G03X3274286Y4880600I0J-35814D01*
G01Y4820600D01*
G03X3280391Y4800600I35814J0D01*
G03X3274286Y4780600I29709J-20000D01*
G01Y4720600D01*
G03X3284532Y4695522I35814J0D01*
G01X3232223Y4643214D01*
G01X3223260D01*
G01Y4955286D01*
G01X8600440D01*
G37*
%LPC*%
G36*
G01X6286286Y4612700D02*
G03X6322100Y4576886I35814J0D01*
G01X6672100D01*
G03X6707914Y4612700I0J35814D01*
G01Y4862700D01*
G03X6672100Y4898514I-35814J0D01*
G01X6322100D01*
G03X6286286Y4862700I0J-35814D01*
G01Y4612700D01*
G37*
G36*
G01X4607286Y4687700D02*
G03X4643100Y4651886I35814J0D01*
G01X4893100D01*
G03X4928914Y4687700I0J35814D01*
G01Y4887700D01*
G03X4893100Y4923514I-35814J0D01*
G01X4643100D01*
G03X4607286Y4887700I0J-35814D01*
G01Y4687700D01*
G37*
%LPD*%
G36*
G01X4285141Y106814D02*
G01X4282674Y109281D01*
G01Y259019D01*
G01X4293678Y270023D01*
G01Y109504D01*
G03X4293779Y106814I35814J0D01*
G01X4285141D01*
G37*
G36*
G01X4540584Y869504D02*
G03X4541533Y861314I35814J0D01*
G01X4426995D01*
G01X4315714Y972595D01*
G01Y3020988D01*
G03X4330700Y3019286I14986J65112D01*
G03X4379333Y3040286I0J66814D01*
G01X4413323D01*
G01X4467116Y2986493D01*
G01X4467086Y2984500D01*
G03X4533900Y2917686I66814J0D01*
G03X4600714Y2984500I0J66814D01*
G03X4537329Y3051226I-66814J0D01*
G03X4575314Y3111500I-28829J60274D01*
G03X4562781Y3150457I-66814J0D01*
G01X4603730Y3109509D01*
G03X4639661Y3094625I35931J35931D01*
G01X4682068D01*
G03X4645386Y3035300I29632J-59325D01*
G03X4672880Y2981536I66314J0D01*
G01X4655672Y2964328D01*
G03X4642986Y2933700I30628J-30628D01*
G01Y2450514D01*
G03X4619986Y2400300I43314J-50214D01*
G03X4686300Y2333986I66314J0D01*
G03X4752614Y2400300I0J66314D01*
G03X4729614Y2450514I-66314J0D01*
G01Y2915759D01*
G01X4775186Y2961331D01*
G01Y2938209D01*
G03X4759686Y2895600I50814J-42609D01*
G03X4826000Y2829286I66314J0D01*
G03X4876301Y2852386I0J66314D01*
G03X4877011Y2849499I35102J7106D01*
G03X4875588Y2839505I34391J-9994D01*
G01Y2809505D01*
G03X4877015Y2799499I35814J0D01*
G03X4875588Y2789493I34388J-10006D01*
G01Y2759493D01*
G03X4877011Y2749499I35814J0D01*
G03X4875588Y2739506I34391J-9994D01*
G01Y2709506D01*
G03X4877015Y2699499I35814J0D01*
G03X4875588Y2689493I34388J-10006D01*
G01Y2659493D01*
G03X4877011Y2649499I35814J0D01*
G03X4875588Y2639506I34391J-9994D01*
G01Y2609506D01*
G03X4877015Y2599500I35814J0D01*
G03X4875588Y2589493I34388J-10006D01*
G01Y2559493D01*
G03X4877011Y2549500I35814J0D01*
G03X4875588Y2539506I34391J-9994D01*
G01Y2509506D01*
G03X4877015Y2499500I35814J0D01*
G03X4875588Y2489493I34388J-10006D01*
G01Y2459493D01*
G03X4877011Y2449500I35814J0D01*
G03X4875588Y2439506I34391J-9994D01*
G01Y2409506D01*
G03X4875757Y2406039I35814J0D01*
G03X4826000Y2428514I-49757J-43839D01*
G03X4759717Y2364244I0J-66314D01*
G01X4416839Y2021365D01*
G03X4406900Y2022114I-9939J-65565D01*
G03X4340586Y1955800I0J-66314D01*
G03X4406900Y1889486I66314J0D01*
G03X4471024Y1938898I0J66314D01*
G01X4828044Y2295917D01*
G03X4875588Y2318171I-2044J66283D01*
G01Y2309506D01*
G03X4877015Y2299500I35814J0D01*
G03X4875588Y2289494I34388J-10006D01*
G01Y2259494D01*
G03X4877011Y2249500I35814J0D01*
G03X4875588Y2239507I34391J-9994D01*
G01Y2209507D01*
G03X4877015Y2199500I35814J0D01*
G03X4875588Y2189494I34388J-10006D01*
G01Y2159494D01*
G03X4877011Y2149500I35814J0D01*
G03X4875588Y2139507I34391J-9994D01*
G01Y2109507D01*
G03X4877015Y2099501I35814J0D01*
G03X4875588Y2089494I34388J-10006D01*
G01Y2059494D01*
G03X4877011Y2049501I35814J0D01*
G03X4875588Y2039507I34391J-9994D01*
G01Y2010907D01*
G03X4838700Y2022114I-36888J-55107D01*
G03X4772386Y1955800I0J-66314D01*
G03X4793350Y1907417I66314J0D01*
G03X4734286Y1841500I7250J-65917D01*
G03X4749786Y1798891I66314J0D01*
G01Y1765300D01*
G03X4764669Y1729369I50814J0D01*
G01X4805461Y1688577D01*
G03X4841392Y1673694I35931J35931D01*
G01X4875588D01*
G01Y1659495D01*
G03X4877011Y1649501I35814J0D01*
G03X4875588Y1639508I34391J-9994D01*
G01Y1609508D01*
G03X4877015Y1599502I35814J0D01*
G03X4875588Y1589495I34388J-10006D01*
G01Y1559495D01*
G03X4877011Y1549502I35814J0D01*
G03X4875588Y1539508I34391J-9994D01*
G01Y1509508D01*
G03X4877015Y1499502I35814J0D01*
G03X4875588Y1489495I34388J-10006D01*
G01Y1459495D01*
G03X4877011Y1449502I35814J0D01*
G03X4875588Y1439508I34391J-9994D01*
G01Y1429479D01*
G01X4814583D01*
G01X4811131Y1432931D01*
G03X4798238Y1442291I-35931J-35931D01*
G03X4749800Y1463314I-48438J-45291D01*
G03X4683486Y1397000I0J-66314D01*
G03X4712438Y1342213I66314J0D01*
G03X4708886Y1320800I62762J-21413D01*
G03X4709094Y1315551I66314J0D01*
G03X4660900Y1336314I-48194J-45551D01*
G03X4594586Y1270000I0J-66314D01*
G03X4660900Y1203686I66314J0D01*
G03X4679966Y1206486I0J66314D01*
G01X4851400D01*
G03X4875588Y1212612I0J50814D01*
G01Y1209509D01*
G03X4877015Y1199502I35814J0D01*
G03X4875588Y1189496I34388J-10006D01*
G01Y1159496D01*
G03X4877011Y1149502I35814J0D01*
G03X4875588Y1139509I34391J-9994D01*
G01Y1135318D01*
G01X4576398D01*
G03X4540584Y1099504I0J-35814D01*
G01Y869504D01*
G37*
G36*
G01X4813286Y3449891D02*
G01X4813286Y3196253D01*
G01X4660708D01*
G01X4409819Y3447143D01*
G03X4410214Y3454400I-66419J7257D01*
G03X4343400Y3521214I-66814J0D01*
G03X4315714Y3515208I0J-66814D01*
G01Y3751805D01*
G01X4401595Y3837686D01*
G01X4541533D01*
G03X4540584Y3829496I34865J-8190D01*
G01Y3614107D01*
G01X4473684Y3681007D01*
G01X4473714Y3683000D01*
G03X4406900Y3749814I-66814J0D01*
G03X4340086Y3683000I0J-66814D01*
G03X4406900Y3616186I66814J0D01*
G01X4408893Y3616216D01*
G01X4632581Y3392528D01*
G03X4619486Y3352800I53719J-39728D01*
G03X4686300Y3285986I66814J0D01*
G03X4753114Y3352800I0J66814D01*
G03X4732114Y3401433I-66814J0D01*
G01Y3403600D01*
G03X4718695Y3435995I-45814J0D01*
G01X4591009Y3563682D01*
G01X4875588D01*
G01Y3559491D01*
G01X4875628Y3557804D01*
G03X4864100Y3558814I-11528J-65304D01*
G03X4797786Y3492500I0J-66314D01*
G03X4813286Y3449891I66314J0D01*
G37*
G36*
G01X4729386Y127000D02*
G03X4743578Y93849I45814J0D01*
G01X4703417D01*
G01Y142598D01*
G03X4695465Y165100I-35814J0D01*
G03X4703417Y187602I-27862J22502D01*
G01Y247602D01*
G03X4667603Y283416I-35814J0D01*
G01X4607603D01*
G03X4571789Y247602I0J-35814D01*
G01Y187602D01*
G03X4579741Y165100I35814J0D01*
G03X4571789Y142598I27862J-22502D01*
G01Y93849D01*
G01X4526706D01*
G01X4526428Y94128D01*
G03X4513239Y103148I-30628J-30628D01*
G03X4513807Y109504I-35245J6356D01*
G01Y271506D01*
G03X4483020Y306965I-35814J0D01*
G01X4589941Y413886D01*
G01X4734916D01*
G03X4761975Y423379I0J43314D01*
G01Y385700D01*
G03X4797789Y349886I35814J0D01*
G01X4817867D01*
G03X4793605Y337195I8133J-45086D01*
G01X4742805Y286395D01*
G03X4729386Y254000I32395J-32395D01*
G01Y127000D01*
G37*
G36*
G01X4811014Y691514D02*
G01X4811014Y774700D01*
G03X4796805Y809005I-48514J0D01*
G01X4772119Y833690D01*
G01X4886397D01*
G03X4922211Y869504I0J35814D01*
G01Y1073695D01*
G01X5021486D01*
G01Y1060377D01*
G01X4946005Y984895D01*
G03X4932586Y952500I32395J-32395D01*
G01Y719661D01*
G01X4904439Y691514D01*
G01X4811014D01*
G37*
G36*
G01X8413914Y3389540D02*
G01X8413914Y3579640D01*
G03X8378100Y3615454I-35814J0D01*
G01X8208100D01*
G03X8172286Y3579640I0J-35814D01*
G01Y3571014D01*
G01X8129861D01*
G01X7818937Y3881937D01*
G03X7772400Y3901214I-46537J-46537D01*
G01X6735269D01*
G03X6680200Y3921214I-55069J-65814D01*
G03X6594386Y3835400I0J-85814D01*
G03X6628492Y3766914I85814J0D01*
G01X6375400D01*
G03X6343005Y3753495I0J-45814D01*
G01X6280223Y3690714D01*
G01X6245544D01*
G03X6197600Y3711214I-47944J-45814D01*
G03X6131286Y3644900I0J-66314D01*
G03X6143314Y3606814I66314J0D01*
G01X6125909D01*
G03X6083300Y3622314I-42609J-50814D01*
G03X6016986Y3556000I0J-66314D01*
G03X6045938Y3501213I66314J0D01*
G03X6042386Y3479800I62762J-21413D01*
G03X6058290Y3436714I66314J0D01*
G01X5816600D01*
G03X5803854Y3434905I0J-45814D01*
G01Y3642588D01*
G03X5790435Y3674984I-45814J0D01*
G01X5757784Y3707635D01*
G03X5725388Y3721054I-32395J-32395D01*
G01X5679212D01*
G03X5646816Y3707635I0J-45814D01*
G01X5591795Y3652614D01*
G01X5562600D01*
G03X5530205Y3639195I0J-45814D01*
G01X5382232Y3491222D01*
G01X5269254D01*
G03X5252814Y3515387I-35254J-6309D01*
G01Y3530295D01*
G03X5239395Y3562691I-45814J0D01*
G01X5212809Y3589277D01*
G01Y3598893D01*
G03X5237002Y3589486I24194J26407D01*
G01X5317002D01*
G03X5352816Y3625300I0J35814D01*
G01Y3715300D01*
G03X5317002Y3751114I-35814J0D01*
G01X5237002D01*
G03X5207000Y3734857I0J-35814D01*
G03X5176998Y3751114I-30002J-19557D01*
G01X5096998D01*
G03X5061184Y3715300I0J-35814D01*
G01Y3625300D01*
G03X5096998Y3589486I35814J0D01*
G01X5121181D01*
G01Y3570300D01*
G03X5134600Y3537905I45814J0D01*
G01X5158757Y3513747D01*
G03X5144186Y3484913I21242J-28834D01*
G01Y3447385D01*
G01X5117106Y3420306D01*
G01X5067216D01*
G01Y3439504D01*
G03X5065794Y3449498I-35814J0D01*
G03X5067216Y3459491I-34391J9994D01*
G01Y3489491D01*
G03X5065790Y3499498I-35814J0D01*
G03X5067216Y3509504I-34388J10006D01*
G01Y3539504D01*
G03X5065794Y3549498I-35814J0D01*
G03X5067216Y3559491I-34391J9994D01*
G01Y3589491D01*
G03X5031402Y3625305I-35814J0D01*
G01X4922211D01*
G01Y3829496D01*
G03X4921262Y3837686I-35814J0D01*
G01X5753100D01*
G03X5787405Y3851895I0J48514D01*
G01X6243095Y4307586D01*
G01X6743886D01*
G01Y4203700D01*
G03X6762430Y4158930I63314J0D01*
G01X6838630Y4082730D01*
G03X6883400Y4064186I44770J44770D01*
G01X7124700D01*
G03X7169470Y4082730I0J63314D01*
G01X7361235Y4274496D01*
G03X7388258Y4302986I-32065J57474D01*
G01X7389170D01*
G03X7424984Y4338800I0J35814D01*
G01Y4398800D01*
G03X7401834Y4432300I-35814J0D01*
G03X7424984Y4465800I-12664J33500D01*
G01Y4525800D01*
G03X7401834Y4559300I-35814J0D01*
G03X7424984Y4592800I-12664J33500D01*
G01Y4652800D01*
G03X7401834Y4686300I-35814J0D01*
G03X7424984Y4719800I-12664J33500D01*
G01Y4779800D01*
G03X7423384Y4790386I-35814J0D01*
G01X7816616D01*
G03X7815016Y4779800I34214J-10586D01*
G01Y4719800D01*
G03X7838166Y4686300I35814J0D01*
G03X7815016Y4652800I12664J-33500D01*
G01Y4592800D01*
G03X7838166Y4559300I35814J0D01*
G03X7815016Y4525800I12664J-33500D01*
G01Y4465800D01*
G03X7838166Y4432300I35814J0D01*
G03X7815016Y4398800I12664J-33500D01*
G01Y4338800D01*
G03X7850830Y4302986I35814J0D01*
G01X7862516D01*
G01Y4218115D01*
G01X7779497D01*
G03X7747000Y4197354I0J-35814D01*
G03X7714503Y4218115I-32497J-15053D01*
G01X7573503D01*
G03X7537689Y4182301I0J-35814D01*
G01Y4182300D01*
G01Y4047300D01*
G03X7573503Y4011486I35814J0D01*
G01X7714503D01*
G03X7747000Y4032246I0J35814D01*
G03X7779497Y4011486I32497J15053D01*
G01X7920497D01*
G03X7956311Y4047300I0J35814D01*
G01Y4159333D01*
G03X7959144Y4175633I-45481J16300D01*
G01Y4302986D01*
G01X7970830D01*
G03X8005804Y4331091I0J35814D01*
G03X8009763Y4334637I-30204J37709D01*
G01X8046412Y4371286D01*
G01X8160386D01*
G01Y4256058D01*
G03X8196200Y4220244I35814J0D01*
G01X8289982D01*
G01X8308144Y4202082D01*
G01Y4001977D01*
G03X8306893Y3992596I34563J-9381D01*
G01Y3830594D01*
G03X8342707Y3794780I35814J0D01*
G01X8491209D01*
G03X8498786Y3795591I0J35814D01*
G01Y3576012D01*
G01X8462137Y3539363D01*
G03X8447986Y3505200I34163J-34163D01*
G01Y3423612D01*
G01X8413914Y3389540D01*
G37*
%LPC*%
G36*
G01X6672100Y3951886D02*
G03X6707914Y3987700I0J35814D01*
G01Y4237700D01*
G03X6672100Y4273514I-35814J0D01*
G01X6322100D01*
G03X6286286Y4237700I0J-35814D01*
G01Y3987700D01*
G03X6322100Y3951886I35814J0D01*
G01X6672100D01*
G37*
G36*
G01X7464186Y4394300D02*
G03X7500000Y4358486I35814J0D01*
G01X7740000D01*
G03X7775814Y4394300I0J35814D01*
G01Y4724300D01*
G03X7740000Y4760114I-35814J0D01*
G01X7500000D01*
G03X7464186Y4724300I0J-35814D01*
G01Y4394300D01*
G37*
G36*
G01X8192708Y3794780D02*
G03X8228522Y3830594I0J35814D01*
G01Y3992596D01*
G03X8192708Y4028410I-35814J0D01*
G01X8044207D01*
G03X8008393Y3992596I0J-35814D01*
G01Y3830594D01*
G03X8044207Y3794780I35814J0D01*
G01X8192708D01*
G37*
%LPD*%
G36*
G01X5239960Y282174D02*
G03X5240313Y287191I-35461J5018D01*
G01Y435693D01*
G03X5204499Y471507I-35814J0D01*
G01X5031701D01*
G03X4995887Y435693I0J-35814D01*
G01Y350614D01*
G01X4933225D01*
G03X4961856Y385700I-7183J35086D01*
G01Y619349D01*
G01X4995887Y653380D01*
G01Y605707D01*
G03X5031701Y569893I35814J0D01*
G01X5204499D01*
G03X5240313Y605707I0J35814D01*
G01Y663896D01*
G01X5247096Y657113D01*
G03X5279492Y643694I32395J32395D01*
G01X5322546D01*
G03X5325280Y635000I35254J6309D01*
G03X5321986Y619996I32520J-15004D01*
G01Y540987D01*
G03X5346654Y506952I35814J0D01*
G03X5317986Y452097I38146J-54854D01*
G03X5384800Y385283I66814J0D01*
G03X5449140Y434086I0J66814D01*
G01X5473700D01*
G03X5504121Y444809I0J48514D01*
G03X5498692Y412173I95385J-32635D01*
G03X5508733Y368314I100814J0D01*
G01X5422900D01*
G03X5386969Y353431I0J-50814D01*
G01X5315712Y282174D01*
G01X5239960D01*
G37*
G36*
G01X5024214Y789231D02*
G01X5024214Y867295D01*
G01X5060305Y831205D01*
G03X5092700Y817786I32395J32395D01*
G01X5149923D01*
G01X5177687Y790023D01*
G01X5031701D01*
G03X5024214Y789231I0J-35814D01*
G37*
G36*
G01X5118100Y1235377D02*
G03X5080000Y1247414I-38100J-54277D01*
G03X5066614Y1246049I0J-66314D01*
G03X5065794Y1249502I-35212J-6540D01*
G03X5067216Y1259496I-34391J9994D01*
G01Y1289496D01*
G03X5065790Y1299502I-35814J0D01*
G03X5067216Y1309508I-34388J10006D01*
G01Y1317382D01*
G03X5105400Y1305286I38184J54218D01*
G03X5135587Y1312555I0J66314D01*
G01Y1278807D01*
G03X5154218Y1247384I35814J0D01*
G03X5118100Y1235377I1982J-66284D01*
G37*
G36*
G01X5447447Y834892D02*
G03X5459202Y810514I64353J16008D01*
G01X5340373D01*
G03X5295900Y827814I-44473J-48514D01*
G03X5271913Y823287I0J-65814D01*
G03X5264795Y832495I-39513J-23187D01*
G01X5201295Y895995D01*
G03X5168900Y909414I-32395J-32395D01*
G01X5111677D01*
G01X5100414Y920677D01*
G01Y946223D01*
G01X5135587Y981396D01*
G01Y960291D01*
G03X5171401Y924477I35814J0D01*
G01X5344199D01*
G03X5379977Y958671I0J35814D01*
G03X5396373Y943744I55623J44629D01*
G03X5381486Y901700I51927J-42044D01*
G03X5447447Y834892I66814J0D01*
G37*
G36*
G01X5176614Y3219216D02*
G01X5176614Y3261233D01*
G03X5180000Y3261073I3386J35654D01*
G01X5234000D01*
G03X5269814Y3296887I0J35814D01*
G01Y3375896D01*
G03X5266520Y3390900I-35814J0D01*
G03X5269254Y3399594I-32520J15004D01*
G01X5392204D01*
G01X5250805Y3258195D01*
G03X5237386Y3225800I32395J-32395D01*
G01Y3219216D01*
G01X5176614D01*
G37*
G36*
G01X5380013Y1047975D02*
G01X5380013Y1108793D01*
G03X5344199Y1144607I-35814J0D01*
G01X5211570D01*
G03X5222514Y1181100I-55370J36493D01*
G03X5180007Y1242993I-66314J0D01*
G01X5303074D01*
G01X5318959Y1227108D01*
G03X5318486Y1219200I65841J-7908D01*
G03X5384800Y1152886I66314J0D01*
G03X5405186Y1156097I0J66314D01*
G01Y1067803D01*
G03X5380013Y1047975I30414J-64503D01*
G37*
G36*
G01X5560533Y3263124D02*
G03X5549130Y3244167I32395J-32395D01*
G01X5417157D01*
G01X5518077Y3345086D01*
G01X5552756D01*
G03X5600700Y3324586I47944J45814D01*
G03X5627773Y3330364I0J66314D01*
G01X5560534Y3263124D01*
G01X5560533D01*
G37*
G36*
G01X5446226Y531114D02*
G03X5447614Y540987I-34426J9873D01*
G01Y619996D01*
G03X5444320Y635000I-35814J0D01*
G03X5446462Y640994I-32520J15004D01*
G01X5537985D01*
G01Y615494D01*
G01X5453605Y531114D01*
G01X5446226D01*
G37*
G36*
G01X5490465Y3469874D02*
G01X5535033Y3514442D01*
G03X5534386Y3505200I65667J-9242D01*
G01X5534403Y3503694D01*
G01X5500583Y3469874D01*
G01X5490465D01*
G37*
G36*
G01X5664200Y998414D02*
G03X5624852Y986576I0J-71314D01*
G03X5625414Y992899I-35251J6323D01*
G01Y1049464D01*
G01Y1049465D01*
G03X5589600Y1085279I-35814J0D01*
G01X5535600D01*
G03X5516814Y1079956I0J-35814D01*
G01Y1196081D01*
G01X5651208Y1330475D01*
G03X5676900Y1325686I25692J66525D01*
G03X5707898Y1332775I0J71314D01*
G01Y1255348D01*
G03X5743712Y1219534I35814J0D01*
G01X5838713D01*
G03X5854713Y1223306I0J35814D01*
G03X5870712Y1219534I15999J32042D01*
G01X5965713D01*
G03X5981713Y1223306I0J35814D01*
G03X5997712Y1219534I15999J32042D01*
G01X6092713D01*
G03X6108713Y1223306I0J35814D01*
G03X6124712Y1219534I15999J32042D01*
G01X6219713D01*
G03X6235713Y1223306I0J35814D01*
G03X6251712Y1219534I15999J32042D01*
G01X6346713D01*
G03X6362713Y1223306I0J35814D01*
G03X6378712Y1219534I15999J32042D01*
G01X6443166D01*
G01X6415263Y1191631D01*
G03X6400380Y1155700I35931J-35931D01*
G01Y1105529D01*
G03X6386195Y1107464I-14185J-51029D01*
G03X6353696Y1096321I0J-52964D01*
G03X6349209Y1099450I-32499J-41821D01*
G03X6365514Y1143000I-50009J43550D01*
G03X6299200Y1209314I-66314J0D01*
G03X6286897Y1208163I0J-66314D01*
G03X6279200Y1208814I-7697J-45163D01*
G01X5745072D01*
G03X5712676Y1195395I0J-45814D01*
G01X5684259Y1166979D01*
G03X5670841Y1134583I32395J-32395D01*
G01Y998104D01*
G03X5664200Y998414I-6641J-71004D01*
G37*
G36*
G01X5641257Y503936D02*
G03X5599506Y512987I-41750J-91762D01*
G03X5567471Y507762I0J-100814D01*
G01X5620804Y561094D01*
G03X5635013Y595399I-34305J34305D01*
G01Y640994D01*
G01X5641086D01*
G01Y508000D01*
G03X5641257Y503936I48514J0D01*
G37*
G36*
G01X5573110Y207635D02*
G01X5707085Y73660D01*
G01X5568961D01*
G03X5580330Y120169I-89445J46509D01*
G01Y170169D01*
G03X5573110Y207635I-100814J0D01*
G37*
G36*
G01X5760639Y1644430D02*
G03X5702300Y1679214I-58339J-31530D01*
G03X5658022Y1662266I0J-66314D01*
G01X5603503D01*
G01Y1684353D01*
G03X5603352Y1687638I-35814J0D01*
G01X5762124D01*
G03X5757986Y1663700I67176J-23938D01*
G03X5760639Y1644430I71314J0D01*
G37*
G36*
G01X5712226Y3414817D02*
G01X5661236Y3363827D01*
G03X5667014Y3390900I-60536J27073D01*
G03X5634337Y3448050I-66314J0D01*
G03X5667014Y3505200I-33637J57150D01*
G03X5629441Y3564962I-66314J0D01*
G03X5643167Y3574405I-18669J41838D01*
G01X5698188Y3629426D01*
G01X5706412D01*
G01X5712226Y3623612D01*
G01Y3414817D01*
G37*
G36*
G01X5854713Y1497389D02*
G03X5838713Y1501162I-15999J-32042D01*
G01X5754134D01*
G03X5713888Y1547606I-64534J-15262D01*
G03X5768614Y1612900I-11588J65294D01*
G03X5766290Y1630302I-66314J0D01*
G03X5829300Y1592386I63010J33398D01*
G03X5879336Y1612886I0J71314D01*
G01X5911741D01*
G03X5864586Y1549400I19159J-63486D01*
G03X5880099Y1506776I66314J0D01*
G01Y1501162D01*
G01X5870712D01*
G03X5854713Y1497389I0J-35814D01*
G37*
G36*
G01X6004286Y1917700D02*
G03X6051441Y1854214I66314J0D01*
G01X5732209D01*
G03X5725062Y1859436I-42609J-50814D01*
G01X5965063Y2099437D01*
G03X5979214Y2133600I-34163J34163D01*
G01Y2583488D01*
G01X6052512Y2656786D01*
G01X6408640D01*
G03X6442803Y2670937I0J48314D01*
G01X6494686Y2722820D01*
G01Y2266877D01*
G01X6433457Y2205648D01*
G01X6433519Y2207751D01*
G01Y2297751D01*
G03X6423347Y2322754I-35814J0D01*
G03X6433519Y2347756I-25642J25002D01*
G01Y2437756D01*
G03X6423347Y2462759I-35814J0D01*
G03X6433519Y2487761I-25642J25002D01*
G01Y2577761D01*
G03X6397705Y2613575I-35814J0D01*
G01X6307705D01*
G03X6282703Y2603403I0J-35814D01*
G03X6257700Y2613575I-25002J-25642D01*
G01X6167700D01*
G03X6142698Y2603403I0J-35814D01*
G03X6117695Y2613575I-25002J-25642D01*
G01X6027696D01*
G03X5991882Y2577761I0J-35814D01*
G01Y2487761D01*
G03X6002053Y2462759I35814J0D01*
G03X5991882Y2437756I25642J-25002D01*
G01Y2347756D01*
G03X6002053Y2322754I35814J0D01*
G03X5991882Y2297751I25642J-25002D01*
G01Y2207751D01*
G03X6027696Y2171937I35814J0D01*
G01X6117695D01*
G03X6142698Y2182109I0J35814D01*
G03X6167700Y2171937I25002J25642D01*
G01X6257700D01*
G03X6282703Y2182109I0J35814D01*
G03X6307705Y2171937I25002J25642D01*
G01X6397705D01*
G01X6399809Y2171999D01*
G01X6331023Y2103214D01*
G01X6210300D01*
G03X6177905Y2089795I0J-45814D01*
G01X6072106Y1983997D01*
G01X6070600Y1984014D01*
G03X6004286Y1917700I0J-66314D01*
G37*
G36*
G01X5810250Y582959D02*
G01X5788914Y604295D01*
G01Y685800D01*
G03X5786689Y700325I-48514J0D01*
G01X5807086D01*
G01Y649134D01*
G03X5832818Y605527I49814J0D01*
G01X5810250Y582959D01*
G37*
G36*
G01X5952197Y1612886D02*
G01X5953248Y1611835D01*
G03X5950059Y1612886I-22348J-62435D01*
G01X5952197D01*
G37*
G36*
G01X6616713Y1497389D02*
G03X6600713Y1501162I-15999J-32042D01*
G01X6505712D01*
G03X6489713Y1497389I0J-35814D01*
G03X6473713Y1501162I-15999J-32042D01*
G01X6378712D01*
G03X6362713Y1497389I0J-35814D01*
G03X6346713Y1501162I-15999J-32042D01*
G01X6251712D01*
G03X6235713Y1497389I0J-35814D01*
G03X6219713Y1501162I-15999J-32042D01*
G01X6124712D01*
G03X6108713Y1497389I0J-35814D01*
G03X6092713Y1501162I-15999J-32042D01*
G01X5997712D01*
G03X5981727Y1497396I0J-35814D01*
G01Y1506807D01*
G03X5997214Y1549400I-50827J42593D01*
G03X5993335Y1571748I-66314J0D01*
G01X6038914Y1526169D01*
G03X6074845Y1511286I35931J35931D01*
G01X6667500D01*
G03X6694797Y1519240I0J50814D01*
G03X6731000Y1508486I36203J55560D01*
G03X6797314Y1574800I0J66314D01*
G03X6731000Y1641114I-66314J0D01*
G03X6688391Y1625614I0J-66314D01*
G01X6680200D01*
G03X6646594Y1612914I0J-50814D01*
G01X6407259D01*
G03X6454414Y1676400I-19159J63486D01*
G01X6454397Y1677906D01*
G01X6501321Y1724830D01*
G03X6565900Y1673586I64579J15070D01*
G03X6623355Y1706786I0J66314D01*
G01X6762823D01*
G01X6799486Y1670123D01*
G01Y1536700D01*
G03X6812905Y1504305I45814J0D01*
G01X6816048Y1501162D01*
G01X6759712D01*
G03X6743713Y1497389I0J-35814D01*
G03X6727713Y1501162I-15999J-32042D01*
G01X6632712D01*
G03X6616713Y1497389I0J-35814D01*
G37*
G36*
G01X6321786Y1676400D02*
G03X6368941Y1612914I66314J0D01*
G01X6140559D01*
G03X6187714Y1676400I-19159J63486D01*
G03X6174790Y1715732I-66314J0D01*
G03X6197600Y1711686I22810J62268D01*
G03X6263914Y1778000I0J66314D01*
G03X6202588Y1844126I-66314J0D01*
G03X6172200Y1854214I-30388J-40726D01*
G01X6089759D01*
G03X6136914Y1917700I-19159J63486D01*
G01X6136897Y1919206D01*
G01X6229277Y2011586D01*
G01X6350000D01*
G03X6382395Y2025005I0J45814D01*
G01X6572895Y2215505D01*
G03X6586314Y2247900I-32395J32395D01*
G01Y2735520D01*
G01X6607537Y2714297D01*
G03X6641700Y2700146I34163J34163D01*
G01X6718700D01*
G03X6752863Y2714297I0J48314D01*
G01X6756386Y2717820D01*
G01Y2645067D01*
G03X6728186Y2590800I38114J-54267D01*
G03X6794500Y2524486I66314J0D01*
G03X6860814Y2590800I0J66314D01*
G03X6858014Y2609866I-66314J0D01*
G01Y2827591D01*
G03X6870686Y2851041I-50814J42609D01*
G01Y2243548D01*
G01X6819309Y2192171D01*
G03X6804426Y2156240I35931J-35931D01*
G01Y2135667D01*
G03X6794500Y2136414I-9926J-65567D01*
G03X6728186Y2070100I0J-66314D01*
G03X6728338Y2065613I66314J0D01*
G03X6723286Y2044700I40762J-20913D01*
G01Y1849214D01*
G01X6515100D01*
G03X6482705Y1835795I0J-45814D01*
G01X6389606Y1742697D01*
G01X6388100Y1742714D01*
G03X6321786Y1676400I0J-66314D01*
G37*
G36*
G01X6115084Y598878D02*
G01X6114115Y599846D01*
G03X6156702Y649134I-7228J49287D01*
G01Y700325D01*
G01X6190666D01*
G01X6192246Y698745D01*
G01Y617649D01*
G03X6191135Y613461I48514J-15115D01*
G01X6176552Y598878D01*
G01X6115084D01*
G37*
G36*
G01X6350290Y869389D02*
G01X6393724Y825954D01*
G01X6281708D01*
G01X6271604Y836058D01*
G03X6257535Y845997I-35931J-35931D01*
G03X6257708Y850139I-49642J4142D01*
G03X6250984Y875133I-49814J0D01*
G03X6257708Y900126I-43091J24994D01*
G03X6250977Y925133I-49814J0D01*
G03X6257708Y950139I-43083J25006D01*
G03X6250984Y975133I-49814J0D01*
G03X6257708Y1000126I-43091J24994D01*
G03X6207893Y1049941I-49814J0D01*
G01X6156702D01*
G01Y1101132D01*
G03X6154044Y1117186I-49814J0D01*
G01X6238117D01*
G03X6275399Y1081104I61083J25814D01*
G03X6268232Y1054500I45797J-26604D01*
G01Y915651D01*
G03X6321196Y862687I52964J0D01*
G03X6349091Y870628I0J52964D01*
G01X6350289Y869389D01*
G01X6350290D01*
G37*
G36*
G01X6353696Y523170D02*
G03X6321196Y534313I-32499J-41821D01*
G03X6289274Y523612I0J-52964D01*
G01Y576110D01*
G03X6291574Y591224I-48514J15115D01*
G01Y602534D01*
G03X6289274Y617649I-50814J0D01*
G01Y671033D01*
G03X6299200Y670286I9926J65567D01*
G03X6364368Y724326I0J66314D01*
G01X6405490D01*
G03X6395786Y692877I46110J-31449D01*
G01Y592585D01*
G03X6412134Y553119I55814J0D01*
G01X6433857Y531395D01*
G03X6418694Y523170I17337J-50046D01*
G03X6386195Y534313I-32499J-41821D01*
G03X6353696Y523170I0J-52964D01*
G37*
G36*
G01X6808699Y523160D02*
G03X6776187Y534313I-32512J-41811D01*
G03X6743687Y523170I0J-52964D01*
G03X6711188Y534313I-32499J-41821D01*
G03X6696697Y532292I0J-52964D01*
G03X6681566Y560166I-54597J-11592D01*
G01X6656166Y585566D01*
G03X6616700Y601914I-39466J-39466D01*
G01X6614410D01*
G03X6578600Y612414I-35810J-55814D01*
G03X6530925Y592194I0J-66314D01*
G01X6507414Y615704D01*
G01Y669758D01*
G01X6507982Y670326D01*
G01X6716233D01*
G03X6715486Y660400I65567J-9926D01*
G03X6766293Y595924I66314J0D01*
G03X6823397Y531228I66307J976D01*
G03X6808699Y523160I17814J-49879D01*
G37*
G36*
G01X6584716Y73660D02*
G01X6584716Y120579D01*
G03X6598814Y158598I-44216J38019D01*
G01Y162149D01*
G03X6611814Y203200I-58314J41051D01*
G03X6611540Y209449I-71314J0D01*
G01X6613586Y211495D01*
G03X6627005Y243891I-32395J32395D01*
G01Y266362D01*
G01X6678834Y214534D01*
G03X6718300Y198186I39466J39466D01*
G01X6734431D01*
G03X6734086Y190500I85469J-7686D01*
G03X6819900Y104686I85814J0D01*
G03X6898066Y155086I0J85814D01*
G01X6966668D01*
G01X6999656Y122098D01*
G03X7007307Y115616I43002J43002D01*
G03X7048340Y73660I66593J24084D01*
G01X6584716D01*
G37*
G36*
G01X6695116Y1104967D02*
G03X6678689Y1096321I16072J-50467D01*
G03X6656664Y1106418I-32499J-41821D01*
G03X6657614Y1117600I-65364J11182D01*
G03X6653646Y1140196I-66314J0D01*
G01X6654800Y1140186D01*
G03X6694132Y1153110I0J66314D01*
G03X6690086Y1130300I62268J-22810D01*
G03X6695116Y1104967I66314J0D01*
G37*
G36*
G01X7524746Y2184400D02*
G03X7506100Y2164028I15053J-32497D01*
G03X7442200Y2212614I-63900J-17728D01*
G03X7402779Y2199625I0J-66314D01*
G03X7399752Y2208352I-35068J-7272D01*
G03X7403525Y2224352I-32042J15999D01*
G01Y2319353D01*
G03X7399752Y2335352I-35814J0D01*
G03X7403525Y2351352I-32042J15999D01*
G01Y2446353D01*
G03X7399752Y2462352I-35814J0D01*
G03X7403525Y2478352I-32042J15999D01*
G01Y2573353D01*
G01X7403513Y2574285D01*
G03X7454900Y2549886I51387J41915D01*
G03X7521214Y2616200I0J66314D01*
G03X7454900Y2682514I-66314J0D01*
G03X7421121Y2673266I0J-66314D01*
G01X7403525D01*
G01Y2700353D01*
G03X7402553Y2708638I-35814J0D01*
G01X7593152D01*
G03X7625548Y2722057I0J45814D01*
G01X7728595Y2825105D01*
G03X7742014Y2857500I-32395J32395D01*
G01Y3046806D01*
G03X7728595Y3079202I-45814J0D01*
G01X7448002Y3359795D01*
G03X7415606Y3373214I-32395J-32395D01*
G01X7348314D01*
G01Y3465082D01*
G03X7334895Y3497478I-45814J0D01*
G01X7233287Y3599086D01*
G01X7264806D01*
G03X7327900Y3553186I63094J20414D01*
G03X7394214Y3619500I0J66314D01*
G03X7327900Y3685814I-66314J0D01*
G03X7323413Y3685662I0J-66314D01*
G03X7302500Y3690714I-20913J-40762D01*
G01X7184405D01*
G01X7121624Y3753495D01*
G03X7089228Y3766914I-32395J-32395D01*
G01X6731908D01*
G03X6735269Y3769586I-51708J68486D01*
G01X7745139D01*
G01X8056063Y3458663D01*
G03X8102600Y3439386I46537J46537D01*
G01X8172286D01*
G01Y3359640D01*
G03X8173522Y3350314I35814J0D01*
G01X7950200D01*
G03X7916037Y3336163I0J-48314D01*
G01X7856250Y3276377D01*
G03X7842100Y3242213I34163J-34163D01*
G01Y3196687D01*
G03X7856250Y3162523I48314J0D01*
G01X7941837Y3076937D01*
G03X7976000Y3062786I34163J34163D01*
G01X8172286D01*
G01Y2846560D01*
G03X8183899Y2820161I35814J0D01*
G01X8147598Y2783860D01*
G03X8087086Y2717800I5802J-66060D01*
G03X8153400Y2651486I66314J0D01*
G03X8219460Y2711998I0J66314D01*
G01X8318208Y2810746D01*
G01X8378100D01*
G03X8381370Y2810896I0J35814D01*
G01X7972888Y2402414D01*
G01X7962900D01*
G01X7946621D01*
G03X7861300Y2439914I-85321J-78314D01*
G03X7794474Y2418689I0J-115814D01*
G01X7598616D01*
G03X7541272Y2393711I0J-78314D01*
G01X7539800D01*
G03X7503986Y2357897I0J-35814D01*
G01Y2216897D01*
G03X7524746Y2184400I35814J0D01*
G37*
%LPC*%
G36*
G01X7745486Y2578100D02*
G03X7861300Y2462286I115814J0D01*
G03X7977114Y2578100I0J115814D01*
G03X7861300Y2693914I-115814J0D01*
G03X7745486Y2578100I0J-115814D01*
G37*
%LPD*%
G36*
G01X6909625Y4190814D02*
G01X6870514Y4229925D01*
G01Y4369378D01*
G01Y4507675D01*
G01X6998525Y4635686D01*
G01X7070775D01*
G01X6955363Y4520274D01*
G01X6929100D01*
G03X6893286Y4484460I0J-35814D01*
G01Y4403813D01*
G03X6921566Y4368800I35814J0D01*
G03X6893286Y4333787I7534J-35013D01*
G01Y4253140D01*
G03X6929100Y4217326I35814J0D01*
G01X7015500D01*
G03X7051314Y4253140I0J35814D01*
G01Y4333787D01*
G03X7023034Y4368800I-35814J0D01*
G03X7051314Y4403813I-7534J35013D01*
G01Y4430076D01*
G01X7178225Y4556986D01*
G01X7251561D01*
G03X7233356Y4525800I17609J-31186D01*
G01Y4465800D01*
G03X7256506Y4432300I35814J0D01*
G03X7233356Y4398800I12664J-33500D01*
G01Y4338800D01*
G03X7235179Y4327519I35814J0D01*
G01X7098475Y4190814D01*
G01X6909625D01*
G37*
G36*
G01X7099460Y73660D02*
G03X7144714Y139700I-25560J66040D01*
G03X7083967Y209795I-70814J0D01*
G01X7070176Y223586D01*
G01X7171585D01*
G01Y133737D01*
G03X7207399Y97923I35814J0D01*
G01X7355900D01*
G03X7391714Y133737I0J35814D01*
G01Y295739D01*
G03X7377463Y324333I-35814J0D01*
G01Y373446D01*
G01X7452361Y448344D01*
G01X7551800D01*
G03X7587614Y484158I0J35814D01*
G01Y582824D01*
G01X7609469Y560969D01*
G03X7635362Y547087I35931J35931D01*
G03X7629886Y520700I60838J-26387D01*
G03X7690398Y454640I66314J0D01*
G01X7746831Y398207D01*
G01Y157400D01*
G03X7782645Y121586I35814J0D01*
G01X7910897D01*
G03X7946711Y157400I0J35814D01*
G01Y279165D01*
G03X7948385Y292100I-49140J12935D01*
G01Y319329D01*
G03X7946711Y332264I-50814J0D01*
G01Y503000D01*
G03X7910897Y538814I-35814J0D01*
G01X7782645D01*
G03X7761554Y531945I0J-35814D01*
G03X7757463Y546086I-65354J-11245D01*
G01X7979952D01*
G01X8231769Y294269D01*
G03X8267700Y279386I35931J35931D01*
G01X8360089D01*
G01Y157400D01*
G03X8395903Y121586I35814J0D01*
G01X8524155D01*
G03X8559969Y157400I0J35814D01*
G01Y279165D01*
G03X8561643Y292100I-49140J12935D01*
G03X8559969Y305035I-50814J0D01*
G01Y503000D01*
G03X8524155Y538814I-35814J0D01*
G01X8395903D01*
G03X8360089Y503000I0J-35814D01*
G01Y381014D01*
G01X8288748D01*
G01X8036931Y632831D01*
G03X8002685Y647686I-35931J-35931D01*
G01X8356600D01*
G03X8392531Y662569I0J50814D01*
G01X8430933Y700971D01*
G03X8449141Y695997I18208J30840D01*
G01X8549141D01*
G03X8584955Y731811I0J35814D01*
G01Y791811D01*
G03X8561805Y825311I-35814J0D01*
G03X8584955Y858811I-12664J33500D01*
G01Y918811D01*
G03X8561805Y952311I-35814J0D01*
G03X8584955Y985811I-12664J33500D01*
G01Y1045811D01*
G03X8561805Y1079311I-35814J0D01*
G03X8584955Y1112811I-12664J33500D01*
G01Y1172811D01*
G03X8549141Y1208625I-35814J0D01*
G01X8449141D01*
G03X8415894Y1186125I0J-35814D01*
G01X8369111D01*
G03X8338483Y1173438I0J-43314D01*
G01X8314963Y1149918D01*
G01Y1167310D01*
G03X8279149Y1203124I-35814J0D01*
G01X7939150D01*
G03X7903336Y1167310I0J-35814D01*
G01Y787889D01*
G03X7861300Y802914I-42036J-51289D01*
G03X7804972Y771595I0J-66314D01*
G01Y791811D01*
G03X7781822Y825311I-35814J0D01*
G03X7804972Y858811I-12664J33500D01*
G01Y918811D01*
G03X7781822Y952311I-35814J0D01*
G03X7804972Y985811I-12664J33500D01*
G01Y1029763D01*
G01X7846431Y1071222D01*
G03X7861314Y1107153I-35931J35931D01*
G01Y1174234D01*
G03X7846431Y1210165I-50814J0D01*
G01X7772414Y1284182D01*
G01Y1460586D01*
G01X8018810D01*
G03X8054624Y1496400I0J35814D01*
G01Y1856400D01*
G03X8018810Y1892214I-35814J0D01*
G01X7943625D01*
G01Y1921789D01*
G03X7929474Y1955953I-48314J0D01*
G01X7889483Y1995944D01*
G03X7823200Y2060214I-66283J-2044D01*
G03X7756886Y1993900I0J-66314D01*
G03X7821156Y1927617I66314J0D01*
G01X7846997Y1901777D01*
G01Y1892214D01*
G01X7771811D01*
G03X7737688Y1867274I0J-35814D01*
G01X7689431Y1915531D01*
G03X7653500Y1930414I-35931J-35931D01*
G01X7493014D01*
G01Y1945663D01*
G03X7478131Y1981594I-50814J0D01*
G01X7431342Y2028383D01*
G03X7403525Y2042614I-35931J-35931D01*
G01Y2065353D01*
G03X7403374Y2068638I-35814J0D01*
G01X7415352D01*
G03X7447632Y2080209I0J50814D01*
G03X7503986Y2122215I-5432J66091D01*
G01Y2010903D01*
G03X7539800Y1975089I35814J0D01*
G01X7674800D01*
G01X7674801D01*
G03X7710615Y2010903I0J35814D01*
G01Y2151903D01*
G03X7689854Y2184400I-35814J0D01*
G03X7710615Y2216897I-15053J32497D01*
G01Y2262061D01*
G01X7763504D01*
G03X7861300Y2208286I97796J62039D01*
G03X7946621Y2245786I0J115814D01*
G01X7962900D01*
G01X8324161D01*
G01X8383975Y2185972D01*
G01Y1991211D01*
G01X8338790D01*
G03X8302976Y1955397I0J-35814D01*
G01Y1857397D01*
G03X8338790Y1821583I35814J0D01*
G01X8585789D01*
G03X8600440Y1824716I0J35814D01*
G01Y1758081D01*
G03X8585789Y1761214I-14651J-32680D01*
G01X8338790D01*
G03X8302976Y1725400I0J-35814D01*
G01Y1627400D01*
G03X8338790Y1591586I35814J0D01*
G01X8585789D01*
G03X8600440Y1594719I0J35814D01*
G01Y1528084D01*
G03X8585789Y1531217I-14651J-32680D01*
G01X8338790D01*
G03X8302976Y1495403I0J-35814D01*
G01Y1397403D01*
G03X8338790Y1361589I35814J0D01*
G01X8585789D01*
G03X8600440Y1364722I0J35814D01*
G01Y73660D01*
G01X7099460D01*
G37*
%LPC*%
G36*
G01X7654400Y97923D02*
G03X7690214Y133737I0J35814D01*
G01Y295739D01*
G03X7654400Y331553I-35814J0D01*
G01X7505899D01*
G03X7470085Y295739I0J-35814D01*
G01Y133737D01*
G03X7505899Y97923I35814J0D01*
G01X7654400D01*
G37*
%LPD*%
G36*
G01X7863469Y662569D02*
G03X7897715Y647714I35931J35931D01*
G01X7666448D01*
G01X7630531Y683631D01*
G03X7594600Y698514I-35931J-35931D01*
G01X7415325D01*
G03X7381718Y711214I-33606J-38114D01*
G01X7343347D01*
G01X7456266Y824134D01*
G03X7472614Y863600I-39466J39466D01*
G01Y926575D01*
G01X7551800D01*
G03X7587614Y962389I0J35814D01*
G01Y1090642D01*
G03X7575393Y1117586I-35814J0D01*
G01X7633344D01*
G01Y1112811D01*
G03X7656493Y1079311I35814J0D01*
G03X7633344Y1045811I12664J-33500D01*
G01Y985811D01*
G03X7656493Y952311I35814J0D01*
G03X7640013Y939625I12664J-33500D01*
G01X7607111D01*
G03X7571180Y924742I0J-50814D01*
G01X7563398Y916960D01*
G03X7502886Y850900I5802J-66060D01*
G03X7569200Y784586I66314J0D01*
G03X7634247Y837997I0J66314D01*
G01X7640013D01*
G03X7656493Y825311I29145J20814D01*
G03X7633344Y791811I12664J-33500D01*
G01Y731811D01*
G03X7669158Y695997I35814J0D01*
G01X7769158D01*
G03X7799444Y712696I0J35814D01*
G03X7855498Y670540I61856J23904D01*
G01X7863469Y662569D01*
G37*
G36*
G01X7403525Y2921014D02*
G01X7403525Y2954353D01*
G03X7399752Y2970352I-35814J0D01*
G03X7403525Y2986352I-32042J15999D01*
G01Y3081353D01*
G03X7399752Y3097352I-35814J0D01*
G03X7403525Y3113352I-32042J15999D01*
G01Y3167214D01*
G01X7556486Y3014252D01*
G01Y2929348D01*
G01X7548152Y2921014D01*
G01X7403525D01*
G37*
G36*
G01X7472490Y1237845D02*
G03X7474942Y1224820I35814J0D01*
G01X7467614Y1232148D01*
G01Y1708452D01*
G03X7456610Y1740031I-50814J0D01*
G03X7488386Y1757175I-14410J64729D01*
G01Y1731802D01*
G03X7504643Y1701800I35814J0D01*
G03X7488386Y1671798I19557J-30002D01*
G01Y1591798D01*
G03X7524200Y1555984I35814J0D01*
G01X7573152D01*
G01X7577567Y1551569D01*
G03X7594586Y1540336I35931J35931D01*
G01Y1493664D01*
G01X7508304D01*
G03X7472490Y1457850I0J-35814D01*
G01Y1377850D01*
G03X7488746Y1347847I35814J0D01*
G03X7472490Y1317845I19557J-30002D01*
G01Y1237845D01*
G37*
G36*
G01X7655286Y1651000D02*
G03X7656511Y1638314I66314J0D01*
G01X7650014D01*
G01Y1671798D01*
G03X7633757Y1701800I-35814J0D01*
G03X7650014Y1731802I-19557J30002D01*
G01Y1811224D01*
G01X7668344Y1792894D01*
G01Y1690514D01*
G03X7655286Y1651000I53256J-39514D01*
G37*
G36*
G01X7985468Y4687114D02*
G03X7988722Y4688776I-14638J32686D01*
G01X7987060Y4687114D01*
G01X7985468D01*
G37*
G36*
G01X8383980Y797742D02*
G01X8335552Y749314D01*
G01X8314963D01*
G01Y977104D01*
G03X8331200Y975086I16237J64296D01*
G03X8356588Y980138I0J66314D01*
G03X8371469Y944621I50812J414D01*
G01X8413327Y902763D01*
G01Y858811D01*
G03X8436477Y825311I35814J0D01*
G03X8419996Y812625I12664J-33500D01*
G01X8419911D01*
G03X8383980Y797742I0J-50814D01*
G37*
G54D8191*
G01X8600440Y4955286D02*
G01X8600440Y1988078D01*
G03X8585789Y1991211I-14651J-32680D01*
G01X8540603D01*
G01Y2218411D01*
G03X8517666Y2273787I-78314J0D01*
G01X8411976Y2379476D01*
G03X8356600Y2402414I-55376J-55376D01*
G01X8109540D01*
G01X8555863Y2848737D01*
G03X8570014Y2882900I-34163J34163D01*
G01Y3086100D01*
G03X8555863Y3120263I-48314J0D01*
G01X8530863Y3145263D01*
G03X8496700Y3159414I-34163J-34163D01*
G01X7996012D01*
G01X7938727Y3216699D01*
G01Y3222201D01*
G01X7970212Y3253686D01*
G01X8394700D01*
G03X8428863Y3267837I0J48314D01*
G01X8530463Y3369437D01*
G03X8544614Y3403600I-34163J34163D01*
G01Y3485188D01*
G01X8581263Y3521837D01*
G03X8595414Y3556000I-34163J34163D01*
G01Y4394600D01*
G03X8581263Y4428763I-48314J0D01*
G01X8556263Y4453763D01*
G03X8522100Y4467914I-34163J-34163D01*
G01X8109188D01*
G03X8168914Y4533900I-6588J65986D01*
G03X8102600Y4600214I-66314J0D01*
G03X8076874Y4595021I0J-66314D01*
G01X8182893Y4701039D01*
G03X8196200Y4698475I13307J33250D01*
G01X8466200D01*
G03X8502014Y4734289I0J35814D01*
G01Y4862542D01*
G03X8466200Y4898356I-35814J0D01*
G01X8196200D01*
G03X8160386Y4862542I0J-35814D01*
G01Y4855856D01*
G03X8143839Y4843892I28929J-57440D01*
G01X8001854Y4701908D01*
G03X8006644Y4719800I-31024J17892D01*
G01Y4779800D01*
G03X7970830Y4815614I-35814J0D01*
G01X7959106D01*
G03X7944993Y4847863I-48276J-1914D01*
G01X7919993Y4872863D01*
G03X7885830Y4887014I-34163J-34163D01*
G01X7354170D01*
G03X7320007Y4872863I0J-48314D01*
G01X7309594Y4862451D01*
G01X7299508Y4872537D01*
G01X7299507D01*
G03X7252970Y4891814I-46537J-46537D01*
G01X7166532D01*
G03X7138760Y4905014I-27772J-22614D01*
G01X7058113D01*
G03X7023100Y4876734I0J-35814D01*
G03X6988087Y4905014I-35013J-7534D01*
G01X6907440D01*
G03X6871626Y4869200I0J-35814D01*
G01Y4782800D01*
G03X6907440Y4746986I35814J0D01*
G01X6930996D01*
G03X6927530Y4743770I41304J-47986D01*
G01X6762430Y4578670D01*
G03X6743886Y4533900I44770J-44770D01*
G01Y4404614D01*
G01X6223000D01*
G03X6188695Y4390405I0J-48514D01*
G01X5733005Y3934714D01*
G01X4381500D01*
G03X4347195Y3920505I0J-48514D01*
G01X4240314Y3813623D01*
G01Y3953881D01*
G03X4252100Y3951886I11786J33819D01*
G01X4602100D01*
G03X4637914Y3987700I0J35814D01*
G01Y4237700D01*
G03X4602100Y4273514I-35814J0D01*
G01X4252100D01*
G03X4216286Y4237700I0J-35814D01*
G01Y4210054D01*
G01X4124270Y4302070D01*
G03X4089400Y4316514I-34870J-34870D01*
G01X3223260D01*
G01Y4389186D01*
G01X4574281D01*
G01X4837334Y4126134D01*
G03X4876800Y4109786I39466J39466D01*
G01X5581710D01*
G03X5626100Y4094286I44390J55814D01*
G03X5697414Y4165600I0J71314D01*
G03X5626100Y4236914I-71314J0D01*
G03X5581710Y4221414I0J-71314D01*
G01X4899919D01*
G01X4636866Y4484466D01*
G03X4597400Y4500814I-39466J-39466D01*
G01X3223260D01*
G01Y4551586D01*
G01X3251200D01*
G03X3283595Y4565005I0J45814D01*
G01X3372495Y4653905D01*
G03X3385914Y4686300I-32395J32395D01*
G01Y4687286D01*
G01X3460732D01*
G03X3490900Y4670773I30168J19301D01*
G01X3544900D01*
G03X3580714Y4706587I0J35814D01*
G01Y4785596D01*
G03X3579642Y4794294I-35814J0D01*
G01X3618770D01*
G03X3626136Y4787900I26943J23595D01*
G03X3609899Y4757910I19577J-29990D01*
G01Y4677910D01*
G03X3645713Y4642096I35814J0D01*
G01X3745713D01*
G03X3781527Y4677910I0J35814D01*
G01Y4699686D01*
G01X3858496D01*
G03X3873500Y4702980I0J35814D01*
G03X3888504Y4699686I15004J32520D01*
G01X3967513D01*
G03X3992848Y4710186I0J35814D01*
G01X4232286D01*
G01Y4687700D01*
G03X4268100Y4651886I35814J0D01*
G01X4518100D01*
G03X4553914Y4687700I0J35814D01*
G01Y4887700D01*
G03X4518100Y4923514I-35814J0D01*
G01X4268100D01*
G03X4232286Y4887700I0J-35814D01*
G01Y4814814D01*
G01X3992848D01*
G03X3967513Y4825314I-25335J-25314D01*
G01X3888504D01*
G03X3873500Y4822020I0J-35814D01*
G03X3858496Y4825314I-15004J-32520D01*
G01X3857237D01*
G01X3787670Y4894881D01*
G03X3781452Y4900195I-36992J-36992D01*
G03X3745713Y4933704I-35740J-2305D01*
G01X3645713D01*
G03X3614770Y4915922I0J-35814D01*
G01X3573685D01*
G03X3544900Y4930427I-28785J-21309D01*
G01X3490900D01*
G03X3455086Y4894613I0J-35814D01*
G01Y4815604D01*
G01X3455126Y4813914D01*
G01X3405284D01*
G03X3405914Y4820600I-35184J6686D01*
G01Y4880600D01*
G03X3370100Y4916414I-35814J0D01*
G01X3310100D01*
G03X3274286Y4880600I0J-35814D01*
G01Y4820600D01*
G03X3280391Y4800600I35814J0D01*
G03X3274286Y4780600I29709J-20000D01*
G01Y4720600D01*
G03X3284532Y4695522I35814J0D01*
G01X3232223Y4643214D01*
G01X3223260D01*
G01Y4955286D01*
G01X8600440D01*
G01X6286286Y4612700D02*
G03X6322100Y4576886I35814J0D01*
G01X6672100D01*
G03X6707914Y4612700I0J35814D01*
G01Y4862700D01*
G03X6672100Y4898514I-35814J0D01*
G01X6322100D01*
G03X6286286Y4862700I0J-35814D01*
G01Y4612700D01*
G01X4607286Y4687700D02*
G03X4643100Y4651886I35814J0D01*
G01X4893100D01*
G03X4928914Y4687700I0J35814D01*
G01Y4887700D01*
G03X4893100Y4923514I-35814J0D01*
G01X4643100D01*
G03X4607286Y4887700I0J-35814D01*
G01Y4687700D01*
G01X4285141Y106814D02*
G01X4282674Y109281D01*
G01Y259019D01*
G01X4293678Y270023D01*
G01Y109504D01*
G03X4293779Y106814I35814J0D01*
G01X4285141D01*
G01X4540584Y869504D02*
G03X4541533Y861314I35814J0D01*
G01X4426995D01*
G01X4315714Y972595D01*
G01Y3020988D01*
G03X4330700Y3019286I14986J65112D01*
G03X4379333Y3040286I0J66814D01*
G01X4413323D01*
G01X4467116Y2986493D01*
G01X4467086Y2984500D01*
G03X4533900Y2917686I66814J0D01*
G03X4600714Y2984500I0J66814D01*
G03X4537329Y3051226I-66814J0D01*
G03X4575314Y3111500I-28829J60274D01*
G03X4562781Y3150457I-66814J0D01*
G01X4603730Y3109509D01*
G03X4639661Y3094625I35931J35931D01*
G01X4682068D01*
G03X4645386Y3035300I29632J-59325D01*
G03X4672880Y2981536I66314J0D01*
G01X4655672Y2964328D01*
G03X4642986Y2933700I30628J-30628D01*
G01Y2450514D01*
G03X4619986Y2400300I43314J-50214D01*
G03X4686300Y2333986I66314J0D01*
G03X4752614Y2400300I0J66314D01*
G03X4729614Y2450514I-66314J0D01*
G01Y2915759D01*
G01X4775186Y2961331D01*
G01Y2938209D01*
G03X4759686Y2895600I50814J-42609D01*
G03X4826000Y2829286I66314J0D01*
G03X4876301Y2852386I0J66314D01*
G03X4877011Y2849499I35102J7106D01*
G03X4875588Y2839505I34391J-9994D01*
G01Y2809505D01*
G03X4877015Y2799499I35814J0D01*
G03X4875588Y2789493I34388J-10006D01*
G01Y2759493D01*
G03X4877011Y2749499I35814J0D01*
G03X4875588Y2739506I34391J-9994D01*
G01Y2709506D01*
G03X4877015Y2699499I35814J0D01*
G03X4875588Y2689493I34388J-10006D01*
G01Y2659493D01*
G03X4877011Y2649499I35814J0D01*
G03X4875588Y2639506I34391J-9994D01*
G01Y2609506D01*
G03X4877015Y2599500I35814J0D01*
G03X4875588Y2589493I34388J-10006D01*
G01Y2559493D01*
G03X4877011Y2549500I35814J0D01*
G03X4875588Y2539506I34391J-9994D01*
G01Y2509506D01*
G03X4877015Y2499500I35814J0D01*
G03X4875588Y2489493I34388J-10006D01*
G01Y2459493D01*
G03X4877011Y2449500I35814J0D01*
G03X4875588Y2439506I34391J-9994D01*
G01Y2409506D01*
G03X4875757Y2406039I35814J0D01*
G03X4826000Y2428514I-49757J-43839D01*
G03X4759717Y2364244I0J-66314D01*
G01X4416839Y2021365D01*
G03X4406900Y2022114I-9939J-65565D01*
G03X4340586Y1955800I0J-66314D01*
G03X4406900Y1889486I66314J0D01*
G03X4471024Y1938898I0J66314D01*
G01X4828044Y2295917D01*
G03X4875588Y2318171I-2044J66283D01*
G01Y2309506D01*
G03X4877015Y2299500I35814J0D01*
G03X4875588Y2289494I34388J-10006D01*
G01Y2259494D01*
G03X4877011Y2249500I35814J0D01*
G03X4875588Y2239507I34391J-9994D01*
G01Y2209507D01*
G03X4877015Y2199500I35814J0D01*
G03X4875588Y2189494I34388J-10006D01*
G01Y2159494D01*
G03X4877011Y2149500I35814J0D01*
G03X4875588Y2139507I34391J-9994D01*
G01Y2109507D01*
G03X4877015Y2099501I35814J0D01*
G03X4875588Y2089494I34388J-10006D01*
G01Y2059494D01*
G03X4877011Y2049501I35814J0D01*
G03X4875588Y2039507I34391J-9994D01*
G01Y2010907D01*
G03X4838700Y2022114I-36888J-55107D01*
G03X4772386Y1955800I0J-66314D01*
G03X4793350Y1907417I66314J0D01*
G03X4734286Y1841500I7250J-65917D01*
G03X4749786Y1798891I66314J0D01*
G01Y1765300D01*
G03X4764669Y1729369I50814J0D01*
G01X4805461Y1688577D01*
G03X4841392Y1673694I35931J35931D01*
G01X4875588D01*
G01Y1659495D01*
G03X4877011Y1649501I35814J0D01*
G03X4875588Y1639508I34391J-9994D01*
G01Y1609508D01*
G03X4877015Y1599502I35814J0D01*
G03X4875588Y1589495I34388J-10006D01*
G01Y1559495D01*
G03X4877011Y1549502I35814J0D01*
G03X4875588Y1539508I34391J-9994D01*
G01Y1509508D01*
G03X4877015Y1499502I35814J0D01*
G03X4875588Y1489495I34388J-10006D01*
G01Y1459495D01*
G03X4877011Y1449502I35814J0D01*
G03X4875588Y1439508I34391J-9994D01*
G01Y1429479D01*
G01X4814583D01*
G01X4811131Y1432931D01*
G03X4798238Y1442291I-35931J-35931D01*
G03X4749800Y1463314I-48438J-45291D01*
G03X4683486Y1397000I0J-66314D01*
G03X4712438Y1342213I66314J0D01*
G03X4708886Y1320800I62762J-21413D01*
G03X4709094Y1315551I66314J0D01*
G03X4660900Y1336314I-48194J-45551D01*
G03X4594586Y1270000I0J-66314D01*
G03X4660900Y1203686I66314J0D01*
G03X4679966Y1206486I0J66314D01*
G01X4851400D01*
G03X4875588Y1212612I0J50814D01*
G01Y1209509D01*
G03X4877015Y1199502I35814J0D01*
G03X4875588Y1189496I34388J-10006D01*
G01Y1159496D01*
G03X4877011Y1149502I35814J0D01*
G03X4875588Y1139509I34391J-9994D01*
G01Y1135318D01*
G01X4576398D01*
G03X4540584Y1099504I0J-35814D01*
G01Y869504D01*
G01X4813286Y3449891D02*
G01X4813286Y3196253D01*
G01X4660708D01*
G01X4409819Y3447143D01*
G03X4410214Y3454400I-66419J7257D01*
G03X4343400Y3521214I-66814J0D01*
G03X4315714Y3515208I0J-66814D01*
G01Y3751805D01*
G01X4401595Y3837686D01*
G01X4541533D01*
G03X4540584Y3829496I34865J-8190D01*
G01Y3614107D01*
G01X4473684Y3681007D01*
G01X4473714Y3683000D01*
G03X4406900Y3749814I-66814J0D01*
G03X4340086Y3683000I0J-66814D01*
G03X4406900Y3616186I66814J0D01*
G01X4408893Y3616216D01*
G01X4632581Y3392528D01*
G03X4619486Y3352800I53719J-39728D01*
G03X4686300Y3285986I66814J0D01*
G03X4753114Y3352800I0J66814D01*
G03X4732114Y3401433I-66814J0D01*
G01Y3403600D01*
G03X4718695Y3435995I-45814J0D01*
G01X4591009Y3563682D01*
G01X4875588D01*
G01Y3559491D01*
G01X4875628Y3557804D01*
G03X4864100Y3558814I-11528J-65304D01*
G03X4797786Y3492500I0J-66314D01*
G03X4813286Y3449891I66314J0D01*
G01X4729386Y127000D02*
G03X4743578Y93849I45814J0D01*
G01X4703417D01*
G01Y142598D01*
G03X4695465Y165100I-35814J0D01*
G03X4703417Y187602I-27862J22502D01*
G01Y247602D01*
G03X4667603Y283416I-35814J0D01*
G01X4607603D01*
G03X4571789Y247602I0J-35814D01*
G01Y187602D01*
G03X4579741Y165100I35814J0D01*
G03X4571789Y142598I27862J-22502D01*
G01Y93849D01*
G01X4526706D01*
G01X4526428Y94128D01*
G03X4513239Y103148I-30628J-30628D01*
G03X4513807Y109504I-35245J6356D01*
G01Y271506D01*
G03X4483020Y306965I-35814J0D01*
G01X4589941Y413886D01*
G01X4734916D01*
G03X4761975Y423379I0J43314D01*
G01Y385700D01*
G03X4797789Y349886I35814J0D01*
G01X4817867D01*
G03X4793605Y337195I8133J-45086D01*
G01X4742805Y286395D01*
G03X4729386Y254000I32395J-32395D01*
G01Y127000D01*
G01X4811014Y691514D02*
G01X4811014Y774700D01*
G03X4796805Y809005I-48514J0D01*
G01X4772119Y833690D01*
G01X4886397D01*
G03X4922211Y869504I0J35814D01*
G01Y1073695D01*
G01X5021486D01*
G01Y1060377D01*
G01X4946005Y984895D01*
G03X4932586Y952500I32395J-32395D01*
G01Y719661D01*
G01X4904439Y691514D01*
G01X4811014D01*
G01X8413914Y3389540D02*
G01X8413914Y3579640D01*
G03X8378100Y3615454I-35814J0D01*
G01X8208100D01*
G03X8172286Y3579640I0J-35814D01*
G01Y3571014D01*
G01X8129861D01*
G01X7818937Y3881937D01*
G03X7772400Y3901214I-46537J-46537D01*
G01X6735269D01*
G03X6680200Y3921214I-55069J-65814D01*
G03X6594386Y3835400I0J-85814D01*
G03X6628492Y3766914I85814J0D01*
G01X6375400D01*
G03X6343005Y3753495I0J-45814D01*
G01X6280223Y3690714D01*
G01X6245544D01*
G03X6197600Y3711214I-47944J-45814D01*
G03X6131286Y3644900I0J-66314D01*
G03X6143314Y3606814I66314J0D01*
G01X6125909D01*
G03X6083300Y3622314I-42609J-50814D01*
G03X6016986Y3556000I0J-66314D01*
G03X6045938Y3501213I66314J0D01*
G03X6042386Y3479800I62762J-21413D01*
G03X6058290Y3436714I66314J0D01*
G01X5816600D01*
G03X5803854Y3434905I0J-45814D01*
G01Y3642588D01*
G03X5790435Y3674984I-45814J0D01*
G01X5757784Y3707635D01*
G03X5725388Y3721054I-32395J-32395D01*
G01X5679212D01*
G03X5646816Y3707635I0J-45814D01*
G01X5591795Y3652614D01*
G01X5562600D01*
G03X5530205Y3639195I0J-45814D01*
G01X5382232Y3491222D01*
G01X5269254D01*
G03X5252814Y3515387I-35254J-6309D01*
G01Y3530295D01*
G03X5239395Y3562691I-45814J0D01*
G01X5212809Y3589277D01*
G01Y3598893D01*
G03X5237002Y3589486I24194J26407D01*
G01X5317002D01*
G03X5352816Y3625300I0J35814D01*
G01Y3715300D01*
G03X5317002Y3751114I-35814J0D01*
G01X5237002D01*
G03X5207000Y3734857I0J-35814D01*
G03X5176998Y3751114I-30002J-19557D01*
G01X5096998D01*
G03X5061184Y3715300I0J-35814D01*
G01Y3625300D01*
G03X5096998Y3589486I35814J0D01*
G01X5121181D01*
G01Y3570300D01*
G03X5134600Y3537905I45814J0D01*
G01X5158757Y3513747D01*
G03X5144186Y3484913I21242J-28834D01*
G01Y3447385D01*
G01X5117106Y3420306D01*
G01X5067216D01*
G01Y3439504D01*
G03X5065794Y3449498I-35814J0D01*
G03X5067216Y3459491I-34391J9994D01*
G01Y3489491D01*
G03X5065790Y3499498I-35814J0D01*
G03X5067216Y3509504I-34388J10006D01*
G01Y3539504D01*
G03X5065794Y3549498I-35814J0D01*
G03X5067216Y3559491I-34391J9994D01*
G01Y3589491D01*
G03X5031402Y3625305I-35814J0D01*
G01X4922211D01*
G01Y3829496D01*
G03X4921262Y3837686I-35814J0D01*
G01X5753100D01*
G03X5787405Y3851895I0J48514D01*
G01X6243095Y4307586D01*
G01X6743886D01*
G01Y4203700D01*
G03X6762430Y4158930I63314J0D01*
G01X6838630Y4082730D01*
G03X6883400Y4064186I44770J44770D01*
G01X7124700D01*
G03X7169470Y4082730I0J63314D01*
G01X7361235Y4274496D01*
G03X7388258Y4302986I-32065J57474D01*
G01X7389170D01*
G03X7424984Y4338800I0J35814D01*
G01Y4398800D01*
G03X7401834Y4432300I-35814J0D01*
G03X7424984Y4465800I-12664J33500D01*
G01Y4525800D01*
G03X7401834Y4559300I-35814J0D01*
G03X7424984Y4592800I-12664J33500D01*
G01Y4652800D01*
G03X7401834Y4686300I-35814J0D01*
G03X7424984Y4719800I-12664J33500D01*
G01Y4779800D01*
G03X7423384Y4790386I-35814J0D01*
G01X7816616D01*
G03X7815016Y4779800I34214J-10586D01*
G01Y4719800D01*
G03X7838166Y4686300I35814J0D01*
G03X7815016Y4652800I12664J-33500D01*
G01Y4592800D01*
G03X7838166Y4559300I35814J0D01*
G03X7815016Y4525800I12664J-33500D01*
G01Y4465800D01*
G03X7838166Y4432300I35814J0D01*
G03X7815016Y4398800I12664J-33500D01*
G01Y4338800D01*
G03X7850830Y4302986I35814J0D01*
G01X7862516D01*
G01Y4218115D01*
G01X7779497D01*
G03X7747000Y4197354I0J-35814D01*
G03X7714503Y4218115I-32497J-15053D01*
G01X7573503D01*
G03X7537689Y4182301I0J-35814D01*
G01Y4182300D01*
G01Y4047300D01*
G03X7573503Y4011486I35814J0D01*
G01X7714503D01*
G03X7747000Y4032246I0J35814D01*
G03X7779497Y4011486I32497J15053D01*
G01X7920497D01*
G03X7956311Y4047300I0J35814D01*
G01Y4159333D01*
G03X7959144Y4175633I-45481J16300D01*
G01Y4302986D01*
G01X7970830D01*
G03X8005804Y4331091I0J35814D01*
G03X8009763Y4334637I-30204J37709D01*
G01X8046412Y4371286D01*
G01X8160386D01*
G01Y4256058D01*
G03X8196200Y4220244I35814J0D01*
G01X8289982D01*
G01X8308144Y4202082D01*
G01Y4001977D01*
G03X8306893Y3992596I34563J-9381D01*
G01Y3830594D01*
G03X8342707Y3794780I35814J0D01*
G01X8491209D01*
G03X8498786Y3795591I0J35814D01*
G01Y3576012D01*
G01X8462137Y3539363D01*
G03X8447986Y3505200I34163J-34163D01*
G01Y3423612D01*
G01X8413914Y3389540D01*
G01X6672100Y3951886D02*
G03X6707914Y3987700I0J35814D01*
G01Y4237700D01*
G03X6672100Y4273514I-35814J0D01*
G01X6322100D01*
G03X6286286Y4237700I0J-35814D01*
G01Y3987700D01*
G03X6322100Y3951886I35814J0D01*
G01X6672100D01*
G01X7464186Y4394300D02*
G03X7500000Y4358486I35814J0D01*
G01X7740000D01*
G03X7775814Y4394300I0J35814D01*
G01Y4724300D01*
G03X7740000Y4760114I-35814J0D01*
G01X7500000D01*
G03X7464186Y4724300I0J-35814D01*
G01Y4394300D01*
G01X8192708Y3794780D02*
G03X8228522Y3830594I0J35814D01*
G01Y3992596D01*
G03X8192708Y4028410I-35814J0D01*
G01X8044207D01*
G03X8008393Y3992596I0J-35814D01*
G01Y3830594D01*
G03X8044207Y3794780I35814J0D01*
G01X8192708D01*
G01X5239960Y282174D02*
G03X5240313Y287191I-35461J5018D01*
G01Y435693D01*
G03X5204499Y471507I-35814J0D01*
G01X5031701D01*
G03X4995887Y435693I0J-35814D01*
G01Y350614D01*
G01X4933225D01*
G03X4961856Y385700I-7183J35086D01*
G01Y619349D01*
G01X4995887Y653380D01*
G01Y605707D01*
G03X5031701Y569893I35814J0D01*
G01X5204499D01*
G03X5240313Y605707I0J35814D01*
G01Y663896D01*
G01X5247096Y657113D01*
G03X5279492Y643694I32395J32395D01*
G01X5322546D01*
G03X5325280Y635000I35254J6309D01*
G03X5321986Y619996I32520J-15004D01*
G01Y540987D01*
G03X5346654Y506952I35814J0D01*
G03X5317986Y452097I38146J-54854D01*
G03X5384800Y385283I66814J0D01*
G03X5449140Y434086I0J66814D01*
G01X5473700D01*
G03X5504121Y444809I0J48514D01*
G03X5498692Y412173I95385J-32635D01*
G03X5508733Y368314I100814J0D01*
G01X5422900D01*
G03X5386969Y353431I0J-50814D01*
G01X5315712Y282174D01*
G01X5239960D01*
G01X5024214Y789231D02*
G01X5024214Y867295D01*
G01X5060305Y831205D01*
G03X5092700Y817786I32395J32395D01*
G01X5149923D01*
G01X5177687Y790023D01*
G01X5031701D01*
G03X5024214Y789231I0J-35814D01*
G01X5118100Y1235377D02*
G03X5080000Y1247414I-38100J-54277D01*
G03X5066614Y1246049I0J-66314D01*
G03X5065794Y1249502I-35212J-6540D01*
G03X5067216Y1259496I-34391J9994D01*
G01Y1289496D01*
G03X5065790Y1299502I-35814J0D01*
G03X5067216Y1309508I-34388J10006D01*
G01Y1317382D01*
G03X5105400Y1305286I38184J54218D01*
G03X5135587Y1312555I0J66314D01*
G01Y1278807D01*
G03X5154218Y1247384I35814J0D01*
G03X5118100Y1235377I1982J-66284D01*
G01X5447447Y834892D02*
G03X5459202Y810514I64353J16008D01*
G01X5340373D01*
G03X5295900Y827814I-44473J-48514D01*
G03X5271913Y823287I0J-65814D01*
G03X5264795Y832495I-39513J-23187D01*
G01X5201295Y895995D01*
G03X5168900Y909414I-32395J-32395D01*
G01X5111677D01*
G01X5100414Y920677D01*
G01Y946223D01*
G01X5135587Y981396D01*
G01Y960291D01*
G03X5171401Y924477I35814J0D01*
G01X5344199D01*
G03X5379977Y958671I0J35814D01*
G03X5396373Y943744I55623J44629D01*
G03X5381486Y901700I51927J-42044D01*
G03X5447447Y834892I66814J0D01*
G01X5176614Y3219216D02*
G01X5176614Y3261233D01*
G03X5180000Y3261073I3386J35654D01*
G01X5234000D01*
G03X5269814Y3296887I0J35814D01*
G01Y3375896D01*
G03X5266520Y3390900I-35814J0D01*
G03X5269254Y3399594I-32520J15004D01*
G01X5392204D01*
G01X5250805Y3258195D01*
G03X5237386Y3225800I32395J-32395D01*
G01Y3219216D01*
G01X5176614D01*
G01X5380013Y1047975D02*
G01X5380013Y1108793D01*
G03X5344199Y1144607I-35814J0D01*
G01X5211570D01*
G03X5222514Y1181100I-55370J36493D01*
G03X5180007Y1242993I-66314J0D01*
G01X5303074D01*
G01X5318959Y1227108D01*
G03X5318486Y1219200I65841J-7908D01*
G03X5384800Y1152886I66314J0D01*
G03X5405186Y1156097I0J66314D01*
G01Y1067803D01*
G03X5380013Y1047975I30414J-64503D01*
G01X5560533Y3263124D02*
G03X5549130Y3244167I32395J-32395D01*
G01X5417157D01*
G01X5518077Y3345086D01*
G01X5552756D01*
G03X5600700Y3324586I47944J45814D01*
G03X5627773Y3330364I0J66314D01*
G01X5560534Y3263124D01*
G01X5560533D01*
G01X5446226Y531114D02*
G03X5447614Y540987I-34426J9873D01*
G01Y619996D01*
G03X5444320Y635000I-35814J0D01*
G03X5446462Y640994I-32520J15004D01*
G01X5537985D01*
G01Y615494D01*
G01X5453605Y531114D01*
G01X5446226D01*
G01X5490465Y3469874D02*
G01X5535033Y3514442D01*
G03X5534386Y3505200I65667J-9242D01*
G01X5534403Y3503694D01*
G01X5500583Y3469874D01*
G01X5490465D01*
G01X5664200Y998414D02*
G03X5624852Y986576I0J-71314D01*
G03X5625414Y992899I-35251J6323D01*
G01Y1049464D01*
G01Y1049465D01*
G03X5589600Y1085279I-35814J0D01*
G01X5535600D01*
G03X5516814Y1079956I0J-35814D01*
G01Y1196081D01*
G01X5651208Y1330475D01*
G03X5676900Y1325686I25692J66525D01*
G03X5707898Y1332775I0J71314D01*
G01Y1255348D01*
G03X5743712Y1219534I35814J0D01*
G01X5838713D01*
G03X5854713Y1223306I0J35814D01*
G03X5870712Y1219534I15999J32042D01*
G01X5965713D01*
G03X5981713Y1223306I0J35814D01*
G03X5997712Y1219534I15999J32042D01*
G01X6092713D01*
G03X6108713Y1223306I0J35814D01*
G03X6124712Y1219534I15999J32042D01*
G01X6219713D01*
G03X6235713Y1223306I0J35814D01*
G03X6251712Y1219534I15999J32042D01*
G01X6346713D01*
G03X6362713Y1223306I0J35814D01*
G03X6378712Y1219534I15999J32042D01*
G01X6443166D01*
G01X6415263Y1191631D01*
G03X6400380Y1155700I35931J-35931D01*
G01Y1105529D01*
G03X6386195Y1107464I-14185J-51029D01*
G03X6353696Y1096321I0J-52964D01*
G03X6349209Y1099450I-32499J-41821D01*
G03X6365514Y1143000I-50009J43550D01*
G03X6299200Y1209314I-66314J0D01*
G03X6286897Y1208163I0J-66314D01*
G03X6279200Y1208814I-7697J-45163D01*
G01X5745072D01*
G03X5712676Y1195395I0J-45814D01*
G01X5684259Y1166979D01*
G03X5670841Y1134583I32395J-32395D01*
G01Y998104D01*
G03X5664200Y998414I-6641J-71004D01*
G01X5641257Y503936D02*
G03X5599506Y512987I-41750J-91762D01*
G03X5567471Y507762I0J-100814D01*
G01X5620804Y561094D01*
G03X5635013Y595399I-34305J34305D01*
G01Y640994D01*
G01X5641086D01*
G01Y508000D01*
G03X5641257Y503936I48514J0D01*
G01X5573110Y207635D02*
G01X5707085Y73660D01*
G01X5568961D01*
G03X5580330Y120169I-89445J46509D01*
G01Y170169D01*
G03X5573110Y207635I-100814J0D01*
G01X5760639Y1644430D02*
G03X5702300Y1679214I-58339J-31530D01*
G03X5658022Y1662266I0J-66314D01*
G01X5603503D01*
G01Y1684353D01*
G03X5603352Y1687638I-35814J0D01*
G01X5762124D01*
G03X5757986Y1663700I67176J-23938D01*
G03X5760639Y1644430I71314J0D01*
G01X5712226Y3414817D02*
G01X5661236Y3363827D01*
G03X5667014Y3390900I-60536J27073D01*
G03X5634337Y3448050I-66314J0D01*
G03X5667014Y3505200I-33637J57150D01*
G03X5629441Y3564962I-66314J0D01*
G03X5643167Y3574405I-18669J41838D01*
G01X5698188Y3629426D01*
G01X5706412D01*
G01X5712226Y3623612D01*
G01Y3414817D01*
G01X5854713Y1497389D02*
G03X5838713Y1501162I-15999J-32042D01*
G01X5754134D01*
G03X5713888Y1547606I-64534J-15262D01*
G03X5768614Y1612900I-11588J65294D01*
G03X5766290Y1630302I-66314J0D01*
G03X5829300Y1592386I63010J33398D01*
G03X5879336Y1612886I0J71314D01*
G01X5911741D01*
G03X5864586Y1549400I19159J-63486D01*
G03X5880099Y1506776I66314J0D01*
G01Y1501162D01*
G01X5870712D01*
G03X5854713Y1497389I0J-35814D01*
G01X6004286Y1917700D02*
G03X6051441Y1854214I66314J0D01*
G01X5732209D01*
G03X5725062Y1859436I-42609J-50814D01*
G01X5965063Y2099437D01*
G03X5979214Y2133600I-34163J34163D01*
G01Y2583488D01*
G01X6052512Y2656786D01*
G01X6408640D01*
G03X6442803Y2670937I0J48314D01*
G01X6494686Y2722820D01*
G01Y2266877D01*
G01X6433457Y2205648D01*
G01X6433519Y2207751D01*
G01Y2297751D01*
G03X6423347Y2322754I-35814J0D01*
G03X6433519Y2347756I-25642J25002D01*
G01Y2437756D01*
G03X6423347Y2462759I-35814J0D01*
G03X6433519Y2487761I-25642J25002D01*
G01Y2577761D01*
G03X6397705Y2613575I-35814J0D01*
G01X6307705D01*
G03X6282703Y2603403I0J-35814D01*
G03X6257700Y2613575I-25002J-25642D01*
G01X6167700D01*
G03X6142698Y2603403I0J-35814D01*
G03X6117695Y2613575I-25002J-25642D01*
G01X6027696D01*
G03X5991882Y2577761I0J-35814D01*
G01Y2487761D01*
G03X6002053Y2462759I35814J0D01*
G03X5991882Y2437756I25642J-25002D01*
G01Y2347756D01*
G03X6002053Y2322754I35814J0D01*
G03X5991882Y2297751I25642J-25002D01*
G01Y2207751D01*
G03X6027696Y2171937I35814J0D01*
G01X6117695D01*
G03X6142698Y2182109I0J35814D01*
G03X6167700Y2171937I25002J25642D01*
G01X6257700D01*
G03X6282703Y2182109I0J35814D01*
G03X6307705Y2171937I25002J25642D01*
G01X6397705D01*
G01X6399809Y2171999D01*
G01X6331023Y2103214D01*
G01X6210300D01*
G03X6177905Y2089795I0J-45814D01*
G01X6072106Y1983997D01*
G01X6070600Y1984014D01*
G03X6004286Y1917700I0J-66314D01*
G01X5810250Y582959D02*
G01X5788914Y604295D01*
G01Y685800D01*
G03X5786689Y700325I-48514J0D01*
G01X5807086D01*
G01Y649134D01*
G03X5832818Y605527I49814J0D01*
G01X5810250Y582959D01*
G01X5952197Y1612886D02*
G01X5953248Y1611835D01*
G03X5950059Y1612886I-22348J-62435D01*
G01X5952197D01*
G01X6616713Y1497389D02*
G03X6600713Y1501162I-15999J-32042D01*
G01X6505712D01*
G03X6489713Y1497389I0J-35814D01*
G03X6473713Y1501162I-15999J-32042D01*
G01X6378712D01*
G03X6362713Y1497389I0J-35814D01*
G03X6346713Y1501162I-15999J-32042D01*
G01X6251712D01*
G03X6235713Y1497389I0J-35814D01*
G03X6219713Y1501162I-15999J-32042D01*
G01X6124712D01*
G03X6108713Y1497389I0J-35814D01*
G03X6092713Y1501162I-15999J-32042D01*
G01X5997712D01*
G03X5981727Y1497396I0J-35814D01*
G01Y1506807D01*
G03X5997214Y1549400I-50827J42593D01*
G03X5993335Y1571748I-66314J0D01*
G01X6038914Y1526169D01*
G03X6074845Y1511286I35931J35931D01*
G01X6667500D01*
G03X6694797Y1519240I0J50814D01*
G03X6731000Y1508486I36203J55560D01*
G03X6797314Y1574800I0J66314D01*
G03X6731000Y1641114I-66314J0D01*
G03X6688391Y1625614I0J-66314D01*
G01X6680200D01*
G03X6646594Y1612914I0J-50814D01*
G01X6407259D01*
G03X6454414Y1676400I-19159J63486D01*
G01X6454397Y1677906D01*
G01X6501321Y1724830D01*
G03X6565900Y1673586I64579J15070D01*
G03X6623355Y1706786I0J66314D01*
G01X6762823D01*
G01X6799486Y1670123D01*
G01Y1536700D01*
G03X6812905Y1504305I45814J0D01*
G01X6816048Y1501162D01*
G01X6759712D01*
G03X6743713Y1497389I0J-35814D01*
G03X6727713Y1501162I-15999J-32042D01*
G01X6632712D01*
G03X6616713Y1497389I0J-35814D01*
G01X6321786Y1676400D02*
G03X6368941Y1612914I66314J0D01*
G01X6140559D01*
G03X6187714Y1676400I-19159J63486D01*
G03X6174790Y1715732I-66314J0D01*
G03X6197600Y1711686I22810J62268D01*
G03X6263914Y1778000I0J66314D01*
G03X6202588Y1844126I-66314J0D01*
G03X6172200Y1854214I-30388J-40726D01*
G01X6089759D01*
G03X6136914Y1917700I-19159J63486D01*
G01X6136897Y1919206D01*
G01X6229277Y2011586D01*
G01X6350000D01*
G03X6382395Y2025005I0J45814D01*
G01X6572895Y2215505D01*
G03X6586314Y2247900I-32395J32395D01*
G01Y2735520D01*
G01X6607537Y2714297D01*
G03X6641700Y2700146I34163J34163D01*
G01X6718700D01*
G03X6752863Y2714297I0J48314D01*
G01X6756386Y2717820D01*
G01Y2645067D01*
G03X6728186Y2590800I38114J-54267D01*
G03X6794500Y2524486I66314J0D01*
G03X6860814Y2590800I0J66314D01*
G03X6858014Y2609866I-66314J0D01*
G01Y2827591D01*
G03X6870686Y2851041I-50814J42609D01*
G01Y2243548D01*
G01X6819309Y2192171D01*
G03X6804426Y2156240I35931J-35931D01*
G01Y2135667D01*
G03X6794500Y2136414I-9926J-65567D01*
G03X6728186Y2070100I0J-66314D01*
G03X6728338Y2065613I66314J0D01*
G03X6723286Y2044700I40762J-20913D01*
G01Y1849214D01*
G01X6515100D01*
G03X6482705Y1835795I0J-45814D01*
G01X6389606Y1742697D01*
G01X6388100Y1742714D01*
G03X6321786Y1676400I0J-66314D01*
G01X6115084Y598878D02*
G01X6114115Y599846D01*
G03X6156702Y649134I-7228J49287D01*
G01Y700325D01*
G01X6190666D01*
G01X6192246Y698745D01*
G01Y617649D01*
G03X6191135Y613461I48514J-15115D01*
G01X6176552Y598878D01*
G01X6115084D01*
G01X6350290Y869389D02*
G01X6393724Y825954D01*
G01X6281708D01*
G01X6271604Y836058D01*
G03X6257535Y845997I-35931J-35931D01*
G03X6257708Y850139I-49642J4142D01*
G03X6250984Y875133I-49814J0D01*
G03X6257708Y900126I-43091J24994D01*
G03X6250977Y925133I-49814J0D01*
G03X6257708Y950139I-43083J25006D01*
G03X6250984Y975133I-49814J0D01*
G03X6257708Y1000126I-43091J24994D01*
G03X6207893Y1049941I-49814J0D01*
G01X6156702D01*
G01Y1101132D01*
G03X6154044Y1117186I-49814J0D01*
G01X6238117D01*
G03X6275399Y1081104I61083J25814D01*
G03X6268232Y1054500I45797J-26604D01*
G01Y915651D01*
G03X6321196Y862687I52964J0D01*
G03X6349091Y870628I0J52964D01*
G01X6350289Y869389D01*
G01X6350290D01*
G01X6353696Y523170D02*
G03X6321196Y534313I-32499J-41821D01*
G03X6289274Y523612I0J-52964D01*
G01Y576110D01*
G03X6291574Y591224I-48514J15115D01*
G01Y602534D01*
G03X6289274Y617649I-50814J0D01*
G01Y671033D01*
G03X6299200Y670286I9926J65567D01*
G03X6364368Y724326I0J66314D01*
G01X6405490D01*
G03X6395786Y692877I46110J-31449D01*
G01Y592585D01*
G03X6412134Y553119I55814J0D01*
G01X6433857Y531395D01*
G03X6418694Y523170I17337J-50046D01*
G03X6386195Y534313I-32499J-41821D01*
G03X6353696Y523170I0J-52964D01*
G01X6808699Y523160D02*
G03X6776187Y534313I-32512J-41811D01*
G03X6743687Y523170I0J-52964D01*
G03X6711188Y534313I-32499J-41821D01*
G03X6696697Y532292I0J-52964D01*
G03X6681566Y560166I-54597J-11592D01*
G01X6656166Y585566D01*
G03X6616700Y601914I-39466J-39466D01*
G01X6614410D01*
G03X6578600Y612414I-35810J-55814D01*
G03X6530925Y592194I0J-66314D01*
G01X6507414Y615704D01*
G01Y669758D01*
G01X6507982Y670326D01*
G01X6716233D01*
G03X6715486Y660400I65567J-9926D01*
G03X6766293Y595924I66314J0D01*
G03X6823397Y531228I66307J976D01*
G03X6808699Y523160I17814J-49879D01*
G01X6584716Y73660D02*
G01X6584716Y120579D01*
G03X6598814Y158598I-44216J38019D01*
G01Y162149D01*
G03X6611814Y203200I-58314J41051D01*
G03X6611540Y209449I-71314J0D01*
G01X6613586Y211495D01*
G03X6627005Y243891I-32395J32395D01*
G01Y266362D01*
G01X6678834Y214534D01*
G03X6718300Y198186I39466J39466D01*
G01X6734431D01*
G03X6734086Y190500I85469J-7686D01*
G03X6819900Y104686I85814J0D01*
G03X6898066Y155086I0J85814D01*
G01X6966668D01*
G01X6999656Y122098D01*
G03X7007307Y115616I43002J43002D01*
G03X7048340Y73660I66593J24084D01*
G01X6584716D01*
G01X6695116Y1104967D02*
G03X6678689Y1096321I16072J-50467D01*
G03X6656664Y1106418I-32499J-41821D01*
G03X6657614Y1117600I-65364J11182D01*
G03X6653646Y1140196I-66314J0D01*
G01X6654800Y1140186D01*
G03X6694132Y1153110I0J66314D01*
G03X6690086Y1130300I62268J-22810D01*
G03X6695116Y1104967I66314J0D01*
G01X7524746Y2184400D02*
G03X7506100Y2164028I15053J-32497D01*
G03X7442200Y2212614I-63900J-17728D01*
G03X7402779Y2199625I0J-66314D01*
G03X7399752Y2208352I-35068J-7272D01*
G03X7403525Y2224352I-32042J15999D01*
G01Y2319353D01*
G03X7399752Y2335352I-35814J0D01*
G03X7403525Y2351352I-32042J15999D01*
G01Y2446353D01*
G03X7399752Y2462352I-35814J0D01*
G03X7403525Y2478352I-32042J15999D01*
G01Y2573353D01*
G01X7403513Y2574285D01*
G03X7454900Y2549886I51387J41915D01*
G03X7521214Y2616200I0J66314D01*
G03X7454900Y2682514I-66314J0D01*
G03X7421121Y2673266I0J-66314D01*
G01X7403525D01*
G01Y2700353D01*
G03X7402553Y2708638I-35814J0D01*
G01X7593152D01*
G03X7625548Y2722057I0J45814D01*
G01X7728595Y2825105D01*
G03X7742014Y2857500I-32395J32395D01*
G01Y3046806D01*
G03X7728595Y3079202I-45814J0D01*
G01X7448002Y3359795D01*
G03X7415606Y3373214I-32395J-32395D01*
G01X7348314D01*
G01Y3465082D01*
G03X7334895Y3497478I-45814J0D01*
G01X7233287Y3599086D01*
G01X7264806D01*
G03X7327900Y3553186I63094J20414D01*
G03X7394214Y3619500I0J66314D01*
G03X7327900Y3685814I-66314J0D01*
G03X7323413Y3685662I0J-66314D01*
G03X7302500Y3690714I-20913J-40762D01*
G01X7184405D01*
G01X7121624Y3753495D01*
G03X7089228Y3766914I-32395J-32395D01*
G01X6731908D01*
G03X6735269Y3769586I-51708J68486D01*
G01X7745139D01*
G01X8056063Y3458663D01*
G03X8102600Y3439386I46537J46537D01*
G01X8172286D01*
G01Y3359640D01*
G03X8173522Y3350314I35814J0D01*
G01X7950200D01*
G03X7916037Y3336163I0J-48314D01*
G01X7856250Y3276377D01*
G03X7842100Y3242213I34163J-34163D01*
G01Y3196687D01*
G03X7856250Y3162523I48314J0D01*
G01X7941837Y3076937D01*
G03X7976000Y3062786I34163J34163D01*
G01X8172286D01*
G01Y2846560D01*
G03X8183899Y2820161I35814J0D01*
G01X8147598Y2783860D01*
G03X8087086Y2717800I5802J-66060D01*
G03X8153400Y2651486I66314J0D01*
G03X8219460Y2711998I0J66314D01*
G01X8318208Y2810746D01*
G01X8378100D01*
G03X8381370Y2810896I0J35814D01*
G01X7972888Y2402414D01*
G01X7962900D01*
G01X7946621D01*
G03X7861300Y2439914I-85321J-78314D01*
G03X7794474Y2418689I0J-115814D01*
G01X7598616D01*
G03X7541272Y2393711I0J-78314D01*
G01X7539800D01*
G03X7503986Y2357897I0J-35814D01*
G01Y2216897D01*
G03X7524746Y2184400I35814J0D01*
G01X7745486Y2578100D02*
G03X7861300Y2462286I115814J0D01*
G03X7977114Y2578100I0J115814D01*
G03X7861300Y2693914I-115814J0D01*
G03X7745486Y2578100I0J-115814D01*
G01X6909625Y4190814D02*
G01X6870514Y4229925D01*
G01Y4369378D01*
G01Y4507675D01*
G01X6998525Y4635686D01*
G01X7070775D01*
G01X6955363Y4520274D01*
G01X6929100D01*
G03X6893286Y4484460I0J-35814D01*
G01Y4403813D01*
G03X6921566Y4368800I35814J0D01*
G03X6893286Y4333787I7534J-35013D01*
G01Y4253140D01*
G03X6929100Y4217326I35814J0D01*
G01X7015500D01*
G03X7051314Y4253140I0J35814D01*
G01Y4333787D01*
G03X7023034Y4368800I-35814J0D01*
G03X7051314Y4403813I-7534J35013D01*
G01Y4430076D01*
G01X7178225Y4556986D01*
G01X7251561D01*
G03X7233356Y4525800I17609J-31186D01*
G01Y4465800D01*
G03X7256506Y4432300I35814J0D01*
G03X7233356Y4398800I12664J-33500D01*
G01Y4338800D01*
G03X7235179Y4327519I35814J0D01*
G01X7098475Y4190814D01*
G01X6909625D01*
G01X7099460Y73660D02*
G03X7144714Y139700I-25560J66040D01*
G03X7083967Y209795I-70814J0D01*
G01X7070176Y223586D01*
G01X7171585D01*
G01Y133737D01*
G03X7207399Y97923I35814J0D01*
G01X7355900D01*
G03X7391714Y133737I0J35814D01*
G01Y295739D01*
G03X7377463Y324333I-35814J0D01*
G01Y373446D01*
G01X7452361Y448344D01*
G01X7551800D01*
G03X7587614Y484158I0J35814D01*
G01Y582824D01*
G01X7609469Y560969D01*
G03X7635362Y547087I35931J35931D01*
G03X7629886Y520700I60838J-26387D01*
G03X7690398Y454640I66314J0D01*
G01X7746831Y398207D01*
G01Y157400D01*
G03X7782645Y121586I35814J0D01*
G01X7910897D01*
G03X7946711Y157400I0J35814D01*
G01Y279165D01*
G03X7948385Y292100I-49140J12935D01*
G01Y319329D01*
G03X7946711Y332264I-50814J0D01*
G01Y503000D01*
G03X7910897Y538814I-35814J0D01*
G01X7782645D01*
G03X7761554Y531945I0J-35814D01*
G03X7757463Y546086I-65354J-11245D01*
G01X7979952D01*
G01X8231769Y294269D01*
G03X8267700Y279386I35931J35931D01*
G01X8360089D01*
G01Y157400D01*
G03X8395903Y121586I35814J0D01*
G01X8524155D01*
G03X8559969Y157400I0J35814D01*
G01Y279165D01*
G03X8561643Y292100I-49140J12935D01*
G03X8559969Y305035I-50814J0D01*
G01Y503000D01*
G03X8524155Y538814I-35814J0D01*
G01X8395903D01*
G03X8360089Y503000I0J-35814D01*
G01Y381014D01*
G01X8288748D01*
G01X8036931Y632831D01*
G03X8002685Y647686I-35931J-35931D01*
G01X8356600D01*
G03X8392531Y662569I0J50814D01*
G01X8430933Y700971D01*
G03X8449141Y695997I18208J30840D01*
G01X8549141D01*
G03X8584955Y731811I0J35814D01*
G01Y791811D01*
G03X8561805Y825311I-35814J0D01*
G03X8584955Y858811I-12664J33500D01*
G01Y918811D01*
G03X8561805Y952311I-35814J0D01*
G03X8584955Y985811I-12664J33500D01*
G01Y1045811D01*
G03X8561805Y1079311I-35814J0D01*
G03X8584955Y1112811I-12664J33500D01*
G01Y1172811D01*
G03X8549141Y1208625I-35814J0D01*
G01X8449141D01*
G03X8415894Y1186125I0J-35814D01*
G01X8369111D01*
G03X8338483Y1173438I0J-43314D01*
G01X8314963Y1149918D01*
G01Y1167310D01*
G03X8279149Y1203124I-35814J0D01*
G01X7939150D01*
G03X7903336Y1167310I0J-35814D01*
G01Y787889D01*
G03X7861300Y802914I-42036J-51289D01*
G03X7804972Y771595I0J-66314D01*
G01Y791811D01*
G03X7781822Y825311I-35814J0D01*
G03X7804972Y858811I-12664J33500D01*
G01Y918811D01*
G03X7781822Y952311I-35814J0D01*
G03X7804972Y985811I-12664J33500D01*
G01Y1029763D01*
G01X7846431Y1071222D01*
G03X7861314Y1107153I-35931J35931D01*
G01Y1174234D01*
G03X7846431Y1210165I-50814J0D01*
G01X7772414Y1284182D01*
G01Y1460586D01*
G01X8018810D01*
G03X8054624Y1496400I0J35814D01*
G01Y1856400D01*
G03X8018810Y1892214I-35814J0D01*
G01X7943625D01*
G01Y1921789D01*
G03X7929474Y1955953I-48314J0D01*
G01X7889483Y1995944D01*
G03X7823200Y2060214I-66283J-2044D01*
G03X7756886Y1993900I0J-66314D01*
G03X7821156Y1927617I66314J0D01*
G01X7846997Y1901777D01*
G01Y1892214D01*
G01X7771811D01*
G03X7737688Y1867274I0J-35814D01*
G01X7689431Y1915531D01*
G03X7653500Y1930414I-35931J-35931D01*
G01X7493014D01*
G01Y1945663D01*
G03X7478131Y1981594I-50814J0D01*
G01X7431342Y2028383D01*
G03X7403525Y2042614I-35931J-35931D01*
G01Y2065353D01*
G03X7403374Y2068638I-35814J0D01*
G01X7415352D01*
G03X7447632Y2080209I0J50814D01*
G03X7503986Y2122215I-5432J66091D01*
G01Y2010903D01*
G03X7539800Y1975089I35814J0D01*
G01X7674800D01*
G01X7674801D01*
G03X7710615Y2010903I0J35814D01*
G01Y2151903D01*
G03X7689854Y2184400I-35814J0D01*
G03X7710615Y2216897I-15053J32497D01*
G01Y2262061D01*
G01X7763504D01*
G03X7861300Y2208286I97796J62039D01*
G03X7946621Y2245786I0J115814D01*
G01X7962900D01*
G01X8324161D01*
G01X8383975Y2185972D01*
G01Y1991211D01*
G01X8338790D01*
G03X8302976Y1955397I0J-35814D01*
G01Y1857397D01*
G03X8338790Y1821583I35814J0D01*
G01X8585789D01*
G03X8600440Y1824716I0J35814D01*
G01Y1758081D01*
G03X8585789Y1761214I-14651J-32680D01*
G01X8338790D01*
G03X8302976Y1725400I0J-35814D01*
G01Y1627400D01*
G03X8338790Y1591586I35814J0D01*
G01X8585789D01*
G03X8600440Y1594719I0J35814D01*
G01Y1528084D01*
G03X8585789Y1531217I-14651J-32680D01*
G01X8338790D01*
G03X8302976Y1495403I0J-35814D01*
G01Y1397403D01*
G03X8338790Y1361589I35814J0D01*
G01X8585789D01*
G03X8600440Y1364722I0J35814D01*
G01Y73660D01*
G01X7099460D01*
G01X7654400Y97923D02*
G03X7690214Y133737I0J35814D01*
G01Y295739D01*
G03X7654400Y331553I-35814J0D01*
G01X7505899D01*
G03X7470085Y295739I0J-35814D01*
G01Y133737D01*
G03X7505899Y97923I35814J0D01*
G01X7654400D01*
G01X7863469Y662569D02*
G03X7897715Y647714I35931J35931D01*
G01X7666448D01*
G01X7630531Y683631D01*
G03X7594600Y698514I-35931J-35931D01*
G01X7415325D01*
G03X7381718Y711214I-33606J-38114D01*
G01X7343347D01*
G01X7456266Y824134D01*
G03X7472614Y863600I-39466J39466D01*
G01Y926575D01*
G01X7551800D01*
G03X7587614Y962389I0J35814D01*
G01Y1090642D01*
G03X7575393Y1117586I-35814J0D01*
G01X7633344D01*
G01Y1112811D01*
G03X7656493Y1079311I35814J0D01*
G03X7633344Y1045811I12664J-33500D01*
G01Y985811D01*
G03X7656493Y952311I35814J0D01*
G03X7640013Y939625I12664J-33500D01*
G01X7607111D01*
G03X7571180Y924742I0J-50814D01*
G01X7563398Y916960D01*
G03X7502886Y850900I5802J-66060D01*
G03X7569200Y784586I66314J0D01*
G03X7634247Y837997I0J66314D01*
G01X7640013D01*
G03X7656493Y825311I29145J20814D01*
G03X7633344Y791811I12664J-33500D01*
G01Y731811D01*
G03X7669158Y695997I35814J0D01*
G01X7769158D01*
G03X7799444Y712696I0J35814D01*
G03X7855498Y670540I61856J23904D01*
G01X7863469Y662569D01*
G01X7403525Y2921014D02*
G01X7403525Y2954353D01*
G03X7399752Y2970352I-35814J0D01*
G03X7403525Y2986352I-32042J15999D01*
G01Y3081353D01*
G03X7399752Y3097352I-35814J0D01*
G03X7403525Y3113352I-32042J15999D01*
G01Y3167214D01*
G01X7556486Y3014252D01*
G01Y2929348D01*
G01X7548152Y2921014D01*
G01X7403525D01*
G01X7472490Y1237845D02*
G03X7474942Y1224820I35814J0D01*
G01X7467614Y1232148D01*
G01Y1708452D01*
G03X7456610Y1740031I-50814J0D01*
G03X7488386Y1757175I-14410J64729D01*
G01Y1731802D01*
G03X7504643Y1701800I35814J0D01*
G03X7488386Y1671798I19557J-30002D01*
G01Y1591798D01*
G03X7524200Y1555984I35814J0D01*
G01X7573152D01*
G01X7577567Y1551569D01*
G03X7594586Y1540336I35931J35931D01*
G01Y1493664D01*
G01X7508304D01*
G03X7472490Y1457850I0J-35814D01*
G01Y1377850D01*
G03X7488746Y1347847I35814J0D01*
G03X7472490Y1317845I19557J-30002D01*
G01Y1237845D01*
G01X7655286Y1651000D02*
G03X7656511Y1638314I66314J0D01*
G01X7650014D01*
G01Y1671798D01*
G03X7633757Y1701800I-35814J0D01*
G03X7650014Y1731802I-19557J30002D01*
G01Y1811224D01*
G01X7668344Y1792894D01*
G01Y1690514D01*
G03X7655286Y1651000I53256J-39514D01*
G01X7985468Y4687114D02*
G03X7988722Y4688776I-14638J32686D01*
G01X7987060Y4687114D01*
G01X7985468D01*
G01X8383980Y797742D02*
G01X8335552Y749314D01*
G01X8314963D01*
G01Y977104D01*
G03X8331200Y975086I16237J64296D01*
G03X8356588Y980138I0J66314D01*
G03X8371469Y944621I50812J414D01*
G01X8413327Y902763D01*
G01Y858811D01*
G03X8436477Y825311I35814J0D01*
G03X8419996Y812625I12664J-33500D01*
G01X8419911D01*
G03X8383980Y797742I0J-50814D01*
G54D11*
G01X4637603Y112598D02*
G01X4693511Y112598D01*
G01X4637603Y112598D02*
G01X4581695Y112598D01*
G01X4403743Y190505D02*
G01X4503901Y190505D01*
G01X4403743Y190505D02*
G01X4303584Y190505D01*
G01X4637603Y217602D02*
G01X4637603Y273510D01*
G01X4637603Y217602D02*
G01X4693511Y217602D01*
G01X4637603Y217602D02*
G01X4581695Y217602D01*
G01X6212700Y2252751D02*
G01X6212700Y2181843D01*
G01X6072696Y2252751D02*
G01X6072696Y2181843D01*
G01X6072696Y2252751D02*
G01X6001788Y2252751D01*
G01X6352705Y2252751D02*
G01X6352705Y2181843D01*
G01X6352705Y2252751D02*
G01X6423613Y2252751D01*
G01X6352705Y2392756D02*
G01X6423613Y2392756D01*
G01X6352705Y2532761D02*
G01X6352705Y2603669D01*
G01X6352705Y2532761D02*
G01X6423613Y2532761D01*
G01X6072696Y2392756D02*
G01X6001788Y2392756D01*
G01X6212700Y2532761D02*
G01X6212700Y2603669D01*
G01X6072696Y2532761D02*
G01X6072696Y2603669D01*
G01X6072696Y2532761D02*
G01X6001788Y2532761D01*
G01X6776187Y411925D02*
G01X6776187Y524407D01*
G01X6321196Y985076D02*
G01X6278138Y985076D01*
G01X6321196Y985076D02*
G01X6321196Y872593D01*
G01X5257800Y1034542D02*
G01X5257800Y1134701D01*
G01X5257800Y1034542D02*
G01X5257800Y934383D01*
G01X5277002Y3670300D02*
G01X5342910Y3670300D01*
G01X5277002Y3670300D02*
G01X5277002Y3741208D01*
G01X5277002Y3670300D02*
G01X5277002Y3599392D01*
G01X6972300Y4293464D02*
G01X6972300Y4227232D01*
G01X6972300Y4293464D02*
G01X6903192Y4293464D01*
G01X6972300Y4293464D02*
G01X7041408Y4293464D01*
G01X4768100Y4787700D02*
G01X4617192Y4787700D01*
G01X4768100Y4787700D02*
G01X4919008Y4787700D01*
G01X4768100Y4787700D02*
G01X4768100Y4913608D01*
G01X4768100Y4787700D02*
G01X4768100Y4661792D01*
G01X3695713Y4717910D02*
G01X3695713Y4652002D01*
G01X3695713Y4717910D02*
G01X3619805Y4717910D01*
G01X6947764Y4826000D02*
G01X6881532Y4826000D01*
G01X6947764Y4826000D02*
G01X6947764Y4895108D01*
G01X3340100Y4850600D02*
G01X3340100Y4906508D01*
G01X3340100Y4850600D02*
G01X3396008Y4850600D01*
G01X3340100Y4850600D02*
G01X3284192Y4850600D01*
G01X4971402Y1174496D02*
G01X4885494Y1174496D01*
G01X5791213Y1360348D02*
G01X5791213Y1491256D01*
G01X5791213Y1360348D02*
G01X5791213Y1229440D01*
G01X5118100Y679958D02*
G01X5118100Y579799D01*
G01X5118100Y679958D02*
G01X5118100Y780117D01*
G01X5384800Y580492D02*
G01X5437708Y580492D01*
G01X5384800Y580492D02*
G01X5331892Y580492D01*
G01X6120634Y675133D02*
G01X6146796Y675133D01*
G01X4971402Y1124509D02*
G01X4971402Y1083601D01*
G01X5462689Y3160852D02*
G01X5462689Y3234261D01*
G01X5207000Y3143402D02*
G01X5207000Y3209310D01*
G01X5207000Y3336392D02*
G01X5207000Y3270979D01*
G01X5207000Y3336392D02*
G01X5259908Y3336392D01*
G01X4971402Y3589237D02*
G01X4971402Y3615399D01*
G01X7329170Y4495800D02*
G01X7415078Y4495800D01*
G01X7329170Y4495800D02*
G01X7243262Y4495800D01*
G01X7553303Y1417850D02*
G01X7553303Y1483758D01*
G01X7553303Y1417850D02*
G01X7482396Y1417850D01*
G01X7607300Y2081403D02*
G01X7607300Y1984995D01*
G01X7607300Y2081403D02*
G01X7513892Y2081403D01*
G01X7607300Y2081403D02*
G01X7700709Y2081403D01*
G01X7569200Y1771802D02*
G01X7640108Y1771802D01*
G01X7262711Y3160852D02*
G01X7393619Y3160852D01*
G01X7580150Y214738D02*
G01X7680308Y214738D01*
G01X7580150Y214738D02*
G01X7479991Y214738D01*
G01X7580150Y214738D02*
G01X7580150Y107829D01*
G01X7580150Y214738D02*
G01X7580150Y321647D01*
G01X8109149Y952311D02*
G01X8109149Y1193218D01*
G01X8109149Y952311D02*
G01X7913242Y952311D01*
G01X8109149Y952311D02*
G01X8305057Y952311D01*
G01X7719158Y761811D02*
G01X7719158Y705903D01*
G01X7719158Y761811D02*
G01X7643250Y761811D01*
G01X8118457Y3911595D02*
G01X8018299Y3911595D01*
G01X8118457Y3911595D02*
G01X8218616Y3911595D01*
G01X8118457Y3911595D02*
G01X8118457Y4018504D01*
G01X8118457Y3911595D02*
G01X8118457Y3804686D01*
G01X7644003Y4114800D02*
G01X7547595Y4114800D01*
G01X7644003Y4114800D02*
G01X7644003Y4021392D01*
G01X7644003Y4114800D02*
G01X7644003Y4208209D01*
G01X8462289Y1446403D02*
G01X8312882Y1446403D01*
G01X8462289Y1446403D02*
G01X8462289Y1521311D01*
G01X8462289Y1446403D02*
G01X8462289Y1371495D01*
G01X5479517Y145169D02*
G01X5570424Y145169D01*
G01X5599506Y412173D02*
G01X5508598Y412173D01*
G01X5599506Y412173D02*
G01X5599506Y503081D01*
G01X7861300Y2578100D02*
G01X7861300Y2472192D01*
G01X7861300Y2578100D02*
G01X7861300Y2684008D01*
G01X7861300Y2578100D02*
G01X7755392Y2578100D01*
G01X7861300Y2578100D02*
G01X7967208Y2578100D01*
G04 Copper End*

G04 Pad Start*
G54D12*
G01X4971402Y3574491D03*
G01X4971402Y3524504D03*
G01X4971402Y3474491D03*
G01X4971402Y3424504D03*
G01X4971402Y3374492D03*
G01X4971402Y3324504D03*
G01X4971402Y3274492D03*
G01X4971402Y3224505D03*
G01X4971402Y3174492D03*
G01X4971402Y3124505D03*
G01X4971402Y3074492D03*
G01X4971402Y3024505D03*
G01X4971402Y2974492D03*
G01X4971402Y2924505D03*
G01X4971402Y2874493D03*
G01X4971402Y2824505D03*
G01X4971402Y2774493D03*
G01X4971402Y2724506D03*
G01X4971402Y2674493D03*
G01X4971402Y2624506D03*
G01X4971402Y2574493D03*
G01X4971402Y2524506D03*
G01X4971402Y2474493D03*
G01X4971402Y2424506D03*
G01X4971402Y2374494D03*
G01X4971402Y2324506D03*
G01X4971402Y2274494D03*
G01X4971402Y2224507D03*
G01X4971402Y2174494D03*
G01X4971402Y2124507D03*
G01X4971402Y2074494D03*
G01X4971402Y2024507D03*
G01X4971402Y1974494D03*
G01X4971402Y1924507D03*
G01X4971402Y1874495D03*
G01X4971402Y1824507D03*
G01X4971402Y1774495D03*
G01X4971402Y1724508D03*
G01X4971402Y1674495D03*
G01X4971402Y1624508D03*
G01X4971402Y1574495D03*
G01X4971402Y1524508D03*
G01X4971402Y1474495D03*
G01X4971402Y1424508D03*
G01X4971402Y1374496D03*
G01X4971402Y1324508D03*
G01X4971402Y1274496D03*
G01X4971402Y1224509D03*
G01X4971402Y1174496D03*
G01X4971402Y1124509D03*
G54D13*
G01X4731398Y3714496D03*
G01X4731398Y984504D03*
G54D14*
G01X5856901Y675133D03*
G01X5906888Y675133D03*
G01X5956901Y675133D03*
G01X6006888Y675133D03*
G01X6056901Y675133D03*
G01X6106888Y675133D03*
G54D15*
G01X6181894Y750139D03*
G01X6181894Y800127D03*
G01X6181894Y850139D03*
G01X6181894Y900126D03*
G01X6181894Y950139D03*
G01X6181894Y1000126D03*
G54D14*
G01X6106888Y1075132D03*
G01X6056901Y1075132D03*
G01X6006888Y1075132D03*
G01X5956901Y1075132D03*
G01X5906888Y1075132D03*
G01X5857688Y1075132D03*
G54D15*
G01X5781895Y1000126D03*
G01X5781895Y950139D03*
G01X5781895Y900126D03*
G01X5781895Y850139D03*
G01X5781895Y800127D03*
G01X5781895Y750139D03*
G54D17*
G01X5983139Y875133D03*
G54D18*
G01X5971997Y464447D03*
G01X5906999Y464447D03*
G01X5842000Y464447D03*
G01X5777001Y464447D03*
G01X5712003Y464447D03*
G54D19*
G01X6204483Y145169D03*
G01X5479517Y145169D03*
G54D20*
G01X5599506Y412173D03*
G01X6084494Y412199D03*
G54D21*
G01X7861300Y2324100D03*
G01X7861300Y2578100D03*
G54D22*
G01X8462289Y1446403D03*
G01X8462289Y1676400D03*
G01X8462289Y1906397D03*
G54D23*
G01X7895311Y1676400D03*
G54D24*
G01X7329170Y4749800D03*
G01X7329170Y4622800D03*
G01X7329170Y4495800D03*
G01X7329170Y4368800D03*
G01X7910830Y4368800D03*
G01X7910830Y4495800D03*
G01X7910830Y4622800D03*
G01X7910830Y4749800D03*
G54D25*
G01X7620000Y4559300D03*
G54D26*
G01X7580150Y214738D03*
G01X7281649Y214738D03*
G54D27*
G01X7416800Y548284D03*
G01X7416800Y1026516D03*
G54D28*
G01X4861916Y520700D03*
G01X4383684Y520700D03*
G54D26*
G01X4403743Y190505D03*
G01X4105242Y190505D03*
G54D29*
G01X8109149Y952311D03*
G54D30*
G01X7719158Y888811D03*
G01X7719158Y1015811D03*
G01X7719158Y1142811D03*
G01X7719158Y761811D03*
G54D31*
G01X8499141Y1142811D03*
G01X8499141Y761811D03*
G01X8499141Y888811D03*
G01X8499141Y1015811D03*
G54D32*
G01X2631300Y156477D03*
G01X2931300Y156477D03*
G36*
G01X2876283Y520421D02*
G01X2876283Y335001D01*
G01X2876177Y330548D01*
G01X2875864Y326106D01*
G01X2875344Y321681D01*
G01X2874617Y317287D01*
G01X2873682Y312931D01*
G01X2872547Y308625D01*
G01X2871211Y304376D01*
G01X2869677Y300195D01*
G01X2867947Y296090D01*
G01X2866029Y292070D01*
G01X2863924Y288145D01*
G01X2861635Y284323D01*
G01X2859171Y280612D01*
G01X2856537Y277020D01*
G01X2853738Y273558D01*
G01X2850777Y270228D01*
G01X2847665Y267043D01*
G01X2844406Y264005D01*
G01X2841010Y261125D01*
G01X2837482Y258407D01*
G01X2833830Y255857D01*
G01X2830063Y253482D01*
G01X2826187Y251285D01*
G01X2822214Y249271D01*
G01X2814284Y247447D01*
G01Y77714D01*
G01X2748285D01*
G01Y247447D01*
G01X2740350Y249271D01*
G01X2736378Y251285D01*
G01X2732502Y253482D01*
G01X2728735Y255857D01*
G01X2725082Y258407D01*
G01X2721554Y261125D01*
G01X2718158Y264005D01*
G01X2714899Y267043D01*
G01X2711788Y270228D01*
G01X2708826Y273558D01*
G01X2706027Y277020D01*
G01X2703393Y280612D01*
G01X2700929Y284323D01*
G01X2698641Y288145D01*
G01X2696535Y292070D01*
G01X2694617Y296090D01*
G01X2692888Y300195D01*
G01X2691354Y304376D01*
G01X2690017Y308625D01*
G01X2688882Y312931D01*
G01X2687947Y317287D01*
G01X2687221Y321681D01*
G01X2686700Y326106D01*
G01X2686388Y330548D01*
G01X2686281Y335001D01*
G01Y520421D01*
G01X2686388Y524873D01*
G01X2686700Y529316D01*
G01X2687221Y533740D01*
G01X2687947Y538135D01*
G01X2688882Y542491D01*
G01X2690017Y546796D01*
G01X2691354Y551045D01*
G01X2692888Y555226D01*
G01X2694617Y559331D01*
G01X2696535Y563352D01*
G01X2698641Y567276D01*
G01X2700929Y571099D01*
G01X2703393Y574810D01*
G01X2706027Y578401D01*
G01X2708826Y581863D01*
G01X2711788Y585193D01*
G01X2714899Y588378D01*
G01X2718158Y591416D01*
G01X2721554Y594297D01*
G01X2725082Y597014D01*
G01X2728735Y599564D01*
G01X2732502Y601939D01*
G01X2736378Y604136D01*
G01X2740350Y606151D01*
G01X2744414Y607974D01*
G01X2748557Y609608D01*
G01X2752773Y611043D01*
G01X2757053Y612280D01*
G01X2761386Y613313D01*
G01X2765760Y614144D01*
G01X2770172Y614769D01*
G01X2774607Y615185D01*
G01X2779055Y615394D01*
G01X2783510D01*
G01X2787957Y615185D01*
G01X2792392Y614769D01*
G01X2796804Y614144D01*
G01X2801178Y613313D01*
G01X2805511Y612280D01*
G01X2809791Y611043D01*
G01X2814008Y609608D01*
G01X2818150Y607974D01*
G01X2822214Y606151D01*
G01X2826187Y604136D01*
G01X2830063Y601939D01*
G01X2833830Y599564D01*
G01X2837482Y597014D01*
G01X2841010Y594297D01*
G01X2844406Y591416D01*
G01X2847665Y588378D01*
G01X2850777Y585193D01*
G01X2853738Y581863D01*
G01X2856537Y578401D01*
G01X2859171Y574810D01*
G01X2861635Y571099D01*
G01X2863924Y567276D01*
G01X2866029Y563352D01*
G01X2867947Y559331D01*
G01X2869677Y555226D01*
G01X2871211Y551045D01*
G01X2872547Y546796D01*
G01X2873682Y542491D01*
G01X2874617Y538135D01*
G01X2875344Y533740D01*
G01X2875864Y529316D01*
G01X2876177Y524873D01*
G01X2876283Y520421D01*
G37*
G54D33*
G01X3339236Y419100D03*
G01X3188564Y419100D03*
G54D34*
G01X3150464Y139700D03*
G01X3301136Y139700D03*
G54D35*
G01X5384800Y580492D03*
G01X5384800Y689508D03*
G54D36*
G01X3521977Y442100D03*
G01X3521977Y142100D03*
G36*
G01X3885921Y197117D02*
G01X3700501Y197117D01*
G01X3696048Y197223D01*
G01X3691606Y197536D01*
G01X3687181Y198057D01*
G01X3682787Y198783D01*
G01X3678431Y199718D01*
G01X3674125Y200853D01*
G01X3669876Y202189D01*
G01X3665695Y203723D01*
G01X3661590Y205453D01*
G01X3657570Y207371D01*
G01X3653645Y209476D01*
G01X3649823Y211765D01*
G01X3646112Y214229D01*
G01X3642520Y216863D01*
G01X3639058Y219662D01*
G01X3635728Y222623D01*
G01X3632543Y225735D01*
G01X3629505Y228994D01*
G01X3626625Y232390D01*
G01X3623907Y235918D01*
G01X3621357Y239570D01*
G01X3618982Y243337D01*
G01X3616785Y247213D01*
G01X3614771Y251186D01*
G01X3612947Y259116D01*
G01X3443214D01*
G01Y325115D01*
G01X3612947D01*
G01X3614771Y333050D01*
G01X3616785Y337022D01*
G01X3618982Y340898D01*
G01X3621357Y344665D01*
G01X3623907Y348318D01*
G01X3626625Y351846D01*
G01X3629505Y355242D01*
G01X3632543Y358501D01*
G01X3635728Y361612D01*
G01X3639058Y364574D01*
G01X3642520Y367373D01*
G01X3646112Y370007D01*
G01X3649823Y372471D01*
G01X3653645Y374759D01*
G01X3657570Y376865D01*
G01X3661590Y378783D01*
G01X3665695Y380512D01*
G01X3669876Y382046D01*
G01X3674125Y383383D01*
G01X3678431Y384518D01*
G01X3682787Y385453D01*
G01X3687181Y386179D01*
G01X3691606Y386700D01*
G01X3696048Y387012D01*
G01X3700501Y387119D01*
G01X3885921D01*
G01X3890373Y387012D01*
G01X3894816Y386700D01*
G01X3899240Y386179D01*
G01X3903635Y385453D01*
G01X3907991Y384518D01*
G01X3912296Y383383D01*
G01X3916545Y382046D01*
G01X3920726Y380512D01*
G01X3924831Y378783D01*
G01X3928852Y376865D01*
G01X3932776Y374759D01*
G01X3936599Y372471D01*
G01X3940310Y370007D01*
G01X3943901Y367373D01*
G01X3947363Y364574D01*
G01X3950693Y361612D01*
G01X3953878Y358501D01*
G01X3956916Y355242D01*
G01X3959797Y351846D01*
G01X3962514Y348318D01*
G01X3965064Y344665D01*
G01X3967439Y340898D01*
G01X3969636Y337022D01*
G01X3971651Y333050D01*
G01X3973474Y328986D01*
G01X3975108Y324843D01*
G01X3976543Y320627D01*
G01X3977780Y316347D01*
G01X3978813Y312014D01*
G01X3979644Y307640D01*
G01X3980269Y303228D01*
G01X3980685Y298793D01*
G01X3980894Y294345D01*
G01Y289890D01*
G01X3980685Y285443D01*
G01X3980269Y281008D01*
G01X3979644Y276596D01*
G01X3978813Y272222D01*
G01X3977780Y267889D01*
G01X3976543Y263609D01*
G01X3975108Y259392D01*
G01X3973474Y255250D01*
G01X3971651Y251186D01*
G01X3969636Y247213D01*
G01X3967439Y243337D01*
G01X3965064Y239570D01*
G01X3962514Y235918D01*
G01X3959797Y232390D01*
G01X3956916Y228994D01*
G01X3953878Y225735D01*
G01X3950693Y222623D01*
G01X3947363Y219662D01*
G01X3943901Y216863D01*
G01X3940310Y214229D01*
G01X3936599Y211765D01*
G01X3932776Y209476D01*
G01X3928852Y207371D01*
G01X3924831Y205453D01*
G01X3920726Y203723D01*
G01X3916545Y202189D01*
G01X3912296Y200853D01*
G01X3907991Y199718D01*
G01X3903635Y198783D01*
G01X3899240Y198057D01*
G01X3894816Y197536D01*
G01X3890373Y197223D01*
G01X3885921Y197117D01*
G37*
G54D33*
G01X7098436Y4826000D03*
G01X6947764Y4826000D03*
G54D37*
G01X5462689Y3160852D03*
G01X5462689Y3033852D03*
G01X5462689Y2906852D03*
G01X5462689Y2779852D03*
G01X5462689Y2652852D03*
G01X5462689Y2525852D03*
G01X5462689Y2398852D03*
G01X5462689Y2271852D03*
G01X5462689Y2144852D03*
G01X5462689Y2017852D03*
G01X5462689Y1890852D03*
G01X5462689Y1763852D03*
G01X5462689Y1636852D03*
G01X5462689Y1509852D03*
G54D38*
G01X5791213Y1360348D03*
G01X5918213Y1360348D03*
G01X6045213Y1360348D03*
G01X6172213Y1360348D03*
G01X6299213Y1360348D03*
G01X6426213Y1360348D03*
G01X6553213Y1360348D03*
G01X6680213Y1360348D03*
G01X6807213Y1360348D03*
G01X6934213Y1360348D03*
G54D37*
G01X7262711Y1509852D03*
G01X7262711Y1636852D03*
G01X7262711Y1763852D03*
G01X7262711Y1890852D03*
G01X7262711Y2017852D03*
G01X7262711Y2144852D03*
G01X7262711Y2271852D03*
G01X7262711Y2398852D03*
G01X7262711Y2525852D03*
G01X7262711Y2652852D03*
G01X7262711Y2779852D03*
G01X7262711Y2906852D03*
G01X7262711Y3033852D03*
G01X7262711Y3160852D03*
G54D39*
G01X6212675Y2392756D03*
G01X6072696Y2392756D03*
G01X6352705Y2392756D03*
G01X6352705Y2532761D03*
G01X6212700Y2532761D03*
G01X6072696Y2532761D03*
G01X6072696Y2252751D03*
G01X6212700Y2252751D03*
G01X6352705Y2252751D03*
G54D40*
G01X6497100Y4112700D03*
G01X6497100Y4737700D03*
G01X4427100Y4112700D03*
G54D41*
G01X4393100Y4787700D03*
G01X4768100Y4787700D03*
G54D42*
G01X3517900Y4855108D03*
G01X3517900Y4746092D03*
G54D43*
G01X3695713Y4717910D03*
G01X3695713Y4857890D03*
G54D44*
G01X3340100Y4850600D03*
G01X3340100Y4750600D03*
G54D45*
G01X8118457Y3911595D03*
G01X8416958Y3911595D03*
G54D27*
G01X8331200Y4320184D03*
G01X8331200Y4798416D03*
G54D46*
G01X5207000Y3003398D03*
G01X5207000Y3143402D03*
G01X7569200Y1631798D03*
G01X7569200Y1771802D03*
G54D47*
G01X6972300Y4444136D03*
G01X6972300Y4293464D03*
G54D35*
G01X5207000Y3336392D03*
G01X5207000Y3445408D03*
G54D48*
G01X8460029Y330200D03*
G01X7846771Y330200D03*
G54D46*
G01X7553303Y1277845D03*
G01X7553303Y1417850D03*
G54D49*
G01X6508902Y114300D03*
G01X6368898Y114300D03*
G54D50*
G01X5215992Y127000D03*
G01X5325008Y127000D03*
G54D44*
G01X4836599Y217602D03*
G01X4637603Y217602D03*
G01X4637603Y112598D03*
G01X4836599Y112598D03*
G54D51*
G01X5562600Y1021182D03*
G01X5562600Y934618D03*
G54D52*
G01X8293100Y2956560D03*
G01X8293100Y3469640D03*
G54D53*
G01X2082800Y209042D03*
G01X2082800Y527558D03*
G54D54*
G01X5118100Y679958D03*
G01X5118100Y361442D03*
G54D53*
G01X5257800Y1034542D03*
G01X5257800Y1353058D03*
G54D55*
G01X7644003Y4114800D03*
G01X7849997Y4114800D03*
G54D56*
G01X7607300Y2287397D03*
G01X7607300Y2081403D03*
G54D57*
G01X3928008Y4762500D03*
G01X3818992Y4762500D03*
G54D49*
G01X5277002Y3670300D03*
G01X5136998Y3670300D03*
G54D58*
G01X7166204Y985076D03*
G01X7101205Y985076D03*
G01X7036206Y985076D03*
G01X6971208Y985076D03*
G01X6906209Y985076D03*
G01X6841211Y985076D03*
G01X6776187Y985076D03*
G01X6711188Y985076D03*
G01X6646189Y985076D03*
G01X6581191Y985076D03*
G01X6516192Y985076D03*
G01X6451194Y985076D03*
G01X6386195Y985076D03*
G01X6321196Y985076D03*
G01X7166204Y411925D03*
G01X7101205Y411925D03*
G01X7036206Y411925D03*
G01X6971208Y411925D03*
G01X6906209Y411925D03*
G01X6841211Y411925D03*
G01X6776187Y411925D03*
G01X6711188Y411925D03*
G01X6646189Y411925D03*
G01X6581191Y411925D03*
G01X6516192Y411925D03*
G01X6451194Y411925D03*
G01X6386195Y411925D03*
G01X6321196Y411925D03*
G04 Pad End*

G04 Via Start*
G54D59*
G01X4864100Y3492500D03*
G01X4826000Y2895600D03*
G01X4749800Y3238500D03*
G01X4737100Y3543300D03*
G54D60*
G01X5626100Y4165600D03*
G54D61*
G01X2527300Y4495800D03*
G54D59*
G01X2832100Y1333500D03*
G01X3949700Y1663700D03*
G01X3073400Y4267200D03*
G01X4699000Y685800D03*
G01X2552700Y152400D03*
G01X3035306Y139700D03*
G54D62*
G01X3594100Y812800D03*
G54D59*
G01X5778500Y1092200D03*
G01X5715000Y800100D03*
G01X3911967Y116910D03*
G01X5295900Y2768600D03*
G01X2781300Y711200D03*
G01X7086600Y596900D03*
G01X6057900Y3149600D03*
G01X6921500Y596900D03*
G01X5969000Y3149600D03*
G01X5702300Y3149600D03*
G01X5753100Y2997200D03*
G01X6832600Y596900D03*
G01X6794500Y3009900D03*
G01X6794500Y3136900D03*
G01X6032500Y2971800D03*
G01X8102600Y4533900D03*
G01X6883400Y3136900D03*
G01X7696200Y520700D03*
G01X6413500Y241300D03*
G01X5956300Y2933700D03*
G01X5295900Y2209800D03*
G01X4749800Y1397000D03*
G01X5295900Y2101016D03*
G01X4775200Y1320800D03*
G01X5308600Y1993900D03*
G01X4660900Y1270000D03*
G01X7442200Y2146300D03*
G01X7861300Y736600D03*
G01X8407400Y1079500D03*
G01X7442200Y1804760D03*
G01X6781800Y660400D03*
G01X5702300Y1612900D03*
G01X7569200Y850900D03*
G01X5689600Y1485900D03*
G01X5930900Y1549400D03*
G01X4800600Y1841500D03*
G01X7239000Y914400D03*
G01X6121400Y1676400D03*
G01X6515100Y1117600D03*
G01X6591300Y1117600D03*
G01X5664200Y2501900D03*
G01X6654800Y1206500D03*
G01X7226300Y1384300D03*
G01X6794500Y2590800D03*
G01X6807200Y2870200D03*
G01X6680200Y2806700D03*
G01X6680200Y3187700D03*
G01X5511800Y850900D03*
G01X6299200Y736600D03*
G01X6680200Y838200D03*
G01X6807200Y1193800D03*
G01X5943600Y165100D03*
G01X6578600Y546100D03*
G01X6807200Y3505200D03*
G01X7124700Y3454400D03*
G54D60*
G01X4178300Y685800D03*
G01X5435600Y1003300D03*
G01X5676900Y1397000D03*
G01X5829300Y1663700D03*
G54D59*
G01X7340153Y1332855D03*
G01X6731000Y1574800D03*
G01X6756400Y1130300D03*
G01X7150100Y1130300D03*
G01X6972300Y1206500D03*
G01X5105400Y1676400D03*
G01X5689600Y1803400D03*
G01X6972300Y2044700D03*
G01X6794500Y2070100D03*
G01X6299200Y1143000D03*
G01X6070600Y1917700D03*
G01X6540500Y2882900D03*
G01X6388100Y2794000D03*
G01X6553200Y3187700D03*
G01X6565900Y3657600D03*
G01X6565900Y1739900D03*
G01X5130800Y2870200D03*
G54D60*
G01X5664200Y927100D03*
G54D59*
G01X7454900Y2616200D03*
G01X7327900Y3619500D03*
G01X6197600Y3644900D03*
G01X6197600Y3187700D03*
G01X5842000Y2870200D03*
G01X5842000Y2707846D03*
G01X5842000Y2159000D03*
G01X5283200Y1689100D03*
G01X5295900Y1854200D03*
G01X5638800Y1968500D03*
G01X5638800Y2311400D03*
G01X4838700Y1955800D03*
G01X7518400Y2984500D03*
G01X6819900Y4775200D03*
G01X7175500Y4495800D03*
G01X7480300Y1524000D03*
G01X7505700Y2514600D03*
G01X7658100Y1765300D03*
G01X7937500Y1346200D03*
G01X7823200Y1993900D03*
G01X7721600Y1651000D03*
G01X7721600Y1511300D03*
G54D10*
G01X6819900Y190500D03*
G54D59*
G01X6972300Y850900D03*
G01X6350000Y1968500D03*
G01X3644900Y1384300D03*
G01X5486400Y584200D03*
G01X5346700Y825500D03*
G01X4292600Y215900D03*
G01X8318500Y469900D03*
G54D60*
G01X6540500Y203200D03*
G54D59*
G01X5014098Y4464050D03*
G01X3848100Y685800D03*
G01X3657600Y457200D03*
G01X3111500Y4851400D03*
G01X4572000Y152400D03*
G01X5279326Y546100D03*
G01X5308600Y292100D03*
G01X8331200Y1041400D03*
G01X4711700Y3035300D03*
G01X4686300Y2400300D03*
G01X4826000Y2362200D03*
G01X4406900Y1955800D03*
G01X5676900Y2730500D03*
G01X5778500Y2654300D03*
G01X5270500Y1562449D03*
G01X5080000Y1587500D03*
G01X6388100Y1676400D03*
G01X6197600Y1778000D03*
G01X5105400Y1371600D03*
G01X5080000Y1181100D03*
G01X5600700Y3505200D03*
G01X6083300Y3556000D03*
G01X5600700Y3390900D03*
G01X6108700Y3479800D03*
G01X5702300Y3619500D03*
G01X5803900Y609600D03*
G01X6972300Y127000D03*
G01X6299200Y571500D03*
G01X6286500Y914400D03*
G01X5257800Y2387600D03*
G01X6667500Y1130300D03*
G01X6972300Y1127775D03*
G01X5689600Y2870200D03*
G01X5778500Y2755900D03*
G01X5626100Y2984500D03*
G01X6121400Y609600D03*
G54D63*
G01X5842000Y355600D03*
G01X5981894Y335568D03*
G01X5295900Y762000D03*
G54D64*
G01X6350000Y88900D03*
G01X7073900Y139700D03*
G54D65*
G01X4686300Y3352800D03*
G01X4406900Y3683000D03*
G54D59*
G01X8153400Y2717800D03*
G54D65*
G01X5448300Y901700D03*
G01X4749800Y584200D03*
G01X5130800Y939800D03*
G01X5384800Y452097D03*
G01X4660900Y558800D03*
G01X4089400Y4140200D03*
G54D10*
G01X6680200Y3835400D03*
G54D59*
G01X7467600Y215900D03*
G01X3683000Y965200D03*
G54D10*
G01X2082800Y368300D03*
G01X2082800Y368300D03*
G54D59*
G01X5156200Y1181100D03*
G01X5384800Y1219200D03*
G54D65*
G01X2247900Y3962400D03*
G54D59*
G01X3238500Y1955800D03*
G01X3086100Y1409700D03*
G01X3695700Y1765300D03*
G01X3340100Y1689100D03*
G54D65*
G01X3365500Y3873500D03*
G01X4343400Y3454400D03*
G01X3848100Y3708400D03*
G01X3771900Y3225800D03*
G01X5397500Y3657600D03*
G01X4508500Y3111500D03*
G01X4533900Y2984500D03*
G01X4330700Y3238500D03*
G01X4330700Y3086100D03*
G01X3848100Y3556000D03*
G01X3556000Y3556000D03*
G01X3606800Y3454400D03*
G01X3848100Y3441700D03*
G01X6578600Y635000D03*
G01X7366000Y1172841D03*
G01X4660720Y1732226D03*
G01X4356100Y2844800D03*
G01X4561403Y2808946D03*
G04 Via End*

G04 Track Start*
G54D11*
G01X6006888Y572312D02*
G01X6006888Y675133D01*
G54D66*
G01X7910830Y4622800D02*
G01X8013700Y4622800D01*
G01X8189316Y4798416D02*
G01X8331200Y4798416D01*
G01X8013700Y4622800D02*
G01X8189316Y4798416D01*
G54D67*
G01X8331200Y4320184D02*
G01X8416958Y4234426D01*
G54D68*
G01X8416958Y3911595D01*
G54D63*
G01X7329170Y4749800D02*
G01X7252970Y4826000D01*
G01X7098436D01*
G01X7329170Y4622800D02*
G01X7150964Y4622800D01*
G01X6972300Y4444136D01*
G54D69*
G01X8462289Y1906397D02*
G01X8462289Y2218411D01*
G01X8356600Y2324100D01*
G54D70*
G01X7416800Y548284D02*
G01X7281649Y413134D01*
G54D71*
G01X3340100Y4750600D02*
G01X3513392Y4750600D01*
G54D72*
G01X3517900Y4746092D01*
G01X3517900Y4855108D02*
G01X3692931Y4855108D01*
G01X3695713Y4857890D01*
G54D73*
G01X3750678Y4857890D01*
G01X3842311Y4766257D01*
G01X3900932Y4762500D02*
G01X4367900Y4762500D01*
G01X4393100Y4787700D01*
G54D69*
G01X7598616Y2340375D02*
G01X7845025Y2340375D01*
G01X7861300Y2324100D01*
G54D20*
G01X4267200Y584200D02*
G01X4383684Y584200D01*
G54D63*
G01X3301136Y139700D02*
G01X3519576Y139700D01*
G01X3521977Y142100D01*
G01X3339236Y419100D02*
G01X3498977Y419100D01*
G01X3521977Y442100D01*
G54D74*
G01X4864100Y3009900D02*
G01X4826000Y2971800D01*
G01Y2895600D01*
G54D75*
G01X5626100Y4165600D02*
G01X4876800Y4165600D01*
G01X4597400Y4445000D01*
G01X2527300Y4495800D02*
G01X2641600Y4495800D01*
G01X2692400Y4445000D01*
G01X4597400D01*
G01X2552700Y152400D02*
G01X2627224Y152400D01*
G01X2631300Y156477D01*
G01X3035306Y139700D02*
G01X3150464Y139700D01*
G01X3188564Y419100D02*
G01X3582264Y812800D01*
G01X3594100D01*
G01X5778500Y1092200D02*
G01X5781895Y1088805D01*
G01Y1000126D01*
G54D76*
G01X3521977Y142100D02*
G01X3579000Y142100D01*
G01X3619500Y101600D01*
G01X3896657D01*
G01X3911967Y116910D01*
G01X5715027Y800127D02*
G01X5781895Y800127D01*
G01X2781287Y427723D02*
G01X2781287Y711187D01*
G01X5475389Y2881452D02*
G01X5464137Y2870200D01*
G01X5334000D01*
G01X5295900Y2832100D02*
G01X5334000Y2870200D01*
G01X5295900Y2768600D02*
G01X5295900Y2832100D01*
G01X6794500Y3136900D02*
G01X6794500Y3009900D01*
G01X6032500Y2971800D02*
G01X6032500Y3060700D01*
G01X6057900Y3086100D02*
G01X6032500Y3060700D01*
G01X6057900Y3149600D02*
G01X6057900Y3086100D01*
G01X7975600Y4368800D02*
G01X7910830Y4368800D01*
G01X8026400Y4419600D02*
G01X7975600Y4368800D01*
G01X8522100Y4419600D02*
G01X8026400Y4419600D01*
G01X8547100Y4394600D02*
G01X8522100Y4419600D01*
G01X8547100Y3556000D02*
G01X8547100Y4394600D01*
G01X8496300Y3505200D02*
G01X8547100Y3556000D01*
G01X7890413Y3196687D02*
G01X7890413Y3242213D01*
G01X8496700Y3111100D02*
G01X8521700Y3086100D01*
G01Y2882900D01*
G01X7962900Y2324100D01*
G54D69*
G01X8356600Y2324100D02*
G01X7962900Y2324100D01*
G54D76*
G01X7890413Y3196687D02*
G01X7976000Y3111100D01*
G01X8496700D01*
G01X7910830Y4495800D02*
G01X8064500Y4495800D01*
G01X8102600Y4533900D01*
G01X5475389Y1865452D02*
G01X5662752Y1865452D01*
G01X7910830Y4749800D02*
G01X7910830Y4813700D01*
G01X7885830Y4838700D01*
G01X7354170D01*
G01X7329170Y4813700D01*
G01Y4749800D01*
G54D71*
G01X7278370Y4699000D01*
G54D74*
G01X7696200Y520700D02*
G01X7897571Y319329D01*
G01Y292100D01*
G01X5969000Y3149600D02*
G01X5956300Y3136900D01*
G01Y2933700D01*
G01X5475389Y2246452D02*
G01X5332552Y2246452D01*
G01X5295900Y2209800D01*
G01X4749800Y1397000D02*
G01X4775200Y1397000D01*
G01X4793535Y1378665D01*
G01X4967233D01*
G01X4971402Y1374496D01*
G01X4775200Y1320800D02*
G01X4967694Y1320800D01*
G01X4971402Y1324508D01*
G01X5295900Y2101016D02*
G01X5456953Y2101016D01*
G01X5475389Y2119452D01*
G01X4660900Y1270000D02*
G01X4673600Y1257300D01*
G01X4851400Y1257300D02*
G01X4864100Y1270000D01*
G01X4966907D01*
G01X4971402Y1274496D01*
G01X4673600Y1257300D02*
G01X4851400Y1257300D01*
G01X5308600Y1993900D02*
G01X5473941Y1993900D01*
G01X5475389Y1992452D01*
G01X7719158Y1142811D02*
G01X7693569Y1168400D01*
G01X7459500D01*
G01X7275411Y1992452D02*
G01X7395411Y1992452D01*
G01X7442200Y1945663D01*
G01Y1905000D01*
G01X7810500Y1107153D02*
G01X7719158Y1015811D01*
G01X7442200Y1905000D02*
G01X7467600Y1879600D01*
G01X7653500D01*
G01X7810500Y1174234D02*
G01X7810500Y1107153D01*
G01X8419911Y761811D02*
G01X8499141Y761811D01*
G01X7275411Y2119452D02*
G01X7415352Y2119452D01*
G01X7442200Y2146300D01*
G01X8407400Y980552D02*
G01X8499141Y888811D01*
G01X8407400Y1079500D02*
G01X8407400Y980552D01*
G01X7275411Y1865452D02*
G01X7381508Y1865452D01*
G01X7442200Y1804760D01*
G01X8001000Y596900D02*
G01X7645400Y596900D01*
G01X7594600Y647700D01*
G01X5475389Y1611452D02*
G01X5700852Y1611452D01*
G01X5702300Y1612900D01*
G01X7607111Y888811D02*
G01X7719158Y888811D01*
G01X7569200Y850900D02*
G01X7607111Y888811D01*
G01X5475389Y1484452D02*
G01X5688152Y1484452D01*
G01X5689600Y1485900D01*
G01X5930913Y1334948D02*
G01X5930913Y1549387D01*
G01X7239000Y914400D02*
G01X7239000Y889000D01*
G54D63*
G01X3188564Y419100D02*
G01X3136900Y419100D01*
G01X2931300Y213500D01*
G01Y156477D01*
G54D74*
G01X6059348Y1738452D02*
G01X5475389Y1738452D01*
G01X6121400Y1676400D02*
G01X6059348Y1738452D01*
G01X6516192Y1116508D02*
G01X6516192Y988060D01*
G01X6515100Y1117600D02*
G01X6516192Y1116508D01*
G01X6591300Y998169D02*
G01X6581191Y988060D01*
G01X6591300Y1117600D02*
G01X6591300Y998169D01*
G01X5475389Y2500452D02*
G01X5662752Y2500452D01*
G01X5664200Y2501900D01*
G01X6451194Y988060D02*
G01X6451194Y1155700D01*
G01X6501994Y1206500D02*
G01X6451194Y1155700D01*
G01X7154890Y1611452D02*
G01X7275411Y1611452D01*
G01X6654800Y1206500D02*
G01X6501994Y1206500D01*
G01X6807200Y2870200D02*
G01X6807200Y2603500D01*
G01X6181894Y800127D02*
G01X6235673Y800127D01*
G01X6807213Y1193813D02*
G01X6807213Y1322248D01*
G54D75*
G01X7416800Y863600D02*
G01X7416800Y1026516D01*
G01X6516192Y383540D02*
G01X6515100Y384632D01*
G01X6646189Y383540D02*
G01X6642100Y387629D01*
G01X6807200Y3505200D02*
G01X7073900Y3505200D01*
G01X5676900Y1397000D02*
G01X5638800Y1397000D01*
G01X5829300Y1663700D02*
G01X5829600Y1663400D01*
G01X7275411Y1484452D02*
G01X7340153Y1419710D01*
G01Y1332855D01*
G54D74*
G01X6807213Y1322248D02*
G01X6819913Y1334948D01*
G54D75*
G01X7150298Y1130300D02*
G01X7340153Y1320155D01*
G54D77*
G01X4971402Y1674495D02*
G01X5103495Y1674495D01*
G01X5105400Y1676400D01*
G01X7174052Y2246452D02*
G01X7275411Y2246452D01*
G01X5074107Y1924507D02*
G01X4971402Y1924507D01*
G01X6070600Y1917700D02*
G01X6210300Y2057400D01*
G01X6350000D01*
G01X6540500Y2247900D01*
G01X6540500Y2882900D02*
G01X6540500Y2247900D01*
G01X6388100Y3022600D02*
G01X6388100Y2794000D01*
G01X6553200Y3187700D02*
G01X6388100Y3022600D01*
G01X6946913Y1334948D02*
G01X6946913Y1435087D01*
G01X6845300Y1536700D02*
G01X6845300Y1689100D01*
G01X6946913Y1435087D02*
G01X6845300Y1536700D01*
G01X6578600Y1752600D02*
G01X6565900Y1739900D01*
G01X6845300Y1689100D02*
G01X6781800Y1752600D01*
G01X6578600D01*
G01X5130800Y2870200D02*
G01X5130800Y2933700D01*
G01X5067300Y3124200D02*
G01X4971707Y3124200D01*
G01X4971402Y3124505D01*
G01X5691174Y900126D02*
G01X5781895Y900126D01*
G01X5664200Y927100D02*
G01X5691174Y900126D01*
G01X7275411Y2627452D02*
G01X7443648Y2627452D01*
G01X7454900Y2616200D01*
G01X5842000Y2159000D02*
G01X5842000Y2707846D01*
G01X5283200Y1841500D02*
G01X5283200Y1689100D01*
G01X5842000Y2159000D02*
G01X5651500Y1968500D01*
G01X5638800D01*
G01X7157871Y3008452D02*
G01X7275411Y3008452D01*
G01X7275411Y2500452D02*
G01X7151548Y2500452D01*
G01X4971402Y1774495D02*
G01X4902200Y1774495D01*
G54D74*
G01X4800600Y1841500D02*
G01X4800600Y1765300D01*
G01X4841392Y1724508D01*
G01X4971402D01*
G54D77*
G01X4902200Y1774495D02*
G01X4864100Y1812595D01*
G01Y1917700D01*
G01X4838700Y1943100D01*
G01Y1955800D01*
G01X3251200Y4597400D02*
G01X3340100Y4686300D01*
G01Y4750600D01*
G54D76*
G01X6225375Y2367356D02*
G01X6085396Y2367356D01*
G01X7275411Y3135452D02*
G01X7367448Y3135452D01*
G01X7518400Y2984500D01*
G54D72*
G01X6350729Y145169D02*
G01X6368898Y127000D01*
G54D76*
G01X6084494Y412199D02*
G01X6032246Y464447D01*
G01X5971997D01*
G01X5325008Y127000D02*
G01X5461348Y127000D01*
G01X5479517Y145169D01*
G01X6947764Y4826000D02*
G01X6896964Y4775200D01*
G01X6819900D01*
G01X7329170Y4495800D02*
G01X7175500Y4495800D01*
G01X4734890Y281610D02*
G01X4724400Y292100D01*
G54D74*
G01X7459500Y1168400D02*
G01X7416800Y1211100D01*
G01Y1708452D01*
G01X7386800Y1738452D01*
G01X7275411D01*
G54D76*
G01X7553303Y1417850D02*
G01X7553303Y1450997D01*
G01X7480300Y1524000D01*
G54D74*
G01X7653500Y1879600D02*
G01X7719158Y1813942D01*
G01X7719158Y1265576D02*
G01X7810500Y1174234D01*
G54D76*
G01X7651598Y1771802D02*
G01X7569200Y1771802D01*
G01X7658100Y1765300D02*
G01X7651598Y1771802D01*
G54D74*
G01X7861300Y736600D02*
G01X7899400Y698500D01*
G01X8356600D01*
G01X8419911Y761811D01*
G54D76*
G01X4971402Y1474495D02*
G01X4851400Y1474495D01*
G01X4971402Y1224509D02*
G01X4971402Y1174496D01*
G01X7895311Y1676400D02*
G01X7895311Y1921789D01*
G01X7823200Y1993900D01*
G54D74*
G01X7719158Y1813942D02*
G01X7719158Y1653442D01*
G01X7721600Y1651000D01*
G01X7721600Y1511300D02*
G01X7721600Y1268019D01*
G01X7719158Y1265576D01*
G01X7569200Y1631798D02*
G01X7613498Y1587500D01*
G01X7806411Y1587500D02*
G01X7895311Y1676400D01*
G01X7553303Y1277845D02*
G01X7615145Y1277845D01*
G01X7645400Y1308100D01*
G01Y1579803D01*
G01X7637703Y1587500D01*
G01X7613498Y1587500D02*
G01X7637703Y1587500D01*
G01X7806411D01*
G01X7381718Y660400D02*
G01X7394418Y647700D01*
G01X7594600D01*
G01X6083300Y2509457D02*
G01X6085396Y2507361D01*
G54D77*
G01X3949700Y1663700D02*
G01X3670300Y1384300D01*
G01X3644900D01*
G01X5482692Y580492D02*
G01X5384800Y580492D01*
G01X5486400Y584200D02*
G01X5482692Y580492D01*
G01X5295900Y996442D02*
G01X5219700Y1072642D01*
G01X7719158Y761811D02*
G01X7772211Y761811D01*
G01X7962711Y952311D02*
G01X8109149Y952311D01*
G01X7772211Y761811D02*
G01X7962711Y952311D01*
G54D78*
G01X6540500Y158598D02*
G01X6508902Y127000D01*
G01X6540500Y203200D02*
G01X6540500Y158598D01*
G54D76*
G01X3848100Y685800D02*
G01X3657600Y495300D01*
G01Y457200D01*
G54D79*
G01X4734890Y315290D02*
G01X4734890Y281610D01*
G01X4965700Y355600D02*
G01X4775200Y355600D01*
G01X4991100Y381000D02*
G01X4965700Y355600D01*
G01X4775200Y355600D02*
G01X4734890Y315290D01*
G01X8499141Y1015811D02*
G01X8499141Y1142811D01*
G01X8369111Y1142811D02*
G01X8343900Y1117600D01*
G01Y1054100D01*
G01X8331200Y1041400D01*
G01X4711700Y3035300D02*
G01X4749800Y2997200D01*
G01X4686300Y2933700D02*
G01X4749800Y2997200D01*
G01X4686300Y2400300D02*
G01X4686300Y2933700D01*
G54D76*
G01X4826000Y2362200D02*
G01X4419600Y1955800D01*
G01X4406900D01*
G54D77*
G01X5676900Y2730500D02*
G01X5753100Y2654300D01*
G01X4971402Y3524504D02*
G01X4971402Y3474491D01*
G01Y3424504D01*
G01Y3374492D01*
G01X5207000Y3445408D02*
G01X5136083Y3374492D01*
G01X5207000Y3445408D02*
G01X5207000Y3530295D01*
G01X5166995Y3570300D01*
G01Y3670300D01*
G01X5092700Y3098800D02*
G01X5067300Y3124200D01*
G01X5130800Y2933700D02*
G01X5092700Y2971800D01*
G01Y3098800D01*
G01X5207000Y3003398D02*
G01X5130800Y3079598D01*
G01X5130800Y3302000D02*
G01X5080000Y3352800D01*
G01X5079612D01*
G01X5057920Y3374492D01*
G01X5136083Y3374492D02*
G01X5057920Y3374492D01*
G01X4971402D01*
G01X5130800Y3079598D02*
G01X5130800Y3302000D01*
G01X4861916Y584200D02*
G01X4978400Y700684D01*
G01X4978400Y952500D02*
G01X5067300Y1041400D01*
G01X4978400Y700684D02*
G01X4978400Y952500D01*
G54D79*
G01X4861916Y584200D02*
G01X4734916Y457200D01*
G01X4572000D01*
G54D75*
G01X3793223Y292113D02*
G01X3843141Y292113D01*
G01X3883141Y332113D01*
G01X3883141Y390641D02*
G01X3883141Y332113D01*
G01X4178300Y685800D02*
G01X3883141Y390641D01*
G54D20*
G01X4105242Y422242D02*
G01X4267200Y584200D01*
G01X4105242Y190505D02*
G01X4105242Y422242D01*
G54D79*
G01X4572000Y457200D02*
G01X4445000Y330200D01*
G01X4864100Y50535D02*
G01X4876800Y63235D01*
G01X4891126Y113195D02*
G01X5202187Y113195D01*
G01X5215992Y127000D01*
G01X5562600Y279400D02*
G01X5458700Y279400D01*
G01X5740400Y101600D02*
G01X5562600Y279400D01*
G54D74*
G01X5803900Y1524000D02*
G01X5803900Y1473200D01*
G01X5892800Y1612900D02*
G01X5803900Y1524000D01*
G01X5967250Y1612900D02*
G01X5892800Y1612900D01*
G01X6680200Y1574800D02*
G01X6667500Y1562100D01*
G01X6731000Y1574800D02*
G01X6680200Y1574800D01*
G01X6667500Y1562100D02*
G01X6074845Y1562100D01*
G01X5973245Y1663700D01*
G01X5829300D01*
G01X6068850Y1511300D02*
G01X5967250Y1612900D01*
G01X6794500Y1536700D02*
G01X6769100Y1511300D01*
G01X6794500Y1600200D02*
G01X6794500Y1536700D01*
G01X6769100Y1511300D02*
G01X6068850Y1511300D01*
G01X4971402Y1124509D02*
G01X4971402Y1174496D01*
G01X6172200Y1803400D02*
G01X5689600Y1803400D01*
G01X6197600Y1778000D02*
G01X6172200Y1803400D01*
G54D77*
G01X6515100Y1803400D02*
G01X6388100Y1676400D01*
G54D74*
G01X6759160Y1635540D02*
G01X6794500Y1600200D01*
G54D77*
G01X5499100Y3390900D02*
G01X5321300Y3213100D01*
G01Y2903688D01*
G01X5283200Y3225800D02*
G01X5283200Y2933700D01*
G01X5481460Y3424060D02*
G01X5283200Y3225800D01*
G01X7130178Y3036146D02*
G01X7157871Y3008452D01*
G01X7130178Y3360022D02*
G01X7130178Y3036146D01*
G54D74*
G01X7099300Y1092200D02*
G01X7099300Y989940D01*
G01X7101180Y988060D01*
G01X7036181Y988060D02*
G01X7048500Y1000379D01*
G01Y1079500D01*
G01X7035800Y1092200D01*
G01X6759160Y1635540D02*
G01X6451600Y1635540D01*
G01X6428960Y1612900D01*
G01X6286500D01*
G01X6259137Y1640263D01*
G01Y1877637D01*
G01X6235700Y1854200D02*
G01X6259137Y1877637D01*
G01X6350000Y1968500D01*
G54D77*
G01X5080000Y1181100D02*
G01X5067300Y1168400D01*
G01Y1041400D01*
G54D11*
G01X5956901Y622901D02*
G01X5956901Y675133D01*
G54D77*
G01X5519560Y3424060D02*
G01X5481460Y3424060D01*
G01X5600700Y3505200D02*
G01X5519560Y3424060D01*
G01X5600700Y3390900D02*
G01X5499100Y3390900D01*
G54D11*
G01X5842000Y546100D02*
G01X5868286Y572386D01*
G01X5906386D01*
G01X5956901Y622901D01*
G54D77*
G01X5906888Y675133D02*
G01X5906888Y623688D01*
G01X5892800Y609600D01*
G01X5803900Y609600D02*
G01X5892800Y609600D01*
G54D72*
G01X6204483Y145169D02*
G01X6350729Y145169D01*
G54D77*
G01X6286500Y914400D02*
G01X6286500Y1066800D01*
G01X5207000Y3445408D02*
G01X5401208Y3445408D01*
G01X5562600Y3606800D01*
G01X5702300Y3400463D02*
G01X5462689Y3160852D01*
G01X5702300Y3619500D02*
G01X5702300Y3400463D01*
G01X5535752Y3033852D02*
G01X5462689Y3033852D01*
G01X5562600Y3606800D02*
G01X5610772Y3606800D01*
G01X5679212Y3675240D01*
G01X5725388D01*
G01X5758040Y3642588D01*
G01Y3395840D01*
G01X5638800Y3568700D02*
G01X5575300Y3568700D01*
G01X5384800Y3378200D01*
G01X5334000Y3378200D02*
G01X5384800Y3378200D01*
G01X5462689Y2398852D02*
G01X5448541Y2413000D01*
G54D74*
G01X5346700Y2413000D01*
G01X5295900Y2463800D01*
G54D77*
G01X4292600Y215900D02*
G01X4378348Y215900D01*
G01X4403743Y190505D01*
G54D79*
G01X6451600Y114300D02*
G01X6438900Y127000D01*
G01X6508902Y114300D02*
G01X6451600Y114300D01*
G01X6426200Y184302D02*
G01X6407302Y184302D01*
G01X6438900Y127000D02*
G01X6438900Y171602D01*
G01X6407302Y184302D02*
G01X6405040Y182040D01*
G01X6438900Y171602D02*
G01X6426200Y184302D01*
G54D74*
G01X6711213Y907767D02*
G01X6711213Y988060D01*
G54D77*
G01X5716655Y1134583D02*
G01X5716655Y970139D01*
G01X5736655Y950139D01*
G01X5781895D01*
G54D76*
G01X5791213Y1360348D02*
G01X5803900Y1347661D01*
G01Y1244600D01*
G01X5829300Y1219200D01*
G01X6324600Y1219200D02*
G01X6375400Y1168400D01*
G01Y1130300D01*
G01X6337300Y1092200D01*
G01Y850900D01*
G01X6324600Y1219200D02*
G01X5829300Y1219200D01*
G54D74*
G01X6386220Y905320D02*
G01X6386220Y988060D01*
G54D75*
G01X7279340Y726140D02*
G01X7416800Y863600D01*
G54D74*
G01X6264448Y771352D02*
G01X6299200Y736600D01*
G01X6235673Y800127D02*
G01X6264448Y771352D01*
G01X6646189Y988060D02*
G01X6646189Y1068489D01*
G01X6667500Y1089800D01*
G01Y1130300D01*
G01X6756400Y1130300D02*
G01X6832600Y1130300D01*
G01X6908800Y1206500D01*
G01X6972300D01*
G01X6971182Y988060D02*
G01X6972300Y989178D01*
G01Y1127775D01*
G54D75*
G01X7340153Y1320155D02*
G01X7340153Y1332855D01*
G54D76*
G01X6502400Y2946400D02*
G01X6578600Y2946400D01*
G01X6464300Y2908300D02*
G01X6502400Y2946400D01*
G01X6731000Y2908300D02*
G01X6769100Y2946400D01*
G01X6578600Y2946400D02*
G01X6616700Y2908300D01*
G54D74*
G01X6807200Y2603500D02*
G01X6794500Y2590800D01*
G54D76*
G01X6743700Y2844800D02*
G01X6731000Y2857500D01*
G01Y2908300D01*
G54D77*
G01X5842000Y2870200D02*
G01X6019800Y2870200D01*
G01X6197600Y3048000D01*
G01Y3187700D01*
G54D76*
G01X6464300Y2760760D02*
G01X6464300Y2908300D01*
G01X6616700Y2908300D02*
G01X6616700Y2773460D01*
G01X6641700Y2748460D01*
G01X6718700D01*
G01X6743700Y2773460D01*
G01Y2844800D01*
G54D77*
G01X5758040Y3395840D02*
G01X5592929Y3230729D01*
G01Y3091029D01*
G01X5535752Y3033852D01*
G01X5753100Y2654300D02*
G01X5778500Y2654300D01*
G54D74*
G01X5778500Y2921000D02*
G01X5753100Y2946400D01*
G01Y2997200D01*
G01X5816600Y2806700D02*
G01X5778500Y2844800D01*
G01Y2921000D01*
G01X5689600Y2870200D02*
G01X5778500Y2781300D01*
G01Y2755900D01*
G54D77*
G01X5646560Y3220860D02*
G01X5646560Y3118800D01*
G01X5689600Y3075760D01*
G01X5576748Y3033852D02*
G01X5626100Y2984500D01*
G01X5535752Y3033852D02*
G01X5576748Y3033852D01*
G01X5689600Y2969172D02*
G01X5613400Y2892972D01*
G01X5689600Y3075760D02*
G01X5689600Y2969172D01*
G01X5613400Y2892972D02*
G01X5613400Y2679700D01*
G01X5753100Y2540000D01*
G01X5753100Y2425700D02*
G01X5638800Y2311400D01*
G01X5753100Y2540000D02*
G01X5753100Y2425700D01*
G54D74*
G01X6680200Y3187700D02*
G01X6680200Y2806700D01*
G01X5702300Y3149600D02*
G01X5778500Y3225800D01*
G54D76*
G01X6085396Y2227351D02*
G01X6085396Y2367356D01*
G01X6085396Y2507361D02*
G01X6085396Y2367356D01*
G54D77*
G01X7302500Y3347400D02*
G01X7322500Y3327400D01*
G01X7186182Y3581400D02*
G01X7302500Y3465082D01*
G01Y3347400D01*
G01X7150100Y3581400D02*
G01X7186182Y3581400D01*
G01X7302500Y3644900D02*
G01X7327900Y3619500D01*
G01X7165428Y3644900D02*
G01X7302500Y3644900D01*
G54D74*
G01X7200900Y3467100D02*
G01X7200900Y3276600D01*
G01X7226300Y3251200D01*
G01X7391400D01*
G54D77*
G01X7593152Y2754452D02*
G01X7275411Y2754452D01*
G01X7696200Y2857500D02*
G01X7593152Y2754452D01*
G01X7322500Y3327400D02*
G01X7415606Y3327400D01*
G01X7696200Y3046806D01*
G01Y2857500D01*
G54D74*
G01X7391400Y3251200D02*
G01X7607300Y3035300D01*
G01Y2908300D01*
G01X7569200Y2870200D01*
G01X7264159D01*
G01X8510829Y292100D02*
G01X8472729Y330200D01*
G01X8267700D01*
G01X8001000Y596900D01*
G01X7580150Y214738D02*
G01X7705988Y88900D01*
G01X8559800Y88900D02*
G01X8585200Y114300D01*
G01Y596900D01*
G01X8547100Y635000D01*
G01X8051800D01*
G01X8039100Y647700D01*
G01X7833269D01*
G01X7719158Y761811D01*
G01X7705988Y88900D02*
G01X8559800Y88900D01*
G54D79*
G01X6405000Y182000D02*
G01X6383900Y182000D01*
G54D74*
G01X5943600Y165100D02*
G01X5741535Y165100D01*
G01X5589135Y317500D01*
G01X5422900D01*
G01X5336760Y231360D01*
G54D79*
G01X5458700Y279400D02*
G01X5369800Y190500D01*
G01X5289844D01*
G01X5226344Y127000D01*
G01X5215992D01*
G54D11*
G01X6184137Y367537D02*
G01X6184137Y482600D01*
G01X6158737Y508000D01*
G01X6071200D01*
G01X6006888Y572312D01*
G01X6181894Y750139D02*
G01X6209461Y750139D01*
G01X6240760Y718840D01*
G54D74*
G01X6121400Y609821D02*
G01X6106888Y624333D01*
G01Y675133D01*
G01X6056901Y675133D02*
G01X6056901Y585199D01*
G01X6094036Y548064D02*
G01X6056901Y585199D01*
G01X6094036Y548064D02*
G01X6197600Y548064D01*
G01X6240760Y591224D01*
G01Y602534D01*
G54D11*
G01X6240760Y718840D02*
G01X6240760Y602534D01*
G01X6240760Y373633D02*
G01X6240760Y591224D01*
G54D74*
G01X5969000Y1879600D02*
G01X6011426Y1879600D01*
G01X6036826Y1854200D01*
G01X6235700D01*
G54D11*
G01X6095727Y228600D02*
G01X6240760Y373633D01*
G01X5712003Y464447D02*
G01X5712003Y295097D01*
G01X5778500Y228600D01*
G01X6095727D01*
G01X5777001Y464447D02*
G01X5777001Y331699D01*
G01X5842000Y355600D02*
G01X5842000Y464447D01*
G01Y546100D01*
G01X5777001Y331699D02*
G01X5831072Y277628D01*
G01X6094228Y277628D02*
G01X6184137Y367537D01*
G01X5951278Y277628D02*
G01X5981894Y308244D01*
G01Y335568D01*
G01X5831072Y277628D02*
G01X5951278Y277628D01*
G01X6094228D01*
G54D79*
G01X6011832Y101600D02*
G01X5740400Y101600D01*
G54D77*
G01X5346700Y825500D02*
G01X5295900Y876300D01*
G01Y996442D01*
G54D11*
G01X5712003Y485597D02*
G01X5712003Y464447D01*
G01X5689600Y668960D02*
G01X5669051Y689508D01*
G01X5689600Y668960D02*
G01X5689600Y508000D01*
G01X5712003Y485597D01*
G01X5777001Y547599D02*
G01X5777001Y464447D01*
G01X5740400Y584200D02*
G01X5777001Y547599D01*
G01X5740400Y685800D02*
G01X5740400Y584200D01*
G54D79*
G01X6189632Y279400D02*
G01X6286500Y279400D01*
G01X6189632Y279400D02*
G01X6011832Y101600D01*
G01X6286500Y279400D02*
G01X6383900Y182000D01*
G54D71*
G01X7278370Y4699000D02*
G01X6972300Y4699000D01*
G01X6807200Y4533900D01*
G01X6807200Y4203700D02*
G01X6883400Y4127500D01*
G01X7329170Y4331970D02*
G01X7124700Y4127500D01*
G01X6883400D01*
G54D63*
G01X7329170Y4368800D02*
G01X7329170Y4331970D01*
G54D77*
G01X3340100Y4850600D02*
G01X3112300Y4850600D01*
G01X3111500Y4851400D01*
G54D69*
G01X7962900Y2324100D02*
G01X7861300Y2324100D01*
G54D74*
G01X6781800Y660400D02*
G01X7381718Y660400D01*
G54D79*
G01X8499141Y1142811D02*
G01X8369111Y1142811D01*
G54D76*
G01X5662752Y1865452D02*
G01X5930900Y2133600D01*
G01Y2603500D01*
G01X6032500Y2705100D01*
G01X6408640D01*
G01X6464300Y2760760D01*
G54D77*
G01X5047300Y1974494D02*
G01X4971402Y1974494D01*
G54D74*
G01X5295900Y2463800D02*
G01X5194300Y2463800D01*
G01X5168900Y2438400D01*
G54D77*
G01X5321300Y2903688D02*
G01X5118100Y2700488D01*
G01Y1968500D01*
G01X5074107Y1924507D01*
G01X5295900Y1854200D02*
G01X5283200Y1841500D01*
G01X5257800Y2387600D02*
G01X5227460Y2357260D01*
G01Y1605489D01*
G01X5270500Y1562449D01*
G01X5283200Y2933700D02*
G01X5067300Y2717800D01*
G01Y1994494D01*
G01X5047300Y1974494D01*
G54D79*
G01X4239360Y91340D02*
G01X4267200Y63500D01*
G01X4445000Y330200D02*
G01X4292600Y330200D01*
G01X4239360Y276960D01*
G01Y91340D01*
G01X4267200Y63500D02*
G01X4495800Y63500D01*
G01X4508765Y50535D01*
G01X4864100D01*
G54D77*
G01X6972300Y2044700D02*
G01X7174052Y2246452D01*
G54D76*
G01X6883400Y3136900D02*
G01X6883400Y2971400D01*
G01X6858400Y2946400D02*
G01X6769100Y2946400D01*
G01X6883400Y2971400D02*
G01X6858400Y2946400D01*
G54D74*
G01X6921500Y2857500D02*
G01X6959600Y2895600D01*
G01Y3218440D01*
G01X7023100Y3276600D02*
G01X7023100Y2218390D01*
G54D77*
G01X7082971Y2569029D02*
G01X7082971Y3292929D01*
G01X7151548Y2500452D02*
G01X7082971Y2569029D01*
G54D75*
G01X7073900Y3505200D02*
G01X7124700Y3454400D01*
G54D74*
G01X6083300Y3556000D02*
G01X6324600Y3556000D01*
G54D77*
G01X6565900Y3657600D02*
G01X7073900Y3657600D01*
G01X7150100Y3581400D01*
G54D74*
G01X6324600Y3556000D02*
G01X6350000Y3581400D01*
G01X7086600D01*
G01X7200900Y3467100D01*
G54D77*
G01X7089228Y3721100D02*
G01X7165428Y3644900D01*
G01X6197600Y3644900D02*
G01X6299200Y3644900D01*
G01X6375400Y3721100D01*
G01X7089228D01*
G01X6108700Y3479800D02*
G01X6146800Y3441700D01*
G01X7048500D01*
G01X7130178Y3360022D01*
G01X7082971Y3292929D02*
G01X6985000Y3390900D01*
G01X5816600D01*
G01X5646560Y3220860D01*
G54D74*
G01X6248400Y3340100D02*
G01X6959600Y3340100D01*
G01X7023100Y3276600D01*
G01X6134100Y3225800D02*
G01X6248400Y3340100D01*
G01X5778500Y3225800D02*
G01X6134100Y3225800D01*
G01X6045200Y2806700D02*
G01X5816600Y2806700D01*
G01X6959600Y3218440D02*
G01X6914140Y3263900D01*
G01X6502400D01*
G01X6045200Y2806700D01*
G01X7023100Y2218390D02*
G01X6908800Y2104090D01*
G01X6921500Y2222500D02*
G01X6921500Y2857500D01*
G01X7124700Y1581263D02*
G01X7154890Y1611452D01*
G01X7035800Y1092200D02*
G01X7035800Y1257300D01*
G01X7011953Y1281147D01*
G01X7086600Y1168400D02*
G01X7086600Y1104900D01*
G01X7099300Y1092200D01*
G01X7061200Y1320800D02*
G01X7091200Y1290800D01*
G01Y1173000D01*
G01X7086600Y1168400D01*
G54D77*
G01X6794500Y2070100D02*
G01X6769100Y2044700D01*
G01Y1823400D01*
G01X6749100Y1803400D01*
G01X6515100D01*
G54D74*
G01X6888000Y1862300D02*
G01X6855240Y1895060D01*
G01Y2156240D01*
G01X6921500Y2222500D01*
G01X4737100Y3543300D02*
G01X4806174Y3474226D01*
G01Y3294874D01*
G01X4749800Y3238500D01*
G54D77*
G01X4406900Y3683000D02*
G01X4686300Y3403600D01*
G01X4572000Y152400D02*
G01X4611802Y112598D01*
G01X4637603D01*
G01X4836599Y112598D02*
G01X4876800Y72398D01*
G01Y63235D01*
G54D79*
G01X4876800Y72398D02*
G01X4876800Y98870D01*
G01X4891126Y113195D01*
G54D74*
G01X5336760Y231360D02*
G01X4919273Y231360D01*
G01X4905515Y217602D01*
G01X4905515Y217602D02*
G01X4836599Y217602D01*
G54D79*
G01X5279326Y546100D02*
G01X5215826Y482600D01*
G01X5006100D01*
G01X4991100Y467600D01*
G01Y381000D01*
G54D74*
G01X8293100Y2857500D02*
G01X8153400Y2717800D01*
G01X8293100Y2995371D02*
G01X8293100Y2857500D01*
G54D76*
G01X8496300Y3505200D02*
G01X8496300Y3403600D01*
G01X8394700Y3302000D01*
G01X5511800Y850900D02*
G01X5511800Y894182D01*
G01X5557418Y939800D01*
G01X5562600Y934618D01*
G54D74*
G01X6264448Y771352D02*
G01X6268236Y775140D01*
G01X7125140D01*
G01X7239000Y889000D01*
G54D11*
G01X5664200Y762000D02*
G01X5740400Y685800D01*
G01X5295900Y762000D02*
G01X5664200Y762000D01*
G01X5562600Y1021182D02*
G01X5529682Y1021182D01*
G01X4749800Y584200D02*
G01X4762500Y596900D01*
G01Y774700D01*
G01X4724400Y812800D01*
G01X4406900D01*
G01X4381500Y3886200D02*
G01X5753100Y3886200D01*
G01X6223000Y4356100D01*
G01X6793922D01*
G01X6807200Y4369378D01*
G54D71*
G01X6807200Y4533900D02*
G01X6807200Y4369378D01*
G01Y4203700D01*
G54D11*
G01X4406900Y812800D02*
G01X4267200Y952500D01*
G01Y3771900D01*
G01X4381500Y3886200D01*
G01X5586499Y689508D02*
G01X5586499Y595399D01*
G01X5473700Y482600D01*
G01X5669051Y689508D02*
G01X5586499Y689508D01*
G01X5384800D01*
G01X5415303Y482600D02*
G01X5384800Y452097D01*
G01X5415303Y482600D02*
G01X5473700Y482600D01*
G01X4660900Y558800D02*
G01X4508500Y711200D01*
G54D63*
G01X6680200Y3835400D02*
G01X7772400Y3835400D01*
G01X8102600Y3505200D01*
G01X8257540D01*
G01X8293100Y3469640D01*
G54D11*
G01X4508500Y711200D02*
G01X4267200Y711200D01*
G01X4089400Y889000D02*
G01X4267200Y711200D01*
G01X4089400Y4140200D02*
G01X4089400Y889000D01*
G54D80*
G01X4191000Y901700D02*
G01X4330700Y762000D01*
G01X4622800D01*
G01X4699000Y685800D01*
G54D77*
G01X7467600Y215900D02*
G01X7578988Y215900D01*
G01X7580150Y214738D01*
G01X5080000Y1587500D02*
G01X5080000Y1559216D01*
G01X5045292Y1524508D01*
G01X4971402D01*
G54D74*
G01X5168900Y2438400D02*
G01X5168900Y1587500D01*
G01X5039181Y1424508D02*
G01X4971402Y1424508D01*
G01X5039181Y1424508D02*
G01X5067300Y1452627D01*
G01Y1485900D01*
G01X5168900Y1587500D02*
G01X5067300Y1485900D01*
G54D77*
G01X5118100Y1384300D02*
G01X5118100Y1473200D01*
G01X5105400Y1371600D02*
G01X5118100Y1384300D01*
G01X5118100Y1473200D02*
G01X5207349Y1562449D01*
G01X5270500D01*
G01X4836599Y112598D02*
G01X4822198Y127000D01*
G01X4775200D01*
G01Y254000D01*
G01X4826000Y304800D01*
G01X5086858D01*
G01X5143500Y361442D01*
G01X5279326Y546100D02*
G01X5145468Y679958D01*
G01X5143500D01*
G54D75*
G01X5435600Y1003300D02*
G01X5461000Y1028700D01*
G01Y1219200D01*
G01X5638800Y1397000D01*
G54D11*
G01X5529682Y1021182D02*
G01X5499100Y990600D01*
G01Y952500D01*
G01X5448300Y901700D01*
G54D77*
G01X5384800Y689508D02*
G01X5279492Y689508D01*
G01X2082800Y527558D02*
G01X2496058Y527558D01*
G01X2933700Y965200D01*
G01X3683000D01*
G01X2082800Y209042D02*
G01X2082800Y368300D01*
G01X5232400Y736600D02*
G01X5232400Y800100D01*
G01X5168900Y863600D01*
G01X5092700D01*
G01X5054600Y901700D01*
G01Y965200D01*
G01X5279492Y689508D02*
G01X5232400Y736600D01*
G01X5219700Y1072642D02*
G01X5219700Y1206500D01*
G01X5034509Y1224509D02*
G01X4971402Y1224509D01*
G01X5219700Y1206500D02*
G01X5172633Y1253567D01*
G01X5063567D01*
G01X5034509Y1224509D01*
G01X5156200Y1155700D02*
G01X5156200Y1181100D01*
G01X5054600Y965200D02*
G01X5118100Y1028700D01*
G01Y1117600D01*
G01X5156200Y1155700D01*
G01X5257800Y1353058D02*
G01X5384800Y1226058D01*
G01Y1219200D01*
G54D76*
G01X7950200Y3302000D02*
G01X8394700Y3302000D01*
G01X7890413Y3242213D02*
G01X7950200Y3302000D01*
G01X7910830Y4368800D02*
G01X7910830Y4175633D01*
G01X7849997Y4114800D01*
G54D77*
G01X2451100Y4051300D02*
G01X2451100Y4521200D01*
G01X2451100Y4051300D02*
G01X2387600Y3987800D01*
G01X2451100Y4521200D02*
G01X2527300Y4597400D01*
G01X3251200Y4597400D02*
G01X2527300Y4597400D01*
G01X2387600Y3987800D02*
G01X2273300Y3987800D01*
G01X2247900Y3962400D01*
G01X2832100Y1333500D02*
G01X3594100Y1333500D01*
G01X3644900Y1384300D01*
G01X3086100Y1409700D02*
G01X3543300Y1409700D01*
G01X3594100Y1460500D01*
G01Y1727200D01*
G01X3619500Y1752600D01*
G01X3683000D01*
G01X3695700Y1765300D01*
G01X3238500Y1955800D02*
G01X3340100Y1854200D01*
G01Y1689100D01*
G54D74*
G01X4864100Y3145439D02*
G01X4639661Y3145439D01*
G01X4864100Y3492500D02*
G01X4864100Y3145439D01*
G01Y3009900D01*
G01X4343400Y3441700D02*
G01X4343400Y3454400D01*
G01X4343400Y3441700D02*
G01X4639661Y3145439D01*
G01X3530600Y3708400D02*
G01X3365500Y3873500D01*
G01X3848100Y3708400D02*
G01X3530600Y3708400D01*
G54D80*
G01X3073400Y4267200D02*
G01X4089400Y4267200D01*
G01X4191000Y4165600D01*
G01Y901700D01*
G54D77*
G01X4330700Y3238500D02*
G01X4381500Y3238500D01*
G01X4508500Y3111500D01*
G01X4330700Y3086100D02*
G01X4432300Y3086100D01*
G01X4533900Y2984500D01*
G01X3848100Y3556000D02*
G01X3556000Y3556000D01*
G01X3835400Y3454400D02*
G01X3606800Y3454400D01*
G01X3848100Y3441700D02*
G01X3835400Y3454400D01*
G54D74*
G01X6319561Y439785D02*
G01X6319561Y335239D01*
G01X6413500Y241300D01*
G54D77*
G01X6540500Y203200D02*
G01X6581191Y243891D01*
G01Y411925D01*
G54D75*
G01X6616700Y546100D02*
G01X6578600Y546100D01*
G01X6642100Y520700D02*
G01X6616700Y546100D01*
G01X6642100Y387629D02*
G01X6642100Y520700D01*
G01X6646189Y326111D02*
G01X6646189Y383540D01*
G01X6763035Y254000D02*
G01X6718300Y254000D01*
G01X6646189Y326111D01*
G01X6763035Y254000D02*
G01X6788435Y279400D01*
G01X7216987Y279400D02*
G01X7281649Y214738D01*
G54D70*
G01X7281649Y413134D02*
G01X7281649Y214738D01*
G01Y204266D01*
G54D75*
G01X6788435Y279400D02*
G01X7216987Y279400D01*
G54D74*
G01X6972300Y850900D02*
G01X6768080Y850900D01*
G01X6711213Y907767D01*
G01X6680200Y838200D02*
G01X6453340Y838200D01*
G01X6386220Y905320D01*
G54D72*
G01X6819900Y190500D02*
G01X6845300Y215900D01*
G01X6991858D01*
G01X7042658Y165100D01*
G54D75*
G01X6515100Y384632D02*
G01X6515100Y529085D01*
G01X6451600Y592585D01*
G01Y692877D01*
G01X6484863Y726140D01*
G01X7279340D01*
G54D79*
G01X7086600Y596900D02*
G01X7166204Y517296D01*
G01Y411925D01*
G01X6921500Y596900D02*
G01X7010400Y596900D01*
G01X7099300Y508000D01*
G01Y413830D01*
G01X7101205Y411925D01*
G01X6832600Y596900D02*
G01X6896100Y533400D01*
G01X7010400D01*
G01X7036206Y507594D01*
G01Y411925D01*
G01X7166204Y985076D02*
G01X7166204Y1044804D01*
G01X7302500Y1181100D01*
G01X7357741D01*
G01X7366000Y1172841D01*
G01X4356100Y2844800D02*
G01X4525549Y2844800D01*
G01X4561403Y2808946D01*
G54D77*
G01X4686300Y3403600D02*
G01X4686300Y3352800D01*
G54D74*
G01X7226300Y1384300D02*
G01X7162800Y1384300D01*
G01X7124700Y1422400D01*
G01Y1581263D01*
G01X6908800Y2104090D02*
G01X6908800Y2022301D01*
G01X7061200Y1869901D01*
G01Y1320800D01*
G01X7011953Y1281147D02*
G01X7011953Y1522447D01*
G01X6888000Y1646400D01*
G01Y1862300D01*
G54D77*
G01X6299200Y1143000D02*
G01X6279200Y1163000D01*
G01X5745072D01*
G01X5716655Y1134583D01*
G01X7569200Y1771802D02*
G01X7480300Y1682902D01*
G01Y1524000D01*
G04 Track End*

M02*
