G04 Layer: TopSolderMaskLayer*
G04 EasyEDA Pro v2.1.49.573a4102.674264, 2024-03-06 21:11:32*
G04 Gerber Generator version 0.3*
G04 Scale: 100 percent, Rotated: No, Reflected: No*
G04 Dimensions in millimeters*
G04 Leading zeros omitted, absolute positions, 3 integers and 5 decimals*
G04 Panelize: V-CUT, Column: 2, Row: 2, Board Size: 105.286mm x 50.038mm, Panelized Board Size: 174.323mm x 101.42mm, Panelized Method: Only Board Outline*
%FSLAX35Y35*%
%MOMM*%
%AMRoundRect*1,1,$1,$2,$3*1,1,$1,$4,$5*1,1,$1,0-$2,0-$3*1,1,$1,0-$4,0-$5*20,1,$1,$2,$3,$4,$5,0*20,1,$1,$4,$5,0-$2,0-$3,0*20,1,$1,0-$2,0-$3,0-$4,0-$5,0*20,1,$1,0-$4,0-$5,$2,$3,0*4,1,4,$2,$3,$4,$5,0-$2,0-$3,0-$4,0-$5,$2,$3,0*%
%AMOval*1,1,$1,$2,$3*1,1,$1,$4,$5*20,1,$1,$2,$3,$4,$5,0*%
%ADD10C,2.0*%
%ADD11RoundRect,0.08002X0.61X0.16X0.61X-0.16*%
%ADD12RoundRect,0.09602X1.552X1.152X1.552X-1.152*%
%ADD13O,0.38003X0.90002*%
%ADD14O,0.90002X0.38003*%
%ADD15RoundRect,0.09658X-1.35172X1.35172X1.35172X1.35172*%
%ADD16RoundRect,0.0850X0.20856X0.80855X0.20856X-0.80855*%
%ADD17RoundRect,0.08449X0.20856X0.80855X0.20856X-0.80855*%
%ADD18O,1.4016X1.9016*%
%ADD19C,1.4016*%
%ADD20C,1.7016*%
%ADD21RoundRect,0.09288X-1.23936X0.49437X1.23936X0.49437*%
%ADD22RoundRect,0.09774X-1.23693X1.80193X1.23693X1.80193*%
%ADD23RoundRect,0.08875X0.60642X0.30643X0.60642X-0.30643*%
%ADD24RoundRect,0.09763X-1.20198X-1.65198X-1.20198X1.65198*%
%ADD25RoundRect,0.09549X0.74556X-0.81306X-0.74556X-0.81306*%
%ADD26RoundRect,0.09465X1.35347X0.64474X1.35347X-0.64474*%
%ADD27RoundRect,0.09465X-0.64474X1.35347X0.64474X1.35347*%
%ADD28RoundRect,0.09725X-1.70139X-2.15139X-1.70139X2.15139*%
%ADD29RoundRect,0.08752X0.50625X0.30625X0.50625X-0.30625*%
%ADD30RoundRect,0.08752X-0.50625X-0.30625X-0.50625X0.30625*%
%ADD31RoundRect,0.08981X0.3419X0.7934X0.3419X-0.7934*%
%ADD32RoundRect,0.09138X-0.40835X0.43712X0.40835X0.43712*%
%ADD33RoundRect,0.09138X0.40835X-0.43712X-0.40835X-0.43712*%
%ADD34RoundRect,0.08771X0.27695X0.40199X0.27695X-0.40199*%
%ADD35RoundRect,0.08981X0.7934X-0.3419X-0.7934X-0.3419*%
%ADD36RoundRect,0.09265X1.05447X0.47948X1.05447X-0.47948*%
%ADD37RoundRect,0.09265X0.47948X1.05447X0.47948X-1.05447*%
%ADD38RoundRect,0.09224X-0.45468X-0.45468X-0.45468X0.45468*%
%ADD39RoundRect,0.09778X-1.75191X1.25191X1.75191X1.25191*%
%ADD40RoundRect,0.09691X-1.25234X1.00234X1.25234X1.00234*%
%ADD41RoundRect,0.08771X-0.27695X-0.40199X-0.27695X0.40199*%
%ADD42RoundRect,0.09131X-0.50514X-0.40514X-0.50514X0.40514*%
%ADD43RoundRect,0.08875X0.30643X0.30643X0.30643X-0.30643*%
%ADD44RoundRect,0.09549X-0.74556X0.81306X0.74556X0.81306*%
%ADD45RoundRect,0.09131X0.45514X0.40514X0.45514X-0.40514*%
%ADD46RoundRect,0.09138X-0.43712X-0.40835X-0.43712X0.40835*%
%ADD47RoundRect,0.09465X-0.64474X1.73147X0.64474X1.73147*%
%ADD48RoundRect,0.09131X-0.40514X0.45514X0.40514X0.45514*%
%ADD49RoundRect,0.08771X0.40199X-0.27695X-0.40199X-0.27695*%
%ADD50RoundRect,0.08771X-0.27695X-0.28977X-0.27695X0.28977*%
%ADD51RoundRect,0.09618X-0.85271X-1.10271X-0.85271X1.10271*%
%ADD52RoundRect,0.09549X0.86705X0.74556X0.86705X-0.74556*%
%ADD53RoundRect,0.09549X-0.86705X-0.74556X-0.86705X0.74556*%
%ADD54RoundRect,0.09495X0.70833X-0.67833X-0.70833X-0.67833*%
%ADD55RoundRect,0.09495X-0.67833X-0.70833X-0.67833X0.70833*%
%ADD56RoundRect,0.08771X-0.40199X0.27695X0.40199X0.27695*%
%ADD57Oval,0.4446X0.0X-0.69425X0.0X0.69425*%
G75*


G04 Panelize Start*
G54D10*
G01X1692427Y1012827D03*
G01X15739827Y1512827D03*
G01X1692427Y9129119D03*
G01X15739827Y8629119D03*
G04 Panelize End*

G04 Pad Start*
G54D11*
G01X4971402Y3574491D03*
G01X4971402Y3524504D03*
G01X4971402Y3474491D03*
G01X4971402Y3424504D03*
G01X4971402Y3374492D03*
G01X4971402Y3324504D03*
G01X4971402Y3274492D03*
G01X4971402Y3224505D03*
G01X4971402Y3174492D03*
G01X4971402Y3124505D03*
G01X4971402Y3074492D03*
G01X4971402Y3024505D03*
G01X4971402Y2974492D03*
G01X4971402Y2924505D03*
G01X4971402Y2874493D03*
G01X4971402Y2824505D03*
G01X4971402Y2774493D03*
G01X4971402Y2724506D03*
G01X4971402Y2674493D03*
G01X4971402Y2624506D03*
G01X4971402Y2574493D03*
G01X4971402Y2524506D03*
G01X4971402Y2474493D03*
G01X4971402Y2424506D03*
G01X4971402Y2374494D03*
G01X4971402Y2324506D03*
G01X4971402Y2274494D03*
G01X4971402Y2224507D03*
G01X4971402Y2174494D03*
G01X4971402Y2124507D03*
G01X4971402Y2074494D03*
G01X4971402Y2024507D03*
G01X4971402Y1974494D03*
G01X4971402Y1924507D03*
G01X4971402Y1874495D03*
G01X4971402Y1824507D03*
G01X4971402Y1774495D03*
G01X4971402Y1724508D03*
G01X4971402Y1674495D03*
G01X4971402Y1624508D03*
G01X4971402Y1574495D03*
G01X4971402Y1524508D03*
G01X4971402Y1474495D03*
G01X4971402Y1424508D03*
G01X4971402Y1374496D03*
G01X4971402Y1324508D03*
G01X4971402Y1274496D03*
G01X4971402Y1224509D03*
G01X4971402Y1174496D03*
G01X4971402Y1124509D03*
G54D12*
G01X4731398Y3714496D03*
G01X4731398Y984504D03*
G54D13*
G01X5856901Y675133D03*
G01X5906888Y675133D03*
G01X5956901Y675133D03*
G01X6006888Y675133D03*
G01X6056901Y675133D03*
G01X6106888Y675133D03*
G54D14*
G01X6181894Y750139D03*
G01X6181894Y800127D03*
G01X6181894Y850139D03*
G01X6181894Y900126D03*
G01X6181894Y950139D03*
G01X6181894Y1000126D03*
G54D13*
G01X6106888Y1075132D03*
G01X6056901Y1075132D03*
G01X6006888Y1075132D03*
G01X5956901Y1075132D03*
G01X5906888Y1075132D03*
G01X5857688Y1075132D03*
G54D14*
G01X5781895Y1000126D03*
G01X5781895Y950139D03*
G01X5781895Y900126D03*
G01X5781895Y850139D03*
G01X5781895Y800127D03*
G01X5781895Y750139D03*
G54D15*
G01X5983139Y875133D03*
G54D17*
G01X5971997Y464447D03*
G01X5906999Y464447D03*
G01X5842000Y464447D03*
G01X5777001Y464447D03*
G01X5712003Y464447D03*
G54D18*
G01X6204483Y145169D03*
G01X5479517Y145169D03*
G54D19*
G01X5599506Y412173D03*
G01X6084494Y412199D03*
G54D20*
G01X7861300Y2324100D03*
G01X7861300Y2578100D03*
G54D21*
G01X8462289Y1446403D03*
G01X8462289Y1676400D03*
G01X8462289Y1906397D03*
G54D22*
G01X7895311Y1676400D03*
G54D23*
G01X7329170Y4749800D03*
G01X7329170Y4622800D03*
G01X7329170Y4495800D03*
G01X7329170Y4368800D03*
G01X7910830Y4368800D03*
G01X7910830Y4495800D03*
G01X7910830Y4622800D03*
G01X7910830Y4749800D03*
G54D24*
G01X7620000Y4559300D03*
G54D25*
G01X7580150Y214738D03*
G01X7281649Y214738D03*
G54D26*
G01X7416800Y548284D03*
G01X7416800Y1026516D03*
G54D27*
G01X4861916Y520700D03*
G01X4383684Y520700D03*
G54D25*
G01X4403743Y190505D03*
G01X4105242Y190505D03*
G54D28*
G01X8109149Y952311D03*
G54D29*
G01X7719158Y888811D03*
G01X7719158Y1015811D03*
G01X7719158Y1142811D03*
G01X7719158Y761811D03*
G54D30*
G01X8499141Y1142811D03*
G01X8499141Y761811D03*
G01X8499141Y888811D03*
G01X8499141Y1015811D03*
G54D31*
G01X2631300Y156477D03*
G01X2931300Y156477D03*
G36*
G01X2819286Y77714D02*
G02X2814284Y72713I-5001J0D01*
G01X2748285D01*
G02X2743284Y77714I0J5001D01*
G01Y243465D01*
G01X2739230Y244396D01*
G01X2738088Y244810D01*
G01X2734116Y246824D01*
G01X2733911Y246934D01*
G01X2730035Y249131D01*
G01X2729834Y249251D01*
G01X2726067Y251626D01*
G01X2725872Y251756D01*
G01X2722219Y254306D01*
G01X2722030Y254445D01*
G01X2718502Y257163D01*
G01X2718319Y257311D01*
G01X2714923Y260191D01*
G01X2714748Y260347D01*
G01X2711489Y263385D01*
G01X2711322Y263548D01*
G01X2708210Y266733D01*
G01X2708051Y266904D01*
G01X2705089Y270234D01*
G01X2704937Y270414D01*
G01X2702138Y273876D01*
G01X2701994Y274062D01*
G01X2699360Y277654D01*
G01X2699227Y277845D01*
G01X2696763Y281556D01*
G01X2696638Y281754D01*
G01X2694350Y285576D01*
G01X2694234Y285781D01*
G01X2692128Y289705D01*
G01X2692021Y289917D01*
G01X2690103Y293937D01*
G01X2690009Y294148D01*
G01X2688279Y298253D01*
G01X2688193Y298472D01*
G01X2686658Y302653D01*
G01X2686583Y302876D01*
G01X2685246Y307125D01*
G01X2685182Y307350D01*
G01X2684046Y311655D01*
G01X2683992Y311881D01*
G01X2683057Y316237D01*
G01X2683013Y316471D01*
G01X2682287Y320865D01*
G01X2682254Y321096D01*
G01X2681733Y325521D01*
G01X2681711Y325755D01*
G01X2681399Y330197D01*
G01X2681388Y330428D01*
G01X2681281Y334881D01*
G01X2681280Y335001D01*
G01Y520421D01*
G01X2681281Y520540D01*
G01X2681388Y524993D01*
G01X2681399Y525224D01*
G01X2681711Y529667D01*
G01X2681733Y529900D01*
G01X2682254Y534325D01*
G01X2682287Y534556D01*
G01X2683013Y538950D01*
G01X2683057Y539184D01*
G01X2683992Y543540D01*
G01X2684046Y543766D01*
G01X2685182Y548071D01*
G01X2685246Y548296D01*
G01X2686583Y552545D01*
G01X2686658Y552768D01*
G01X2688193Y556949D01*
G01X2688279Y557168D01*
G01X2690009Y561273D01*
G01X2690103Y561484D01*
G01X2692021Y565505D01*
G01X2692128Y565716D01*
G01X2694234Y569641D01*
G01X2694350Y569845D01*
G01X2696638Y573668D01*
G01X2696763Y573865D01*
G01X2699227Y577576D01*
G01X2699360Y577767D01*
G01X2701994Y581359D01*
G01X2702138Y581546D01*
G01X2704937Y585008D01*
G01X2705089Y585187D01*
G01X2708051Y588517D01*
G01X2708210Y588688D01*
G01X2711322Y591873D01*
G01X2711489Y592037D01*
G01X2714748Y595074D01*
G01X2714923Y595230D01*
G01X2718319Y598111D01*
G01X2718502Y598258D01*
G01Y598259D01*
G01X2722030Y600976D01*
G01X2722219Y601115D01*
G01X2725872Y603665D01*
G01X2726067Y603795D01*
G01X2729834Y606170D01*
G01X2730035Y606290D01*
G01X2733911Y608487D01*
G01X2734116Y608597D01*
G01X2738088Y610611D01*
G01X2738303Y610714D01*
G01X2742367Y612537D01*
G01X2742580Y612627D01*
G01X2746723Y614260D01*
G01X2746945Y614342D01*
G01X2751162Y615777D01*
G01X2751385Y615847D01*
G01X2755665Y617084D01*
G01X2755893Y617144D01*
G01X2760226Y618178D01*
G01X2760453Y618227D01*
G01X2764827Y619058D01*
G01X2765059Y619096D01*
G01X2769471Y619721D01*
G01X2769705Y619748D01*
G01X2774139Y620165D01*
G01X2774373Y620181D01*
G01X2778821Y620390D01*
G01X2779055Y620395D01*
G01X2783510D01*
G01X2783744Y620390D01*
G01X2788191Y620181D01*
G01X2788425Y620165D01*
G01X2792860Y619748D01*
G01X2793093Y619721D01*
G01X2797505Y619096D01*
G01X2797737Y619058D01*
G01X2802111Y618227D01*
G01X2802339Y618178D01*
G01X2806672Y617144D01*
G01X2806900Y617084D01*
G01X2811180Y615847D01*
G01X2811403Y615777D01*
G01X2815619Y614342D01*
G01X2815842Y614260D01*
G01X2819985Y612627D01*
G01X2820198Y612537D01*
G01X2824262Y610714D01*
G01X2824476Y610611D01*
G01X2828449Y608597D01*
G01X2828653Y608487D01*
G01X2832529Y606290D01*
G01X2832730Y606170D01*
G01X2836497Y603795D01*
G01X2836693Y603665D01*
G01X2840345Y601115D01*
G01X2840534Y600976D01*
G01X2844062Y598259D01*
G01Y598258D01*
G01X2844245Y598111D01*
G01X2847641Y595230D01*
G01X2847817Y595074D01*
G01X2851075Y592037D01*
G01X2851243Y591873D01*
G01X2854354Y588688D01*
G01X2854514Y588517D01*
G01X2857475Y585187D01*
G01X2857627Y585008D01*
G01X2860426Y581546D01*
G01X2860570Y581359D01*
G01X2863204Y577767D01*
G01X2863338Y577576D01*
G01X2865802Y573865D01*
G01X2865926Y573668D01*
G01X2868215Y569845D01*
G01X2868331Y569641D01*
G01X2870436Y565716D01*
G01X2870543Y565505D01*
G01X2872461Y561484D01*
G01X2872556Y561273D01*
G01X2874286Y557168D01*
G01X2874372Y556949D01*
G01X2875906Y552768D01*
G01X2875982Y552545D01*
G01X2877318Y548296D01*
G01X2877383Y548071D01*
G01X2878518Y543766D01*
G01X2878572Y543540D01*
G01X2879507Y539184D01*
G01X2879551Y538950D01*
G01X2880278Y534556D01*
G01X2880310Y534325D01*
G01X2880831Y529900D01*
G01X2880853Y529667D01*
G01X2881166Y525224D01*
G01X2881176Y524993D01*
G01X2881283Y520540D01*
G01X2881285Y520421D01*
G01Y335001D01*
G01X2881283Y334881D01*
G01X2881176Y330428D01*
G01X2881166Y330197D01*
G01X2880853Y325755D01*
G01X2880831Y325521D01*
G01X2880310Y321096D01*
G01X2880278Y320865D01*
G01X2879551Y316471D01*
G01X2879507Y316237D01*
G01X2878572Y311881D01*
G01X2878518Y311655D01*
G01X2877383Y307350D01*
G01X2877318Y307125D01*
G01X2875982Y302876D01*
G01X2875906Y302653D01*
G01X2874372Y298472D01*
G01X2874286Y298253D01*
G01X2872556Y294148D01*
G01X2872461Y293937D01*
G01X2870543Y289917D01*
G01X2870436Y289705D01*
G01X2868331Y285781D01*
G01X2868215Y285576D01*
G01X2865926Y281754D01*
G01X2865802Y281556D01*
G01X2863338Y277845D01*
G01X2863204Y277654D01*
G01X2860570Y274062D01*
G01X2860426Y273876D01*
G01X2857627Y270414D01*
G01X2857475Y270234D01*
G01X2854514Y266904D01*
G01X2854354Y266733D01*
G01X2851243Y263548D01*
G01X2851075Y263385D01*
G01X2847817Y260347D01*
G01X2847641Y260191D01*
G01X2844245Y257311D01*
G01X2844062Y257163D01*
G01X2840534Y254445D01*
G01X2840345Y254306D01*
G01X2836693Y251756D01*
G01X2836497Y251626D01*
G01X2832730Y249251D01*
G01X2832529Y249131D01*
G01X2828653Y246934D01*
G01X2828449Y246824D01*
G01X2824476Y244810D01*
G01X2823335Y244396D01*
G01X2819286Y243465D01*
G01Y77714D01*
G37*
G54D32*
G01X3339236Y419100D03*
G01X3188564Y419100D03*
G54D33*
G01X3150464Y139700D03*
G01X3301136Y139700D03*
G54D34*
G01X5384800Y580492D03*
G01X5384800Y689508D03*
G54D35*
G01X3521977Y442100D03*
G01X3521977Y142100D03*
G36*
G01X3890493Y192224D02*
G01X3886040Y192117D01*
G01X3885921Y192115D01*
G01X3700501D01*
G01X3700381Y192117D01*
G01X3695928Y192224D01*
G01X3695697Y192234D01*
G01X3691255Y192547D01*
G01X3691021Y192569D01*
G01X3686596Y193090D01*
G01X3686365Y193122D01*
G01X3681971Y193849D01*
G01X3681737Y193893D01*
G01X3677381Y194828D01*
G01X3677155Y194882D01*
G01X3672850Y196017D01*
G01X3672625Y196082D01*
G01X3668376Y197418D01*
G01X3668153Y197494D01*
G01X3663972Y199028D01*
G01X3663753Y199114D01*
G01X3659648Y200844D01*
G01X3659437Y200939D01*
G01X3655417Y202857D01*
G01X3655205Y202964D01*
G01X3651281Y205069D01*
G01X3651076Y205185D01*
G01X3647254Y207474D01*
G01X3647056Y207598D01*
G01X3643345Y210062D01*
G01X3643154Y210196D01*
G01X3639562Y212830D01*
G01X3639376Y212974D01*
G01X3635914Y215773D01*
G01X3635734Y215925D01*
G01X3632404Y218886D01*
G01X3632233Y219046D01*
G01X3629048Y222157D01*
G01X3628885Y222325D01*
G01X3625847Y225583D01*
G01X3625691Y225759D01*
G01X3622811Y229155D01*
G01X3622663Y229338D01*
G01X3619945Y232866D01*
G01X3619806Y233055D01*
G01X3617256Y236707D01*
G01X3617126Y236903D01*
G01X3614751Y240670D01*
G01X3614631Y240871D01*
G01X3612434Y244747D01*
G01X3612324Y244951D01*
G01X3610310Y248924D01*
G01X3609896Y250065D01*
G01X3608965Y254114D01*
G01X3443214D01*
G02X3438213Y259116I0J5001D01*
G01Y325115D01*
G02X3443214Y330116I5001J0D01*
G01X3608965D01*
G01X3609896Y334170D01*
G01X3610310Y335312D01*
G01X3612324Y339284D01*
G01X3612434Y339489D01*
G01X3614631Y343365D01*
G01X3614751Y343566D01*
G01X3617126Y347333D01*
G01X3617256Y347528D01*
G01X3619806Y351181D01*
G01X3619945Y351370D01*
G01X3622663Y354898D01*
G01X3622811Y355081D01*
G01X3625691Y358477D01*
G01X3625847Y358652D01*
G01X3628885Y361911D01*
G01X3629048Y362078D01*
G01X3632233Y365190D01*
G01X3632404Y365349D01*
G01X3635734Y368311D01*
G01X3635914Y368463D01*
G01X3639376Y371262D01*
G01X3639562Y371406D01*
G01X3643154Y374040D01*
G01X3643345Y374173D01*
G01X3647056Y376637D01*
G01X3647254Y376762D01*
G01X3651076Y379050D01*
G01X3651281Y379166D01*
G01X3655205Y381272D01*
G01X3655417Y381379D01*
G01X3659437Y383297D01*
G01X3659648Y383391D01*
G01X3663753Y385121D01*
G01X3663972Y385207D01*
G01X3668153Y386742D01*
G01X3668376Y386817D01*
G01X3672625Y388154D01*
G01X3672850Y388218D01*
G01X3677155Y389354D01*
G01X3677381Y389408D01*
G01X3681737Y390343D01*
G01X3681971Y390387D01*
G01X3686365Y391113D01*
G01X3686596Y391146D01*
G01X3691021Y391667D01*
G01X3691255Y391689D01*
G01X3695697Y392001D01*
G01X3695928Y392012D01*
G01X3700381Y392119D01*
G01X3700501Y392120D01*
G01X3885921D01*
G01X3886040Y392119D01*
G01X3890493Y392012D01*
G01X3890724Y392001D01*
G01X3895167Y391689D01*
G01X3895400Y391667D01*
G01X3899825Y391146D01*
G01X3900056Y391113D01*
G01X3904450Y390387D01*
G01X3904684Y390343D01*
G01X3909040Y389408D01*
G01X3909266Y389354D01*
G01X3913571Y388218D01*
G01X3913796Y388154D01*
G01X3918045Y386817D01*
G01X3918268Y386742D01*
G01X3922449Y385207D01*
G01X3922668Y385121D01*
G01X3926773Y383391D01*
G01X3926984Y383297D01*
G01X3931005Y381379D01*
G01X3931216Y381272D01*
G01X3935141Y379166D01*
G01X3935345Y379050D01*
G01X3939168Y376762D01*
G01X3939365Y376637D01*
G01X3943076Y374173D01*
G01X3943267Y374040D01*
G01X3946859Y371406D01*
G01X3947046Y371262D01*
G01X3950508Y368463D01*
G01X3950687Y368311D01*
G01X3954017Y365349D01*
G01X3954188Y365190D01*
G01X3957373Y362078D01*
G01X3957537Y361911D01*
G01X3960574Y358652D01*
G01X3960730Y358477D01*
G01X3963611Y355081D01*
G01X3963758Y354898D01*
G01X3966476Y351370D01*
G01X3966615Y351181D01*
G01X3969165Y347528D01*
G01X3969295Y347333D01*
G01X3971670Y343566D01*
G01X3971790Y343365D01*
G01X3973987Y339489D01*
G01X3974097Y339284D01*
G01X3976111Y335312D01*
G01X3976214Y335097D01*
G01X3978037Y331033D01*
G01X3978127Y330820D01*
G01X3979760Y326677D01*
G01X3979842Y326455D01*
G01X3981277Y322238D01*
G01X3981347Y322015D01*
G01X3982584Y317735D01*
G01X3982644Y317507D01*
G01X3983678Y313174D01*
G01X3983727Y312947D01*
G01X3984558Y308573D01*
G01X3984596Y308341D01*
G01X3985221Y303929D01*
G01X3985248Y303695D01*
G01X3985665Y299261D01*
G01X3985681Y299027D01*
G01X3985890Y294579D01*
G01X3985895Y294345D01*
G01Y289890D01*
G01X3985890Y289656D01*
G01X3985681Y285209D01*
G01X3985665Y284975D01*
G01X3985248Y280540D01*
G01X3985221Y280307D01*
G01X3984596Y275895D01*
G01X3984558Y275663D01*
G01X3983727Y271289D01*
G01X3983678Y271061D01*
G01X3982644Y266728D01*
G01X3982584Y266500D01*
G01X3981347Y262220D01*
G01X3981277Y261997D01*
G01X3979842Y257781D01*
G01X3979760Y257558D01*
G01X3978127Y253415D01*
G01X3978037Y253202D01*
G01X3976214Y249138D01*
G01X3976111Y248924D01*
G01X3974097Y244951D01*
G01X3973987Y244747D01*
G01X3971790Y240871D01*
G01X3971670Y240670D01*
G01X3969295Y236903D01*
G01X3969165Y236707D01*
G01X3966615Y233055D01*
G01X3966476Y232866D01*
G01X3963759Y229338D01*
G01X3963758D01*
G01X3963611Y229155D01*
G01X3960730Y225759D01*
G01X3960574Y225583D01*
G01X3957537Y222325D01*
G01X3957373Y222157D01*
G01X3954188Y219046D01*
G01X3954017Y218886D01*
G01X3950687Y215925D01*
G01X3950508Y215773D01*
G01X3947046Y212974D01*
G01X3946859Y212830D01*
G01X3943267Y210196D01*
G01X3943076Y210062D01*
G01X3939365Y207598D01*
G01X3939168Y207474D01*
G01X3935345Y205185D01*
G01X3935141Y205069D01*
G01X3931216Y202964D01*
G01X3931005Y202857D01*
G01X3926984Y200939D01*
G01X3926773Y200844D01*
G01X3922668Y199114D01*
G01X3922449Y199028D01*
G01X3918268Y197494D01*
G01X3918045Y197418D01*
G01X3913796Y196082D01*
G01X3913571Y196017D01*
G01X3909266Y194882D01*
G01X3909040Y194828D01*
G01X3904684Y193893D01*
G01X3904450Y193849D01*
G01X3900056Y193122D01*
G01X3899825Y193090D01*
G01X3895400Y192569D01*
G01X3895167Y192547D01*
G01X3890724Y192234D01*
G01X3890493Y192224D01*
G37*
G54D32*
G01X7098436Y4826000D03*
G01X6947764Y4826000D03*
G54D36*
G01X5462689Y3160852D03*
G01X5462689Y3033852D03*
G01X5462689Y2906852D03*
G01X5462689Y2779852D03*
G01X5462689Y2652852D03*
G01X5462689Y2525852D03*
G01X5462689Y2398852D03*
G01X5462689Y2271852D03*
G01X5462689Y2144852D03*
G01X5462689Y2017852D03*
G01X5462689Y1890852D03*
G01X5462689Y1763852D03*
G01X5462689Y1636852D03*
G01X5462689Y1509852D03*
G54D37*
G01X5791213Y1360348D03*
G01X5918213Y1360348D03*
G01X6045213Y1360348D03*
G01X6172213Y1360348D03*
G01X6299213Y1360348D03*
G01X6426213Y1360348D03*
G01X6553213Y1360348D03*
G01X6680213Y1360348D03*
G01X6807213Y1360348D03*
G01X6934213Y1360348D03*
G54D36*
G01X7262711Y1509852D03*
G01X7262711Y1636852D03*
G01X7262711Y1763852D03*
G01X7262711Y1890852D03*
G01X7262711Y2017852D03*
G01X7262711Y2144852D03*
G01X7262711Y2271852D03*
G01X7262711Y2398852D03*
G01X7262711Y2525852D03*
G01X7262711Y2652852D03*
G01X7262711Y2779852D03*
G01X7262711Y2906852D03*
G01X7262711Y3033852D03*
G01X7262711Y3160852D03*
G54D38*
G01X6212675Y2392756D03*
G01X6072696Y2392756D03*
G01X6352705Y2392756D03*
G01X6352705Y2532761D03*
G01X6212700Y2532761D03*
G01X6072696Y2532761D03*
G01X6072696Y2252751D03*
G01X6212700Y2252751D03*
G01X6352705Y2252751D03*
G54D39*
G01X6497100Y4112700D03*
G01X6497100Y4737700D03*
G01X4427100Y4112700D03*
G54D40*
G01X4393100Y4787700D03*
G01X4768100Y4787700D03*
G54D41*
G01X3517900Y4855108D03*
G01X3517900Y4746092D03*
G54D42*
G01X3695713Y4717910D03*
G01X3695713Y4857890D03*
G54D43*
G01X3340100Y4850600D03*
G01X3340100Y4750600D03*
G54D44*
G01X8118457Y3911595D03*
G01X8416958Y3911595D03*
G54D26*
G01X8331200Y4320184D03*
G01X8331200Y4798416D03*
G54D45*
G01X5207000Y3003398D03*
G01X5207000Y3143402D03*
G01X7569200Y1631798D03*
G01X7569200Y1771802D03*
G54D46*
G01X6972300Y4444136D03*
G01X6972300Y4293464D03*
G54D34*
G01X5207000Y3336392D03*
G01X5207000Y3445408D03*
G54D47*
G01X8460029Y330200D03*
G01X7846771Y330200D03*
G54D45*
G01X7553303Y1277845D03*
G01X7553303Y1417850D03*
G54D48*
G01X6508902Y114300D03*
G01X6368898Y114300D03*
G54D49*
G01X5215992Y127000D03*
G01X5325008Y127000D03*
G54D43*
G01X4836599Y217602D03*
G01X4637603Y217602D03*
G01X4637603Y112598D03*
G01X4836599Y112598D03*
G54D50*
G01X5562600Y1021182D03*
G01X5562600Y934618D03*
G54D51*
G01X8293100Y2956560D03*
G01X8293100Y3469640D03*
G54D52*
G01X2082800Y209042D03*
G01X2082800Y527558D03*
G54D53*
G01X5118100Y679958D03*
G01X5118100Y361442D03*
G54D52*
G01X5257800Y1034542D03*
G01X5257800Y1353058D03*
G54D54*
G01X7644003Y4114800D03*
G01X7849997Y4114800D03*
G54D55*
G01X7607300Y2287397D03*
G01X7607300Y2081403D03*
G54D56*
G01X3928008Y4762500D03*
G01X3818992Y4762500D03*
G54D48*
G01X5277002Y3670300D03*
G01X5136998Y3670300D03*
G54D57*
G01X7166204Y985076D03*
G01X7101205Y985076D03*
G01X7036206Y985076D03*
G01X6971208Y985076D03*
G01X6906209Y985076D03*
G01X6841211Y985076D03*
G01X6776187Y985076D03*
G01X6711188Y985076D03*
G01X6646189Y985076D03*
G01X6581191Y985076D03*
G01X6516192Y985076D03*
G01X6451194Y985076D03*
G01X6386195Y985076D03*
G01X6321196Y985076D03*
G01X7166204Y411925D03*
G01X7101205Y411925D03*
G01X7036206Y411925D03*
G01X6971208Y411925D03*
G01X6906209Y411925D03*
G01X6841211Y411925D03*
G01X6776187Y411925D03*
G01X6711188Y411925D03*
G01X6646189Y411925D03*
G01X6581191Y411925D03*
G01X6516192Y411925D03*
G01X6451194Y411925D03*
G01X6386195Y411925D03*
G01X6321196Y411925D03*
G04 Pad End*

M02*
